<svg width="35" height="35" viewBox="0 0 35 35" fill="none" xmlns="http://www.w3.org/2000/svg">
<path d="M17.2928 0C7.75692 0 0 7.75796 0 17.2934C0 26.8289 7.75692 34.5857 17.2928 34.5857C26.8283 34.5857 34.5857 26.8289 34.5857 17.2934C34.5857 7.75796 26.8284 0 17.2928 0ZM17.2928 31.858C9.26138 31.858 2.72764 25.3243 2.72764 17.2933C2.72764 9.26138 9.26138 2.72764 17.2928 2.72764C25.3243 2.72764 31.858 9.26138 31.858 17.2933C31.858 25.3243 25.3243 31.858 17.2928 31.858Z" fill="black"/>
<path d="M14.5584 13.9042C14.5584 12.8101 16.1585 12.6233 17.5465 12.6233C18.8547 12.6233 20.6422 13.2364 22.1368 14.0113L22.4297 10.9959C21.6823 10.5685 19.9483 10.0614 18.1869 9.95542L18.6138 6.88647H15.7585L16.1859 9.95542C12.5038 10.3018 11.3027 12.4364 11.3027 14.2244C11.3027 18.7338 19.7074 17.7742 19.7074 20.5481C19.7074 21.5897 18.7209 21.9624 16.986 21.9624C14.6383 21.9624 12.8765 21.1361 11.9699 20.2815L11.5158 23.6707C12.3705 24.1778 14.1039 24.6313 16.1859 24.7384L15.7585 27.7004H18.6138L18.1869 24.7112C22.5096 24.3374 23.2833 22.0423 23.2833 20.5219C23.2834 15.1588 14.5584 16.4923 14.5584 13.9042Z" fill="black"/>
</svg>
