<svg width="39" height="39" viewBox="0 0 39 39" fill="none" xmlns="http://www.w3.org/2000/svg">
<path d="M32.71 0L31.5324 1.17399L27.1453 5.56476L28.1146 9.58575L26.2298 11.4742C23.4433 8.99243 19.7825 7.47114 15.7644 7.47114C7.06888 7.47114 0 14.54 0 23.2356C0 31.9311 7.06888 39 15.7644 39C24.46 39 31.5289 31.9311 31.5289 23.2356C31.5289 19.2185 30.0065 15.56 27.5258 12.7738L29.4107 10.8854L33.4352 11.8547L39 6.28998L33.8768 5.12317L32.71 0ZM15.7644 9.30931C19.2854 9.30931 22.4875 10.6223 24.9373 12.7702L22.7976 14.9136C20.8974 13.3051 18.4431 12.3322 15.7644 12.3322C9.75236 12.3322 4.8575 17.2235 4.8575 23.2356C4.8575 29.2476 9.75237 34.1425 15.7644 34.1425C21.7765 34.1425 26.6678 29.2476 26.6678 23.2356C26.6678 20.5633 25.6988 18.1151 24.0972 16.2168L26.237 14.0663C28.382 16.5154 29.6907 19.7173 29.6907 23.2356C29.6907 30.9377 23.4666 37.1618 15.7644 37.1618C8.0623 37.1618 1.83817 30.9377 1.83817 23.2356C1.83817 15.5334 8.0623 9.30931 15.7644 9.30931ZM15.7644 19.6849C16.4194 19.6849 17.0206 19.8723 17.5452 20.1767L14.6263 23.1027L15.9296 24.4024L18.8412 21.4836C19.1353 22.0016 19.3151 22.5927 19.3151 23.2356C19.3151 25.2086 17.7375 26.7898 15.7644 26.7898C13.7914 26.7898 12.2102 25.2086 12.2102 23.2356C12.2102 21.2625 13.7914 19.6849 15.7644 19.6849Z" fill="black"/>
</svg>
