<svg width="40" height="40" viewBox="0 0 40 40" fill="none" xmlns="http://www.w3.org/2000/svg">
<g clip-path="url(#clip0_318_101)">
<path d="M16.9609 15.4797H37.6562V37.6563H16.9609V15.4797ZM2.34375 15.4797H14.6172V37.6563H2.34375V15.4797ZM37.6562 13.1359H2.34375V2.34377H37.6562V13.1359ZM38.8281 0H1.17188C0.525 0 0 0.524238 0 1.17189V38.8281C0 39.475 0.525 40 1.17188 40H38.8281C39.475 40 40 39.475 40 38.8281V1.17189C40 0.524238 39.475 0 38.8281 0Z" fill="black"/>
<path d="M28.9298 31.9882C26.435 31.9882 24.4053 29.9583 24.4053 27.4632C24.4053 25.3737 25.8295 23.6114 27.7579 23.0937V27.4632C27.7579 28.1104 28.2826 28.6351 28.9298 28.6351H33.2996C32.7819 30.5638 31.0194 31.9882 28.9298 31.9882ZM33.2995 26.2913H30.1017V23.0937C31.6561 23.511 32.8821 24.737 33.2995 26.2913ZM28.9298 20.5952C25.1426 20.5952 22.0615 23.6762 22.0615 27.4632C22.0615 31.2507 25.1426 34.3319 28.9298 34.3319C32.717 34.3319 35.798 31.2507 35.798 27.4632C35.798 23.6762 32.717 20.5952 28.9298 20.5952Z" fill="black"/>
<path d="M21.789 6.46948C22.4894 6.46948 23.0593 7.03933 23.0593 7.7398C23.0593 8.44026 22.4894 9.01011 21.789 9.01011C21.0886 9.01011 20.5188 8.44026 20.5188 7.7398C20.5188 7.03933 21.0886 6.46948 21.789 6.46948ZM21.789 11.3539C23.7818 11.3539 25.403 9.73261 25.403 7.7398C25.403 5.74698 23.7818 4.12573 21.789 4.12573C19.7963 4.12573 18.175 5.74698 18.175 7.7398C18.175 9.73261 19.7963 11.3539 21.789 11.3539Z" fill="black"/>
<path d="M31.3579 6.46948C32.0583 6.46948 32.6282 7.03933 32.6282 7.7398C32.6282 8.44026 32.0583 9.01011 31.3579 9.01011C30.6575 9.01011 30.0876 8.44026 30.0876 7.7398C30.0876 7.03933 30.6575 6.46948 31.3579 6.46948ZM31.3579 11.3539C33.3507 11.3539 34.9719 9.73261 34.9719 7.7398C34.9719 5.74698 33.3507 4.12573 31.3579 4.12573C29.3651 4.12573 27.7439 5.74698 27.7439 7.7398C27.7439 9.73261 29.3651 11.3539 31.3579 11.3539Z" fill="black"/>
<path d="M6.19849 24.2937H10.7618C11.409 24.2937 11.9337 23.769 11.9337 23.1218C11.9337 22.4746 11.409 21.95 10.7618 21.95H6.19849C5.5513 21.95 5.02661 22.4746 5.02661 23.1218C5.02661 23.769 5.5513 24.2937 6.19849 24.2937Z" fill="black"/>
<path d="M10.7616 26.2915H6.19824C5.55105 26.2915 5.02637 26.8162 5.02637 27.4634C5.02637 28.1106 5.55105 28.6353 6.19824 28.6353H10.7616C11.4088 28.6353 11.9335 28.1106 11.9335 27.4634C11.9335 26.8162 11.4088 26.2915 10.7616 26.2915Z" fill="black"/>
<path d="M10.7616 30.6335H6.19824C5.55105 30.6335 5.02637 31.1582 5.02637 31.8054C5.02637 32.4526 5.55105 32.9773 6.19824 32.9773H10.7616C11.4088 32.9773 11.9335 32.4526 11.9335 31.8054C11.9335 31.1582 11.4088 30.6335 10.7616 30.6335Z" fill="black"/>
</g>
<defs>
<clipPath id="clip0_318_101">
<rect width="40" height="40" fill="white"/>
</clipPath>
</defs>
</svg>
