<?xml version="1.0" encoding="UTF-8"?>
<svg version="1.1" xmlns="http://www.w3.org/2000/svg" width="194" height="149">
<path d="M0 0 C1.59788375 0.89871599 3.18225934 1.82177707 4.75390625 2.765625 C5.60138428 3.25353516 6.4488623 3.74144531 7.32202148 4.24414062 C10.00575236 5.80504313 12.66370135 7.40261083 15.31640625 9.015625 C16.6626709 9.83256836 16.6626709 9.83256836 18.03613281 10.66601562 C22.23823607 13.233883 26.42012321 15.83335128 30.5703125 18.484375 C31.22330322 18.90138672 31.87629395 19.31839844 32.54907227 19.74804688 C34.36211193 21.04840631 35.86707233 22.317707 37.31640625 24.015625 C37.46875 26.453125 37.46875 26.453125 36.31640625 29.015625 C33.8155261 30.60463188 31.55797567 31.81843867 28.87890625 33.015625 C27.50508768 33.66120164 26.13139155 34.3070389 24.7578125 34.953125 C24.05414551 35.27667969 23.35047852 35.60023437 22.62548828 35.93359375 C18.48063656 37.87586303 14.40164265 39.9515946 10.31640625 42.015625 C10.8261499 42.47412842 11.33589355 42.93263184 11.86108398 43.4050293 C14.16930759 45.49299552 16.4615901 47.59771232 18.75390625 49.703125 C19.95756836 50.7849707 19.95756836 50.7849707 21.18554688 51.88867188 C21.94931641 52.59443359 22.71308594 53.30019531 23.5 54.02734375 C24.56045532 54.99353638 24.56045532 54.99353638 25.64233398 55.97924805 C27.5892374 58.34750259 28.05565273 59.98416536 28.31640625 63.015625 C27.98640625 63.345625 27.65640625 63.675625 27.31640625 64.015625 C28.53328125 64.469375 29.75015625 64.923125 31.00390625 65.390625 C35.5384092 67.67801192 37.26039728 70.54944935 39.50390625 74.9921875 C41.69027029 83.12798446 40.17093618 89.89568948 36.87890625 97.453125 C36.34354248 98.72978027 36.34354248 98.72978027 35.79736328 100.03222656 C34.6626403 102.70534837 33.49577528 105.36192319 32.31640625 108.015625 C31.93178223 108.88654785 31.5471582 109.7574707 31.15087891 110.65478516 C30.01597752 113.20054161 28.86008123 115.73521143 27.69140625 118.265625 C27.34408447 119.02673584 26.9967627 119.78784668 26.63891602 120.57202148 C23.64571766 126.87536147 20.21211173 133.08515468 14.31640625 137.015625 C7.26165858 137.91614376 0.30008688 136.50428203 -6.55859375 134.953125 C-7.54585449 134.73342041 -8.53311523 134.51371582 -9.55029297 134.28735352 C-16.42672523 132.69105851 -23.13482205 130.75170279 -29.80859375 128.453125 C-31.04198486 128.03244751 -31.04198486 128.03244751 -32.30029297 127.60327148 C-36.71487347 126.00785746 -40.27086773 124.36667525 -43.68359375 121.015625 C-43.68359375 120.355625 -43.68359375 119.695625 -43.68359375 119.015625 C-44.34359375 119.015625 -45.00359375 119.015625 -45.68359375 119.015625 C-45.74546875 119.69625 -45.80734375 120.376875 -45.87109375 121.078125 C-47.72114984 127.76678933 -51.89388788 131.58692961 -57.71875 135.0703125 C-65.03256288 138.5890853 -74.89678277 137.82498002 -82.58984375 135.83203125 C-89.17036263 133.26611997 -94.41342192 128.22631424 -97.68359375 122.015625 C-100.13469265 116.14524313 -100.2401343 110.14913597 -98.68359375 104.015625 C-95.47428712 96.24451822 -90.87353279 92.09918648 -83.68359375 88.015625 C-83.8552002 87.44384521 -84.02680664 86.87206543 -84.20361328 86.28295898 C-84.44708496 85.47157471 -84.69055664 84.66019043 -84.94140625 83.82421875 C-85.21629883 82.90882324 -85.49119141 81.99342773 -85.77441406 81.05029297 C-86.38540234 79.01093092 -86.99409123 76.9708787 -87.60058594 74.93017578 C-88.57890511 71.64380763 -89.56822284 68.36087953 -90.55859375 65.078125 C-90.88472656 63.97533203 -91.21085937 62.87253906 -91.546875 61.73632812 C-93.49982188 55.29616284 -95.76282564 49.39835623 -98.93017578 43.45092773 C-99.68359375 41.015625 -99.68359375 41.015625 -99.00341797 38.26586914 C-97.68359375 36.015625 -97.68359375 36.015625 -94.68359375 35.015625 C-92.68348862 34.80650428 -90.68290546 34.60071954 -88.67993164 34.42114258 C-72.54837322 32.93802905 -60.89752695 28.3092112 -48.078125 18.5078125 C-46.36368802 17.19738431 -44.64883273 15.88750326 -42.93359375 14.578125 C-42.07378906 13.92142822 -41.21398437 13.26473145 -40.328125 12.58813477 C-14.2153391 -7.05790229 -14.2153391 -7.05790229 0 0 Z M-50.68359375 95.015625 C-49.36359375 97.655625 -48.04359375 100.295625 -46.68359375 103.015625 C-43.99803435 100.3300656 -43.62309401 97.63941172 -42.68359375 94.015625 C-45.52326606 94.015625 -47.92095086 94.41829681 -50.68359375 95.015625 Z " fill="#FE4C3E" transform="translate(117.68359375,5.984375)"/>
<path d="M0 0 C1.59788375 0.89871599 3.18225934 1.82177707 4.75390625 2.765625 C5.60138428 3.25353516 6.4488623 3.74144531 7.32202148 4.24414062 C10.00575236 5.80504313 12.66370135 7.40261083 15.31640625 9.015625 C16.6626709 9.83256836 16.6626709 9.83256836 18.03613281 10.66601562 C22.23823607 13.233883 26.42012321 15.83335128 30.5703125 18.484375 C31.22330322 18.90138672 31.87629395 19.31839844 32.54907227 19.74804688 C34.36211193 21.04840631 35.86707233 22.317707 37.31640625 24.015625 C37.46875 26.453125 37.46875 26.453125 36.31640625 29.015625 C33.8155261 30.60463188 31.55797567 31.81843867 28.87890625 33.015625 C27.50508768 33.66120164 26.13139155 34.3070389 24.7578125 34.953125 C24.05414551 35.27667969 23.35047852 35.60023437 22.62548828 35.93359375 C18.48063656 37.87586303 14.40164265 39.9515946 10.31640625 42.015625 C10.8261499 42.47412842 11.33589355 42.93263184 11.86108398 43.4050293 C14.16930759 45.49299552 16.4615901 47.59771232 18.75390625 49.703125 C19.95756836 50.7849707 19.95756836 50.7849707 21.18554688 51.88867188 C21.94931641 52.59443359 22.71308594 53.30019531 23.5 54.02734375 C24.56045532 54.99353638 24.56045532 54.99353638 25.64233398 55.97924805 C27.5892374 58.34750259 28.05565273 59.98416536 28.31640625 63.015625 C27.98640625 63.345625 27.65640625 63.675625 27.31640625 64.015625 C20.89179299 63.53727464 15.03770585 61.89311033 8.87890625 60.078125 C-0.61567609 57.36790875 -9.85142569 55.77194562 -19.68359375 55.015625 C-11.03881106 44.09589949 -0.3610996 37.42622909 12.31640625 32.015625 C13.30640625 32.015625 14.29640625 32.015625 15.31640625 32.015625 C15.22101563 31.41234375 15.125625 30.8090625 15.02734375 30.1875 C14.91648437 29.38828125 14.805625 28.5890625 14.69140625 27.765625 C14.57539063 26.97671875 14.459375 26.1878125 14.33984375 25.375 C14.3132123 22.69410041 14.95048541 21.28868411 16.31640625 19.015625 C15.45144531 18.75136719 14.58648437 18.48710937 13.6953125 18.21484375 C9.27113115 16.64464297 5.32532457 14.41692245 1.21875 12.16015625 C-2.07247527 10.86227065 -3.35330695 11.05632798 -6.68359375 12.015625 C-10.98080937 12.35405041 -13.96765256 12.49291913 -17.68359375 10.015625 C-17.68359375 9.355625 -17.68359375 8.695625 -17.68359375 8.015625 C-26.17539145 12.10701516 -33.751912 16.61482852 -41.12109375 22.515625 C-51.1400132 30.49765537 -64.37725312 39.64926027 -77.68359375 39.015625 C-77.35359375 39.675625 -77.02359375 40.335625 -76.68359375 41.015625 C-76.27277953 44.02826262 -76.11065961 46.13018133 -77.80078125 48.7421875 C-79.03771732 50.21672711 -80.35624888 51.62191288 -81.68359375 53.015625 C-81.17828125 53.93085937 -80.67296875 54.84609375 -80.15234375 55.7890625 C-79.49587448 56.98946345 -78.83963645 58.18999087 -78.18359375 59.390625 C-77.68279297 60.29554687 -77.68279297 60.29554687 -77.171875 61.21875 C-74.68359375 65.7890625 -74.68359375 65.7890625 -74.68359375 68.015625 C-73.77867188 67.85513672 -73.77867188 67.85513672 -72.85546875 67.69140625 C-66.28764532 66.70623273 -66.28764532 66.70623273 -63.12109375 68.328125 C-61.68359375 70.015625 -61.68359375 70.015625 -61.68359375 72.015625 C-50.55651345 70.69359566 -41.70037995 68.09180546 -31.87890625 62.66015625 C-28.68359375 61.015625 -28.68359375 61.015625 -25.68359375 61.015625 C-25.95510254 61.52311279 -26.22661133 62.03060059 -26.50634766 62.5534668 C-27.77752421 64.9347038 -29.04377935 67.31850247 -30.30859375 69.703125 C-30.76572754 70.56349365 -31.22286133 71.4238623 -31.69384766 72.31030273 C-34.86116732 78.32059151 -37.72555358 84.36819698 -40.33203125 90.64453125 C-41.86551974 93.33478418 -42.78642205 94.03880083 -45.68359375 95.015625 C-51.36612828 95.78058157 -54.30700343 94.41111014 -58.7890625 91.20703125 C-62.00458741 89.18489703 -65.27313347 88.88614801 -69.01171875 88.69921875 C-69.8109375 88.65732422 -70.61015625 88.61542969 -71.43359375 88.57226562 C-72.25859375 88.53294922 -73.08359375 88.49363281 -73.93359375 88.453125 C-75.19429687 88.38834961 -75.19429687 88.38834961 -76.48046875 88.32226562 C-78.54800046 88.21653957 -80.61577656 88.11561205 -82.68359375 88.015625 C-86.43151035 78.49963818 -89.66841279 68.95715652 -92.48486328 59.1237793 C-94.13102902 53.50129637 -96.14854597 48.35126192 -98.99609375 43.20703125 C-99.68359375 41.015625 -99.68359375 41.015625 -98.99609375 38.29296875 C-97.68359375 36.015625 -97.68359375 36.015625 -94.68359375 35.015625 C-92.68348862 34.80650428 -90.68290546 34.60071954 -88.67993164 34.42114258 C-72.54837322 32.93802905 -60.89752695 28.3092112 -48.078125 18.5078125 C-46.36368802 17.19738431 -44.64883273 15.88750326 -42.93359375 14.578125 C-42.07378906 13.92142822 -41.21398437 13.26473145 -40.328125 12.58813477 C-14.2153391 -7.05790229 -14.2153391 -7.05790229 0 0 Z " fill="#C75F3A" transform="translate(117.68359375,5.984375)"/>
<path d="M0 0 C0.37125 0.495 0.7425 0.99 1.125 1.5 C4.08374967 3.86699974 7.40253507 3.34261571 11 3 C11.77770752 2.79221924 12.55541504 2.58443848 13.35668945 2.37036133 C16.47736994 1.93311442 17.66811527 2.42282313 20.42578125 3.87109375 C21.22177734 4.28037109 22.01777344 4.68964844 22.83789062 5.11132812 C24.06282227 5.7677832 24.06282227 5.7677832 25.3125 6.4375 C26.14845703 6.87126953 26.98441406 7.30503906 27.84570312 7.75195312 C29.90402465 8.82228032 31.95466741 9.90511375 34 11 C33.9278125 11.68707031 33.855625 12.37414063 33.78125 13.08203125 C33.6884375 13.98308594 33.595625 14.88414063 33.5 15.8125 C33.4071875 16.70582031 33.314375 17.59914063 33.21875 18.51953125 C32.95607599 21.08305099 32.95607599 21.08305099 33 24 C32.47680176 24.23074219 31.95360352 24.46148437 31.41455078 24.69921875 C19.63167354 29.94642305 9.6392512 35.14819574 0.5625 44.5 C-10.25240157 55.56699718 -24.72843216 63.45829013 -40.3125 64.375 C-44 64 -44 64 -45.9375 62 C-48.46584323 59.54827323 -49.3268943 59.72870541 -52.75 59.75 C-54.1525 59.8325 -55.555 59.915 -57 60 C-59.64 54.72 -62.28 49.44 -65 44 C-62.525 41.525 -62.525 41.525 -60 39 C-59.40553027 36.80320493 -59.40553027 36.80320493 -59.6875 34.6875 C-59.790625 33.470625 -59.89375 32.25375 -60 31 C-59.319375 30.87625 -58.63875 30.7525 -57.9375 30.625 C-42.82405069 27.40937249 -31.11829388 19.85485759 -19.17773438 10.36816406 C-6.00343344 0 -6.00343344 0 0 0 Z " fill="#FEFCFB" transform="translate(100,14)"/>
<path d="M0 0 C0.96099609 0.5878125 0.96099609 0.5878125 1.94140625 1.1875 C2.53050781 1.538125 3.11960938 1.88875 3.7265625 2.25 C8.30941491 5.49290293 10.55704977 9.89116989 11.94140625 15.1875 C12.87129794 22.93976035 12.64851125 29.74781238 7.94140625 36.1875 C3.89443247 40.87346964 -0.83536765 45.03463617 -7.05859375 46.1875 C-17.22650513 46.82023544 -26.17467622 46.54643016 -34.26953125 39.88671875 C-40.03460777 34.4111548 -42.82031825 28.76864534 -43.16015625 20.80859375 C-42.83567912 12.83394419 -39.53017738 7.12143901 -34.328125 1.2265625 C-25.80781624 -6.01825094 -9.53129024 -4.7739332 0 0 Z " fill="#FEC419" transform="translate(61.05859375,96.8125)"/>
<path d="M0 0 C2.94150643 2.94150643 3.18133558 5.60156518 3.27734375 9.59765625 C3.21226953 15.12496004 1.75075131 19.41398306 -0.4375 24.4375 C-0.79440918 25.28860352 -1.15131836 26.13970703 -1.51904297 27.01660156 C-2.65376595 29.68972337 -3.82063097 32.34629819 -5 35 C-5.38462402 35.87092285 -5.76924805 36.7418457 -6.16552734 37.63916016 C-7.30042873 40.18491661 -8.45632502 42.71958643 -9.625 45.25 C-9.97232178 46.01111084 -10.31964355 46.77222168 -10.67749023 47.55639648 C-13.67068859 53.85973647 -17.10429452 60.06952968 -23 64 C-30.05474767 64.90051876 -37.01631937 63.48865703 -43.875 61.9375 C-45.35589111 61.60794312 -45.35589111 61.60794312 -46.86669922 61.27172852 C-53.74313148 59.67543351 -60.4512283 57.73607779 -67.125 55.4375 C-67.94726074 55.15704834 -68.76952148 54.87659668 -69.61669922 54.58764648 C-74.53947585 52.80857215 -79.52604641 50.94790717 -82 46 C-82.06950541 44.45976004 -82.08452357 42.91665012 -82.0625 41.375 C-82.05347656 40.55773437 -82.04445313 39.74046875 -82.03515625 38.8984375 C-82.02355469 38.27195313 -82.01195313 37.64546875 -82 37 C-79.08365878 36.80497718 -76.16720455 36.61870672 -73.25 36.4375 C-72.425 36.38142578 -71.6 36.32535156 -70.75 36.26757812 C-69.95078125 36.21923828 -69.1515625 36.17089844 -68.328125 36.12109375 C-67.5949707 36.0739624 -66.86181641 36.02683105 -66.10644531 35.97827148 C-63.91642774 36.00086207 -62.09512813 36.38512544 -60 37 C-59.78085938 36.25878906 -59.56171875 35.51757812 -59.3359375 34.75390625 C-57.66192607 31.30309321 -55.7875088 30.06986183 -52.625 27.9375 C-49.066815 25.51582423 -45.95190074 23.14076643 -43 20 C-44.79486204 26.04476527 -47.49322293 31.66175847 -50.125 37.375 C-50.59292969 38.39722656 -51.06085938 39.41945312 -51.54296875 40.47265625 C-52.69258292 42.98303821 -53.84500064 45.49209231 -55 48 C-53.26447096 48.47580074 -51.52875763 48.95092932 -49.79296875 49.42578125 C-48.82641357 49.69044189 -47.8598584 49.95510254 -46.86401367 50.2277832 C-39.17727153 52.30034014 -32.07369353 54.21327454 -24.125 52.3125 C-21.31591896 50.57747936 -21.18463841 49.06909879 -20 46 C-18.78992184 43.71615133 -17.56086912 41.4500014 -16.3125 39.1875 C-9.50108362 26.58957279 -4.26053997 13.66514203 0 0 Z " fill="#903017" transform="translate(155,79)"/>
<path d="M0 0 C6.1186144 0.57107068 12.1017243 2.52669843 17.9375 4.375 C18.58799316 4.57174316 19.23848633 4.76848633 19.90869141 4.97119141 C22.6297002 5.86634429 24.79387469 6.82883161 27.00390625 8.6640625 C29.55369242 14.64356104 26.31549451 21.56618652 24.0625 27.25 C23.79759766 27.94351563 23.53269531 28.63703125 23.25976562 29.3515625 C21.98665502 32.64964557 20.6650024 35.87912594 19 39 C11.8706101 38.38569577 5.33494834 36.50188332 -1.5 34.4375 C-2.60859375 34.10814453 -3.7171875 33.77878906 -4.859375 33.43945312 C-7.57464144 32.63189543 -10.28805315 31.81862271 -13 31 C-12.43177354 26.66486548 -11.36982355 23.15960377 -9.53125 19.19921875 C-9.04269531 18.14025391 -8.55414063 17.08128906 -8.05078125 15.99023438 C-7.53902344 14.90033203 -7.02726562 13.81042969 -6.5 12.6875 C-5.98824219 11.57826172 -5.47648437 10.46902344 -4.94921875 9.32617188 C-1.15752679 1.15752679 -1.15752679 1.15752679 0 0 Z " fill="#FEC318" transform="translate(127,66)"/>
<path d="M0 0 C7.1293899 0.61430423 13.66505166 2.49811668 20.5 4.5625 C21.60859375 4.89185547 22.7171875 5.22121094 23.859375 5.56054688 C26.57464144 6.36810457 29.28805315 7.18137729 32 8 C30.14230093 14.19052487 27.80665341 19.75336238 24.625 25.375 C24.25117188 26.07238281 23.87734375 26.76976563 23.4921875 27.48828125 C21.22663718 31.53058165 19.4097134 34.09999487 15 36 C7.7279946 36.77914344 1.01600418 34.78678611 -6 33 C-7.46859561 32.63219548 -8.937348 32.26501648 -10.40625 31.8984375 C-11.5921875 31.60195312 -12.778125 31.30546875 -14 31 C-9.78010575 20.40537189 -5.27442038 10.1159856 0 0 Z " fill="#C75E38" transform="translate(113,97)"/>
<path d="M0 0 C2.34587573 2.15665133 3.82500903 4.23976772 5.3046875 7.0546875 C5.72363281 7.83457031 6.14257812 8.61445312 6.57421875 9.41796875 C7.43646671 11.04665934 8.29587753 12.67685535 9.15234375 14.30859375 C12.68095795 20.87454857 12.68095795 20.87454857 18 26 C20.85194837 26.35532471 22.89306331 26.40640999 25.6875 26.125 C26.42137939 26.06691162 27.15525879 26.00882324 27.91137695 25.94897461 C38.62201327 24.89842336 48.85518348 21.43485914 59 18 C57.60899158 22.37174074 55.98916246 26.55804919 54.125 30.75 C53.63257813 31.87921875 53.14015625 33.0084375 52.6328125 34.171875 C50.92888483 37.12317556 50.18416964 37.99023414 47 39 C41.31746547 39.76495657 38.37659032 38.39548514 33.89453125 35.19140625 C30.67900634 33.16927203 27.41046028 32.87052301 23.671875 32.68359375 C22.47304688 32.62075195 22.47304688 32.62075195 21.25 32.55664062 C20.425 32.51732422 19.6 32.47800781 18.75 32.4375 C17.48929688 32.37272461 17.48929688 32.37272461 16.203125 32.30664062 C14.13559329 32.20091457 12.06781719 32.09998705 10 32 C5.80260956 21.47854129 2.49800516 11.0499993 0 0 Z " fill="#923117" transform="translate(25,62)"/>
<path d="M0 0 C4.04263411 2.21490799 7.17672985 5.18844747 10.5234375 8.33203125 C11.20792969 8.94884766 11.89242187 9.56566406 12.59765625 10.20117188 C13.57412109 11.11092773 13.57412109 11.11092773 14.5703125 12.0390625 C15.16166992 12.58667236 15.75302734 13.13428223 16.36230469 13.69848633 C18.10461272 15.94690771 18.48929165 17.71169084 18.7734375 20.51953125 C18.2784375 21.01453125 18.2784375 21.01453125 17.7734375 21.51953125 C11.15278201 21.02797446 5.01310087 19.34046058 -1.3515625 17.51953125 C-9.697384 15.11452656 -9.697384 15.11452656 -18.2265625 13.51953125 C-15.71481072 7.8343955 -6.72798759 -1.4518289 0 0 Z " fill="#903017" transform="translate(127.2265625,48.48046875)"/>
<path d="M0 0 C0 5.55523897 -3.15126846 10.61048537 -5.375 15.625 C-5.88289063 16.79546875 -6.39078125 17.9659375 -6.9140625 19.171875 C-7.40390625 20.28304687 -7.89375 21.39421875 -8.3984375 22.5390625 C-8.84880371 23.56209473 -9.29916992 24.58512695 -9.76318359 25.63916016 C-11 28 -11 28 -13 29 C-14.78417969 28.61035156 -14.78417969 28.61035156 -16.921875 27.890625 C-18.08976562 27.50003906 -18.08976562 27.50003906 -19.28125 27.1015625 C-20.0959375 26.82054688 -20.910625 26.53953125 -21.75 26.25 C-22.54921875 25.98445313 -23.3484375 25.71890625 -24.171875 25.4453125 C-28.61629069 23.93947429 -32.95522051 22.41669215 -37 20 C-37.33 19.01 -37.66 18.02 -38 17 C-35.08365878 16.80497718 -32.16720455 16.61870672 -29.25 16.4375 C-28.425 16.38142578 -27.6 16.32535156 -26.75 16.26757812 C-25.95078125 16.21923828 -25.1515625 16.17089844 -24.328125 16.12109375 C-23.5949707 16.0739624 -22.86181641 16.02683105 -22.10644531 15.97827148 C-19.91642774 16.00086207 -18.09512813 16.38512544 -16 17 C-15.78214844 16.25878906 -15.56429687 15.51757812 -15.33984375 14.75390625 C-13.65363522 11.28808406 -11.74892839 10.06601724 -8.5625 7.9375 C-5.0344981 5.56514187 -2.34685152 3.57198756 0 0 Z " fill="#CE1731" transform="translate(111,99)"/>
<path d="M0 0 C-1.6106734 1.07378227 -3.23162083 2.13554812 -4.90234375 3.11328125 C-11.72069562 7.13100491 -15.44660316 11.33980947 -18 19 C-19.02871738 26.71538037 -16.90033377 32.59250496 -13.1875 39.25 C-9.84246594 43.45518568 -5.7463564 45.66773867 -1 48 C-8.3063084 47.9661745 -12.75438583 46.08526789 -18 41 C-23.38192915 35.15364042 -25.32123548 29.01997969 -25 21.125 C-24.07097011 14.26284744 -20.94069602 8.76966117 -15.91796875 4.0390625 C-10.53215036 0.02092128 -6.63132203 -0.63155448 0 0 Z " fill="#FEAC16" transform="translate(43,94)"/>
<path d="M0 0 C2.38224928 2.38224928 2.32017149 3.0502037 2.375 6.3125 C2.29845112 9.71345718 2.04778512 10.91978927 0.25 13.9375 C-2.90572175 16.83024494 -4.73746171 17.84218271 -9 18.375 C-12 18 -12 18 -14.375 16.4375 C-16.64970619 13.02544071 -16.63534983 11.02388226 -16 7 C-11.5244248 1.3735626 -7.22888573 -2.08834477 0 0 Z " fill="#FF5043" transform="translate(89,37)"/>
<path d="M0 0 C0.99 0.33 1.98 0.66 3 1 C3.33 1.99 3.66 2.98 4 4 C4.680625 4.66 5.36125 5.32 6.0625 6 C8 8 8 8 8 11 C6.68 11 5.36 11 4 11 C3.34 10.01 2.68 9.02 2 8 C0.68 8.33 -0.64 8.66 -2 9 C-0.91760447 12.57190523 0.62852365 14.80922242 3.125 17.5 C5.13621334 19.76754445 5.94062404 20.73874579 6.625 23.75 C6 26 6 26 4.1875 27.8125 C2 29 2 29 -1 29 C-1 29.99 -1 30.98 -1 32 C-1.99 32 -2.98 32 -4 32 C-5.5625 29.625 -5.5625 29.625 -7 27 C-7.66 26.34 -8.32 25.68 -9 25 C-9 24.01 -9 23.02 -9 22 C-7.68 22 -6.36 22 -5 22 C-4.34 22.99 -3.68 23.98 -3 25 C-0.41619823 25.25030977 -0.41619823 25.25030977 2 25 C0.91786397 21.42895109 -0.6104892 19.2312025 -3.125 16.5625 C-5.37825672 14.03378402 -5.96373115 13.20955338 -6.5625 9.75 C-5.95523824 6.7811647 -5.47148435 5.71102762 -3 4 C-2.34 4 -1.68 4 -1 4 C-0.67 2.68 -0.34 1.36 0 0 Z " fill="#FFFBEF" transform="translate(49,102)"/>
<path d="M0 0 C4.875 1.75 4.875 1.75 6 4 C9.3 4 12.6 4 16 4 C14 8 14 8 10 10 C10 12.97 10 15.94 10 19 C6 18 6 18 4.75 15.9375 C4.5025 15.298125 4.255 14.65875 4 14 C2.9171875 14.495 2.9171875 14.495 1.8125 15 C-1.01697427 16.00603529 -3.02895466 16.16977402 -6 16 C-5.75 14.1875 -5.75 14.1875 -5 12 C-4.34 11.608125 -3.68 11.21625 -3 10.8125 C-0.10618209 8.18997752 -0.34282776 5.63529563 -0.078125 1.86328125 C-0.05234375 1.24839844 -0.0265625 0.63351563 0 0 Z " fill="#FEF5F4" transform="translate(85,98)"/>
<path d="M0 0 C0.66 0 1.32 0 2 0 C1.8453125 1.8871875 1.8453125 1.8871875 1.6875 3.8125 C1.60375572 5.99669716 1.60375572 5.99669716 2 8 C4.39056942 9.9354148 4.39056942 9.9354148 7 11 C7 11.66 7 12.32 7 13 C4.03 13 1.06 13 -2 13 C-2.66 14.32 -3.32 15.64 -4 17 C-6.125 18.25 -6.125 18.25 -8 19 C-8.125 13.25 -8.125 13.25 -7 11 C-9.475 10.01 -9.475 10.01 -12 9 C-12 8.01 -12 7.02 -12 6 C-9.36 6 -6.72 6 -4 6 C-3.566875 5.071875 -3.566875 5.071875 -3.125 4.125 C-2 2 -2 2 0 0 Z " fill="#FFF5F4" transform="translate(107,67)"/>
<path d="M0 0 C7.32627475 -0.47266289 12.37384327 0.90133798 19 4 C18.67 4.99 18.34 5.98 18 7 C10.88658735 7.45164525 6.28453206 6.32797915 0 3 C0 2.01 0 1.02 0 0 Z " fill="#FFFCF4" transform="translate(127,82)"/>
<path d="M0 0 C-1.5072013 4.20527769 -4.08784509 5.58326589 -7.875 7.75 C-8.92429687 8.36359375 -9.97359375 8.9771875 -11.0546875 9.609375 C-14 11 -14 11 -18 11 C-16.59844241 7.66227007 -15.0490314 5.98250943 -12.125 3.875 C-11.44695312 3.37742187 -10.76890625 2.87984375 -10.0703125 2.3671875 C-4.20927152 -1.50331126 -4.20927152 -1.50331126 0 0 Z " fill="#FF5548" transform="translate(114,26)"/>
<path d="M0 0 C6.46326465 -0.45356243 9.60931587 0.40621058 15 4 C14.67 4.99 14.34 5.98 14 7 C8.32723489 7.29341888 5.00932754 7.00559652 0 4 C0 2.68 0 1.36 0 0 Z " fill="#F9EEEA" transform="translate(120,107)"/>
<path d="M0 0 C5.65394631 -0.34615998 9.03006806 0.56574762 14 3 C14 4.32 14 5.64 14 7 C7.53673535 7.45356243 4.39068413 6.59378942 -1 3 C-0.67 2.01 -0.34 1.02 0 0 Z " fill="#F9EFEB" transform="translate(116,116)"/>
<path d="M0 0 C-1 3 -1 3 -2.890625 4.16796875 C-10.72189969 7.55201294 -10.72189969 7.55201294 -15 7 C-15.33 5.68 -15.66 4.36 -16 3 C-14.08802961 2.29954544 -12.17019565 1.615081 -10.25 0.9375 C-9.18265625 0.55464844 -8.1153125 0.17179687 -7.015625 -0.22265625 C-4.07719958 -0.98010011 -2.77651052 -1.07151741 0 0 Z " fill="#FF5E52" transform="translate(66,56)"/>
</svg>
