<?xml version="1.0" encoding="UTF-8"?>
<svg version="1.1" xmlns="http://www.w3.org/2000/svg" width="178" height="149">
<path d="M0 0 C2.24862335 -0.00539632 4.49724214 -0.01316655 6.74584961 -0.02319336 C11.44658063 -0.03495374 16.14609117 -0.01795721 20.84667969 0.01953125 C26.85272879 0.06511333 32.85591786 0.03885056 38.86186218 -0.00904846 C43.50164081 -0.03804745 48.14074854 -0.02871554 52.7805481 -0.00802612 C54.99399154 -0.00271423 57.20749719 -0.0091512 59.42086792 -0.02786255 C78.82743825 -0.15594352 78.82743825 -0.15594352 85.2421875 4.8984375 C86.5583245 6.24603845 87.83614677 7.63270888 89.0625 9.0625 C90.40792323 10.30123096 91.76096145 11.53179768 93.125 12.75 C110.77052013 31.03588175 117.72026182 53.58432461 117.53759766 78.52514648 C116.87522534 103.48487228 105.67879586 124.55677292 88.3125 142.078125 C87.19875 143.06039062 87.19875 143.06039062 86.0625 144.0625 C85.52750035 144.55001519 84.99250071 145.03753038 84.44128895 145.53981876 C79.05361679 150.06361545 75.07758361 150.94439583 68.14916992 150.88647461 C67.19031387 150.9018074 66.23145782 150.9171402 65.24354553 150.93293762 C62.0927721 150.97443206 58.94398193 150.97177136 55.79296875 150.96484375 C53.58872252 150.9765167 51.38448298 150.9895232 49.18025208 151.00379944 C44.56615301 151.02614492 39.95274269 151.02534429 35.33862305 151.00952148 C29.4468447 150.99215299 23.55790067 151.0429005 17.66659069 151.1125555 C13.11517562 151.15691702 8.56443517 151.15936289 4.01284218 151.15002632 C1.84203801 151.15155896 -0.32880625 151.16714086 -2.49939919 151.19746208 C-21.53789047 151.43076543 -21.53789047 151.43076543 -28.56518555 145.75610352 C-30.06315228 144.23032835 -31.5240408 142.66687754 -32.9375 141.0625 C-34.47022875 139.65685802 -36.01072514 138.25958715 -37.5625 136.875 C-54.82119783 119.06155831 -61.45476975 95.97490633 -61.36181641 71.75195312 C-61.16535694 62.63306967 -59.96190611 54.67957838 -56.9375 46.0625 C-56.57527344 45.01449219 -56.21304688 43.96648438 -55.83984375 42.88671875 C-51.1921819 30.73977881 -44.05330111 19.56310906 -34.56558228 10.62333679 C-32.86495187 9.04846589 -32.86495187 9.04846589 -31.25350952 7.06184387 C-22.66635765 -1.69488011 -11.39776444 -0.09635422 0 0 Z " fill="#EEE2DB" transform="translate(60.9375,-1.0625)"/>
<path d="M0 0 C1.11784882 0.01131958 2.23569763 0.02263916 3.38742065 0.03430176 C6.92415805 0.0787427 10.45669588 0.17905144 13.9921875 0.28125 C16.40358689 0.32141839 18.81505043 0.35791322 21.2265625 0.390625 C27.10818034 0.47837105 32.98738388 0.61188124 38.8671875 0.78125 C36.6338624 3.0145751 35.15966374 3.54845415 32.20703125 4.6015625 C30.70329956 5.14611084 30.70329956 5.14611084 29.16918945 5.70166016 C28.05890381 6.0991748 26.94861816 6.49668945 25.8046875 6.90625 C13.02284668 11.55402979 0.34364259 16.44688701 -12.3203125 21.40625 C-13.25328156 21.77139709 -14.18625061 22.13654419 -15.14749146 22.51275635 C-20.47717001 24.59910655 -25.80555734 26.68872008 -31.1328125 28.78125 C-30.51508538 32.35878624 -29.55525095 35.50126374 -28.1640625 38.8515625 C-27.5618689 40.30526245 -27.5618689 40.30526245 -26.94750977 41.78833008 C-26.51365967 42.81724365 -26.07980957 43.84615723 -25.6328125 44.90625 C-25.18284912 45.97576904 -24.73288574 47.04528809 -24.26928711 48.1472168 C-17.25040181 64.69798251 -9.39571719 80.36742184 -0.1328125 95.78125 C1.58431229 93.53355294 3.14348496 91.32733275 4.6171875 88.90625 C8.88569045 82.97777369 13.85027948 79.04093224 20.8671875 76.78125 C23.42849566 76.44349508 25.97833208 76.21976381 28.5546875 76.03125 C31.24315829 75.74060451 33.45179247 74.98894752 35.8671875 73.78125 C35.5371875 74.44125 35.2071875 75.10125 34.8671875 75.78125 C35.90166016 76.02294922 35.90166016 76.02294922 36.95703125 76.26953125 C46.73015653 79.09824104 51.62080062 85.12410658 56.58203125 93.76953125 C57.9144619 96.89203591 58.28668952 99.22176529 58.4296875 102.59375 C58.51134026 105.394921 58.51134026 105.394921 58.8671875 107.78125 C59.5271875 108.11125 60.1871875 108.44125 60.8671875 108.78125 C60.2896875 109.60625 59.7121875 110.43125 59.1171875 111.28125 C57.49523223 113.68310015 56.24354138 116.07856801 55.0546875 118.71875 C50.97537151 126.9086411 45.15880943 130.53066601 36.83203125 133.93359375 C33.70281263 134.82824519 31.10455533 134.93999166 27.8671875 134.78125 C28.39828125 135.44511719 28.929375 136.10898438 29.4765625 136.79296875 C34.671875 143.28710938 34.671875 143.28710938 39.8671875 149.78125 C32.80606167 150.01089845 25.74590999 150.1676515 18.68188477 150.27563477 C16.28308125 150.32068196 13.88452189 150.38194152 11.48657227 150.46020508 C-11.02056253 151.17597968 -11.02056253 151.17597968 -17.98046875 145.5078125 C-19.41289384 143.97608229 -20.801504 142.40163784 -22.1328125 140.78125 C-23.6609482 139.37061607 -25.20098787 137.97265677 -26.7578125 136.59375 C-44.01651033 118.78030831 -50.65008225 95.69365633 -50.55712891 71.47070312 C-50.36066944 62.35181967 -49.15721861 54.39832838 -46.1328125 45.78125 C-45.77058594 44.73324219 -45.40835938 43.68523438 -45.03515625 42.60546875 C-40.05914983 29.60038078 -32.27693046 18.26731251 -22.1328125 8.78125 C-21.11121033 7.78603081 -21.11121033 7.78603081 -20.06896973 6.77070618 C-13.43743599 0.82911101 -8.76572089 -0.34018435 0 0 Z " fill="#E36453" transform="translate(50.1328125,-0.78125)"/>
<path d="M0 0 C3.94629725 -0.2001243 7.89057241 -0.34399039 11.84082031 -0.43945312 C13.83243758 -0.49873314 15.82264669 -0.60047384 17.8125 -0.703125 C26.15137359 -0.87158709 30.78628257 0.15428063 36.94750977 5.9074707 C37.96349243 6.94327271 37.96349243 6.94327271 39 8 C40.35340959 9.23000022 41.70745668 10.45929983 43.0625 11.6875 C60.70802013 29.97338175 67.65776182 52.52182461 67.47509766 77.46264648 C66.81272534 102.42237228 55.61629586 123.49427292 38.25 141.015625 C37.13625 141.99789062 37.13625 141.99789062 36 143 C35.25556641 143.76981201 35.25556641 143.76981201 34.49609375 144.55517578 C28.07831751 150.43062913 21.30381398 149.6921878 13 149.375 C11.63938219 149.3448505 10.27869974 149.31748348 8.91796875 149.29296875 C5.61031075 149.22259305 2.30600292 149.12416613 -1 149 C2.78252823 144.41787189 6.71080997 140.22385826 11.125 136.25 C11.68703125 135.73759766 12.2490625 135.22519531 12.828125 134.69726562 C13.98710631 133.64092952 15.14758402 132.58623281 16.30957031 131.53320312 C18.88276178 129.19934373 21.44058406 126.84895999 24 124.5 C24.98957134 123.59373691 25.97915476 122.687487 26.96875 121.78125 C30.69649576 118.36414972 34.41150208 114.93325899 38.12255859 111.49804688 C40.86306008 108.96326889 43.61292395 106.44016071 46.3828125 103.9375 C46.92744141 103.44378906 47.47207031 102.95007813 48.03320312 102.44140625 C49.53287857 101.08341793 51.03586407 99.72908759 52.5390625 98.375 C54.63752473 96.3498174 56.349355 94.39288134 58 92 C57.21238281 91.18660156 56.42476562 90.37320313 55.61328125 89.53515625 C37.19888733 70.26441166 0 28.63484514 0 0 Z " fill="#FE8A6D" transform="translate(111,0)"/>
<path d="M0 0 C1.32114304 0.0001133 1.32114304 0.0001133 2.66897583 0.00022888 C3.62109955 0.00539017 4.57322327 0.01055145 5.55419922 0.01586914 C7.01489334 0.01799156 7.01489334 0.01799156 8.50509644 0.02015686 C11.62305745 0.02576566 14.74094732 0.03831966 17.85888672 0.05102539 C19.96956277 0.05603926 22.08023994 0.06060236 24.19091797 0.06469727 C29.37193193 0.07573794 34.55290424 0.09248466 39.73388672 0.11352539 C37.50056161 2.34685049 36.02636295 2.88072954 33.07373047 3.93383789 C31.56999878 4.47838623 31.56999878 4.47838623 30.03588867 5.03393555 C28.92560303 5.4314502 27.81531738 5.82896484 26.67138672 6.23852539 C13.8895459 10.88630518 1.2103418 15.77916241 -11.45361328 20.73852539 C-12.38658234 21.10367249 -13.31955139 21.46881958 -14.28079224 21.84503174 C-19.61047079 23.93138194 -24.93885812 26.02099547 -30.26611328 28.11352539 C-29.67011876 31.57733686 -28.77018317 34.55566624 -27.34814453 37.76586914 C-26.98140625 38.6250293 -26.61466797 39.48418945 -26.23681641 40.36938477 C-25.46424513 42.15815436 -24.68034657 43.94207383 -23.88525391 45.72094727 C-21.11469083 52.29057729 -21.11469083 52.29057729 -21.89501953 56.53149414 C-23.49529837 59.54512466 -25.28330937 62.33759992 -27.26611328 65.11352539 C-26.37923828 65.19602539 -25.49236328 65.27852539 -24.57861328 65.36352539 C-19.89256363 66.42451776 -17.40960372 68.50712797 -14.64501953 72.39086914 C-11.80138447 78.00563866 -12.42937944 85.3614575 -14.26611328 91.30102539 C-16.44724218 96.35486065 -20.47235835 100.22064623 -24.26611328 104.11352539 C-23.28771484 104.56791992 -23.28771484 104.56791992 -22.28955078 105.03149414 C-14.50178811 108.76456622 -7.40828758 112.49311004 -4.26611328 121.11352539 C-3.68669595 124.44395778 -3.4019643 127.73762763 -3.26611328 131.11352539 C-2.60611328 131.11352539 -1.94611328 131.11352539 -1.26611328 131.11352539 C-0.60611328 129.79352539 0.05388672 128.47352539 0.73388672 127.11352539 C0.98138672 127.73227539 1.22888672 128.35102539 1.48388672 128.98852539 C2.94017311 131.46421226 4.11201178 132.06477542 6.73388672 133.11352539 C3.73388672 135.11352539 3.73388672 135.11352539 1.73388672 135.11352539 C1.40388672 136.76352539 1.07388672 138.41352539 0.73388672 140.11352539 C-1.26611328 137.11352539 -1.26611328 137.11352539 -1.26611328 135.11352539 C-2.25611328 135.11352539 -3.24611328 135.11352539 -4.26611328 135.11352539 C-4.51361328 136.04165039 -4.76111328 136.96977539 -5.01611328 137.92602539 C-6.36214247 141.35839981 -7.31622575 142.11695517 -10.26611328 144.11352539 C-27.62381602 128.66487625 -38.00555906 114.57628647 -44.26611328 92.11352539 C-44.59611328 91.12352539 -44.92611328 90.13352539 -45.26611328 89.11352539 C-47.06596014 61.00115868 -41.95708775 37.62592371 -23.70361328 15.67602539 C-18.00453152 9.40150237 -8.83779566 -0.02525084 0 0 Z " fill="#FE8A6E" transform="translate(49.26611328125,-0.113525390625)"/>
<path d="M0 0 C5.06408673 3.46867534 10.28284898 7.92557827 12 14 C12.91645498 21.99988826 12.94113631 29.36337575 8 36 C3.6712641 41.14768594 -2.30028462 45.48252231 -9.1640625 46.23828125 C-17.54405939 46.49101131 -23.69303299 44.44178376 -29.875 38.6875 C-35.71534425 32.25092571 -36.58455552 26.69767863 -36.33984375 18.15234375 C-35.52478311 10.59195365 -31.87785491 6.17525499 -26.07421875 1.4765625 C-17.83017528 -4.39207862 -8.93794971 -4.41438005 0 0 Z " fill="#D28B8B" transform="translate(91,83)"/>
<path d="M0 0 C21.54168874 -1.48229167 21.54168874 -1.48229167 28.375 3.5625 C29.95316098 5.00266598 31.49875705 6.47982246 33 8 C34.35247128 9.06465724 35.70656382 10.12725914 37.0625 11.1875 C47.67422695 20.79894121 55.22286041 33.58726193 60 47 C60 47.99 60 48.98 60 50 C57.5 51.6875 57.5 51.6875 55 53 C55.33 53.66 55.66 54.32 56 55 C55.05125 55.20625 54.1025 55.4125 53.125 55.625 C49.70833333 56.70833333 49.70833333 56.70833333 48.625 60.125 C48.41875 61.07375 48.2125 62.0225 48 63 C46 61 46 61 45 58 C41.99992729 56.29144978 41.99992729 56.29144978 39 55 C39.495 54.01 39.495 54.01 40 53 C38.824375 52.484375 37.64875 51.96875 36.4375 51.4375 C30.59546493 48.52167077 25.51115025 44.14378507 23 38 C23 37.01 23 36.02 23 35 C19.83333333 36.83333333 19.83333333 36.83333333 18 40 C12.97509048 31.11517395 8.57160548 22.04985511 4.5 12.6875 C4.05479004 11.66712646 3.60958008 10.64675293 3.15087891 9.59545898 C0 2.2633922 0 2.2633922 0 0 Z " fill="#FE8B6E" transform="translate(111,0)"/>
<path d="M0 0 C0.66 0.33 1.32 0.66 2 1 C1.67 1.33 1.34 1.66 1 2 C1.68964844 2.16113281 2.37929687 2.32226562 3.08984375 2.48828125 C12.86296903 5.31699104 17.75361312 11.34285658 22.71484375 19.98828125 C24.0472744 23.11078591 24.41950202 25.44051529 24.5625 28.8125 C24.64415276 31.613671 24.64415276 31.613671 25 34 C25.99 34.495 25.99 34.495 27 35 C26.4225 35.825 25.845 36.65 25.25 37.5 C23.62804473 39.90185015 22.37635388 42.29731801 21.1875 44.9375 C17.93185301 51.53712548 12.73597562 56.61529314 5.8515625 59.3359375 C-1.98210428 61.16021607 -11.71826663 61.74100298 -19.0625 58.0625 C-25.28088152 53.78811737 -31.38080287 47.65447253 -33.58984375 40.28125 C-35.45800495 29.89071534 -34.02858677 21.74209079 -28 13 C-22.41081162 6.64300392 -16.23390547 3.18752643 -7.75 2.4375 C-6.91984375 2.39496094 -6.0896875 2.35242188 -5.234375 2.30859375 C-2.71751867 2.12631436 -2.71751867 2.12631436 0 0 Z M-25.625 17.9375 C-29.82136112 24.23204168 -29.68593014 30.65965666 -29 38 C-27.22534135 45.14627643 -21.75335011 49.7734616 -16 54 C-10.38026368 56.86965259 -3.56368108 57.04316614 2.46875 55.27734375 C9.74390972 52.282403 13.92733323 47.6908097 18 41 C19.99265268 35.02204197 20.22177284 27.48999686 18.12890625 21.51171875 C13.98710911 14.51819243 8.07496252 9.67072429 0.25 7.4765625 C-10.62824623 5.17248951 -18.66729011 9.64176898 -25.625 17.9375 Z " fill="#4E3330" transform="translate(84,73)"/>
<path d="M0 0 C-0.68449219 0.54527344 -1.36898437 1.09054688 -2.07421875 1.65234375 C-3.03972656 2.42707031 -4.00523438 3.20179688 -5 4 C-5.52674316 4.42168457 -6.05348633 4.84336914 -6.59619141 5.27783203 C-23.35025127 18.8052565 -34.03495496 34.98972466 -39 56 C-39.26043091 56.88957397 -39.26043091 56.88957397 -39.52612305 57.79711914 C-42.75596411 72.81147048 -41.33060202 91.02374336 -35 105 C-34.6999707 105.67836914 -34.39994141 106.35673828 -34.09082031 107.05566406 C-30.34454315 115.42273161 -26.22160734 123.18830207 -20 130 C-19.26136719 130.81855469 -18.52273437 131.63710937 -17.76171875 132.48046875 C-12.39093958 138.14248634 -6.86789122 142.37614366 -0.2734375 146.50390625 C0.85191406 147.24447266 0.85191406 147.24447266 2 148 C2 148.33 2 148.66 2 149 C-2.45541509 149.75657992 -4.78536742 149.76938603 -8.6640625 147.3125 C-11.54807431 144.97279464 -14.28446239 142.53294781 -17 140 C-17.78761719 139.30390625 -18.57523438 138.6078125 -19.38671875 137.890625 C-34.85332902 123.53070063 -44.42109691 101.8160196 -45.3125 80.90625 C-45.64055672 68.34845869 -45.18029208 56.91040595 -41 45 C-40.63777344 43.95199219 -40.27554688 42.90398438 -39.90234375 41.82421875 C-34.84331954 28.60215886 -17.55990866 -3.05389716 0 0 Z " fill="#E24311" transform="translate(45,0)"/>
<path d="M0 0 C3.93789181 -0.68485075 5.96452692 -0.64444354 9.41015625 1.5 C12.03498555 3.57714467 14.52847588 5.74288254 17 8 C17.69351563 8.61230469 18.38703125 9.22460938 19.1015625 9.85546875 C34.89985655 24.61522952 44.35499974 45.84298439 45.37890625 67.296875 C46.115623 94.37220043 38.43730386 117.027695 19.9921875 137.1953125 C9.01749703 148.51430698 9.01749703 148.51430698 3.71875 149.3671875 C1.5 149.375 1.5 149.375 -2 149 C0.29150311 147.15201362 2.57970519 145.30995689 4.94921875 143.5625 C24.60066038 128.88566029 36.5906448 109.26263984 40.31469727 84.94506836 C43.41270701 61.39071343 36.7654395 39.89151376 22.75 20.9609375 C17.61444298 14.45919063 12.29692964 9.55208764 5.56640625 4.83984375 C3.47131958 3.33788664 1.73625135 1.8892769 0 0 Z " fill="#E2420F" transform="translate(133,0)"/>
<path d="M0 0 C1.89213369 2.38573379 3.02391783 4.07175348 4 7 C-12.68335059 14.87173364 -29.39318822 22.67992235 -46.1875 30.3125 C-46.89873016 30.63614532 -47.60996033 30.95979065 -48.34274292 31.29324341 C-50.36714415 32.21391688 -52.39236121 33.13276532 -54.41796875 34.05078125 C-55.57063232 34.57325439 -56.7232959 35.09572754 -57.91088867 35.6340332 C-65.52296693 39 -65.52296693 39 -69 39 C-71.0702683 34.61590241 -71.0702683 34.61590241 -70.76416016 31.93286133 C-70 30 -70 30 -66.7109375 28.32421875 C-65.27157577 27.76313422 -63.825839 27.21820163 -62.375 26.6875 C-56.85556967 24.60203343 -51.49482838 22.32397694 -46.16015625 19.796875 C-36.91962682 15.42230731 -27.49483049 11.50152148 -18.0625 7.5625 C-16.3000146 6.82384349 -14.53764412 6.08491273 -12.77539062 5.34570312 C-8.51824032 3.56064932 -4.25956933 1.77927327 0 0 Z " fill="#D58E8E" transform="translate(102,7)"/>
<path d="M0 0 C0.96955124 0.00424484 1.93910248 0.00848969 2.93803406 0.01286316 C6.02538175 0.02961475 9.11206937 0.06726086 12.19921875 0.10546875 C14.29621451 0.12052012 16.39322053 0.13420773 18.49023438 0.14648438 C23.62264898 0.17950683 28.75457206 0.23126528 33.88671875 0.29296875 C31.54541809 2.63426941 29.77334429 3.20920191 26.6640625 4.32421875 C25.03694336 4.91529419 25.03694336 4.91529419 23.37695312 5.51831055 C22.20455078 5.93894775 21.03214844 6.35958496 19.82421875 6.79296875 C8.99557707 10.72104831 -1.70683736 14.86693899 -12.32836914 19.33203125 C-13.79971313 19.93724609 -13.79971313 19.93724609 -15.30078125 20.5546875 C-16.16058594 20.91522217 -17.02039063 21.27575684 -17.90625 21.6472168 C-20.11328125 22.29296875 -20.11328125 22.29296875 -23.11328125 21.29296875 C-24.16220363 19.65664983 -25.16234828 17.98811012 -26.11328125 16.29296875 C-26.77328125 15.63296875 -27.43328125 14.97296875 -28.11328125 14.29296875 C-26.05455576 12.51758176 -23.99155126 10.74762691 -21.92578125 8.98046875 C-21.34763672 8.48095703 -20.76949219 7.98144531 -20.17382812 7.46679688 C-19.60341797 6.98017578 -19.03300781 6.49355469 -18.4453125 5.9921875 C-17.92686768 5.54705811 -17.40842285 5.10192871 -16.87426758 4.64331055 C-16.29314209 4.19769775 -15.7120166 3.75208496 -15.11328125 3.29296875 C-14.42814453 2.74833984 -13.74300781 2.20371094 -13.03710938 1.64257812 C-8.71187029 -0.35390832 -4.70567694 -0.07779086 0 0 Z " fill="#FE8B6E" transform="translate(55.11328125,-0.29296875)"/>
<path d="M0 0 C0.66 0 1.32 0 2 0 C2.495 1.175625 2.99 2.35125 3.5 3.5625 C6.23935968 9.01218021 10.38546156 13.46841591 16.07421875 15.87890625 C18.16010589 16.51762852 18.16010589 16.51762852 21 17 C20.34 17.66 19.68 18.32 19 19 C19.94875 19.598125 20.8975 20.19625 21.875 20.8125 C25 23 25 23 27 26 C27.226875 25.21625 27.45375 24.4325 27.6875 23.625 C29 21 29 21 31.625 19.6875 C32.40875 19.460625 33.1925 19.23375 34 19 C33.34 18.34 32.68 17.68 32 17 C34.31 16.34 36.62 15.68 39 15 C42.56756688 24.68339581 43.28970433 33.73159081 43 44 C42.67 44 42.34 44 42 44 C42 40.04 42 36.08 42 32 C34.07224435 33.13253652 28.61754665 35.5225961 22 40 C14.08843268 30.92966777 7.49553485 21.10990242 1 11 C0.38382813 10.05382813 -0.23234375 9.10765625 -0.8671875 8.1328125 C-2 6 -2 6 -1.75 3.25 C-1 1 -1 1 0 0 Z " fill="#E46553" transform="translate(132,35)"/>
<path d="M0 0 C0.33 0.66 0.66 1.32 1 2 C1.99 2.33 2.98 2.66 4 3 C4.11085938 3.71800781 4.22171875 4.43601563 4.3359375 5.17578125 C5.25684283 9.09233746 7.13045129 12.27627352 9.0390625 15.79296875 C9.35617188 16.52128906 9.67328125 17.24960938 10 18 C9.67 18.66 9.34 19.32 9 20 C7.02 19.01 5.04 18.02 3 17 C2.01 19.475 2.01 19.475 1 22 C-5.70434023 22.95776289 -5.70434023 22.95776289 -9.171875 20.39453125 C-11.22453286 18.33801501 -13.13328223 16.22601964 -15 14 C-15.825 13.05125 -16.65 12.1025 -17.5 11.125 C-19 9 -19 9 -19 7 C-18.21496094 6.82984375 -17.42992188 6.6596875 -16.62109375 6.484375 C-10.40756532 5.05107028 -5.33277914 3.51478625 0 0 Z " fill="#D28D8C" transform="translate(97,127)"/>
<path d="M0 0 C5.61 0.33 11.22 0.66 17 1 C17 1.33 17 1.66 17 2 C15.02 2 13.04 2 11 2 C11.53109375 2.66386719 12.0621875 3.32773438 12.609375 4.01171875 C17.8046875 10.50585938 17.8046875 10.50585938 23 17 C14.42 17 5.84 17 -3 17 C-2 8 -2 8 0 0 Z " fill="#D18886" transform="translate(67,132)"/>
<path d="M0 0 C0.66 0.99 1.32 1.98 2 3 C2.98410029 4.20070932 3.98507804 5.38772783 5 6.5625 C5.7734375 7.46162109 5.7734375 7.46162109 6.5625 8.37890625 C7.66670282 9.62413498 8.82316984 10.82316984 10 12 C8.0848421 12.81604999 6.16781166 13.62770632 4.25 14.4375 C3.18265625 14.88996094 2.1153125 15.34242187 1.015625 15.80859375 C-1.3413841 16.73979553 -3.52992835 17.4784072 -6 18 C-6.61875 17.05125 -7.2375 16.1025 -7.875 15.125 C-9.81970969 12.05554891 -9.81970969 12.05554891 -12 10 C-8.04 6.7 -4.08 3.4 0 0 Z " fill="#E36452" transform="translate(39,4)"/>
<path d="M0 0 C1.32 0 2.64 0 4 0 C2.94630562 5.33117361 -0.11950221 9.64244633 -2.875 14.25 C-3.41769531 15.18585938 -3.96039063 16.12171875 -4.51953125 17.0859375 C-5.04675781 17.97023438 -5.57398437 18.85453125 -6.1171875 19.765625 C-6.59784668 20.57805664 -7.07850586 21.39048828 -7.57373047 22.22753906 C-8.04439941 22.81245117 -8.51506836 23.39736328 -9 24 C-9.99 24 -10.98 24 -12 24 C-14.04296875 21.69921875 -14.04296875 21.69921875 -16.1875 18.6875 C-16.90292969 17.70136719 -17.61835937 16.71523437 -18.35546875 15.69921875 C-20 13 -20 13 -20 10 C-17.62051228 10.17625835 -16.29774151 10.69719773 -14.62109375 12.40234375 C-13.37884514 13.90649092 -12.18623944 15.45129851 -11 17 C-7.03981643 11.47131676 -3.24914497 5.97842675 0 0 Z " fill="#F4E5DE" transform="translate(87,92)"/>
<path d="M0 0 C2.31 5.28 4.62 10.56 7 16 C1 16 1 16 -1.1953125 14.42578125 C-2.15050781 13.37970703 -2.15050781 13.37970703 -3.125 12.3125 C-3.79789062 11.58417969 -4.47078125 10.85585937 -5.1640625 10.10546875 C-11 3.41276596 -11 3.41276596 -11 1 C-7.18939869 0.29105092 -3.91978817 0 0 0 Z " fill="#F5E8E0" transform="translate(89,133)"/>
<path d="M0 0 C1.14127623 1.14127623 2.28223736 2.28286879 3.421875 3.42578125 C4.57305686 4.57411365 5.73012787 5.71655111 6.890625 6.85546875 C7.52484375 7.48066406 8.1590625 8.10585937 8.8125 8.75 C9.41707031 9.34296875 10.02164063 9.9359375 10.64453125 10.546875 C12 12 12 12 12 13 C7.05 13 2.1 13 -3 13 C-1.125 1.125 -1.125 1.125 0 0 Z " fill="#E36656" transform="translate(78,136)"/>
<path d="M0 0 C1.8125 0.125 1.8125 0.125 4 1 C5.75 4.0625 5.75 4.0625 7 7 C1.73677223 9.45855991 -3.36691325 11.56176509 -9 13 C-6.38888348 8.16459904 -3.62542917 4.12896099 0 0 Z " fill="#FD896C" transform="translate(26,15)"/>
<path d="M0 0 C0.66 0.33 1.32 0.66 2 1 C2.625 3.5625 2.625 3.5625 3 6 C4.98 6.66 6.96 7.32 9 8 C7 9 5 10 3 11 C2.27306096 12.97888961 1.60183749 14.97954558 1 17 C-1 15 -1 15 -2 12 C-5.00007271 10.29144978 -5.00007271 10.29144978 -8 9 C-7.67 8.34 -7.34 7.68 -7 7 C-3.9375 6.375 -3.9375 6.375 -1 6 C-1.020625 5.195625 -1.04125 4.39125 -1.0625 3.5625 C-1 1 -1 1 0 0 Z " fill="#FDF2F1" transform="translate(158,46)"/>
<path d="M0 0 C0.66 0 1.32 0 2 0 C2.33 1.98 2.66 3.96 3 6 C5.97 6.495 5.97 6.495 9 7 C9 7.66 9 8.32 9 9 C8.21625 9.226875 7.4325 9.45375 6.625 9.6875 C3.78125 10.78125 3.78125 10.78125 2.6875 13.625 C2.3471875 14.800625 2.3471875 14.800625 2 16 C0 15 0 15 -0.8125 13.0625 C-2.39241741 10.31843292 -4.0515206 9.93109876 -7 9 C-7 8.34 -7 7.68 -7 7 C-5.02 6.67 -3.04 6.34 -1 6 C-0.67 4.02 -0.34 2.04 0 0 Z " fill="#FFF5F3" transform="translate(21,76)"/>
<path d="M0 0 C2 2 2 2 2.25 4 C2.4975 4.66 2.745 5.32 3 6 C5.99615946 7.3045656 5.99615946 7.3045656 9 8 C7 10 7 10 5 10.8125 C2.32128129 12.40298924 1.916595 14.09744918 1 17 C-1 15 -1 15 -2 12 C-5.00007271 10.29144978 -5.00007271 10.29144978 -8 9 C-4.25 7 -4.25 7 -2 7 C-1.34 4.69 -0.68 2.38 0 0 Z " fill="#FFF8F6" transform="translate(131,5)"/>
<path d="M0 0 C0.66 0.33 1.32 0.66 2 1 C2.33 1.99 2.66 2.98 3 4 C5.00016466 5.20882096 5.00016466 5.20882096 7 6 C4 8 4 8 2 8 C1.67 9.65 1.34 11.3 1 13 C-1 10 -1 10 -1 8 C-2.65 7.67 -4.3 7.34 -6 7 C-5.67 6.34 -5.34 5.68 -5 5 C-3.68 5 -2.36 5 -1 5 C-0.67 3.35 -0.34 1.7 0 0 Z " fill="#FDF6F5" transform="translate(49,127)"/>
</svg>
