<?xml version="1.0" encoding="UTF-8"?>
<svg version="1.1" xmlns="http://www.w3.org/2000/svg" width="215" height="151">
<path d="M0 0 C7.72841131 -0.36383811 15.4520221 -0.65625619 23.18667889 -0.82899475 C26.78015113 -0.91198281 30.36739273 -1.0240968 33.95727539 -1.20703125 C59.10405053 -2.45631941 59.10405053 -2.45631941 65.82275391 3.59765625 C68.78657689 6.92400537 71.14777131 10.47809259 73.1900177 14.43359375 C73.90044029 16.00154463 73.90044029 16.00154463 75 17 C75.08868299 19.95705321 75.11520296 22.89065056 75.09765625 25.84765625 C75.09553383 27.17729652 75.09553383 27.17729652 75.09336853 28.53379822 C75.08775215 31.37673254 75.07519691 34.21958931 75.0625 37.0625 C75.05748711 38.98502491 75.05292384 40.90755104 75.04882812 42.83007812 C75.03777741 47.55341549 75.02050183 52.27669458 75 57 C77.31 57 79.62 57 82 57 C82 79.44 82 101.88 82 125 C49.75 124.875 49.75 124.875 39.63964844 124.75732422 C36.96287031 124.76917676 34.28610491 124.78472192 31.609375 124.8046875 C30.93086487 124.78930939 30.25235474 124.77393127 29.55328369 124.75808716 C21.52546275 124.59182912 15.8960623 125.27306026 9.890625 131.01367188 C4.51944199 136.06420659 1.05396146 137.1390974 -6.25048828 137.1315918 C-7.4414209 137.08043213 -8.63235352 137.02927246 -9.859375 136.9765625 C-10.98746582 136.9664917 -12.11555664 136.9564209 -13.27783203 136.94604492 C-17.43627612 136.89426728 -21.59325513 136.75465446 -25.75 136.625 C-35.0725 136.41875 -44.395 136.2125 -54 136 C-54 110.92 -54 85.84 -54 60 C-53.01 60 -52.02 60 -51 60 C-51.06807861 59.08412109 -51.13615723 58.16824219 -51.20629883 57.22460938 C-53.30367386 24.7612467 -53.30367386 24.7612467 -45.32470703 15.05078125 C-35.21191228 6.30794 -15.63852233 9.87269789 -3.28198242 10.74609375 C-1.65740112 10.87177734 -1.65740112 10.87177734 0 11 C0 7.37 0 3.74 0 0 Z " fill="#FE615C" transform="translate(98,6)"/>
<path d="M0 0 C18.15 0 36.3 0 55 0 C54 13 54 13 53 15 C58.28 15.33 63.56 15.66 69 16 C69 29.2 69 42.4 69 56 C61.74 56 54.48 56 47 56 C48.32 53.69 49.64 51.38 51 49 C49.865625 48.67 48.73125 48.34 47.5625 48 C42.66251919 46.37186647 38.04001336 44.25780041 33.375 42.0625 C32.65900635 41.72669922 31.9430127 41.39089844 31.20532227 41.04492188 C26.67796304 38.88789414 22.32564415 36.53748416 18 34 C17.57308966 42.44333791 17.36578359 48.75903687 22 56 C18.04 56 14.08 56 10 56 C10 56.99 10 57.98 10 59 C11.65 59 13.3 59 15 59 C15 77.48 15 95.96 15 115 C9.65803544 114.40644838 4.32081865 113.76011695 -1 113 C-1 118.28 -1 123.56 -1 129 C-18.49 129 -35.98 129 -54 129 C-54 105.9 -54 82.8 -54 59 C-33.87 59 -13.74 59 7 59 C7 43.16 7 27.32 7 11 C4.69 11 2.38 11 0 11 C0 7.37 0 3.74 0 0 Z " fill="#E9E3D8" transform="translate(101,10)"/>
<path d="M0 0 C7.54875 0.268125 15.0975 0.53625 22.875 0.8125 C22.875 16.6525 22.875 32.4925 22.875 48.8125 C4.065 48.8125 -14.745 48.8125 -34.125 48.8125 C-34.33125 43.305625 -34.5375 37.79875 -34.75 32.125 C-34.84104004 30.41610596 -34.93208008 28.70721191 -35.02587891 26.9465332 C-35.29750473 18.68666035 -34.55218372 11.27388566 -29.31854248 4.59024048 C-21.91993733 -2.77639898 -9.48587917 -0.47516731 0 0 Z " fill="#FEAF20" transform="translate(85.125,20.1875)"/>
<path d="M0 0 C7.72841131 -0.36383811 15.4520221 -0.65625619 23.18667889 -0.82899475 C26.78015113 -0.91198281 30.36739273 -1.0240968 33.95727539 -1.20703125 C59.10405053 -2.45631941 59.10405053 -2.45631941 65.82275391 3.59765625 C68.78657689 6.92400537 71.14777131 10.47809259 73.1900177 14.43359375 C73.90044029 16.00154463 73.90044029 16.00154463 75 17 C75.08868299 19.95705321 75.11520296 22.89065056 75.09765625 25.84765625 C75.09553383 27.17729652 75.09553383 27.17729652 75.09336853 28.53379822 C75.08775215 31.37673254 75.07519691 34.21958931 75.0625 37.0625 C75.05748711 38.98502491 75.05292384 40.90755104 75.04882812 42.83007812 C75.03777741 47.55341549 75.02050183 52.27669458 75 57 C77.31 57 79.62 57 82 57 C82 79.44 82 101.88 82 125 C49.75 124.875 49.75 124.875 39.63964844 124.75732422 C36.96287031 124.76917676 34.28610491 124.78472192 31.609375 124.8046875 C30.93086487 124.78930939 30.25235474 124.77393127 29.55328369 124.75808716 C21.52546275 124.59182912 15.8960623 125.27306026 9.890625 131.01367188 C4.51944199 136.06420659 1.05396146 137.1390974 -6.25048828 137.1315918 C-7.4414209 137.08043213 -8.63235352 137.02927246 -9.859375 136.9765625 C-10.98746582 136.9664917 -12.11555664 136.9564209 -13.27783203 136.94604492 C-17.43627612 136.89426728 -21.59325513 136.75465446 -25.75 136.625 C-35.0725 136.41875 -44.395 136.2125 -54 136 C-54 110.92 -54 85.84 -54 60 C-53.01 60 -52.02 60 -51 60 C-51.06807861 59.08412109 -51.13615723 58.16824219 -51.20629883 57.22460938 C-53.30367386 24.7612467 -53.30367386 24.7612467 -45.32470703 15.05078125 C-35.21191228 6.30794 -15.63852233 9.87269789 -3.28198242 10.74609375 C-1.65740112 10.87177734 -1.65740112 10.87177734 0 11 C0 7.37 0 3.74 0 0 Z M3 4 C3 7.63 3 11.26 3 15 C1.84064941 14.93192139 0.68129883 14.86384277 -0.51318359 14.79370117 C-4.85428066 14.55669428 -9.19482244 14.40859537 -13.54052734 14.28588867 C-15.41325271 14.22088365 -17.28532754 14.13243278 -19.15576172 14.01928711 C-30.4286727 13.09562262 -30.4286727 13.09562262 -40.49853516 17.30786133 C-46.02403481 22.88371909 -47.76551379 29.23796317 -47.9765625 36.92578125 C-47.95159962 40.06184119 -47.79535501 43.1815035 -47.625 46.3125 C-47.57470456 47.93931398 -47.5291011 49.56628006 -47.48828125 51.19335938 C-47.37941947 55.13274685 -47.20771299 59.06463778 -47 63 C-48.32 63 -49.64 63 -51 63 C-51 86.1 -51 109.2 -51 133 C-33.51 133 -16.02 133 2 133 C2 127.72 2 122.44 2 117 C4.734375 117.52083333 7.46875 118.04166667 10.203125 118.5625 C13.18684279 119.10303017 13.18684279 119.10303017 17 119 C16.505 120.485 16.505 120.485 16 122 C36.79 122 57.58 122 79 122 C79 101.54 79 81.08 79 60 C76.69 60 74.38 60 72 60 C72 46.8 72 33.6 72 20 C66.72 19.67 61.44 19.34 56 19 C56.52083333 17.14453125 57.04166667 15.2890625 57.5625 13.43359375 C58.20642856 10.26384231 58.20642856 10.26384231 58 4 C39.85 4 21.7 4 3 4 Z " fill="#E1420F" transform="translate(98,6)"/>
<path d="M0 0 C4.74096803 3.28003355 8.18162191 7.10295716 9.6875 12.75 C10.46896878 19.59377202 9.79128477 25.09785472 5.6875 30.75 C1.95921461 34.66769026 -1.95840709 37.54788091 -7.40625 38.015625 C-9.09234375 38.00789063 -9.09234375 38.00789063 -10.8125 38 C-11.9365625 38.00515625 -13.060625 38.0103125 -14.21875 38.015625 C-17.16291743 37.76284295 -18.82945505 37.28364541 -21.3125 35.75 C-20.9825 34.43 -20.6525 33.11 -20.3125 31.75 C-21.6325 32.41 -22.9525 33.07 -24.3125 33.75 C-29.36404855 27.82749481 -31.93129709 23.11685054 -31.66015625 15.27734375 C-30.88607028 9.64999969 -28.48485007 5.94899439 -24.5625 1.9375 C-16.44987511 -3.5229206 -8.789645 -5.15311284 0 0 Z " fill="#E7E0D5" transform="translate(92.3125,86.25)"/>
<path d="M0 0 C2.84295931 0.61346418 5.14562303 1.48513223 7.6875 2.890625 C8.38109619 3.26840088 9.07469238 3.64617676 9.78930664 4.03540039 C10.51883545 4.43621826 11.24836426 4.83703613 12 5.25 C18.85752501 8.95850353 25.71327169 12.20605215 33 15 C31.92598892 17.91517292 31.22189824 19.77810176 29 22 C24.91971834 22.59134517 20.80546523 22.55594524 16.6875 22.625 C14.97530273 22.71201172 14.97530273 22.71201172 13.22851562 22.80078125 C5.09382433 22.92439433 5.09382433 22.92439433 2.10546875 20.39892578 C-0.64934533 16.31268345 -1.61677923 12.57511154 -1.375 7.625 C-1.34148437 6.60664062 -1.30796875 5.58828125 -1.2734375 4.5390625 C-1 2 -1 2 0 0 Z " fill="#FEB023" transform="translate(119,44)"/>
<path d="M0 0 C7.24470531 1.0349579 9.95143116 2.16747352 15 7 C18.60100777 11.95138569 18.55350711 17.08173165 18 23 C17.67 23.66 17.34 24.32 17 25 C15.6640522 24.59179373 14.33139832 24.17280893 13 23.75 C12.2575 23.51796875 11.515 23.2859375 10.75 23.046875 C7.05041941 21.63851194 3.54066469 19.77033234 0 18 C0 12.06 0 6.12 0 0 Z " fill="#D09109" transform="translate(138,32)"/>
<path d="M0 0 C0 1.65 0 3.3 0 5 C-1.0725 5.4125 -2.145 5.825 -3.25 6.25 C-7.29267072 7.98957346 -9.74495423 10.18018363 -12.25 13.8125 C-13.5862494 17.70989408 -13.77145325 21.27310674 -12.06640625 25.08984375 C-11.33624075 26.44658725 -10.57478352 27.78714239 -9.77734375 29.10546875 C-8.80918033 31.46506302 -9.1673583 32.63823015 -10 35 C-10.99 35 -11.98 35 -13 35 C-14.3515625 33.3203125 -14.3515625 33.3203125 -15.625 31.125 C-16.05039062 30.40570313 -16.47578125 29.68640625 -16.9140625 28.9453125 C-19.5181263 24.28047879 -19.55076614 20.29821513 -19 15 C-16.93328662 8.16213116 -12.85137833 4.45087712 -6.9375 0.6875 C-4.54538743 -0.16131414 -2.51871051 -0.13992836 0 0 Z " fill="#FD6661" transform="translate(80,84)"/>
<path d="M0 0 C1.65 0 3.3 0 5 0 C4.40812998 6.21463522 2.12453574 10.08791783 -2.5 14.25 C-7.02976579 17.42083605 -9.88835286 18.2757415 -15.5 18.25 C-16.6240625 18.25515625 -17.748125 18.2603125 -18.90625 18.265625 C-21.85041743 18.01284295 -23.51695505 17.53364541 -26 16 C-25.34 14.68 -24.68 13.36 -24 12 C-22.58847656 12.06960937 -22.58847656 12.06960937 -21.1484375 12.140625 C-13.58293732 12.42656457 -13.58293732 12.42656457 -6.375 10.5 C-3.36102273 7.32739234 -1.65880868 4.02017161 0 0 Z " fill="#FDB22A" transform="translate(97,106)"/>
<path d="M0 0 C0 5.61 0 11.22 0 17 C-4.62 14.69 -9.24 12.38 -14 10 C-14 8.68 -14 7.36 -14 6 C-8.84951418 1.18541543 -7.17130604 0 0 0 Z " fill="#F6706B" transform="translate(133,30)"/>
<path d="M0 0 C6.72383291 0.53790663 10.67488416 2.48112451 15.25 7.4375 C18.12941925 11.65379247 19.29263503 14.87888692 19 20 C17.35 20 15.7 20 14 20 C13.608125 18.783125 13.21625 17.56625 12.8125 16.3125 C11.26955063 12.23882526 9.46965122 9.74344515 6 7 C2.83298577 5.66436389 2.83298577 5.66436389 0 5 C0 3.35 0 1.7 0 0 Z " fill="#0C181D" transform="translate(83,84)"/>
<path d="M0 0 C6.02793513 0 9.4531674 0.44299436 15 2 C15 2.66 15 3.32 15 4 C12.98828125 5.83984375 12.98828125 5.83984375 10.3125 7.9375 C9.44238281 8.62714844 8.57226562 9.31679687 7.67578125 10.02734375 C5 12 5 12 0 15 C0 10.05 0 5.1 0 0 Z " fill="#111A1F" transform="translate(100,123)"/>
<path d="M0 0 C4.85603263 4.55253059 9.02119396 9.66859736 13 15 C13 15.33 13 15.66 13 16 C11.4584364 16.02741912 9.91672526 16.04658248 8.375 16.0625 C7.51648438 16.07410156 6.65796875 16.08570312 5.7734375 16.09765625 C2.77733588 15.99215971 -0.05545329 15.54832468 -3 15 C-2.69163768 12.87439563 -2.37818386 10.74952935 -2.0625 8.625 C-1.88847656 7.44164062 -1.71445313 6.25828125 -1.53515625 5.0390625 C-1 2 -1 2 0 0 Z " fill="#121A1E" transform="translate(157,10)"/>
<path d="M0 0 C1.65 0 3.3 0 5 0 C5 7.59 5 15.18 5 23 C3.35 23 1.7 23 0 23 C0 15.41 0 7.82 0 0 Z " fill="#FF6259" transform="translate(87,38)"/>
<path d="M0 0 C6.27 0 12.54 0 19 0 C19 1.98 19 3.96 19 6 C12.73 6 6.46 6 0 6 C0 4.02 0 2.04 0 0 Z " fill="#B3ADA4" transform="translate(72,101)"/>
<path d="M0 0 C2.3125 0.0625 2.3125 0.0625 5 1 C6.75 4.5 6.75 4.5 8 8 C9.02589523 9.22177784 9.02589523 9.22177784 11.16796875 9.34375 C15.03808025 8.87399854 17.37325744 6.87853651 20.3125 4.5 C20.86228516 4.07074219 21.41207031 3.64148438 21.97851562 3.19921875 C23.32746102 2.14352235 24.66491846 1.07317559 26 0 C26 0.99 26 1.98 26 3 C23.6640625 5.04296875 23.6640625 5.04296875 20.625 7.1875 C19.62726563 7.90292969 18.62953125 8.61835937 17.6015625 9.35546875 C15 11 15 11 13 11 C13 12.32 13 13.64 13 15 C11.35 15 9.7 15 8 15 C5.125 8.375 5.125 8.375 4 5 C1.98491642 4.26676204 1.98491642 4.26676204 0 4 C0 2.68 0 1.36 0 0 Z " fill="#FFC381" transform="translate(136,96)"/>
<path d="M0 0 C3.44098882 3.44098882 2.67149426 8.29141772 3 13 C-0.96 13 -4.92 13 -9 13 C-7.31626595 9.6325319 -5.68918436 7.16415809 -3.375 4.25 C-2.74335937 3.45078125 -2.11171875 2.6515625 -1.4609375 1.828125 C-0.97882812 1.22484375 -0.49671875 0.6215625 0 0 Z " fill="#F98808" transform="translate(61,21)"/>
<path d="M0 0 C1.65 0 3.3 0 5 0 C5 5.61 5 11.22 5 17 C3.35 17 1.7 17 0 17 C0 11.39 0 5.78 0 0 Z " fill="#F77165" transform="translate(77,44)"/>
<path d="M0 0 C1.65 0 3.3 0 5 0 C5 3.63 5 7.26 5 11 C3.35 11 1.7 11 0 11 C0 7.37 0 3.74 0 0 Z " fill="#0E1715" transform="translate(67,50)"/>
<path d="M0 0 C2.3125 0.0625 2.3125 0.0625 5 1 C6.70004794 4.27866388 7.8348895 7.50466851 9 11 C8.34 11 7.68 11 7 11 C4 7.53846154 4 7.53846154 4 5 C2.68 4.67 1.36 4.34 0 4 C0 2.68 0 1.36 0 0 Z " fill="#FFB960" transform="translate(136,96)"/>
<path d="M0 0 C1.98 0.495 1.98 0.495 4 1 C3.67 2.65 3.34 4.3 3 6 C1.68 5.67 0.36 5.34 -1 5 C-0.67 3.35 -0.34 1.7 0 0 Z " fill="#FFA926" transform="translate(164,92)"/>
</svg>
