<?xml version="1.0" encoding="UTF-8"?>
<svg version="1.1" xmlns="http://www.w3.org/2000/svg" width="235" height="150">
<path d="M0 0 C3.95746551 3.05804153 6.06654619 6.42076729 8 11 C8 11.66 8 12.32 8 13 C8.763125 13.20625 9.52625 13.4125 10.3125 13.625 C13.91654303 15.46892899 14.56396784 17.26631638 16 21 C17.38494716 26.32671986 17.38494716 26.32671986 16.00390625 28.7421875 C14.19139968 32.81856414 15.08856131 37.31203746 15.3203125 41.6875 C15 45 15 45 13.1171875 47.375 C11 49 11 49 9 50 C8.97716446 50.5593222 8.95432892 51.11864441 8.93080139 51.69491577 C8.69281274 57.50225169 8.448489 63.30929622 8.20043945 69.11621094 C8.10863429 71.28508762 8.01845945 73.45403394 7.92993164 75.62304688 C7.80260166 78.73587358 7.66946229 81.84840497 7.53515625 84.9609375 C7.49656998 85.934935 7.4579837 86.9089325 7.41822815 87.91244507 C7.37826218 88.81322784 7.3382962 89.71401062 7.29711914 90.64208984 C7.26380997 91.43706879 7.23050079 92.23204773 7.19618225 93.05111694 C7 95 7 95 6 97 C5.87064845 98.89428163 5.77080021 100.79063527 5.6875 102.6875 C5.15734612 109.21307055 4.10402763 113.03362326 -0.76171875 117.68359375 C-5.29366161 121.39640352 -9.2595448 122.97491871 -15 124 C-15.0825 125.051875 -15.165 126.10375 -15.25 127.1875 C-16.19903762 132.01177458 -17.66646096 134.31588928 -21.65625 137.1953125 C-27.16211304 140.42210928 -32.73161734 141.09265386 -39 140 C-44.3202327 137.56604739 -45.94204448 133.09588987 -48 128 C-49.485 127.505 -49.485 127.505 -51 127 C-50.94779297 128.46373047 -50.94779297 128.46373047 -50.89453125 129.95703125 C-50.86746094 131.22933594 -50.84039062 132.50164062 -50.8125 133.8125 C-50.77769531 135.07707031 -50.74289063 136.34164062 -50.70703125 137.64453125 C-51 141 -51 141 -52.29296875 142.93359375 C-55.11194069 144.69464487 -57.77204091 144.23056851 -61 144 C-61.99 143.67 -62.98 143.34 -64 143 C-70.04639694 142.56921345 -75.11265208 143.9330783 -80.875 145.5 C-90.42392826 147.96176049 -99.18882675 148.57864062 -109 148 C-113.98033251 138.7479989 -118.14121936 129.73185131 -117 119 C-116.505 117.515 -116.505 117.515 -116 116 C-116.55429688 115.74605469 -117.10859375 115.49210937 -117.6796875 115.23046875 C-118.76636719 114.71419922 -118.76636719 114.71419922 -119.875 114.1875 C-120.59429687 113.85105469 -121.31359375 113.51460938 -122.0546875 113.16796875 C-124 112 -124 112 -126 109 C-126.51571074 106.8186808 -126.94563235 104.61669506 -127.32861328 102.40820312 C-127.50461563 101.40992493 -127.50461563 101.40992493 -127.68417358 100.39147949 C-128.07027373 98.18928337 -128.44568935 95.98542541 -128.8203125 93.78125 C-129.0861318 92.2424092 -129.35232194 90.70363242 -129.61886597 89.16491699 C-130.17668088 85.93431932 -130.72905778 82.70284834 -131.27783203 79.47070312 C-131.97724982 75.3546729 -132.69132803 71.24134879 -133.40980721 67.1286087 C-133.96370549 63.94671683 -134.50890774 60.76337922 -135.05169296 57.57957458 C-135.31121414 56.06424357 -135.57351324 54.54938532 -135.83877945 53.03504944 C-139.65599892 31.1729757 -139.65599892 31.1729757 -136.41796875 24.96875 C-120.34614277 11.88280445 -86.70117683 11.8263957 -67 10 C-66.24412598 9.92797363 -65.48825195 9.85594727 -64.70947266 9.78173828 C-57.24756074 9.10631432 -49.97182707 8.97729731 -42.4921875 9.26171875 C-40.41620071 9.32103883 -38.34014504 9.37624946 -36.26400757 9.43002319 C-34.24523446 9.49805439 -32.2284214 9.61802838 -30.2121582 9.73950195 C-21.11976005 9.98527356 -16.30410708 8.00890258 -9.7746582 1.95117188 C-6.25689523 -0.52255991 -4.21574225 -0.52190487 0 0 Z " fill="#D4755D" transform="translate(197,2)"/>
<path d="M0 0 C3.95746551 3.05804153 6.06654619 6.42076729 8 11 C8 11.66 8 12.32 8 13 C8.763125 13.20625 9.52625 13.4125 10.3125 13.625 C13.91654303 15.46892899 14.56396784 17.26631638 16 21 C17.38494716 26.32671986 17.38494716 26.32671986 16.00390625 28.7421875 C14.19139968 32.81856414 15.08856131 37.31203746 15.3203125 41.6875 C15 45 15 45 13.1171875 47.375 C11 49 11 49 9 50 C8.97716446 50.5593222 8.95432892 51.11864441 8.93080139 51.69491577 C8.69281274 57.50225169 8.448489 63.30929622 8.20043945 69.11621094 C8.10863429 71.28508762 8.01845945 73.45403394 7.92993164 75.62304688 C7.80260166 78.73587358 7.66946229 81.84840497 7.53515625 84.9609375 C7.49656998 85.934935 7.4579837 86.9089325 7.41822815 87.91244507 C7.37826218 88.81322784 7.3382962 89.71401062 7.29711914 90.64208984 C7.26380997 91.43706879 7.23050079 92.23204773 7.19618225 93.05111694 C7 95 7 95 6 97 C5.87064845 98.89428163 5.77080021 100.79063527 5.6875 102.6875 C5.15734612 109.21307055 4.10402763 113.03362326 -0.76171875 117.68359375 C-5.29366161 121.39640352 -9.2595448 122.97491871 -15 124 C-15.0825 125.051875 -15.165 126.10375 -15.25 127.1875 C-16.19903762 132.01177458 -17.66646096 134.31588928 -21.65625 137.1953125 C-27.16211304 140.42210928 -32.73161734 141.09265386 -39 140 C-44.3202327 137.56604739 -45.94204448 133.09588987 -48 128 C-49.485 127.505 -49.485 127.505 -51 127 C-50.94779297 128.46373047 -50.94779297 128.46373047 -50.89453125 129.95703125 C-50.86746094 131.22933594 -50.84039062 132.50164062 -50.8125 133.8125 C-50.77769531 135.07707031 -50.74289063 136.34164062 -50.70703125 137.64453125 C-51 141 -51 141 -52.29296875 142.93359375 C-55.11194069 144.69464487 -57.77204091 144.23056851 -61 144 C-61.99 143.67 -62.98 143.34 -64 143 C-70.04639694 142.56921345 -75.11265208 143.9330783 -80.875 145.5 C-90.42392826 147.96176049 -99.18882675 148.57864062 -109 148 C-113.98033251 138.7479989 -118.14121936 129.73185131 -117 119 C-116.505 117.515 -116.505 117.515 -116 116 C-116.55429688 115.74605469 -117.10859375 115.49210937 -117.6796875 115.23046875 C-118.76636719 114.71419922 -118.76636719 114.71419922 -119.875 114.1875 C-120.59429687 113.85105469 -121.31359375 113.51460938 -122.0546875 113.16796875 C-124 112 -124 112 -126 109 C-126.51571074 106.8186808 -126.94563235 104.61669506 -127.32861328 102.40820312 C-127.50461563 101.40992493 -127.50461563 101.40992493 -127.68417358 100.39147949 C-128.07027373 98.18928337 -128.44568935 95.98542541 -128.8203125 93.78125 C-129.0861318 92.2424092 -129.35232194 90.70363242 -129.61886597 89.16491699 C-130.17668088 85.93431932 -130.72905778 82.70284834 -131.27783203 79.47070312 C-131.97724982 75.3546729 -132.69132803 71.24134879 -133.40980721 67.1286087 C-133.96370549 63.94671683 -134.50890774 60.76337922 -135.05169296 57.57957458 C-135.31121414 56.06424357 -135.57351324 54.54938532 -135.83877945 53.03504944 C-139.65599892 31.1729757 -139.65599892 31.1729757 -136.41796875 24.96875 C-120.34614277 11.88280445 -86.70117683 11.8263957 -67 10 C-66.24412598 9.92797363 -65.48825195 9.85594727 -64.70947266 9.78173828 C-57.24756074 9.10631432 -49.97182707 8.97729731 -42.4921875 9.26171875 C-40.41620071 9.32103883 -38.34014504 9.37624946 -36.26400757 9.43002319 C-34.24523446 9.49805439 -32.2284214 9.61802838 -30.2121582 9.73950195 C-21.11976005 9.98527356 -16.30410708 8.00890258 -9.7746582 1.95117188 C-6.25689523 -0.52255991 -4.21574225 -0.52190487 0 0 Z M-100 29 C-101.0420459 29.23654297 -102.0840918 29.47308594 -103.15771484 29.71679688 C-106.52457745 30.48731777 -109.88794013 31.27129737 -113.25 32.0625 C-114.82213257 32.43048706 -114.82213257 32.43048706 -116.42602539 32.8059082 C-122.13878764 34.1821499 -127.54873789 35.80254147 -133 38 C-132.79246094 39.29421875 -132.58492188 40.5884375 -132.37109375 41.921875 C-132.22663818 42.82470215 -132.08218262 43.7275293 -131.93334961 44.65771484 C-131.59585361 46.76245357 -131.25676177 48.86693689 -130.91625977 50.97119141 C-129.82121505 57.76560528 -128.75859591 64.56372791 -127.73228455 71.36889648 C-127.12755137 75.36796289 -126.51293831 79.36548512 -125.89749146 83.36291504 C-125.59073373 85.37160525 -125.28838726 87.38097408 -124.990448 89.39099121 C-124.56612362 92.2494922 -124.12645964 95.10525879 -123.68359375 97.9609375 C-123.55863525 98.82868805 -123.43367676 99.6964386 -123.30493164 100.59048462 C-123.17779785 101.39126434 -123.05066406 102.19204407 -122.91967773 103.01708984 C-122.81405014 103.71667816 -122.70842255 104.41626648 -122.59959412 105.13705444 C-121.8482832 107.47138576 -120.93487672 108.50892572 -119 110 C-114.11204917 110.41262161 -109.77113659 109.68918559 -105.01171875 108.609375 C-103.6653274 108.31059177 -102.31888994 108.01201631 -100.97241211 107.71362305 C-100.2738913 107.55614594 -99.57537048 107.39866882 -98.85568237 107.23641968 C-75.72316947 102.04676884 -52.66766884 98.58774108 -29 97 C-29.4846875 97.7425 -29.969375 98.485 -30.46875 99.25 C-32.55792732 103.00199191 -32.83529934 105.81506592 -32 110 C-30.487428 113.26557234 -30.487428 113.26557234 -27 115 C-20.8333587 115.99778546 -14.92304264 116.06051867 -9.4375 112.8125 C-3.98961631 108.70369697 -1.58795045 104.55611154 0.2890625 98.0859375 C1 96 1 96 3 93 C3.28905027 90.79895221 3.28905027 90.79895221 3.22705078 88.3449707 C3.22689972 87.40422195 3.22674866 86.46347321 3.22659302 85.49421692 C3.21627045 84.48163315 3.20594788 83.46904938 3.1953125 82.42578125 C3.1924826 81.38681198 3.18965271 80.34784271 3.18673706 79.27738953 C3.17553282 75.95564303 3.15042764 72.63416515 3.125 69.3125 C3.11497052 67.06185285 3.10584462 64.81120148 3.09765625 62.56054688 C3.0755927 57.04027278 3.04211271 51.52015558 3 46 C-0.60574509 46.59497294 -4.20923253 47.20271627 -7.8125 47.8125 C-8.81732422 47.97814453 -9.82214844 48.14378906 -10.85742188 48.31445312 C-16.88613118 49.34185375 -22.73914123 50.63955672 -28.61938477 52.32299805 C-35.67653168 54.32991717 -35.67653168 54.32991717 -39 53 C-47.84228971 43.32404774 -47.84228971 43.32404774 -48.1015625 37.859375 C-46.39049504 34.9711902 -44.02352746 33.44740472 -41.3125 31.5 C-40.27738281 30.7471875 -39.24226563 29.994375 -38.17578125 29.21875 C-36.00192175 27.69998961 -33.82570839 26.22704813 -31.60546875 24.78125 C-30.31576172 23.89953125 -30.31576172 23.89953125 -29 23 C-29 22.67 -29 22.34 -29 22 C-53.13584893 21.38956024 -76.46508588 23.62302959 -100 29 Z " fill="#E1410E" transform="translate(197,2)"/>
<path d="M0 0 C9.38195713 8.54370667 14.1957979 22.52463214 15 35 C15.03294169 41.02466965 14.56984417 47.00633786 14 53 C13.67 53 13.34 53 13 53 C12.67 48.38 12.34 43.76 12 39 C7.99951023 39.78925325 3.9996118 40.58132007 0 41.375 C-1.12535156 41.59671875 -2.25070313 41.8184375 -3.41015625 42.046875 C-10.40161665 43.43312783 -10.40161665 43.43312783 -17.3125 45.1640625 C-21.68650215 46.15562655 -24.53561326 46.63453212 -29 46 C-31.40343122 44.0926797 -32.92264687 41.82071844 -34.5625 39.25 C-35.01173828 38.61578125 -35.46097656 37.9815625 -35.92382812 37.328125 C-39.08150109 32.65729904 -39.08150109 32.65729904 -38.74047852 29.90698242 C-37.64052312 27.07422555 -35.76956321 25.88916831 -33.375 24.0625 C-32.11816406 23.08990234 -32.11816406 23.08990234 -30.8359375 22.09765625 C-27.58403933 19.69232661 -24.29824584 17.34134736 -21 15 C-56.1919081 14.01373641 -89.09508666 21.48321555 -123 30 C-124.171875 24.140625 -124.171875 24.140625 -124 22 C-120.92178271 18.12084208 -118.04039696 17.13330015 -113.3046875 15.96484375 C-112.64810654 15.80082062 -111.99152557 15.63679749 -111.31504822 15.46780396 C-109.17217213 14.94018707 -107.02458424 14.43703303 -104.875 13.9375 C-104.14090912 13.76258026 -103.40681824 13.58766052 -102.65048218 13.40744019 C-88.87251048 10.13891933 -75.12198904 8.10792445 -61 7 C-59.96786377 6.9086377 -58.93572754 6.81727539 -57.87231445 6.72314453 C-50.95087906 6.15434277 -44.06941952 5.91953551 -37.12890625 5.859375 C-36.26914688 5.84974228 -35.40938751 5.84010956 -34.52357483 5.83018494 C-27.36161604 5.75014379 -27.36161604 5.75014379 -23.84887695 5.74951172 C-21.2123139 5.74617218 -18.57763911 5.71166387 -15.94140625 5.671875 C-14.74905113 5.68247955 -14.74905113 5.68247955 -13.53260803 5.69329834 C-7.5499356 5.56324111 -4.5829258 3.83007363 0 0 Z " fill="#FD693C" transform="translate(187,10)"/>
<path d="M0 0 C2.29137522 2.98715232 2.1473093 6.71064558 2.44921875 10.35131836 C2.52269531 11.12088867 2.59617188 11.89045898 2.671875 12.68334961 C2.82017669 14.23661463 2.96374138 15.79033931 3.10253906 17.34448242 C3.45622127 21.14461856 3.89279128 24.93429796 4.32421875 28.72631836 C1.43651722 29.6129474 0.58018398 29.82156124 -2.36328125 28.72631836 C-10.23113573 26.35111701 -19.09444455 29.69682348 -26.80078125 31.72631836 C-39.36864143 35.01162829 -39.36864143 35.01162829 -45.67578125 35.72631836 C-54.72293825 18.92445537 -54.72293825 18.92445537 -53.67578125 10.72631836 C-51.37331145 6.96266579 -46.94039569 6.3548877 -42.92578125 5.28881836 C-42.14734863 5.07781494 -41.36891602 4.86681152 -40.56689453 4.64941406 C-33.95210576 2.92542259 -27.27983889 1.60598705 -20.55078125 0.41381836 C-19.59204102 0.24245361 -18.63330078 0.07108887 -17.64550781 -0.10546875 C-3.30939159 -2.51531118 -3.30939159 -2.51531118 0 0 Z " fill="#FEB26A" transform="translate(137.67578125,112.273681640625)"/>
<path d="M0 0 C1.81510292 0.00502933 3.6302072 0.00958968 5.4453125 0.01367188 C9.83857608 0.02455402 14.23177246 0.04173806 18.625 0.0625 C12.63016281 6.11849278 8.74219954 8.47773955 0.17431641 8.61645508 C-0.91445801 8.6192749 -2.00323242 8.62209473 -3.125 8.625 C-35.16812892 9.30113942 -65.43898726 16.29149202 -96.375 24.0625 C-97.546875 18.203125 -97.546875 18.203125 -97.375 16.0625 C-94.29678271 12.18334208 -91.41539696 11.19580015 -86.6796875 10.02734375 C-86.02310654 9.86332062 -85.36652557 9.69929749 -84.69004822 9.53030396 C-82.54717213 9.00268707 -80.39958424 8.49953303 -78.25 8 C-77.51590912 7.82508026 -76.78181824 7.65016052 -76.02548218 7.46994019 C-62.24694154 4.20128436 -48.49708697 2.17381064 -34.375 1.0625 C-33.34213867 0.9689624 -32.30927734 0.8754248 -31.24511719 0.77905273 C-20.8266937 -0.09270847 -10.44507417 -0.05088134 0 0 Z " fill="#E3683B" transform="translate(160.375,15.9375)"/>
<path d="M0 0 C2.5625 1.6875 2.5625 1.6875 4.5625 4.6875 C5.07660028 8.54325207 4.73814278 10.3622356 2.875 13.8125 C-1.02254292 18.6580939 -5.21483003 22.29649917 -11.49609375 23.05859375 C-20.5288544 23.23611621 -20.5288544 23.23611621 -24.75 20.6875 C-26.46095036 17.64581047 -27.28436033 15.3362072 -27.05078125 11.8125 C-25.4254771 6.18087288 -20.92587491 2.56949995 -16.0625 -0.3125 C-10.29035971 -1.90481456 -5.63374567 -2.15106653 0 0 Z " fill="#FBC638" transform="translate(191.4375,94.3125)"/>
<path d="M0 0 C4.73003899 0.2382034 8.36965942 2.76239577 12.25 5.25 C12.88679687 5.63285156 13.52359375 6.01570313 14.1796875 6.41015625 C16.86004394 8.11531917 18.75968574 9.56398071 20.3046875 12.3671875 C19.8027566 16.70438532 16.92546846 18.94135799 13.875 21.875 C13.29234375 22.48085937 12.7096875 23.08671875 12.109375 23.7109375 C7.76393524 27.99791843 7.76393524 27.99791843 4.1328125 28.0078125 C2 27 2 27 1 25 C0.62848129 22.4371014 0.29680966 19.88407742 0 17.3125 C-0.1660574 15.91268801 -0.33271961 14.51294762 -0.5 13.11328125 C-0.57863281 12.42830566 -0.65726562 11.74333008 -0.73828125 11.03759766 C-0.99339998 9.05138408 -1.33937666 7.07750833 -1.6875 5.10546875 C-1.790625 4.08066406 -1.89375 3.05585937 -2 2 C-1.34 1.34 -0.68 0.68 0 0 Z " fill="#FDFAFA" transform="translate(123,50)"/>
<path d="M0 0 C5.13246552 2.23321019 7.31383599 10.03422751 9.25 14.9375 C11.88334252 22.5230986 14.61960511 30.76331204 14.046875 38.890625 C12.00262962 40.86672886 10.9291925 41.890625 8.046875 41.890625 C7.8509375 40.776875 7.655 39.663125 7.453125 38.515625 C5.55400007 28.56003886 2.69905065 20.14716545 -2.1484375 11.24609375 C-3.63088402 8.48977003 -4.87055231 5.8202676 -5.953125 2.890625 C-2.55535324 -0.14309978 -2.55535324 -0.14309978 0 0 Z " fill="#A90A02" transform="translate(193.953125,6.109375)"/>
<path d="M0 0 C2.6875 1.625 2.6875 1.625 4 4 C4.0862584 8.05414503 3.30276131 9.63995953 0.6875 12.75 C-4.01651165 16.68824231 -6.76352696 17.44546236 -13 17 C-15.76142665 15.98263229 -16.68085371 15.63829259 -18 13 C-18.375 10.1875 -18.375 10.1875 -18 7 C-12.60654133 0.58615726 -8.15197311 -1.0656174 0 0 Z " fill="#FCC437" transform="translate(172,118)"/>
<path d="M0 0 C2.6875 1.625 2.6875 1.625 4 4 C4.08544889 8.01609771 3.29716829 9.63679431 0.75 12.75 C-3.09325483 15.89448122 -5.63343621 16.85615118 -10.5625 17.375 C-14 17 -14 17 -16.4375 15.375 C-18 13 -18 13 -18.75 10.1875 C-17.74244619 5.90539631 -15.8143913 4.07947594 -12.4296875 1.36328125 C-8.32029414 -0.94247162 -4.54529221 -1.00204855 0 0 Z " fill="#FBC437" transform="translate(160,105)"/>
<path d="M0 0 C1.57660534 2.06847108 2.80771589 4.16775324 4.02734375 6.46484375 C5.45574291 9.3406676 5.45574291 9.3406676 7.40234375 11.83984375 C7.71484375 14.21484375 7.71484375 14.21484375 7.40234375 16.83984375 C5.65234375 18.71484375 5.65234375 18.71484375 3.40234375 19.83984375 C0.79617201 19.56825872 -0.33195509 19.10619455 -2.1953125 17.23828125 C-9.59765625 7.01317708 -9.59765625 7.01317708 -9.59765625 0.83984375 C-2.07162102 -1.50433116 -2.07162102 -1.50433116 0 0 Z " fill="#FDB26B" transform="translate(175.59765625,54.16015625)"/>
<path d="M0 0 C0.32871094 1.25103516 0.32871094 1.25103516 0.6640625 2.52734375 C2.75860331 9.96040929 5.26101503 15.88670939 10 22 C9 23 9 23 5.28515625 23.484375 C2.71801734 23.449986 1.43374337 23.3373121 -0.60986328 21.74804688 C-2.08037303 19.98652557 -3.32863861 18.18426482 -4.5625 16.25 C-5.01173828 15.61578125 -5.46097656 14.9815625 -5.92382812 14.328125 C-9.09171947 9.64218402 -9.09171947 9.64218402 -8.69677734 6.87695312 C-7.41492316 3.42394159 -3.76516019 0 0 0 Z " fill="#A80A03" transform="translate(157,33)"/>
<path d="M0 0 C2.35620437 3.53430656 2.48991613 4.83571287 2 9 C-0.82261678 15.01340096 -5.27065475 17.22381147 -11 20 C-11.66 20.33 -12.32 20.66 -13 21 C-18.78993435 21.36761488 -18.78993435 21.36761488 -21 21 C-21.67675781 20.25556641 -21.67675781 20.25556641 -22.3671875 19.49609375 C-24.83569383 17.23428053 -26.92070354 17.70711947 -30.1875 17.8125 C-31.81751953 17.85310547 -31.81751953 17.85310547 -33.48046875 17.89453125 C-34.31191406 17.92933594 -35.14335937 17.96414062 -36 18 C-35.525625 17.154375 -35.05125 16.30875 -34.5625 15.4375 C-32.94278487 11.87412671 -32.38743857 8.87438575 -32 5 C-31.67 5 -31.34 5 -31 5 C-30.57682292 7.01822917 -30.15364583 9.03645833 -29.73046875 11.0546875 C-29.07691162 13.37046549 -29.07691162 13.37046549 -26 15 C-18.87689892 15.92571081 -12.48124936 15.88648423 -6.5859375 11.49609375 C-3.14881854 8.25368842 -0.72519258 4.71375174 0 0 Z " fill="#FD5801" transform="translate(196,101)"/>
<path d="M0 0 C0 0.33 0 0.66 0 1 C-1.08716309 1.0501123 -2.17432617 1.10022461 -3.29443359 1.15185547 C-7.42118631 1.34363564 -11.54754054 1.54310905 -15.67382812 1.74462891 C-17.44228644 1.82998291 -19.21083998 1.9133916 -20.97949219 1.99462891 C-30.98590917 2.45567542 -40.91898296 3.06075892 -50.85800171 4.34591675 C-55.9387488 4.98050922 -60.8785154 5.07471579 -66 5 C-61.75900108 2.17266739 -57.68842397 1.99422985 -52.6875 1.375 C-51.0933728 1.17716919 -51.0933728 1.17716919 -49.46704102 0.9753418 C-33.05817894 -0.80415415 -16.47813785 -0.25375005 0 0 Z " fill="#F66C43" transform="translate(193,88)"/>
<path d="M0 0 C-3.65742422 2.43828281 -7.12866055 2.92205867 -11.375 3.625 C-12.50808594 3.82609375 -12.50808594 3.82609375 -13.6640625 4.03125 C-17.48477419 4.68584746 -21.10771193 5.17057836 -25 5 C-25.33 6.32 -25.66 7.64 -26 9 C-27.65 9 -29.3 9 -31 9 C-31.66 7.68 -32.32 6.36 -33 5 C-31.875 3.4375 -31.875 3.4375 -30 2 C-28.68322266 2.2475 -28.68322266 2.2475 -27.33984375 2.5 C-23.38552209 3.09199201 -20.57074828 2.469801 -16.6875 1.5625 C-11.00544377 0.29958761 -5.82108557 -0.30637292 0 0 Z " fill="#F46C44" transform="translate(127,93)"/>
<path d="M0 0 C0.33 0.66 0.66 1.32 1 2 C1.66 2 2.32 2 3 2 C3 2.99 3 3.98 3 5 C2.01 5 1.02 5 0 5 C0.350625 5.556875 0.70125 6.11375 1.0625 6.6875 C2.21845993 9.53886783 1.80967438 11.08517222 1 14 C-0.98 14.66 -2.96 15.32 -5 16 C-8 12.25 -8 12.25 -8 10 C-5.525 10.495 -5.525 10.495 -3 11 C-3 11.66 -3 12.32 -3 13 C-2.34 13 -1.68 13 -1 13 C-1 12.01 -1 11.02 -1 10 C-1.66 10 -2.32 10 -3 10 C-4.98778524 7.93859309 -6 6.7873412 -6 3.875 C-4.57671052 1.20633222 -2.80875171 0.8642313 0 0 Z " fill="#FEF0CB" transform="translate(181,97)"/>
<path d="M0 0 C0.33 0 0.66 0 1 0 C1.71989716 7.07898872 1.71989716 7.07898872 -0.23046875 9.57421875 C-4.78022475 13.31512924 -8.09545953 15.39033139 -14.05859375 15.26953125 C-16.67666043 14.9060572 -18.15178863 13.84821137 -20 12 C-19.67 11.34 -19.34 10.68 -19 10 C-18.34 10.33 -17.68 10.66 -17 11 C-12.04868621 11.48542292 -8.67424373 10.94652362 -4.51171875 8.35546875 C-1.87594111 5.9921229 -1.08694758 3.32478082 0 0 Z " fill="#FC5902" transform="translate(176,123)"/>
<path d="M0 0 C0.33 0 0.66 0 1 0 C1.42317708 2.01822917 1.84635417 4.03645833 2.26953125 6.0546875 C2.92308838 8.37046549 2.92308838 8.37046549 6 10 C8.50896686 10.45601261 8.50896686 10.45601261 11.1875 10.625 C12.08855469 10.69976562 12.98960937 10.77453125 13.91796875 10.8515625 C14.60503906 10.90054688 15.29210937 10.94953125 16 11 C16 11.33 16 11.66 16 12 C9.30324864 13.03026944 2.7685324 13.10152799 -4 13 C-3.2884375 11.7315625 -3.2884375 11.7315625 -2.5625 10.4375 C-0.94278487 6.87412671 -0.38743857 3.87438575 0 0 Z " fill="#F8680D" transform="translate(164,106)"/>
<path d="M0 0 C1.67542976 0.28604898 3.34385343 0.61781233 5 1 C5 1.66 5 2.32 5 3 C4.01 3 3.02 3 2 3 C2.99 4.485 2.99 4.485 4 6 C4 6.99 4 7.98 4 9 C2.35 9.33 0.7 9.66 -1 10 C-1.66 8.68 -2.32 7.36 -3 6 C-2.01 6.33 -1.02 6.66 0 7 C-0.185625 6.030625 -0.37125 5.06125 -0.5625 4.0625 C-0.706875 3.051875 -0.85125 2.04125 -1 1 C-0.67 0.67 -0.34 0.34 0 0 Z " fill="#FEF1CD" transform="translate(163,121)"/>
<path d="M0 0 C1.67542976 0.28604898 3.34385343 0.61781233 5 1 C5 1.66 5 2.32 5 3 C4.01 3 3.02 3 2 3 C2.99 4.485 2.99 4.485 4 6 C3.625 8.1875 3.625 8.1875 3 10 C1.35 9.67 -0.3 9.34 -2 9 C-2 8.01 -2 7.02 -2 6 C-1.34 6.33 -0.68 6.66 0 7 C-0.185625 6.030625 -0.37125 5.06125 -0.5625 4.0625 C-0.706875 3.051875 -0.85125 2.04125 -1 1 C-0.67 0.67 -0.34 0.34 0 0 Z " fill="#FEF1CC" transform="translate(151,108)"/>
<path d="M0 0 C1.32 0 2.64 0 4 0 C5.58076658 3.45792689 6.51579638 6.1831068 6 10 C5.01 10.66 4.02 11.32 3 12 C2.49440092 10.56445975 1.9957251 9.1264798 1.5 7.6875 C1.2215625 6.88699219 0.943125 6.08648437 0.65625 5.26171875 C0 3 0 3 0 0 Z " fill="#FCAE66" transform="translate(203,20)"/>
<path d="M0 0 C2.1875 0.3125 2.1875 0.3125 4 1 C4.38218767 2.65614657 4.71395102 4.32457024 5 6 C4 7 4 7 1.4375 7.0625 C0.2309375 7.0315625 0.2309375 7.0315625 -1 7 C-1.66 5.68 -2.32 4.36 -3 3 C-1.75 1.4375 -1.75 1.4375 0 0 Z " fill="#FAC437" transform="translate(97,95)"/>
<path d="M0 0 C0.66 0.33 1.32 0.66 2 1 C-0.7855982 4.37648267 -2.14614309 5.88016043 -6.5625 6.5 C-10.04688447 5.99318044 -11.49899342 5.40096632 -14 3 C-13.67 2.34 -13.34 1.68 -13 1 C-12.67 1.33 -12.34 1.66 -12 2 C-7.37524396 2.26681285 -4.22485521 1.81065223 0 0 Z " fill="#FC5E04" transform="translate(158,119)"/>
<path d="M0 0 C2.0625 0.4375 2.0625 0.4375 4 1 C3.67 2.65 3.34 4.3 3 6 C1.35 5.67 -0.3 5.34 -2 5 C-1.125 1.125 -1.125 1.125 0 0 Z " fill="#FFF5EC" transform="translate(124,123)"/>
<path d="M0 0 C2.0625 0.4375 2.0625 0.4375 4 1 C3.67 2.65 3.34 4.3 3 6 C1.68 5.67 0.36 5.34 -1 5 C-1 1 -1 1 0 0 Z " fill="#FFF7F0" transform="translate(97,129)"/>
<path d="M0 0 C2.0625 0.4375 2.0625 0.4375 4 1 C4 2.32 4 3.64 4 5 C2.68 5.33 1.36 5.66 0 6 C-0.38218767 4.34385343 -0.71395102 2.67542976 -1 1 C-0.67 0.67 -0.34 0.34 0 0 Z " fill="#FFF7EF" transform="translate(110,126)"/>
<path d="M0 0 C2.475 0.495 2.475 0.495 5 1 C5 1.66 5 2.32 5 3 C6.32 2.34 7.64 1.68 9 1 C8.67 2.32 8.34 3.64 8 5 C6.35 5.33 4.7 5.66 3 6 C0 2.25 0 2.25 0 0 Z " fill="#FEF8E7" transform="translate(173,107)"/>
<path d="M0 0 C0.33 0.66 0.66 1.32 1 2 C1.66 2 2.32 2 3 2 C3 2.99 3 3.98 3 5 C1.02 4.34 -0.96 3.68 -3 3 C-3.33 3.66 -3.66 4.32 -4 5 C-4.33 4.01 -4.66 3.02 -5 2 C-3.35 1.34 -1.7 0.68 0 0 Z " fill="#FEF8E7" transform="translate(181,97)"/>
</svg>
