<?xml version="1.0" encoding="UTF-8"?>
<svg version="1.1" xmlns="http://www.w3.org/2000/svg" width="206" height="150">
<path d="M0 0 C2.4418276 0.41559371 4.88636721 0.81099499 7.33178711 1.20483398 C8.90295145 1.46730666 10.47392281 1.73093777 12.04467773 1.99584961 C12.76665848 2.11160843 13.48863922 2.22736725 14.23249817 2.34663391 C19.50069465 3.26902831 24.08027822 4.65957659 28.00952148 8.40209961 C29.52886507 11.41403778 29.23539184 13.45450738 28.86889648 16.78881836 C28.7515918 17.93092773 28.63428711 19.07303711 28.51342773 20.24975586 C28.38323242 21.35577148 28.25303711 22.46178711 28.11889648 23.60131836 C28.01963867 24.54233398 27.92038086 25.48334961 27.81811523 26.45288086 C27.59997995 28.50400368 27.3619179 30.55299504 27.11889648 32.60131836 C36.38516641 28.6072365 42.18938349 21.53783133 48.74951172 14.12597656 C51.90430383 10.61346511 51.90430383 10.61346511 55.43139648 10.41381836 C59.6190257 11.76237692 59.99306142 12.37197719 62.05639648 16.03881836 C64.11889648 20.17045019 64.11889648 20.17045019 64.11889648 22.60131836 C64.86139648 22.60131836 65.60389648 22.60131836 66.36889648 22.60131836 C69.55997938 23.76171214 69.91983312 24.39936637 71.49389648 27.28881836 C72.82330194 30.24072653 73.17500501 31.27168076 72.61889648 34.53881836 C72.04274693 38.06773437 72.57578728 38.9786075 74.11889648 42.10131836 C75.63163416 45.2053095 76.12099109 46.48611478 76.05639648 50.03881836 C75.11889648 52.60131836 75.11889648 52.60131836 72.11889648 54.60131836 C69.94238281 55.01196289 69.94238281 55.01196289 67.45092773 55.23413086 C66.55825195 55.31791992 65.66557617 55.40170898 64.74584961 55.48803711 C63.81708008 55.56666992 62.88831055 55.64530273 61.93139648 55.72631836 C60.99102539 55.81268555 60.0506543 55.89905273 59.08178711 55.98803711 C56.76139812 56.20005235 54.44058829 56.40417265 52.11889648 56.60131836 C54.42889648 57.59131836 56.73889648 58.58131836 59.11889648 59.60131836 C56.80889648 64.22131836 54.49889648 68.84131836 52.11889648 73.60131836 C43.36026617 72.11908861 38.15501306 69.12032426 32.11889648 62.60131836 C32.44792969 63.60710937 32.77696289 64.61290039 33.1159668 65.64916992 C34.19675389 69.45087967 34.29404758 72.87164907 34.16577148 76.83569336 C34.14621399 77.50689713 34.12665649 78.17810089 34.10650635 78.86964417 C34.03935933 81.03080253 33.95502494 83.19083978 33.86889648 85.35131836 C33.81666516 86.85025527 33.76458267 88.34919737 33.71264648 89.84814453 C33.42677872 97.56263874 33.00967566 105.24247011 32.11889648 112.91381836 C31.02274334 122.43664877 30.59758404 132.02756732 30.11889648 141.60131836 C13.94889648 141.60131836 -2.22110352 141.60131836 -18.88110352 141.60131836 C-18.22110352 138.30131836 -17.56110352 135.00131836 -16.88110352 131.60131836 C-17.41735352 132.34381836 -17.95360352 133.08631836 -18.50610352 133.85131836 C-22.0624748 137.96922196 -26.27755159 141.30946117 -31.87060547 141.76245117 C-34.31174839 141.80803543 -36.75207084 141.83657703 -39.19360352 141.85131836 C-40.45720703 141.88225586 -40.45720703 141.88225586 -41.74633789 141.91381836 C-48.30615163 141.95484925 -52.47165821 140.72392494 -57.50610352 136.28881836 C-63.27396407 129.76202879 -66.38790887 123.7224846 -66.12329102 114.96069336 C-65.18865594 105.85553877 -60.79262215 99.69583389 -53.86157227 93.91772461 C-51.27736152 92.20001451 -48.93107202 91.94790569 -45.88110352 91.60131836 C-45.92235352 90.52881836 -45.96360352 89.45631836 -46.00610352 88.35131836 C-46.01891326 84.71975645 -45.54179005 81.35745617 -44.88110352 77.78881836 C-43.8349542 72.00552812 -43.67338778 66.46351807 -43.88110352 60.60131836 C-51.06691699 59.98975977 -58.04703134 59.5625596 -65.25610352 59.78881836 C-72.3698005 59.81266315 -76.57027151 58.63066262 -81.81079102 53.83569336 C-87.04069659 48.32367669 -89.5379845 43.20406804 -90.25610352 35.66381836 C-89.88002234 27.97671921 -87.19751831 21.88829396 -81.88500977 16.33178711 C-75.93627202 11.19476796 -69.63612719 9.85948624 -61.87719727 10.15600586 C-54.73111983 11.21813471 -48.59044438 14.72076896 -44.13110352 20.42163086 C-41.59767759 24.83929232 -40.2439156 29.71924449 -38.88110352 34.60131836 C-38.22110352 34.60131836 -37.56110352 34.60131836 -36.88110352 34.60131836 C-36.8437207 33.94389648 -36.80633789 33.28647461 -36.76782227 32.60913086 C-36.31829483 26.10420444 -35.55277369 19.66923817 -34.56860352 13.22631836 C-34.41041138 12.08573975 -34.41041138 12.08573975 -34.24902344 10.92211914 C-33.43790788 5.86863018 -32.09242813 2.61392126 -28.88110352 -1.39868164 C-20.99946667 -5.33950006 -8.34687802 -1.42792231 0 0 Z M-12.88110352 111.60131836 C-12.88110352 113.58131836 -12.88110352 115.56131836 -12.88110352 117.60131836 C-12.22110352 116.28131836 -11.56110352 114.96131836 -10.88110352 113.60131836 C-11.54110352 112.94131836 -12.20110352 112.28131836 -12.88110352 111.60131836 Z " fill="#E0410E" transform="translate(104.881103515625,8.398681640625)"/>
<path d="M0 0 C2.68353975 0.23539822 5.01273147 0.49657407 7.5625 1.3125 C7.8925 2.6325 8.2225 3.9525 8.5625 5.3125 C18.50755658 7.16898928 18.50755658 7.16898928 28.5625 7.3125 C29.2225 6.6525 29.8825 5.9925 30.5625 5.3125 C32.91015625 5.51953125 32.91015625 5.51953125 35.625 6.125 C36.52347656 6.31707031 37.42195313 6.50914063 38.34765625 6.70703125 C40.5625 7.3125 40.5625 7.3125 41.5625 8.3125 C41.90999471 15.04521009 40.91490042 21.4013672 39.8125 28.03125 C39.63493164 29.12973267 39.45736328 30.22821533 39.27441406 31.35998535 C38.70966225 34.84514419 38.13621679 38.32880692 37.5625 41.8125 C37.17650708 44.18480214 36.7910843 46.55719713 36.40625 48.9296875 C35.46493022 54.7250493 34.51648148 60.51920975 33.5625 66.3125 C28.45704987 66.41472972 25.09397625 66.0208696 20.4375 63.875 C11.85160227 59.9611687 3.07673059 58.63476601 -6.109375 61.4296875 C-9.2597733 62.64719951 -12.35968886 63.92252077 -15.4375 65.3125 C-14.85183548 55.19771461 -13.22101586 45.34207873 -11.5 35.375 C-11.09934236 33.02905367 -10.70012636 30.68286896 -10.30184937 28.33651733 C-10.04264303 26.81357158 -9.78146239 25.29096041 -9.51821899 23.76870728 C-8.55574901 18.16726302 -7.7571995 12.55312834 -7.06030273 6.91186523 C-5.96209506 2.32832266 -4.78373514 0.43488501 0 0 Z " fill="#E8E1D7" transform="translate(84.4375,13.6875)"/>
<path d="M0 0 C4.19921875 2.734375 4.19921875 2.734375 6 4 C6.88252441 4.52601807 7.76504883 5.05203613 8.67431641 5.59399414 C11.45805459 8.47387445 11.57747907 10.34109157 11.59213257 14.27110291 C11.5694632 15.08784988 11.54679382 15.90459686 11.5234375 16.74609375 C11.51873444 17.59422134 11.51403137 18.44234894 11.50918579 19.31617737 C11.48786063 22.02411479 11.43128916 24.73008771 11.375 27.4375 C11.35848876 29.25584082 11.34414175 31.07420267 11.33203125 32.89257812 C11.19513572 46.38314467 11.19513572 46.38314467 10 52 C9.78756962 54.57168177 9.60755829 57.13167563 9.46484375 59.70703125 C9.42653442 60.35071655 9.3882251 60.99440186 9.34875488 61.65759277 C9.20784763 64.04233908 9.07302638 66.42744185 8.9375 68.8125 C8.628125 74.154375 8.31875 79.49625 8 85 C-4.87 85 -17.74 85 -31 85 C-27.4375 71.25 -27.4375 71.25 -26.30249023 66.93066406 C-26.01575439 65.80370117 -25.72901855 64.67673828 -25.43359375 63.515625 C-25.13509521 62.36352539 -24.83659668 61.21142578 -24.52905273 60.02441406 C-23.85114297 56.14903511 -24.16983459 54.20751332 -26.375 51 C-26.91125 50.34 -27.4475 49.68 -28 49 C-30.15887908 46.34291806 -31.39439988 44.39136066 -32 41 C-27.07872966 40.83317728 -23.49656104 40.75171948 -19 43 C-18.67 45.97 -18.34 48.94 -18 52 C-17.34 52 -16.68 52 -16 52 C-16.16886719 51.48824219 -16.33773437 50.97648437 -16.51171875 50.44921875 C-17.16233189 47.18574324 -16.93783886 44.13567358 -16.8125 40.8125 C-16.68616043 35.11623341 -17.41477771 30.97369713 -20.1015625 25.93359375 C-21.50878513 22.90500593 -21.3989469 20.25806632 -21 17 C-20.34 16.34 -19.68 15.68 -19 15 C-15.79335604 15.34159145 -14.06384564 16.53934664 -11.765625 18.72265625 C-11.19199219 19.26083984 -10.61835937 19.79902344 -10.02734375 20.35351562 C-9.44082031 20.91748047 -8.85429688 21.48144531 -8.25 22.0625 C-7.64800781 22.63033203 -7.04601562 23.19816406 -6.42578125 23.78320312 C-4.94436788 25.18231575 -3.4713512 26.59030947 -2 28 C-2.33 27.34 -2.66 26.68 -3 26 C-3.62094214 17.15157448 -1.66803264 8.64795492 0 0 Z " fill="#FEAB90" transform="translate(122,65)"/>
<path d="M0 0 C5.45256971 2.37433671 8.71751643 6.33195297 11.71484375 11.3828125 C13.47629244 16.66715857 13.59113477 22.05478189 11.15234375 27.1328125 C9.59301332 30.65825521 9.46458976 31.82439729 10.71484375 35.3828125 C11.37076009 36.72146704 12.03591201 38.05568255 12.71484375 39.3828125 C11.8434375 39.310625 10.97203125 39.2384375 10.07421875 39.1640625 C4.09114151 38.69784869 -1.78336218 38.34193377 -7.78515625 38.5078125 C-12.43134876 38.52629868 -15.43619016 38.22371604 -19.28515625 35.3828125 C-23.70848344 30.95948531 -27.56251514 26.64563203 -27.59765625 20.1328125 C-27.43407389 14.59827587 -26.49821998 9.79366212 -22.66796875 5.62109375 C-15.80153192 -0.4643964 -9.12313173 -2.46402532 0 0 Z " fill="#FE605A" transform="translate(47.28515625,24.6171875)"/>
<path d="M0 0 C2.97 0 5.94 0 9 0 C9 1.98 9 3.96 9 6 C11.47266765 5.65555119 11.47266765 5.65555119 14 5 C14.33 4.34 14.66 3.68 15 3 C17.88437779 4.29299694 19.87219421 5.65941363 22 8 C21.67 8.94875 21.34 9.8975 21 10.875 C19.89840809 13.77062452 19.89840809 13.77062452 20 16 C20.804375 15.979375 21.60875 15.95875 22.4375 15.9375 C25 16 25 16 26 17 C26.14115161 19.67058851 26.04247107 22.32432238 26 25 C24.02 25.66 22.04 26.32 20 27 C20.2475 27.86625 20.2475 27.86625 20.5 28.75 C21 31 21 31 21 35 C19.125 37.25 19.125 37.25 17 39 C16.34 39 15.68 39 15 39 C14.67 38.34 14.34 37.68 14 37 C12.68 37 11.36 37 10 37 C9.67 38.65 9.34 40.3 9 42 C6.03 42 3.06 42 0 42 C-0.495 39.525 -0.495 39.525 -1 37 C-2.1446875 37.2475 -2.1446875 37.2475 -3.3125 37.5 C-6 38 -6 38 -9 38 C-11.1875 36 -11.1875 36 -13 34 C-12.67 33.401875 -12.34 32.80375 -12 32.1875 C-10.79212012 29.94613529 -10.79212012 29.94613529 -11 27 C-12.98 26.34 -14.96 25.68 -17 25 C-17 22.36 -17 19.72 -17 17 C-15.02 17 -13.04 17 -11 17 C-10.79859524 13.37471432 -11.14223235 11.13498292 -13 8 C-11.37660195 6.29115995 -9.70680947 4.62553283 -8 3 C-7.34 3 -6.68 3 -6 3 C-5.67 3.66 -5.34 4.32 -5 5 C-2.47266765 5.65555119 -2.47266765 5.65555119 0 6 C0 4.02 0 2.04 0 0 Z " fill="#D08C01" transform="translate(61,104)"/>
<path d="M0 0 C3.13898572 1.32803242 5.88029353 1.96406019 9.25 2.375 C9.25 5.015 9.25 7.655 9.25 10.375 C9.91 9.715 10.57 9.055 11.25 8.375 C11.559375 9.32375 11.86875 10.2725 12.1875 11.25 C13.12394742 14.23580408 13.12394742 14.23580408 14.25 16.375 C9.49846583 14.49037707 6.20704962 10.65666008 2.671875 7.09960938 C0.96923811 5.41217832 0.96923811 5.41217832 -1.75 3.375 C-4.07529843 3.38358189 -4.07529843 3.38358189 -5.75 4.375 C-6.12422795 8.77217844 -5.93740621 11.28163485 -3.75 15.125 C-0.11240505 22.4386152 -1.45915771 31.43338974 -1.75 39.375 C-2.41 39.375 -3.07 39.375 -3.75 39.375 C-4.74 34.425 -4.74 34.425 -5.75 29.375 C-5.09 29.375 -4.43 29.375 -3.75 29.375 C-3.75 28.385 -3.75 27.395 -3.75 26.375 C-4.34941406 26.34921875 -4.94882813 26.3234375 -5.56640625 26.296875 C-13.04990011 25.82849132 -20.41411212 24.7571063 -27.8125 23.5625 C-28.83609619 23.40942383 -29.85969238 23.25634766 -30.91430664 23.09863281 C-31.88231201 22.93588867 -32.85031738 22.77314453 -33.84765625 22.60546875 C-34.71914307 22.46520264 -35.59062988 22.32493652 -36.48852539 22.18041992 C-39.34048717 21.16469911 -40.24379126 19.96134506 -41.75 17.375 C-42.19418512 11.61024965 -40.99143428 5.0982328 -37.75 0.375 C-25.42861714 -7.37999177 -12.69120412 -5.63744953 0 0 Z " fill="#F5890C" transform="translate(107.75,77.625)"/>
<path d="M0 0 C3.67024835 2.21468496 6.26220576 4.74895758 8.4375 8.4375 C9.97220002 15.42891119 8.79209772 21.00454275 5 27 C-0.15692262 31.20973275 -4.36744266 32.56208113 -11 32 C-15.80668567 29.73803027 -18.21000961 26.96199292 -20.30078125 22.20703125 C-21.7833659 17.52736462 -21.9559895 13.38997375 -20.1171875 8.79296875 C-15.62865728 0.7819827 -9.06256873 -3.03683961 0 0 Z " fill="#F98D10" transform="translate(99,37)"/>
<path d="M0 0 C0.79510986 0.11593506 1.59021973 0.23187012 2.40942383 0.35131836 C3.31539307 0.47579346 4.2213623 0.60026855 5.15478516 0.72851562 C6.13213623 0.88118896 7.1094873 1.0338623 8.11645508 1.19116211 C9.12281006 1.33674561 10.12916504 1.4823291 11.16601562 1.63232422 C14.42360123 2.1115659 17.6760931 2.61840925 20.92895508 3.12866211 C22.05076172 3.29881836 23.17256836 3.46897461 24.32836914 3.64428711 C27.63486203 4.14726269 30.93853159 4.66529235 34.24145508 5.19116211 C35.7973938 5.43394897 35.7973938 5.43394897 37.38476562 5.68164062 C38.34423096 5.84075928 39.30369629 5.99987793 40.29223633 6.16381836 C41.14084229 6.30182861 41.98944824 6.43983887 42.86376953 6.58203125 C44.92895508 7.12866211 44.92895508 7.12866211 46.92895508 9.12866211 C47.54219803 20.57846796 44.37162439 32.84105349 42.54541016 44.0871582 C41.98957844 47.51523621 41.44406868 50.94484754 40.8996582 54.37475586 C40.54675266 56.57146854 40.19325779 58.76808664 39.83911133 60.96459961 C39.67758072 61.98137787 39.51605011 62.99815613 39.34962463 64.04574585 C38.50629896 69.20157855 37.49570567 74.14303324 35.92895508 79.12866211 C34.93895508 78.63366211 34.93895508 78.63366211 33.92895508 78.12866211 C34.09500244 77.08226563 34.2610498 76.03586914 34.43212891 74.95776367 C35.89464288 65.73681659 37.35194367 56.51506555 38.80157471 47.29208374 C39.52788607 42.67170352 40.25943755 38.05221059 40.99536133 33.43334961 C41.26541254 31.70686836 41.53500755 29.98031563 41.80395508 28.25366211 C41.92359619 27.51535156 42.0432373 26.77704102 42.16650391 26.01635742 C42.88629576 21.32413459 43.02420801 16.85955771 42.92895508 12.12866211 C41.30724268 11.7396905 39.68140583 11.36787913 38.05395508 11.00366211 C37.1490332 10.79483398 36.24411133 10.58600586 35.31176758 10.37084961 C34.52543945 10.29092773 33.73911133 10.21100586 32.92895508 10.12866211 C32.26895508 10.78866211 31.60895508 11.44866211 30.92895508 12.12866211 C24.10757162 12.24314687 17.3694746 11.37535497 10.92895508 9.12866211 C10.59895508 7.80866211 10.26895508 6.48866211 9.92895508 5.12866211 C8.13802317 5.04780064 6.3460588 4.98953509 4.55395508 4.94116211 C3.5562207 4.90635742 2.55848633 4.87155273 1.53051758 4.83569336 C0.24274414 4.98071289 0.24274414 4.98071289 -1.07104492 5.12866211 C-3.01584592 8.04586361 -3.42939161 9.22681425 -3.93041992 12.55444336 C-4.07366699 13.47797607 -4.21691406 14.40150879 -4.36450195 15.35302734 C-4.51516113 16.37211182 -4.66582031 17.39119629 -4.82104492 18.44116211 C-5.1672698 20.68857786 -5.51363348 22.93597224 -5.86010742 25.18334961 C-6.04992187 26.43212891 -6.23973633 27.6809082 -6.43530273 28.9675293 C-7.53065048 36.16050111 -8.66594761 43.34728181 -9.79821777 50.53451538 C-10.18936072 53.02362595 -10.57721455 55.51323186 -10.96459961 58.00292969 C-11.21053535 59.57486414 -11.45694178 61.14672503 -11.70385742 62.71850586 C-11.82133331 63.46637863 -11.9388092 64.2142514 -12.05984497 64.98478699 C-12.82217463 69.76389398 -13.70023703 74.50102173 -14.77124023 79.22216797 C-15.20783412 81.99852108 -14.78008778 84.43429925 -14.07104492 87.12866211 C-9.71058636 88.69889417 -5.49457758 89.67526792 -0.92260742 90.41772461 C0.06348007 90.5799501 0.06348007 90.5799501 1.06948853 90.74545288 C3.14692116 91.08614281 5.22538171 91.42001034 7.30395508 91.75366211 C8.72199764 91.98498091 10.13996724 92.21674744 11.55786133 92.44897461 C15.01406455 93.01404746 18.47122296 93.57301186 21.92895508 94.12866211 C21.92895508 95.11866211 21.92895508 96.10866211 21.92895508 97.12866211 C14.09035441 96.44108511 6.33159849 95.37586544 -1.44604492 94.19116211 C-3.18821289 93.93689453 -3.18821289 93.93689453 -4.96557617 93.67749023 C-6.63813477 93.42322266 -6.63813477 93.42322266 -8.34448242 93.16381836 C-9.34914551 93.01307861 -10.35380859 92.86233887 -11.38891602 92.70703125 C-13.92270637 92.16064955 -15.82974216 91.40526498 -18.07104492 90.12866211 C-18.16878587 84.91760152 -17.89850215 80.138732 -17.00463867 74.98413086 C-16.890466 74.31246887 -16.77629333 73.64080688 -16.65866089 72.9487915 C-16.2814764 70.73680264 -15.89523026 68.52650825 -15.50854492 66.31616211 C-14.95620606 63.11352534 -14.40793113 59.91019894 -13.86010742 56.70678711 C-13.6438546 55.44764748 -13.6438546 55.44764748 -13.42323303 54.16307068 C-12.29459886 47.5513048 -11.24676282 40.92872392 -10.21948242 34.30053711 C-9.75812923 31.35388679 -9.29599613 28.40735956 -8.83377075 25.46084595 C-8.53413691 23.53437886 -8.23860945 21.60726852 -7.94723511 19.67953491 C-7.53728281 16.97192871 -7.11235556 14.26705429 -6.68432617 11.56225586 C-6.56572235 10.75137512 -6.44711853 9.94049438 -6.32492065 9.1050415 C-4.89982249 0.30439779 -4.89982249 0.30439779 0 0 Z " fill="#14171A" transform="translate(82.071044921875,9.871337890625)"/>
<path d="M0 0 C2.9720191 2.55019834 4.29621847 5.37771854 5.91796875 8.91015625 C6.44970703 10.06451172 6.98144531 11.21886719 7.52929688 12.40820312 C7.8012085 13.00769775 8.07312012 13.60719238 8.35327148 14.22485352 C9.18781034 16.06318361 10.03347585 17.89607636 10.88085938 19.72851562 C15 28.72624771 15 28.72624771 15 31 C7.74 31 0.48 31 -7 31 C-8.175625 28.9375 -9.35125 26.875 -10.5625 24.75 C-10.93705322 24.10772461 -11.31160645 23.46544922 -11.69750977 22.80371094 C-14.06101416 18.53492583 -14.06101416 18.53492583 -13.7734375 16.01367188 C-12.87468083 13.67372712 -11.78566516 12.35778483 -10.05859375 10.546875 C-9.47529297 9.928125 -8.89199219 9.309375 -8.29101562 8.671875 C-7.67935547 8.03765625 -7.06769531 7.4034375 -6.4375 6.75 C-5.82197266 6.1003125 -5.20644531 5.450625 -4.57226562 4.78125 C-3.05456842 3.18119713 -1.53042885 1.58786356 0 0 Z " fill="#E9E0D6" transform="translate(155,28)"/>
<path d="M0 0 C2.86359315 0.41306287 4.57680552 0.57320988 7.4375 -0.0625 C9.625 -0.4375 9.625 -0.4375 11.9375 0.5625 C13.625 2.5625 13.625 2.5625 14.1875 5.875 C13.45487754 10.67774721 12.02223891 12.16526109 8.625 15.5625 C5.4039689 17.17301555 2.10810374 17.16418779 -1.375 16.5625 C-4.5432587 14.08299319 -7.19143965 11.46824916 -8.375 7.5625 C-8.1875 4.4375 -8.1875 4.4375 -7.375 1.5625 C-4.04698496 -0.6561767 -3.69344474 -0.61137225 0 0 Z " fill="#FFF9F9" transform="translate(36.375,36.4375)"/>
<path d="M0 0 C0.66 0 1.32 0 2 0 C2.83819158 1.62249941 3.6704116 3.24808497 4.5 4.875 C4.9640625 5.77992187 5.428125 6.68484375 5.90625 7.6171875 C7 10 7 10 7 12 C7.78375 12.061875 8.5675 12.12375 9.375 12.1875 C12 13 12 13 13.375 15.25 C14 18 14 18 13.375 20.3125 C12.85993623 24.00379034 14.27655111 25.97338057 16.08984375 29.1328125 C17 31 17 31 17 34 C15.02 34 13.04 34 11 34 C8.6729698 29.39909512 6.36497628 24.78946682 4.078125 20.16845703 C3.39100323 18.78643359 2.69882087 17.40690652 2 16.03076172 C1.11034729 14.27786786 0.2420411 12.51418779 -0.625 10.75 C-1.38683594 9.22632813 -1.38683594 9.22632813 -2.1640625 7.671875 C-3 5 -3 5 -2.2109375 2.703125 C-1 1 -1 1 0 0 Z " fill="#FD615A" transform="translate(159,24)"/>
<path d="M0 0 C3.38677089 2.45000447 4.78698584 3.86392446 5.5625 8 C4.84202557 11.8425303 3.99097304 13.45767292 1 16 C-3.9796898 16.79042695 -5.83892595 16.75825244 -10.0625 14 C-12.34449852 10.46658293 -12.4633879 8.82427144 -11.63671875 4.8046875 C-11 3 -11 3 -9.375 1 C-5.97047997 -0.43348212 -3.65951893 -0.51361669 0 0 Z " fill="#E1420C" transform="translate(69,117)"/>
<path d="M0 0 C1.17407021 2.26727333 2.33939739 4.53834624 3.5 6.8125 C3.83386719 7.45509766 4.16773438 8.09769531 4.51171875 8.75976562 C6.00239084 11.69547699 7 13.66126517 7 17 C4.03 18.32 1.06 19.64 -2 21 C-3.33819498 18.3773768 -4.6707151 15.75213401 -6 13.125 C-6.3815625 12.37863281 -6.763125 11.63226563 -7.15625 10.86328125 C-7.5171875 10.14785156 -7.878125 9.43242188 -8.25 8.6953125 C-8.58515625 8.03547363 -8.9203125 7.37563477 -9.265625 6.69580078 C-10 5 -10 5 -10 3 C-6.27034861 0.96564469 -4.33094958 0 0 0 Z " fill="#1B191E" transform="translate(141,44)"/>
<path d="M0 0 C0.33 0 0.66 0 1 0 C0.96519531 1.24716797 0.96519531 1.24716797 0.9296875 2.51953125 C0.91164063 3.60621094 0.89359375 4.69289063 0.875 5.8125 C0.85179688 6.89144531 0.82859375 7.97039062 0.8046875 9.08203125 C0.76976283 12.19402868 0.76976283 12.19402868 3 15 C5.65187937 15.68715483 8.15537166 16.19222299 10.8515625 16.60546875 C11.62559418 16.73440018 12.39962585 16.8633316 13.19711304 16.99617004 C15.67126189 17.40542904 18.14788438 17.79664167 20.625 18.1875 C22.30227716 18.46170764 23.97936372 18.73708389 25.65625 19.01367188 C29.7687439 19.68936446 33.88354611 20.3488863 38 21 C38 21.99 38 22.98 38 24 C30.16139934 23.312423 22.40264341 22.24720333 14.625 21.0625 C13.46355469 20.89298828 12.30210938 20.72347656 11.10546875 20.54882812 C9.99042969 20.37931641 8.87539062 20.20980469 7.7265625 20.03515625 C6.72189941 19.8844165 5.71723633 19.73367676 4.68212891 19.57836914 C2.14833856 19.03198744 0.24130276 18.27660287 -2 17 C-2.21824777 10.9981863 -1.5056904 5.80766296 0 0 Z " fill="#141515" transform="translate(66,83)"/>
<path d="M0 0 C10.395 0.99 10.395 0.99 21 2 C18.93495594 6.13008812 17.87603795 7.64067255 14 10 C11.19011752 10.61999431 8.80508187 10.65735252 6 10 C1.67937205 6.7825111 1.08275558 5.4137779 0 0 Z " fill="#FEFCF8" transform="translate(82,54)"/>
<path d="M0 0 C0.66 0.66 1.32 1.32 2 2 C1.97440312 4.4061066 1.79813507 6.62086051 1.5 9 C1.41105469 9.75748535 1.32210937 10.5149707 1.23046875 11.29541016 C-0.33401393 23.62984814 -2.71530307 35.86205456 -4.93835449 48.09100342 C-6.01852801 54.05103445 -7.02720451 60.02159945 -8 66 C-10 64 -10 64 -10.07763672 62.21264648 C-9.16027706 54.55293947 -7.86814438 46.96325519 -6.53082275 39.36782837 C-5.84657373 35.48086375 -5.17367135 31.59193444 -4.5 27.703125 C-4.3685257 26.94570511 -4.23705139 26.18828522 -4.10159302 25.40791321 C-2.63804698 16.9536338 -1.29101836 8.48221709 0 0 Z " fill="#1C1E20" transform="translate(76,19)"/>
<path d="M0 0 C5.81862741 1.0775236 9.31106971 5.56106971 13.375 9.625 C14.035 8.965 14.695 8.305 15.375 7.625 C15.8390625 9.048125 15.8390625 9.048125 16.3125 10.5 C17.24894742 13.48580408 17.24894742 13.48580408 18.375 15.625 C13.62346583 13.74037707 10.33204962 9.90666008 6.796875 6.34960938 C5.09423811 4.66217832 5.09423811 4.66217832 2.375 2.625 C0.04970157 2.63358189 0.04970157 2.63358189 -1.625 3.625 C-1.99922795 8.02217844 -1.81240621 10.53163485 0.375 14.375 C4.01259495 21.6886152 2.66584229 30.68338974 2.375 38.625 C1.715 38.625 1.055 38.625 0.375 38.625 C-0.285 35.325 -0.945 32.025 -1.625 28.625 C-0.965 28.625 -0.305 28.625 0.375 28.625 C0.15157224 23.79896033 -0.29264772 19.81907489 -2.6875 15.5625 C-5.00103167 11.35607878 -5.10969625 8.39117978 -4.625 3.625 C-2.625 0.625 -2.625 0.625 0 0 Z " fill="#ED744F" transform="translate(103.625,78.375)"/>
<path d="M0 0 C2.26664422 4.04128371 1.9733799 6.46065599 1.3125 11.07421875 C1.16639282 12.12037605 1.16639282 12.12037605 1.01733398 13.18766785 C0.69386811 15.46105548 0.34944332 17.73046825 0 20 C-0.11537109 20.76217834 -0.23074219 21.52435669 -0.34960938 22.30963135 C-1.06683164 27.01999354 -1.82284294 31.72301743 -2.60449219 36.4230957 C-3.00694415 38.8544521 -3.39803999 41.2874855 -3.7890625 43.72070312 C-4.04618992 45.27875905 -4.30397666 46.83670634 -4.5625 48.39453125 C-4.677146 49.11631058 -4.79179199 49.8380899 -4.90991211 50.58174133 C-5.49142429 54.00815944 -6.04003711 56.06005566 -8 59 C-9.13199865 55.60400404 -8.86109296 54.01625161 -8.28735352 50.51879883 C-8.10709122 49.39786331 -7.92682892 48.2769278 -7.74110413 47.12202454 C-7.53907883 45.91257675 -7.33705353 44.70312897 -7.12890625 43.45703125 C-6.9277269 42.21829758 -6.72654755 40.9795639 -6.51927185 39.70329285 C-5.98354728 36.41281333 -5.44159086 33.1234837 -4.89660645 29.83453369 C-4.34185327 26.47713177 -3.7952943 23.1183976 -3.24804688 19.75976562 C-2.17292512 13.17192093 -1.08956944 6.58546971 0 0 Z " fill="#1A2022" transform="translate(125,30)"/>
<path d="M0 0 C1.6328125 1.49609375 1.6328125 1.49609375 3.125 3.4375 C5.18871481 6.16570285 5.18871481 6.16570285 8 8 C7.67 9.65 7.34 11.3 7 13 C5.375 13.75 5.375 13.75 3 14 C-1.73411923 11.5343129 -4.49566903 8.70814223 -7 4 C-6.67 3.01 -6.34 2.02 -6 1 C-4 0 -4 0 0 0 Z " fill="#F46B64" transform="translate(148,62)"/>
<path d="M0 0 C1.828125 0.16796875 1.828125 0.16796875 4 1 C5.484375 3.36328125 5.484375 3.36328125 6.75 6.3125 C7.39195312 7.76076172 7.39195312 7.76076172 8.046875 9.23828125 C9 12 9 12 9 16 C6.6796875 15.796875 6.6796875 15.796875 4 15 C2.3828125 12.890625 2.3828125 12.890625 1.125 10.25 C0.69445312 9.38890625 0.26390625 8.5278125 -0.1796875 7.640625 C-1.10966892 4.64697054 -0.86672382 2.97468174 0 0 Z " fill="#F75C56" transform="translate(129,49)"/>
<path d="M0 0 C2 3 2 3 2 6 C-0.97 7.32 -3.94 8.64 -7 10 C-10 5.25 -10 5.25 -10 3 C-6.27034861 0.96564469 -4.33094958 0 0 0 Z " fill="#101418" transform="translate(141,44)"/>
<path d="M0 0 C2.5 0.25 2.5 0.25 4.5 2.25 C4.17028521 5.54714793 3.8773161 6.8726839 1.5 9.25 C-3.05555556 8.69444444 -3.05555556 8.69444444 -4.5 7.25 C-4.6875 4.8125 -4.6875 4.8125 -4.5 2.25 C-2.5 0.25 -2.5 0.25 0 0 Z " fill="#FE6353" transform="translate(91.5,85.75)"/>
<path d="M0 0 C0.66 0.66 1.32 1.32 2 2 C1.98339844 4.27490234 1.98339844 4.27490234 1.609375 7.0859375 C1.47660156 8.09914063 1.34382813 9.11234375 1.20703125 10.15625 C1.05621094 11.2184375 0.90539062 12.280625 0.75 13.375 C0.54697266 14.95667969 0.54697266 14.95667969 0.33984375 16.5703125 C-0.82628806 25.15827387 -0.82628806 25.15827387 -3 29 C-4.44526479 22.51903275 -3.3586479 17.00968226 -2.0625 10.5625 C-1.86720703 9.54478516 -1.67191406 8.52707031 -1.47070312 7.47851562 C-0.99045216 4.98355328 -0.49999787 2.49106652 0 0 Z " fill="#2C2D2E" transform="translate(70,56)"/>
<path d="M0 0 C0.99 0 1.98 0 3 0 C2.34 5.28 1.68 10.56 1 16 C0.34 15.67 -0.32 15.34 -1 15 C-1.02685412 12.68756208 -1.04632841 10.3750373 -1.0625 8.0625 C-1.07410156 6.77472656 -1.08570312 5.48695312 -1.09765625 4.16015625 C-1 1 -1 1 0 0 Z " fill="#F8A58A" transform="translate(67,56)"/>
<path d="M0 0 C2 2 2 2 2.046875 4.57421875 C1.50294695 10.27830635 0.85183982 15.56793652 -1 21 C-1.66 20.67 -2.32 20.34 -3 20 C-2.01 13.4 -1.02 6.8 0 0 Z " fill="#2F2C29" transform="translate(119,68)"/>
<path d="M0 0 C0.99 0.33 1.98 0.66 3 1 C3.33 2.65 3.66 4.3 4 6 C1.69 6.66 -0.62 7.32 -3 8 C-3.66 6.35 -4.32 4.7 -5 3 C-2.6875 1.4375 -2.6875 1.4375 0 0 Z " fill="#D05E5B" transform="translate(140,50)"/>
<path d="M0 0 C1.32 0 2.64 0 4 0 C3.67 2.31 3.34 4.62 3 7 C2.01 7 1.02 7 0 7 C-1.125 2.25 -1.125 2.25 0 0 Z " fill="#F09A7E" transform="translate(68,47)"/>
<path d="M0 0 C1.875 0.1875 1.875 0.1875 4 1 C5.25 3.5625 5.25 3.5625 6 6 C5.01 6.99 4.02 7.98 3 9 C0 3.375 0 3.375 0 0 Z " fill="#FDA622" transform="translate(167,36)"/>
<path d="M0 0 C0.33 0 0.66 0 1 0 C1.05437607 1.58294782 1.09296271 3.16644256 1.125 4.75 C1.14820312 5.63171875 1.17140625 6.5134375 1.1953125 7.421875 C0.99139502 10.1135858 0.36551721 11.69904974 -1 14 C-2.12029814 8.51053913 -1.79217969 5.16569441 0 0 Z " fill="#312117" transform="translate(68,71)"/>
<path d="M0 0 C2.02907167 3.3146667 2.12742133 5.4315979 1.625 9.25 C1.51414062 10.14203125 1.40328125 11.0340625 1.2890625 11.953125 C1.19367188 12.62859375 1.09828125 13.3040625 1 14 C-1.36574234 10.4513865 -1.10865265 9.4235475 -0.625 5.3125 C-0.51414062 4.31863281 -0.40328125 3.32476562 -0.2890625 2.30078125 C-0.19367188 1.54152344 -0.09828125 0.78226563 0 0 Z " fill="#383837" transform="translate(125,30)"/>
<path d="M0 0 C2.23551759 3.35327639 2.17283528 3.90743657 1.625 7.6875 C1.51414062 8.49574219 1.40328125 9.30398437 1.2890625 10.13671875 C1.19367188 10.75160156 1.09828125 11.36648437 1 12 C0.34 11.67 -0.32 11.34 -1 11 C-0.67 7.37 -0.34 3.74 0 0 Z " fill="#332E2E" transform="translate(74,31)"/>
</svg>
