<?xml version="1.0" encoding="UTF-8"?>
<svg version="1.1" xmlns="http://www.w3.org/2000/svg" width="206" height="150">
<path d="M0 0 C14.68210427 12.67896446 24.27550836 29.81600854 26.51953125 49.17578125 C26.86333482 55.65126714 26.75357488 62.14313216 26.71484375 68.625 C26.71189692 70.2817776 26.70986043 71.93855707 26.70874023 73.59533691 C26.69832701 79.6846804 26.67040467 85.77398383 26.64453125 91.86328125 C26.60328125 105.49640625 26.56203125 119.12953125 26.51953125 133.17578125 C-24.30046875 133.17578125 -75.12046875 133.17578125 -127.48046875 133.17578125 C-127.70734375 118.57328125 -127.93421875 103.97078125 -128.16796875 88.92578125 C-128.24748779 84.31577148 -128.32700684 79.70576172 -128.40893555 74.95605469 C-128.48596191 69.32470703 -128.48596191 69.32470703 -128.5181427 66.68804932 C-128.54349977 64.84730597 -128.57488828 63.00663968 -128.61103821 61.16607666 C-128.66463883 58.37731419 -128.69906957 55.58890579 -128.72924805 52.79980469 C-128.74941073 51.98041286 -128.76957342 51.16102104 -128.7903471 50.31679916 C-128.81526934 45.91686605 -128.54942588 43.40164659 -125.48046875 40.17578125 C-124.8350433 38.38445213 -124.2568319 36.56813804 -123.73046875 34.73828125 C-117.65863716 15.95212562 -105.14608824 0.48262313 -87.7734375 -8.89453125 C-59.17934195 -23.43202097 -25.16799442 -19.43255941 0 0 Z " fill="#C44A5A" transform="translate(162.48046875,16.82421875)"/>
<path d="M0 0 C14.68210427 12.67896446 24.27550836 29.81600854 26.51953125 49.17578125 C26.86333588 55.65128711 26.75318706 62.14311899 26.71484375 68.625 C26.71110686 70.49257759 26.70826309 72.36015716 26.70626831 74.22773743 C26.69868502 79.10864818 26.67908295 83.98943717 26.65686035 88.87030029 C26.63628678 93.86468865 26.62724213 98.85909697 26.6171875 103.85351562 C26.59583135 113.62765724 26.56176055 123.40170906 26.51953125 133.17578125 C24.86953125 133.17578125 23.21953125 133.17578125 21.51953125 133.17578125 C21.18953125 113.37578125 20.85953125 93.57578125 20.51953125 73.17578125 C16.22953125 71.85578125 11.93953125 70.53578125 7.51953125 69.17578125 C6.85953125 68.18578125 6.19953125 67.19578125 5.51953125 66.17578125 C5.89207031 65.55832031 6.26460937 64.94085938 6.6484375 64.3046875 C9.57252344 59.07001595 11.31638632 55.21104782 10.15234375 49.2109375 C8.60961696 44.24945196 6.23555088 41.31894949 1.76953125 38.80078125 C-3.85685415 36.30596472 -8.29765902 36.52093833 -14.23046875 38.30078125 C-18.20145541 40.59173509 -19.51239966 42.02096874 -21.48046875 46.17578125 C-21.8987766 48.24052979 -22.26358965 50.31654897 -22.5859375 52.3984375 C-22.84153442 54.02084351 -22.84153442 54.02084351 -23.10229492 55.67602539 C-23.22709229 56.50094482 -23.35188965 57.32586426 -23.48046875 58.17578125 C-25.01755493 57.84984985 -25.01755493 57.84984985 -26.58569336 57.51733398 C-30.37322196 56.71578874 -34.16230043 55.92179728 -37.9519043 55.13012695 C-39.59459299 54.78584699 -41.23684893 54.43949568 -42.87866211 54.09106445 C-45.23311543 53.5917641 -47.58900394 53.09983485 -49.9453125 52.609375 C-50.68385971 52.45109726 -51.42240692 52.29281952 -52.18333435 52.12974548 C-53.94054777 51.7677311 -55.70987927 51.46537801 -57.48046875 51.17578125 C-57.81046875 51.50578125 -58.14046875 51.83578125 -58.48046875 52.17578125 C-54.52046875 56.46578125 -50.56046875 60.75578125 -46.48046875 65.17578125 C-47.47046875 66.16578125 -48.46046875 67.15578125 -49.48046875 68.17578125 C-50.2075 67.38816406 -50.93453125 66.60054688 -51.68359375 65.7890625 C-52.1633667 65.26932861 -52.64313965 64.74959473 -53.13745117 64.21411133 C-54.21321563 63.04865862 -55.28889718 61.88312938 -56.36450195 60.7175293 C-59.11871034 57.7331041 -61.87403829 54.74973681 -64.6328125 51.76953125 C-72.72239603 43.02714496 -80.77648748 34.26252839 -88.48046875 25.17578125 C-92.19314969 26.71705476 -94.46162573 28.98421359 -97.23046875 31.86328125 C-100.92778563 35.64227671 -104.70439379 39.20049498 -108.71875 42.63671875 C-111.09199791 44.71002181 -113.28734137 46.91411864 -115.48046875 49.17578125 C-113.82311868 53.52500563 -110.56893629 56.26713992 -107.29296875 59.42578125 C-103.05843842 63.57705484 -98.99181651 67.76142102 -95.15234375 72.28515625 C-92.46782548 75.3209199 -89.5478689 78.11603574 -86.6640625 80.9609375 C-84.10563766 83.55597665 -81.75065534 86.28375239 -79.38671875 89.0546875 C-76.23424024 92.56246585 -72.81824801 95.80438721 -69.421875 99.07421875 C-67.48046875 101.17578125 -67.48046875 101.17578125 -67.48046875 103.17578125 C-66.79984375 102.49515625 -66.11921875 101.81453125 -65.41796875 101.11328125 C-64.94875 100.65308594 -64.47953125 100.19289063 -63.99609375 99.71875 C-62.47236467 98.20640825 -62.47236467 98.20640825 -61.15234375 96.6015625 C-54.97947047 89.63271346 -45.270222 84.105699 -36.48046875 81.17578125 C-36.48046875 81.83578125 -36.48046875 82.49578125 -36.48046875 83.17578125 C-37.14046875 83.17578125 -37.80046875 83.17578125 -38.48046875 83.17578125 C-38.74859375 83.75070313 -39.01671875 84.325625 -39.29296875 84.91796875 C-43.21987403 92.38425577 -51.44749722 104.20155473 -59.6171875 106.875 C-61.60546875 106.92578125 -61.60546875 106.92578125 -65.48046875 106.17578125 C-66.72957031 105.98242188 -67.97867188 105.7890625 -69.265625 105.58984375 C-74.55060576 104.24235674 -77.32156265 100.81179373 -80.79296875 96.80078125 C-81.43959473 96.08196777 -82.0862207 95.3631543 -82.75244141 94.62255859 C-84.06030886 93.16717999 -85.36152942 91.70579851 -86.65576172 90.23828125 C-88.73806151 87.8846194 -90.86238291 85.57364483 -92.99755859 83.26806641 C-98.2190484 77.62600353 -103.34728581 71.89801797 -108.48046875 66.17578125 C-108.81046875 70.79578125 -109.14046875 75.41578125 -109.48046875 80.17578125 C-109.81046875 80.17578125 -110.14046875 80.17578125 -110.48046875 80.17578125 C-110.43664062 78.99242188 -110.3928125 77.8090625 -110.34765625 76.58984375 C-110.34765625 74.99348746 -110.35040901 73.39712952 -110.35546875 71.80078125 C-110.319375 71.02605469 -110.28328125 70.25132813 -110.24609375 69.453125 C-110.3980965 60.25695842 -113.93764087 59.71860913 -121.48046875 52.17578125 C-121.81046875 78.90578125 -122.14046875 105.63578125 -122.48046875 133.17578125 C-124.13046875 133.17578125 -125.78046875 133.17578125 -127.48046875 133.17578125 C-127.68058554 121.64094658 -127.8643163 110.10597895 -128.02705669 98.57055283 C-128.10313794 93.21434754 -128.18488873 87.85835325 -128.27954102 82.50244141 C-128.3706562 77.33492549 -128.44695099 72.16738483 -128.51291847 66.99948883 C-128.54071722 65.02662223 -128.57388067 63.05382378 -128.612463 61.08113861 C-128.66554168 58.32068157 -128.69964107 55.56059924 -128.72924805 52.79980469 C-128.74938461 51.98197006 -128.76952118 51.16413544 -128.79026794 50.32151794 C-128.81529964 45.92008287 -128.5507157 43.40300237 -125.48046875 40.17578125 C-124.8350433 38.38445213 -124.2568319 36.56813804 -123.73046875 34.73828125 C-117.65863716 15.95212562 -105.14608824 0.48262313 -87.7734375 -8.89453125 C-59.17934195 -23.43202097 -25.16799442 -19.43255941 0 0 Z " fill="#C44A5D" transform="translate(162.48046875,16.82421875)"/>
<path d="M0 0 C3.22091754 1.38790353 5.05349193 2.93346077 7.28125 5.625 C10.88766218 9.88502633 14.66221819 13.94856848 18.5 18 C23.45693966 23.232893 28.27686839 28.55529917 33 34 C34.47677835 35.66878324 35.95542661 37.33591759 37.4375 39 C38.11683594 39.763125 38.79617187 40.52625 39.49609375 41.3125 C40.24052734 42.1478125 40.24052734 42.1478125 41 43 C41.99 42.01 41.99 42.01 43 41 C38.71 36.38 34.42 31.76 30 27 C33.41662962 25.86112346 34.75975659 26.17484964 38.2265625 26.92578125 C39.25910156 27.14556641 40.29164062 27.36535156 41.35546875 27.59179688 C42.97388672 27.94854492 42.97388672 27.94854492 44.625 28.3125 C45.68074219 28.53873047 46.73648438 28.76496094 47.82421875 28.99804688 C53.88940527 30.3020244 59.94532228 31.64816944 66 33 C66.09796875 32.27554688 66.1959375 31.55109375 66.296875 30.8046875 C67.36201535 23.9180042 68.66426768 19.02300741 74 14.1875 C78.32259595 11.62095865 83.0545822 11.3549455 88 12 C94.38832245 14.12944082 97.92987833 17.45122 101.3125 23.25 C103.15353562 30.61414249 100.59017814 36.63032911 97 43 C98.175625 43.433125 99.35125 43.86625 100.5625 44.3125 C104.44987373 45.74469032 108.17392172 47.36025216 112 49 C112 59.56 112 70.12 112 81 C106.32515198 79.29754559 101.25853721 77.77651656 95.89038086 75.55126953 C90.26432415 73.24289122 85.50029526 71.30626179 79.3828125 72.5390625 C67.0538742 74.92400466 58.33855994 72.24455392 48 66 C49.32 63.69 50.64 61.38 52 59 C52.66 59 53.32 59 54 59 C54 58.34 54 57.68 54 57 C38.738793 65.25315578 38.738793 65.25315578 26.4609375 77.234375 C25.73777344 78.10835937 25.73777344 78.10835937 25 79 C24.34 79 23.68 79 23 79 C21.625 77.6015625 21.625 77.6015625 20 75.625 C17.13954645 72.25204852 14.15130339 69.10326523 11 66 C7.41441301 62.45767801 4.05108338 58.82444339 0.77734375 54.99609375 C-1.94977223 51.93333273 -4.89404637 49.09776507 -7.8125 46.21875 C-10.39225277 43.60214362 -12.77049907 40.85137049 -15.16015625 38.0625 C-18.59949534 34.20693516 -22.31043135 30.61427133 -26 27 C-22.67125775 19.04394022 -14.253403 13.10352167 -7.828125 7.60546875 C-5.0846069 5.19609709 -2.54914918 2.61287791 0 0 Z " fill="#FDA4A5" transform="translate(72,41)"/>
<path d="M0 0 C14.68210427 12.67896446 24.27550836 29.81600854 26.51953125 49.17578125 C26.86333588 55.65128711 26.75318706 62.14311899 26.71484375 68.625 C26.71110686 70.49257759 26.70826309 72.36015716 26.70626831 74.22773743 C26.69868502 79.10864818 26.67908295 83.98943717 26.65686035 88.87030029 C26.63628678 93.86468865 26.62724213 98.85909697 26.6171875 103.85351562 C26.59583135 113.62765724 26.56176055 123.40170906 26.51953125 133.17578125 C24.86953125 133.17578125 23.21953125 133.17578125 21.51953125 133.17578125 C21.51366501 132.13754211 21.50779877 131.09930298 21.50175476 130.02960205 C21.44432171 120.20280714 21.3714541 110.37622917 21.28381634 100.54965591 C21.23925717 95.498778 21.19996985 90.44797808 21.1730957 85.39697266 C21.14691772 80.51441099 21.10641474 75.63215177 21.05634499 70.74977875 C21.03977369 68.89528949 21.02819922 67.04074803 21.02191734 65.18619537 C20.9726053 51.95571622 20.10972684 40.05223781 13.83203125 28.11328125 C13.48245361 27.43773193 13.13287598 26.76218262 12.77270508 26.06616211 C3.1671748 7.9467859 -10.54633404 -2.58667354 -29.91796875 -9.26171875 C-47.31527708 -13.84202704 -68.54499509 -12.13574118 -84.48046875 -3.82421875 C-102.14183687 6.85137348 -112.8304761 20.64142784 -119.48046875 40.17578125 C-119.15046875 40.50578125 -118.82046875 40.83578125 -118.48046875 41.17578125 C-118.03767578 40.75804443 -117.59488281 40.34030762 -117.13867188 39.90991211 C-115.08731958 37.97622974 -113.03390558 36.04474976 -110.98046875 34.11328125 C-110.284375 33.45650391 -109.58828125 32.79972656 -108.87109375 32.12304688 C-105.34814428 28.81212677 -101.80269945 25.52793079 -98.19921875 22.3046875 C-97.57982422 21.74982666 -96.96042969 21.19496582 -96.32226562 20.62329102 C-94.4590813 19.15897237 -92.63225523 18.15508186 -90.48046875 17.17578125 C-79.81063764 28.57770296 -69.19276822 40.01907532 -58.76171875 51.640625 C-54.68663105 56.16927554 -50.5823582 60.67140995 -46.48046875 65.17578125 C-47.47046875 66.16578125 -48.46046875 67.15578125 -49.48046875 68.17578125 C-50.2075 67.38816406 -50.93453125 66.60054688 -51.68359375 65.7890625 C-52.1633667 65.26932861 -52.64313965 64.74959473 -53.13745117 64.21411133 C-54.21321563 63.04865862 -55.28889718 61.88312938 -56.36450195 60.7175293 C-59.11871034 57.7331041 -61.87403829 54.74973681 -64.6328125 51.76953125 C-72.72239603 43.02714496 -80.77648748 34.26252839 -88.48046875 25.17578125 C-92.19314969 26.71705476 -94.46162573 28.98421359 -97.23046875 31.86328125 C-100.92778563 35.64227671 -104.70439379 39.20049498 -108.71875 42.63671875 C-111.09199791 44.71002181 -113.28734137 46.91411864 -115.48046875 49.17578125 C-113.82311868 53.52500563 -110.56893629 56.26713992 -107.29296875 59.42578125 C-103.05843842 63.57705484 -98.99181651 67.76142102 -95.15234375 72.28515625 C-92.46782548 75.3209199 -89.5478689 78.11603574 -86.6640625 80.9609375 C-84.10563766 83.55597665 -81.75065534 86.28375239 -79.38671875 89.0546875 C-76.23424024 92.56246585 -72.81824801 95.80438721 -69.421875 99.07421875 C-67.48046875 101.17578125 -67.48046875 101.17578125 -67.48046875 103.17578125 C-66.79984375 102.49515625 -66.11921875 101.81453125 -65.41796875 101.11328125 C-64.94875 100.65308594 -64.47953125 100.19289063 -63.99609375 99.71875 C-62.47236467 98.20640825 -62.47236467 98.20640825 -61.15234375 96.6015625 C-54.97947047 89.63271346 -45.270222 84.105699 -36.48046875 81.17578125 C-36.48046875 81.83578125 -36.48046875 82.49578125 -36.48046875 83.17578125 C-37.14046875 83.17578125 -37.80046875 83.17578125 -38.48046875 83.17578125 C-38.74859375 83.75070313 -39.01671875 84.325625 -39.29296875 84.91796875 C-43.21987403 92.38425577 -51.44749722 104.20155473 -59.6171875 106.875 C-61.60546875 106.92578125 -61.60546875 106.92578125 -65.48046875 106.17578125 C-66.72957031 105.98242188 -67.97867188 105.7890625 -69.265625 105.58984375 C-74.55060576 104.24235674 -77.32156265 100.81179373 -80.79296875 96.80078125 C-81.43959473 96.08196777 -82.0862207 95.3631543 -82.75244141 94.62255859 C-84.06030886 93.16717999 -85.36152942 91.70579851 -86.65576172 90.23828125 C-88.73806151 87.8846194 -90.86238291 85.57364483 -92.99755859 83.26806641 C-98.2190484 77.62600353 -103.34728581 71.89801797 -108.48046875 66.17578125 C-108.81046875 70.79578125 -109.14046875 75.41578125 -109.48046875 80.17578125 C-109.81046875 80.17578125 -110.14046875 80.17578125 -110.48046875 80.17578125 C-110.43664062 78.99242188 -110.3928125 77.8090625 -110.34765625 76.58984375 C-110.34765625 74.99348746 -110.35040901 73.39712952 -110.35546875 71.80078125 C-110.319375 71.02605469 -110.28328125 70.25132813 -110.24609375 69.453125 C-110.3980965 60.25695842 -113.93764087 59.71860913 -121.48046875 52.17578125 C-121.81046875 78.90578125 -122.14046875 105.63578125 -122.48046875 133.17578125 C-124.13046875 133.17578125 -125.78046875 133.17578125 -127.48046875 133.17578125 C-127.68058554 121.64094658 -127.8643163 110.10597895 -128.02705669 98.57055283 C-128.10313794 93.21434754 -128.18488873 87.85835325 -128.27954102 82.50244141 C-128.3706562 77.33492549 -128.44695099 72.16738483 -128.51291847 66.99948883 C-128.54071722 65.02662223 -128.57388067 63.05382378 -128.612463 61.08113861 C-128.66554168 58.32068157 -128.69964107 55.56059924 -128.72924805 52.79980469 C-128.74938461 51.98197006 -128.76952118 51.16413544 -128.79026794 50.32151794 C-128.81529964 45.92008287 -128.5507157 43.40300237 -125.48046875 40.17578125 C-124.8350433 38.38445213 -124.2568319 36.56813804 -123.73046875 34.73828125 C-117.65863716 15.95212562 -105.14608824 0.48262313 -87.7734375 -8.89453125 C-59.17934195 -23.43202097 -25.16799442 -19.43255941 0 0 Z " fill="#E1400D" transform="translate(162.48046875,16.82421875)"/>
<path d="M0 0 C3.22091754 1.38790353 5.05349193 2.93346077 7.28125 5.625 C10.88766218 9.88502633 14.66221819 13.94856848 18.5 18 C23.45693966 23.232893 28.27686839 28.55529917 33 34 C34.47677835 35.66878324 35.95542661 37.33591759 37.4375 39 C38.11683594 39.763125 38.79617187 40.52625 39.49609375 41.3125 C40.24052734 42.1478125 40.24052734 42.1478125 41 43 C39.71324027 46.42021851 38.63025894 48.48410014 36 51 C35.67 51.99 35.34 52.98 35 54 C33.7934375 54.928125 33.7934375 54.928125 32.5625 55.875 C29.82297246 58.14680333 29.0234817 59.65042354 28 63 C27.34 63 26.68 63 26 63 C26 63.66 26 64.32 26 65 C28.97 65.66 31.94 66.32 35 67 C34.0925 68.051875 33.185 69.10375 32.25 70.1875 C30.34378338 72.3994306 28.52736129 74.61705609 26.75 76.9375 C26.1725 77.618125 25.595 78.29875 25 79 C24.34 79 23.68 79 23 79 C21.625 77.6015625 21.625 77.6015625 20 75.625 C17.13954645 72.25204852 14.15130339 69.10326523 11 66 C7.41441301 62.45767801 4.05108338 58.82444339 0.77734375 54.99609375 C-1.94977223 51.93333273 -4.89404637 49.09776507 -7.8125 46.21875 C-10.39225277 43.60214362 -12.77049907 40.85137049 -15.16015625 38.0625 C-18.59949534 34.20693516 -22.31043135 30.61427133 -26 27 C-22.67125775 19.04394022 -14.253403 13.10352167 -7.828125 7.60546875 C-5.0846069 5.19609709 -2.54914918 2.61287791 0 0 Z " fill="#F9511C" transform="translate(72,41)"/>
<path d="M0 0 C2.72763733 0.83927302 5.36298117 1.65229389 7.875 3.0234375 C15.21152318 6.94180783 23.88204213 7.28196475 31.99584961 5.58178711 C39.60679486 4.11380583 45.60073184 7.03819247 52.5625 9.9375 C56.666875 11.608125 60.77125 13.27875 65 15 C65 24.24 65 33.48 65 43 C45.53 43 26.06 43 6 43 C6.81873824 38.90630879 7.78770005 35.96091457 9.4765625 32.2578125 C10.96994949 25.816188 8.0167433 20.43291541 5.0625 14.9375 C2.64040154 10.35761078 0.48762348 5.99249556 -1 1 C-0.67 0.67 -0.34 0.34 0 0 Z " fill="#C44B5E" transform="translate(119,107)"/>
<path d="M0 0 C0.66 0 1.32 0 2 0 C3.46256659 2.7269181 4.91928541 5.4569188 6.375 8.1875 C6.7875 8.95642578 7.2 9.72535156 7.625 10.51757812 C13.62687072 21.79528682 13.62687072 21.79528682 12 29 C11.33715572 30.92181035 10.65072494 32.83559083 9.9453125 34.7421875 C9.58195801 35.72815918 9.21860352 36.71413086 8.84423828 37.72998047 C8.56563965 38.47908691 8.28704102 39.22819336 8 40 C1.09501681 40.10137822 -5.80977465 40.1714562 -12.71533203 40.21972656 C-15.06468884 40.23984814 -17.41399554 40.26714851 -19.76318359 40.30175781 C-23.13912315 40.3502504 -26.51440086 40.37296357 -29.890625 40.390625 C-30.94179504 40.41127014 -31.99296509 40.43191528 -33.07598877 40.45318604 C-40.39384462 40.45544041 -40.39384462 40.45544041 -43.69433594 37.97558594 C-44.12520508 37.32364258 -44.55607422 36.67169922 -45 36 C-43.7701024 33.43771333 -42.46140712 31.19211068 -40.875 28.8125 C-38.44865428 24.61825926 -38.48093282 20.73425065 -39 16 C-39.268125 15.113125 -39.53625 14.22625 -39.8125 13.3125 C-40.04769278 10.411789 -39.3759456 9.87789777 -37.5625 7.6875 C-36.2940625 6.3571875 -36.2940625 6.3571875 -35 5 C-32.48985768 6.11561881 -30.71878127 7.24421627 -28.625 9.0625 C-25.5501323 11.3320452 -23.78633063 11.70303289 -20 12 C-18.74574219 12.12890625 -17.49148437 12.2578125 -16.19921875 12.390625 C-12.7567498 12.37956993 -11.17044489 11.72988721 -8.6640625 9.375 C-7.62970796 8.26958293 -6.6167812 7.14376845 -5.625 6 C-3.77882818 3.96600425 -1.91054765 1.97521234 0 0 Z " fill="#FEA5A6" transform="translate(117,110)"/>
<path d="M0 0 C0.96147949 -0.0038269 1.92295898 -0.00765381 2.91357422 -0.01159668 C4.9443466 -0.01431602 6.97515399 -0.00695329 9.00585938 0.00976562 C12.1140757 0.03117475 15.21998056 0.00996454 18.328125 -0.015625 C20.30208843 -0.01298173 22.27605043 -0.00785676 24.25 0 C25.17925293 -0.00809692 26.10850586 -0.01619385 27.06591797 -0.02453613 C33.47106126 0.06853768 33.47106126 0.06853768 36.70898438 2.35961914 C38.72397022 5.44984312 38.65625636 7.80784904 38.625 11.46875 C38.6353125 12.67402344 38.645625 13.87929688 38.65625 15.12109375 C38.01424785 19.2421811 37.15951195 20.68641378 34.125 23.53125 C31.23135472 23.97496404 28.91638262 24.11462906 26.03515625 24.02734375 C24.4303384 24.02917388 22.82552068 24.03113092 21.22070312 24.03320312 C18.7013726 24.00593392 16.1824457 23.96866445 13.66333008 23.92602539 C11.22420094 23.89335742 8.78695139 23.89658296 6.34765625 23.90234375 C5.59855484 23.87756454 4.84945343 23.85278534 4.07765198 23.82725525 C1.12810562 23.84155193 -1.17609135 23.9239133 -3.46072388 25.90921021 C-4.67707497 27.38888523 -5.78511211 28.95610158 -6.875 30.53125 C-7.205 30.53125 -7.535 30.53125 -7.875 30.53125 C-7.545 28.22125 -7.215 25.91125 -6.875 23.53125 C-7.65875 23.428125 -8.4425 23.325 -9.25 23.21875 C-11.875 22.53125 -11.875 22.53125 -13.875 19.53125 C-14.12269941 16.99953157 -14.24514685 14.62466828 -14.25 12.09375 C-14.27835937 10.77503906 -14.30671875 9.45632812 -14.3359375 8.09765625 C-13.875 4.53125 -13.875 4.53125 -12.46337891 2.34155273 C-8.4942571 -0.43443653 -4.73464707 -0.04125473 0 0 Z " fill="#FE511B" transform="translate(106.875,24.46875)"/>
<path d="M0 0 C5.97278388 4.82905931 10.93790433 10.23819486 16 16 C16.77601562 16.84949219 17.55203125 17.69898437 18.3515625 18.57421875 C19.08117187 19.37472656 19.81078125 20.17523438 20.5625 21 C21.22378906 21.721875 21.88507813 22.44375 22.56640625 23.1875 C24 25 24 25 24 27 C22.53125 28.4453125 22.53125 28.4453125 20.5 30.125 C17.48727235 32.67996338 14.64152112 35.30507113 11.875 38.125 C8.73419266 41.31546437 5.4948314 44.20413488 2 47 C-1.57101809 45.51407301 -3.54542756 43.53257153 -6.0625 40.625 C-9.68374981 36.49677522 -13.34392718 32.41527373 -17.0625 28.375 C-18.01175678 27.34118075 -18.9609788 26.30732959 -19.91015625 25.2734375 C-20.59980469 24.52320312 -21.28945313 23.77296875 -22 23 C-18.730276 15.37638035 -10.91770567 9.78174928 -4.7265625 4.5078125 C-3.07703058 3.06727105 -1.52920426 1.56673075 0 0 Z " fill="#FFB769" transform="translate(74,46)"/>
<path d="M0 0 C3.97625021 1.57393237 6.18624632 4.15121424 9 7.3125 C9.9761568 8.40010385 10.95273424 9.48733028 11.9296875 10.57421875 C12.43338867 11.13802246 12.93708984 11.70182617 13.45605469 12.28271484 C15.98167182 15.09188482 18.55552496 17.856006 21.125 20.625 C25.37188218 25.21708548 29.57887349 29.84234877 33.75390625 34.5 C37.81440647 39.01951329 41.90925568 43.5078674 46 48 C45.01 48.99 44.02 49.98 43 51 C42.27296875 50.21238281 41.5459375 49.42476562 40.796875 48.61328125 C40.31710205 48.09354736 39.8373291 47.57381348 39.34301758 47.03833008 C38.26725312 45.87287737 37.19157157 44.70734813 36.1159668 43.54174805 C33.36175841 40.55732285 30.60643046 37.57395556 27.84765625 34.59375 C19.75807272 25.85136371 11.70398127 17.08674714 4 8 C0.28731906 9.54127351 -1.98115698 11.80843234 -4.75 14.6875 C-8.44731688 18.46649546 -12.22392504 22.02471373 -16.23828125 25.4609375 C-18.61152916 27.53424056 -20.80687262 29.73833739 -23 32 C-21.34264993 36.34922438 -18.08846754 39.09135867 -14.8125 42.25 C-10.57796967 46.40127359 -6.51134776 50.58563977 -2.671875 55.109375 C0.01264327 58.14513865 2.93259985 60.94025449 5.81640625 63.78515625 C8.37483109 66.3801954 10.72981341 69.10797114 13.09375 71.87890625 C16.24622851 75.3866846 19.66222074 78.62860596 23.05859375 81.8984375 C25 84 25 84 25 86 C25.680625 85.319375 26.36125 84.63875 27.0625 83.9375 C27.53171875 83.47730469 28.0009375 83.01710938 28.484375 82.54296875 C30.00810408 81.030627 30.00810408 81.030627 31.328125 79.42578125 C37.50099828 72.45693221 47.21024675 66.92991775 56 64 C56 64.66 56 65.32 56 66 C55.34 66 54.68 66 54 66 C53.731875 66.57492188 53.46375 67.14984375 53.1875 67.7421875 C49.26059472 75.20847452 41.03297153 87.02577348 32.86328125 89.69921875 C30.875 89.75 30.875 89.75 27 89 C25.75089844 88.80664062 24.50179687 88.61328125 23.21484375 88.4140625 C17.92986299 87.06657549 15.1589061 83.63601248 11.6875 79.625 C11.04087402 78.90618652 10.39424805 78.18737305 9.72802734 77.44677734 C8.42015989 75.99139874 7.11893933 74.53001726 5.82470703 73.0625 C3.74240724 70.70883815 1.61808584 68.39786358 -0.51708984 66.09228516 C-5.73857965 60.45022228 -10.86681706 54.72223672 -16 49 C-16.33 53.62 -16.66 58.24 -17 63 C-17.33 63 -17.66 63 -18 63 C-17.94457031 61.82824219 -17.88914062 60.65648437 -17.83203125 59.44921875 C-17.4579881 49.86457831 -17.4579881 49.86457831 -21.48046875 41.53125 C-23.40194676 39.59450955 -25.3896045 37.97558712 -27.53125 36.26171875 C-30 34 -30 34 -31.12109375 31.51171875 C-30.94168989 27.79053555 -29.24902908 26.62391115 -26.5625 24.125 C-25.16644531 22.81015625 -25.16644531 22.81015625 -23.7421875 21.46875 C-20.94782445 18.95302714 -18.14983966 16.44844527 -15.29296875 14.00390625 C-10.08885042 9.45584372 -5.06482727 4.70195093 0 0 Z " fill="#4E291F" transform="translate(70,34)"/>
<path d="M0 0 C3.41487146 3.5047365 5.94834072 7.00950144 6.03515625 12.03515625 C5.65267435 17.47386228 4.32999481 22.59172115 1 27 C-0.99609375 28.15234375 -0.99609375 28.15234375 -3 29 C-3.7425 29.37125 -4.485 29.7425 -5.25 30.125 C-9.79714288 31.57181819 -13.76557899 31.98136095 -18.15234375 30.0546875 C-23.24058879 27.04153681 -27.08287714 23.75136859 -29 18 C-29.78448812 11.4797463 -28.78215877 6.41007825 -25 1 C-17.66366252 -6.15292904 -8.15415209 -5.5810641 0 0 Z " fill="#FBB56A" transform="translate(168,57)"/>
<path d="M0 0 C0.66 0.66 1.32 1.32 2 2 C0.7934375 3.11375 0.7934375 3.11375 -0.4375 4.25 C-3.26294092 7.22010717 -3.26294092 7.22010717 -4 11 C-3.505 11.99 -3.505 11.99 -3 13 C-2.112287 18.31504115 -2.72728095 22.26776905 -5.5625 26.875 C-9.04120981 31.53224468 -12.3659356 33.42930758 -18.1640625 34.33984375 C-23.31186222 34.70248943 -27.04776602 33.65821077 -31.26953125 30.68359375 C-35.33127305 26.73187656 -36.69902097 21.90620052 -37.5625 16.4375 C-36.59096604 10.50034802 -33.67604921 6.59623734 -29.375 2.5 C-24.61694859 0.38531048 -20.13633506 0.33274197 -15 1 C-13.66176511 1.65677211 -12.32777835 2.32233719 -11 3 C-6.89277194 2.70662657 -3.54983057 2.12989834 0 0 Z " fill="#FD511D" transform="translate(82,113)"/>
<path d="M0 0 C4.97498485 4.02232818 9.22862758 8.32911431 13.4453125 13.13671875 C15.34508017 15.26596906 17.26574338 17.33886745 19.2421875 19.39453125 C19.79237549 19.97195068 20.34256348 20.54937012 20.90942383 21.14428711 C21.99542962 22.28129716 23.088841 23.41128835 24.19018555 24.53344727 C28 28.5526807 28 28.5526807 28 33 C22.96443929 35.30197061 19.92023787 35.63784905 14.63671875 33.8828125 C10.59342545 32.09854015 8.48848556 29.23341279 6.1875 25.5625 C5.61612305 24.70301758 5.61612305 24.70301758 5.03320312 23.82617188 C3.98980184 22.23822841 2.99299723 20.61994049 2 19 C1.58621094 18.36449219 1.17242187 17.72898437 0.74609375 17.07421875 C-0.41261026 13.85290027 -0.20793032 10.6246261 -0.125 7.25 C-0.11597656 6.55261719 -0.10695312 5.85523437 -0.09765625 5.13671875 C-0.07419888 3.42433042 -0.03833104 1.71211996 0 0 Z " fill="#FCA3A4" transform="translate(53,82)"/>
<path d="M0 0 C0.66 0 1.32 0 2 0 C4.82605874 4.2390881 4.66012246 8.02124503 4 13 C1.94892412 16.39488422 0.29515379 17.80323081 -3 20 C-11.2173913 20.52173913 -11.2173913 20.52173913 -15 18 C-13.35009794 13.70402861 -10.18257193 10.99482354 -6.9375 7.875 C-2.9955106 4.30446634 -2.9955106 4.30446634 0 0 Z " fill="#FDC1C1" transform="translate(160,123)"/>
<path d="M0 0 C2.31 1.98 4.62 3.96 7 6 C7.969375 6.7425 8.93875 7.485 9.9375 8.25 C13.09056538 12.45408717 12.34422871 15.8365694 12 21 C8.04 21.33 4.08 21.66 0 22 C0 14.74 0 7.48 0 0 Z " fill="#C34959" transform="translate(40,68)"/>
<path d="M0 0 C1.67004829 0.31595508 3.33637583 0.65179959 5 1 C8.80509547 1.13657544 8.80509547 1.13657544 11.6875 0.4375 C12.8321875 0.2209375 12.8321875 0.2209375 14 0 C15 1 15 1 15.5 4.0625 C14.79895713 9.58321259 11.86851675 12.2005639 8 16 C3.19552465 13.95888302 0.50256606 10.50461891 -2 6 C-1.91304348 1.91304348 -1.91304348 1.91304348 0 0 Z " fill="#C54A5B" transform="translate(54,123)"/>
<path d="M0 0 C0.66 0 1.32 0 2 0 C2 0.66 2 1.32 2 2 C2.66 2.33 3.32 2.66 4 3 C1.69 5.31 -0.62 7.62 -3 10 C-2.236875 9.38125 -1.47375 8.7625 -0.6875 8.125 C2 6 2 6 5 4 C3.34136495 8.32504836 0.128959 11.09418825 -3.125 14.25 C-3.68832031 14.80429688 -4.25164062 15.35859375 -4.83203125 15.9296875 C-6.21686028 17.29104485 -7.60783204 18.64614859 -9 20 C-6.46285532 18.00383328 -4.06526844 16.06713325 -1.8125 13.75 C0 12 0 12 2 12 C2 14 2 14 0.49609375 15.515625 C-0.18324219 16.08796875 -0.86257812 16.6603125 -1.5625 17.25 C-2.64724609 18.17232422 -2.64724609 18.17232422 -3.75390625 19.11328125 C-4.49511719 19.73589844 -5.23632812 20.35851562 -6 21 C-7.33427675 22.14473463 -8.66769833 23.29046728 -10 24.4375 C-10.99 25.283125 -11.98 26.12875 -13 27 C-13 26.34 -13 25.68 -13 25 C-13.66 24.67 -14.32 24.34 -15 24 C-14.34 23.01 -13.68 22.02 -13 21 C-14.98 21.99 -14.98 21.99 -17 23 C-16.61328125 22.55269531 -16.2265625 22.10539062 -15.828125 21.64453125 C-15.30734375 21.03996094 -14.7865625 20.43539062 -14.25 19.8125 C-13.73953125 19.22082031 -13.2290625 18.62914063 -12.703125 18.01953125 C-10.75955818 15.71488894 -8.88331086 13.35413857 -7 11 C-10.3 14.3 -13.6 17.6 -17 21 C-17 18 -17 18 -15.54711914 16.22241211 C-14.88317139 15.58053955 -14.21922363 14.93866699 -13.53515625 14.27734375 C-12.81779297 13.57416016 -12.10042969 12.87097656 -11.36132812 12.14648438 C-10.60271484 11.41751953 -9.84410156 10.68855469 -9.0625 9.9375 C-7.57214324 8.49041576 -6.08376069 7.04129463 -4.59765625 5.58984375 C-3.93258057 4.94909912 -3.26750488 4.30835449 -2.58227539 3.64819336 C-0.91220389 2.0717478 -0.91220389 2.0717478 0 0 Z " fill="#91381C" transform="translate(105,81)"/>
<path d="M0 0 C1.03722913 1.30458174 2.04220441 2.63603322 3 4 C-14.33606557 13 -14.33606557 13 -19 13 C-19.375 9.75 -19.375 9.75 -19 6 C-14.35129783 1.81616805 -6.27391167 -2.68881929 0 0 Z " fill="#B86B58" transform="translate(95,8)"/>
<path d="M0 0 C2.00378589 2.47133593 3.02940643 3.97077487 2.9375 7.1875 C2 9 2 9 0.375 10.25 C-2.96279791 11.30404145 -5.51223685 11.36080308 -9 11 C-12.4375 9.1875 -12.4375 9.1875 -15 7 C-15 6.01 -15 5.02 -15 4 C-13.4470724 3.12855131 -11.88214564 2.27846343 -10.3125 1.4375 C-9.44238281 0.96183594 -8.57226562 0.48617187 -7.67578125 -0.00390625 C-4.57296589 -1.1589689 -3.10051558 -1.08120543 0 0 Z " fill="#F85C5B" transform="translate(172,35)"/>
<path d="M0 0 C3.63 0 7.26 0 11 0 C10.76284882 4.11062043 10.63415913 6.33060981 7.75 9.375 C5 11 5 11 0 12 C0 8.04 0 4.08 0 0 Z " fill="#FCB166" transform="translate(40,90)"/>
<path d="M0 0 C3.3 0 6.6 0 10 0 C11 4 11 4 9.0625 7.25 C8.381875 8.1575 7.70125 9.065 7 10 C4.6875 9.8125 4.6875 9.8125 2 9 C0.125 6.6875 0.125 6.6875 -1 4 C-0.67 2.68 -0.34 1.36 0 0 Z " fill="#FA5C58" transform="translate(128,32)"/>
<path d="M0 0 C3.63 0 7.26 0 11 0 C11 6.19519509 9.98542156 6.71567182 6 11 C3.5625 9.4375 3.5625 9.4375 1 7 C0.1875 3.25 0.1875 3.25 0 0 Z " fill="#FA5C58" transform="translate(113,32)"/>
<path d="M0 0 C3.3 0 6.6 0 10 0 C9.63076923 6.4 9.63076923 6.4 6.4375 9.4375 C5.2309375 10.2109375 5.2309375 10.2109375 4 11 C0.38860104 7.21243523 0.38860104 7.21243523 -1 5 C-0.8125 2.125 -0.8125 2.125 0 0 Z " fill="#FA5C58" transform="translate(99,32)"/>
<path d="M0 0 C0.86625 0.37125 0.86625 0.37125 1.75 0.75 C3.07 6.15 3.07 6.15 1.75 8.625 C-1.23294634 10.30290731 -3.89970039 9.9396396 -7.25 9.75 C-6.9314443 6.24588735 -6.55932553 4.1659895 -4.4375 1.3125 C-2.25 -0.25 -2.25 -0.25 0 0 Z " fill="#E49391" transform="translate(107.25,95.25)"/>
<path d="M0 0 C1.32 0.33 2.64 0.66 4 1 C4 2.98 4 4.96 4 7 C2.02 7 0.04 7 -2 7 C-2.33 5.68 -2.66 4.36 -3 3 C-2.01 3 -1.02 3 0 3 C0 2.01 0 1.02 0 0 Z " fill="#FA5C57" transform="translate(82,91)"/>
<path d="M0 0 C0.99 0.33 1.98 0.66 3 1 C-2.28 5.95 -7.56 10.9 -13 16 C-13 13 -13 13 -11.80664062 11.46606445 C-11.26201172 10.937146 -10.71738281 10.40822754 -10.15625 9.86328125 C-9.56972656 9.28642578 -8.98320313 8.70957031 -8.37890625 8.11523438 C-7.75886719 7.52033203 -7.13882813 6.92542969 -6.5 6.3125 C-5.87996094 5.70599609 -5.25992188 5.09949219 -4.62109375 4.47460938 C-3.08735293 2.97626257 -1.54451802 1.48723507 0 0 Z " fill="#DC4C1F" transform="translate(109,87)"/>
<path d="M0 0 C0.33 0.99 0.66 1.98 1 3 C-1.31 5.31 -3.62 7.62 -6 10 C-6.66 9.34 -7.32 8.68 -8 8 C-5.36 5.36 -2.72 2.72 0 0 Z " fill="#FFB4AA" transform="translate(97,84)"/>
<path d="M0 0 C-1.55603771 3.81936528 -3.95604931 6.26044438 -7 9 C-7.66 9 -8.32 9 -9 9 C-7.45665977 5.21180126 -4.44676575 0 0 0 Z " fill="#FFB3AA" transform="translate(96,82)"/>
<path d="M0 0 C1.98 0.495 1.98 0.495 4 1 C4 2.32 4 3.64 4 5 C2.35 4.67 0.7 4.34 -1 4 C-0.67 2.68 -0.34 1.36 0 0 Z " fill="#F34F25" transform="translate(51,44)"/>
<path d="M0 0 C1.98 0.495 1.98 0.495 4 1 C3.67 2.32 3.34 3.64 3 5 C1.68 4.67 0.36 4.34 -1 4 C-0.67 2.68 -0.34 1.36 0 0 Z " fill="#F44F25" transform="translate(115,11)"/>
<path d="M0 0 C0.99 0.33 1.98 0.66 3 1 C3 2.32 3 3.64 3 5 C1.35 4.67 -0.3 4.34 -2 4 C-1.34 2.68 -0.68 1.36 0 0 Z " fill="#F75022" transform="translate(139,123)"/>
<path d="M0 0 C1.98 0.495 1.98 0.495 4 1 C3.67 2.32 3.34 3.64 3 5 C1.68 4.67 0.36 4.34 -1 4 C-0.67 2.68 -0.34 1.36 0 0 Z " fill="#573625" transform="translate(163,69)"/>
<path d="M0 0 C0.99 0.33 1.98 0.66 3 1 C3 2.32 3 3.64 3 5 C1.35 4.67 -0.3 4.34 -2 4 C-1.34 2.68 -0.68 1.36 0 0 Z " fill="#573625" transform="translate(146,65)"/>
<path d="M0 0 C0.99 0.33 1.98 0.66 3 1 C3 2.32 3 3.64 3 5 C1.35 4.67 -0.3 4.34 -2 4 C-1.34 2.68 -0.68 1.36 0 0 Z " fill="#F64F23" transform="translate(127,58)"/>
<path d="M0 0 C1.98 0.495 1.98 0.495 4 1 C3.67 1.99 3.34 2.98 3 4 C1.68 4 0.36 4 -1 4 C-0.67 2.68 -0.34 1.36 0 0 Z " fill="#FA501F" transform="translate(175,138)"/>
<path d="M0 0 C1.32 0.33 2.64 0.66 4 1 C3.67 2.32 3.34 3.64 3 5 C2.01 4.67 1.02 4.34 0 4 C0 2.68 0 1.36 0 0 Z " fill="#FA501F" transform="translate(176,77)"/>
<path d="M0 0 C0.66 0 1.32 0 2 0 C1.75 1.875 1.75 1.875 1 4 C-1.0625 5.25 -1.0625 5.25 -3 6 C-2.42655063 3.13275314 -2.1385485 2.1385485 0 0 Z " fill="#78311B" transform="translate(60,46)"/>
</svg>
