<?xml version="1.0" encoding="UTF-8"?>
<svg version="1.1" xmlns="http://www.w3.org/2000/svg" width="215" height="151">
<path d="M0 0 C10.61310427 3.18393128 21.52347322 7.46796356 29 16 C29 16.66 29 17.32 29 18 C30.7015625 18.2165625 30.7015625 18.2165625 32.4375 18.4375 C36 19 36 19 37 20 C36.30232558 26.39534884 36.30232558 26.39534884 35 29 C36.093125 29.4125 37.18625 29.825 38.3125 30.25 C41.61053532 31.49454163 43.22329554 32.93114685 45 36 C45.94814669 42.74917324 45.0450806 48.9098388 42 55 C39.51472384 54.58578731 37.4065363 54.22429589 35.1875 53 C31.83211438 51.46610943 28.66573123 50.57153791 25 51 C22.29455894 52.66606257 20.1549469 54.67669788 18 57 C21.85408869 67.09994304 25.36607459 75.09285968 34 82 C34.60666504 82.48533203 35.21333008 82.97066406 35.83837891 83.47070312 C45.30630239 90.98659512 55.10833815 98.05545769 65 105 C65.7734375 104.34386719 66.546875 103.68773438 67.34375 103.01171875 C70 101 70 101 72.5 100.8125 C76.96960045 102.93556021 79.03121919 107.24842208 81.36328125 111.46484375 C83.15988007 114.2476424 85.07627106 116.12956705 87.5625 118.3125 C88.44292969 119.08722656 89.32335937 119.86195313 90.23046875 120.66015625 C93.66986031 123.56593276 97.19271995 126.34884843 100.7734375 129.078125 C104.96546189 132.69650395 107.09175855 135.54143469 108 141 C100.41949914 141.07614689 92.83909716 141.1286408 85.25830078 141.16479492 C82.68013829 141.17986905 80.10200138 141.20033167 77.52392578 141.22631836 C73.81536539 141.26276086 70.10714446 141.27974052 66.3984375 141.29296875 C65.24822113 141.30845261 64.09800476 141.32393646 62.91293335 141.33988953 C57.21054027 141.3410852 52.87725171 141.32928095 48 138 C46.125 136.125 46.125 136.125 45 134 C45.0928125 133.26394531 45.185625 132.52789062 45.28125 131.76953125 C44.8576804 127.59854726 42.1995517 125.41710012 39.375 122.5625 C38.85292969 122.01529297 38.33085938 121.46808594 37.79296875 120.90429688 C36.73434073 119.79992566 35.66113589 118.70935334 34.57421875 117.6328125 C33 116 33 116 31.67578125 114.2578125 C29.45881863 111.51084715 28.00034696 110.15832624 24.44091797 109.5949707 C21.35673391 109.55249947 18.32787526 109.6745978 15.25 109.875 C5.68456385 110.43556795 -1.57969116 109.74508709 -9.62890625 104.18359375 C-10.26699219 103.60738281 -10.90507813 103.03117187 -11.5625 102.4375 C-15.22186032 99.39880857 -18.3734977 97.96495949 -22.91796875 96.68359375 C-26.37716141 95.54783631 -29.41540731 93.58459269 -32 91 C-32.13568319 87.33655389 -32.16461426 84.49384279 -31 81 C-31.33 80.34 -31.66 79.68 -32 79 C-32.16796875 76.94140625 -32.16796875 76.94140625 -32.1875 74.5625 C-32.20876953 73.38880859 -32.20876953 73.38880859 -32.23046875 72.19140625 C-32 70 -32 70 -30 67 C-30.08756973 64.83497829 -30.08756973 64.83497829 -30.5625 62.5625 C-31.14413468 58.31102747 -31.14413468 58.31102747 -29.8125 55.4375 C-28 54 -28 54 -24 54 C-24.0928125 52.1128125 -24.0928125 52.1128125 -24.1875 50.1875 C-24.16521115 47.66886049 -24.13502197 46.27004394 -23 44 C-19.67072145 42.33536072 -16.69101521 42.76564983 -13 43 C-12.34 43.33 -11.68 43.66 -11 44 C-10.87882812 43.43410156 -10.75765625 42.86820313 -10.6328125 42.28515625 C-10.46523437 41.55167969 -10.29765625 40.81820312 -10.125 40.0625 C-9.96257812 39.33160156 -9.80015625 38.60070313 -9.6328125 37.84765625 C-9 36 -9 36 -7 35 C-6.34 35.33 -5.68 35.66 -5 36 C-5.22309179 26.58552638 -5.64231425 18.25723861 -9.2578125 9.41796875 C-10.06617882 6.78439638 -9.93888815 5.5492596 -9 3 C-2.25 2.875 -2.25 2.875 0 4 C0 2.68 0 1.36 0 0 Z " fill="#FDAB7B" transform="translate(79,10)"/>
<path d="M0 0 C10.61310427 3.18393128 21.52347322 7.46796356 29 16 C29 16.66 29 17.32 29 18 C30.7015625 18.2165625 30.7015625 18.2165625 32.4375 18.4375 C36 19 36 19 37 20 C36.30232558 26.39534884 36.30232558 26.39534884 35 29 C36.093125 29.4125 37.18625 29.825 38.3125 30.25 C41.61053532 31.49454163 43.22329554 32.93114685 45 36 C45.94814669 42.74917324 45.0450806 48.9098388 42 55 C39.51472384 54.58578731 37.4065363 54.22429589 35.1875 53 C31.83576497 51.46777827 28.66264593 50.56266914 25 51 C22.89734481 52.40177013 21.2716583 53.91044437 19.54296875 55.75 C18.77919922 56.36875 18.77919922 56.36875 18 57 C14.57552315 55.85850772 13.6641239 55.15307687 12 52 C13.6695993 45.98035625 17.86720424 40.63913383 21.1875 35.41796875 C21.91839844 34.24814453 21.91839844 34.24814453 22.6640625 33.0546875 C23.11217285 32.34812012 23.5602832 31.64155273 24.02197266 30.91357422 C25.22755153 28.91295126 25.22755153 28.91295126 25 26 C23.84242187 25.61328125 22.68484375 25.2265625 21.4921875 24.828125 C19.95296954 24.30253838 18.41391564 23.77647114 16.875 23.25 C16.11445312 22.99734375 15.35390625 22.7446875 14.5703125 22.484375 C9.8619152 20.86078973 6.09974534 18.89536911 2 16 C1.01 15.67 0.02 15.34 -1 15 C-0.83701416 15.71567139 -0.67402832 16.43134277 -0.50610352 17.16870117 C-0.00807929 19.95480197 0.1141835 22.47462208 0.09765625 25.30078125 C0.09443359 26.27724609 0.09121094 27.25371094 0.08789062 28.25976562 C0.07951172 29.26716797 0.07113281 30.27457031 0.0625 31.3125 C0.05798828 32.33923828 0.05347656 33.36597656 0.04882812 34.42382812 C0.03708184 36.94927882 0.02065565 39.47460905 0 42 C-3.83148354 39.58285775 -3.83148354 39.58285775 -4.57421875 37.01391602 C-4.61160156 36.26811279 -4.64898437 35.52230957 -4.6875 34.75390625 C-4.74446045 33.92181641 -4.8014209 33.08972656 -4.86010742 32.23242188 C-4.90627197 31.35134766 -4.95243652 30.47027344 -5 29.5625 C-5.52228972 22.33219356 -6.50987934 16.07845589 -9.29296875 9.3125 C-10.07835072 6.74373686 -9.90547266 5.49149164 -9 3 C-2.25 2.875 -2.25 2.875 0 4 C0 2.68 0 1.36 0 0 Z " fill="#C75F39" transform="translate(79,10)"/>
<path d="M0 0 C5.21767789 3.47845192 7.49434317 6.7606626 8.875 12.875 C9.26937869 17.23781422 8.16936389 20.16745713 6 24 C1.68488243 29.01486636 -3.63441156 33.63851815 -10.453125 34.203125 C-19.50506949 34.35483357 -25.4438612 32.25120211 -32 26 C-34.9273958 21.33415072 -34.60449233 16.32418247 -34 11 C-31.10238164 4.60109278 -25.27237587 0.49983894 -19 -2.375 C-11.94548853 -3.84468989 -6.39472128 -3.21108322 0 0 Z " fill="#FFC518" transform="translate(171,13)"/>
<path d="M0 0 C4.05013757 2.63345855 7.94745534 6.55994753 9.4921875 11.203125 C10.65367739 18.21354614 9.90166802 23.34238768 5.8203125 29.18359375 C2.26267288 32.93629977 -1.00963166 35.01539374 -6.25390625 35.421875 C-19.38372 35.69156847 -19.38372 35.69156847 -25.1796875 31.18359375 C-29.54616188 26.70221215 -31.26716502 22.55797761 -31.6171875 16.37109375 C-31.50256278 10.87729485 -29.69502387 7.33111595 -26.1796875 3.18359375 C-19.21493511 -3.28367633 -8.65590284 -3.78469392 0 0 Z " fill="#FFC518" transform="translate(182.1796875,57.81640625)"/>
<path d="M0 0 C3.47635388 1.50800739 5.86629902 3.54601895 8.625 6.125 C12.84897323 10.01155525 17.20951429 13.59943435 21.7734375 17.078125 C26.14222432 20.84907784 27.84877719 23.24388593 29 29 C11.18 29 -6.64 29 -25 29 C-23.86570892 24.4628357 -22.69696014 23.40134587 -19.375 20.25 C-15.60624867 16.59918968 -12.08012158 12.8789338 -8.671875 8.89453125 C-5.92746498 5.78462737 -2.97206494 2.89076226 0 0 Z " fill="#FE4A3C" transform="translate(158,122)"/>
<path d="M0 0 C3.64959566 3.03296456 6.27958802 5.47206775 6.99609375 10.3515625 C7.2976198 15.81557995 6.3409761 18.98761122 2.6875 23.25 C-0.1905508 26.23083832 -3.11807245 26.95032297 -7.234375 27.30859375 C-13.24459236 27.13913273 -17.58639399 23.48951729 -21.9296875 19.75 C-24.86365815 16.56738777 -24.64418998 12.62347652 -24.59765625 8.53515625 C-24.04367579 4.09572383 -21.52151143 1.34566661 -18.3125 -1.5625 C-12.11215412 -5.24395536 -5.66783968 -4.06038607 0 0 Z " fill="#FFC518" transform="translate(137.3125,69.75)"/>
<path d="M0 0 C0.45890625 0.39832031 0.9178125 0.79664063 1.390625 1.20703125 C2.00421875 1.73683594 2.6178125 2.26664063 3.25 2.8125 C3.88679688 3.36292969 4.52359375 3.91335937 5.1796875 4.48046875 C7.0420354 6.08419402 7.0420354 6.08419402 9.375 7.625 C11.48877014 9.41357473 11.70256661 10.24874113 12 13 C11.9175 14.175625 11.835 15.35125 11.75 16.5625 C11.66421671 20.42274813 12.75963527 22.89043452 14.5 26.3125 C16.98671483 31.31379201 17.41208636 35.06025214 16.98046875 40.58984375 C17.00240496 43.29677197 17.71494127 44.66079153 19 47 C18.8125 49.1875 18.8125 49.1875 18 51 C14.50284756 52.16571748 11.62196323 52.2042776 7.9375 52.25 C6.68839844 52.27578125 5.43929687 52.3015625 4.15234375 52.328125 C3.11207031 52.21984375 2.07179688 52.1115625 1 52 C0.34 51.01 -0.32 50.02 -1 49 C-1.99 48.67 -2.98 48.34 -4 48 C-3.01 47.34 -2.02 46.68 -1 46 C-1.58174845 40.6913151 -1.58174845 40.6913151 -4 36 C-2.02 35.505 -2.02 35.505 0 35 C-0.33 32.36 -0.66 29.72 -1 27 C0.65 26.34 2.3 25.68 4 25 C4.41851726 22.66134169 4.41851726 22.66134169 4 20 C1.82245872 17.87011764 1.82245872 17.87011764 -1 16.1875 C-1.928125 15.58292969 -2.85625 14.97835937 -3.8125 14.35546875 C-4.534375 13.90816406 -5.25625 13.46085937 -6 13 C-5.34 12.67 -4.68 12.34 -4 12 C-2.66666667 12.66666667 -1.33333333 13.33333333 0 14 C1.99110401 14.38290462 3.99100513 14.72604615 6 15 C4.58905803 11.57342664 3.25215248 8.41091515 1.3125 5.25 C0 3 0 3 0 0 Z " fill="#C85E38" transform="translate(70,57)"/>
<path d="M0 0 C3.67522927 1.70315503 5.94649345 4.47068493 7.5625 8.1875 C7.53541058 11.43145803 6.29023908 12.48810354 4.0859375 14.921875 C3.04300662 15.93387574 1.99314832 16.93877234 0.9375 17.9375 C-0.16328961 19.00723336 -1.26225482 20.07884734 -2.359375 21.15234375 C-2.89111328 21.6716748 -3.42285156 22.19100586 -3.97070312 22.72607422 C-6.97648358 25.72084816 -9.7075571 28.94352206 -12.4375 32.1875 C-13.58266844 33.52140444 -14.72847349 34.85476268 -15.875 36.1875 C-16.720625 37.1775 -17.56625 38.1675 -18.4375 39.1875 C-21.94871797 38.8948985 -23.24232666 38.3775372 -25.8125 35.875 C-27.4375 33.1875 -27.4375 33.1875 -27.24609375 31.32421875 C-24.41638432 23.84667739 -8.42731731 0.64825518 0 0 Z " fill="#FEFCFB" transform="translate(151.4375,110.8125)"/>
<path d="M0 0 C3.23725698 0.5337705 4.98201868 0.98787662 7.7578125 2.859375 C11.64121639 5.42335733 15.48489796 6.79159322 19.875 8.25 C20.65875 8.518125 21.4425 8.78625 22.25 9.0625 C24.16404067 9.71607486 26.08166749 10.35913168 28 11 C23.84048306 20.05306629 18.83411906 27.96188041 13 36 C11.68 35.34 10.36 34.68 9 34 C9 32.35 9 30.7 9 29 C7.68 28.34 6.36 27.68 5 27 C4.67 27.99 4.34 28.98 4 30 C3.01 29.34 2.02 28.68 1 28 C0.56762695 25.20263672 0.56762695 25.20263672 0.48828125 21.6796875 C0.45283203 20.42285156 0.41738281 19.16601562 0.38085938 17.87109375 C0.35830078 16.55238281 0.33574219 15.23367187 0.3125 13.875 C0.27933471 12.53512241 0.24484578 11.19527689 0.20898438 9.85546875 C0.12626673 6.5703967 0.05719307 3.28559968 0 0 Z " fill="#FDF8F7" transform="translate(78,25)"/>
<path d="M0 0 C7.14285714 0.35714286 7.14285714 0.35714286 10.5 2.875 C13.23121577 8.56503285 12.64092597 14.5644813 11.0625 20.5625 C10.4107236 22.05775175 9.72946423 23.54107155 9 25 C6.51472384 24.58578731 4.4065363 24.22429589 2.1875 23 C-1.16664009 21.46667882 -4.33512138 20.57004217 -8 21 C-10.13507678 22.36095537 -11.78519299 23.84581331 -13.5546875 25.65234375 C-15 27 -15 27 -17 27 C-16.36977359 23.6324362 -15.10981298 21.39698048 -13.1640625 18.59375 C-12.59429687 17.76746094 -12.02453125 16.94117187 -11.4375 16.08984375 C-10.839375 15.23519531 -10.24125 14.38054688 -9.625 13.5 C-9.03460938 12.64535156 -8.44421875 11.79070313 -7.8359375 10.91015625 C-5.28345234 7.22514952 -2.70667834 3.57382725 0 0 Z " fill="#FCC117" transform="translate(112,40)"/>
<path d="M0 0 C1.32 0.66 2.64 1.32 4 2 C4 5 4 5 2.57421875 6.61328125 C1.95160156 7.17402344 1.32898438 7.73476562 0.6875 8.3125 C-3.08807939 11.94286479 -5.51515991 15.22948519 -6.4375 20.5 C-6.02746212 23.83190304 -6.02746212 23.83190304 -2 29 C-9.59 29 -17.18 29 -25 29 C-23.86570892 24.4628357 -22.69696014 23.40134587 -19.375 20.25 C-15.60624867 16.59918968 -12.08012158 12.8789338 -8.671875 8.89453125 C-5.92746498 5.78462737 -2.97206494 2.89076226 0 0 Z " fill="#CF1732" transform="translate(158,122)"/>
<path d="M0 0 C0.45890625 0.39832031 0.9178125 0.79664063 1.390625 1.20703125 C2.00421875 1.73683594 2.6178125 2.26664063 3.25 2.8125 C3.88679688 3.36292969 4.52359375 3.91335937 5.1796875 4.48046875 C7.0420354 6.08419402 7.0420354 6.08419402 9.375 7.625 C11.48877014 9.41357473 11.70256661 10.24874113 12 13 C11.9175 14.175625 11.835 15.35125 11.75 16.5625 C11.63863336 21.49975432 13.71014041 25.25691542 15.90625 29.58203125 C17 32 17 32 17 35 C12.8575633 33.61918777 11.67796901 31.40174442 9 28 C7.35 28.33 5.7 28.66 4 29 C4.20625 29.928125 4.4125 30.85625 4.625 31.8125 C5 35 5 35 3 38 C2.67353349 40.31832548 2.56038563 42.60403705 2.44140625 44.94140625 C2 47 2 47 -1 49 C-1.99 48.67 -2.98 48.34 -4 48 C-3.01 47.34 -2.02 46.68 -1 46 C-1.58174845 40.6913151 -1.58174845 40.6913151 -4 36 C-2.02 35.505 -2.02 35.505 0 35 C-0.33 32.36 -0.66 29.72 -1 27 C0.65 26.34 2.3 25.68 4 25 C4.41851726 22.66134169 4.41851726 22.66134169 4 20 C1.82245872 17.87011764 1.82245872 17.87011764 -1 16.1875 C-1.928125 15.58292969 -2.85625 14.97835937 -3.8125 14.35546875 C-4.534375 13.90816406 -5.25625 13.46085937 -6 13 C-5.34 12.67 -4.68 12.34 -4 12 C-2.66666667 12.66666667 -1.33333333 13.33333333 0 14 C1.99110401 14.38290462 3.99100513 14.72604615 6 15 C4.58905803 11.57342664 3.25215248 8.41091515 1.3125 5.25 C0 3 0 3 0 0 Z " fill="#FE5040" transform="translate(70,57)"/>
<path d="M0 0 C-0.47391748 7.11722506 -2.71978624 12.90873178 -5.5 19.4375 C-5.91636719 20.44232422 -6.33273438 21.44714844 -6.76171875 22.48242188 C-9.83326982 29.83326982 -9.83326982 29.83326982 -11 31 C-12.68608966 31.07205511 -14.37500659 31.08386068 -16.0625 31.0625 C-16.98160156 31.05347656 -17.90070312 31.04445312 -18.84765625 31.03515625 C-19.55792969 31.02355469 -20.26820312 31.01195312 -21 31 C-20.4817905 26.50666448 -19.43441677 23.5720945 -16.9375 19.8125 C-16.31230469 18.87019531 -15.68710937 17.92789063 -15.04296875 16.95703125 C-3.32760898 0 -3.32760898 0 0 0 Z " fill="#FFC416" transform="translate(68,120)"/>
<path d="M0 0 C1.65 0.33 3.3 0.66 5 1 C5.2233411 7.9732055 5.18031711 13.63936577 2 20 C-0.50109193 19.58315135 -2.62611996 19.19940269 -4.875 18 C-7.83373456 16.60765433 -10.77304997 16.37234039 -14 16 C-12.60323486 12.64488374 -11.12735072 11.13034369 -8.125 9.125 C-4.3784957 6.45476421 -2.27228444 3.97649777 0 0 Z " fill="#923316" transform="translate(119,45)"/>
<path d="M0 0 C10.61310427 3.18393128 21.52347322 7.46796356 29 16 C29 16.66 29 17.32 29 18 C18.72433594 18.893536 10.72580562 13.45409065 2.2734375 8.1953125 C0 6 0 6 -0.3359375 2.7421875 C-0.22507812 1.83726563 -0.11421875 0.93234375 0 0 Z " fill="#8F2F17" transform="translate(79,10)"/>
<path d="M0 0 C0.90105469 0.00902344 1.80210937 0.01804688 2.73046875 0.02734375 C3.41753906 0.03894531 4.10460937 0.05054688 4.8125 0.0625 C4.8125 0.3925 4.8125 0.7225 4.8125 1.0625 C3.94238281 1.19205078 3.94238281 1.19205078 3.0546875 1.32421875 C-2.7917881 2.37581255 -6.10488041 3.68826473 -10.1875 8.0625 C-12.97679325 12.99025141 -14.16585559 17.48917099 -13.1875 23.0625 C-11.19382438 28.50286908 -7.70908766 31.62216157 -3.1875 35.0625 C-2.5275 35.7225 -1.8675 36.3825 -1.1875 37.0625 C-7.15440064 36.76415497 -11.02046276 34.1283509 -15.1875 30.0625 C-18.48460761 24.70470014 -19.21809371 19.21716714 -18.1875 13.0625 C-16.04637029 7.92555094 -12.85022907 4.13008492 -8.1875 1.0625 C-5.17259443 0.05753148 -3.14568308 -0.04085303 0 0 Z " fill="#FFAC16" transform="translate(169.1875,55.9375)"/>
<path d="M0 0 C0 3 0 3 -1.5 5.1875 C-3.46197854 8.86620976 -3.79291062 11.96875347 -3 16 C-0.81926091 21.02557157 1.87037427 24.7640093 7 27 C10.73612217 28.23678527 14.34028834 28.09870103 18.25 28.0625 C19.51328125 28.05347656 20.7765625 28.04445313 22.078125 28.03515625 C23.52445313 28.01775391 23.52445313 28.01775391 25 28 C22.40136776 30.84612102 20.47283176 31.87804578 16.546875 32.203125 C7.49493051 32.35483357 1.5561388 30.25120211 -5 24 C-7.91693812 19.35081877 -7.63840447 14.30721785 -7 9 C-5.14261345 5.41332253 -2.99429395 2.69486456 0 0 Z " fill="#FFAC16" transform="translate(144,15)"/>
<path d="M0 0 C0.99 0.33 1.98 0.66 3 1 C4.06444868 3.68660849 4.91738808 6.22870434 5.6875 9 C5.90881592 9.77077881 6.13013184 10.54155762 6.3581543 11.33569336 C7.82754393 16.70459525 8.50737043 21.41892526 8 27 C5.625 27.625 5.625 27.625 3 28 C0.29903938 25.29903938 0.0589754 23.28502949 -0.11352539 19.52636719 C-0.10828857 18.62563477 -0.10305176 17.72490234 -0.09765625 16.796875 C-0.09443359 15.8171875 -0.09121094 14.8375 -0.08789062 13.828125 C-0.07951172 12.81234375 -0.07113281 11.7965625 -0.0625 10.75 C-0.05798828 9.71875 -0.05347656 8.6875 -0.04882812 7.625 C-0.03706088 5.08327427 -0.02062011 2.54166681 0 0 Z " fill="#FFC416" transform="translate(78,123)"/>
<path d="M0 0 C6.75 -0.125 6.75 -0.125 9 1 C9 1.66 9 2.32 9 3 C7.35 3.33 5.7 3.66 4 4 C4 4.66 4 5.32 4 6 C4.84304687 6.12117188 5.68609375 6.24234375 6.5546875 6.3671875 C8.19824219 6.61855469 8.19824219 6.61855469 9.875 6.875 C10.96554688 7.03742187 12.05609375 7.19984375 13.1796875 7.3671875 C16 8 16 8 18 10 C17.96712417 12.72869407 17.43602229 15.2966618 17 18 C14.36 17.67 11.72 17.34 9 17 C8.67 16.01 8.34 15.02 8 14 C9.98 13.67 11.96 13.34 14 13 C14 12.34 14 11.68 14 11 C12.86111328 10.94392578 12.86111328 10.94392578 11.69921875 10.88671875 C10.70535156 10.82097656 9.71148437 10.75523438 8.6875 10.6875 C7.70136719 10.62949219 6.71523437 10.57148438 5.69921875 10.51171875 C2.71387922 9.94575713 1.7039721 9.4868782 0 7 C-0.1875 3.3125 -0.1875 3.3125 0 0 Z " fill="#FFF8E5" transform="translate(151,19)"/>
<path d="M0 0 C0.99 0 1.98 0 3 0 C3 0.99 3 1.98 3 3 C3.66 3 4.32 3 5 3 C5.33 4.65 5.66 6.3 6 8 C5.01 7.67 4.02 7.34 3 7 C3 6.34 3 5.68 3 5 C2.01 5.33 1.02 5.66 0 6 C0.44066767 8.97450674 1.09596197 10.11007402 3.125 12.4375 C5 15 5 15 5 17.5625 C3.8239412 20.42914332 2.32031952 21.97907654 0 24 C-3.75376152 22.74874616 -4.24073289 21.4347596 -6 18 C-6 17.34 -6 16.68 -6 16 C-5.01 16 -4.02 16 -3 16 C-2.67 16.66 -2.34 17.32 -2 18 C-1.01 18 -0.02 18 1 18 C0.55933233 15.02549326 -0.09596197 13.88992598 -2.125 11.5625 C-4 9 -4 9 -3.9375 6.4375 C-2.93152081 3.82195411 -1.94575045 2.02058701 0 0 Z " fill="#FFF8E6" transform="translate(173,63)"/>
<path d="M0 0 C5.875 4.625 5.875 4.625 7 8 C7.54885106 12.7237181 7.46596728 16.10134882 5.25 20.375 C1.4322076 24.82909114 -0.93115246 26.42845492 -6.9609375 27.015625 C-9.90011991 26.99310253 -12.31708107 26.14024055 -15 25 C-12.47159616 24.29204693 -10.19811536 23.9271014 -7.5625 23.6875 C-2.92808699 22.7931396 -0.49885502 20.99847336 2.3125 17.25 C3.76466796 12.49745031 3.76614712 8.46844864 1.5 4.125 C1.005 3.42375 0.51 2.7225 0 2 C0 1.34 0 0.68 0 0 Z " fill="#FFAC16" transform="translate(137,70)"/>
<path d="M0 0 C3.82538214 0.57642745 5.80556779 2.3007358 8.625 4.875 C9.40101562 5.57367188 10.17703125 6.27234375 10.9765625 6.9921875 C13 9 13 9 15 12 C15 13.32 15 14.64 15 16 C12.7265625 16.26171875 12.7265625 16.26171875 10 16 C8.0859375 14.20703125 8.0859375 14.20703125 6.375 11.8125 C5.48748047 10.58273438 5.48748047 10.58273438 4.58203125 9.328125 C0 2.58518519 0 2.58518519 0 0 Z " fill="#FFC416" transform="translate(95,125)"/>
<path d="M0 0 C0 1.98 0 3.96 0 6 C-0.66 6 -1.32 6 -2 6 C-2.99 5.01 -3.98 4.02 -5 3 C-4.67 6.3 -4.34 9.6 -4 13 C-8.75 16 -8.75 16 -11 16 C-11.33 13.69 -11.66 11.38 -12 9 C-11.01 9 -10.02 9 -9 9 C-9 9.99 -9 10.98 -9 12 C-8.01 12 -7.02 12 -6 12 C-6.495 10.9171875 -6.495 10.9171875 -7 9.8125 C-8.00603529 6.98302573 -8.16977402 4.97104534 -8 2 C-2.25 0 -2.25 0 0 0 Z " fill="#FFF3CF" transform="translate(133,73)"/>
<path d="M0 0 C5.94 0.99 5.94 0.99 12 2 C11.67 2.99 11.34 3.98 11 5 C9.54207116 5.05399736 8.08357288 5.09279177 6.625 5.125 C5.81289062 5.14820313 5.00078125 5.17140625 4.1640625 5.1953125 C2 5 2 5 0 3 C0 2.01 0 1.02 0 0 Z " fill="#FFF3D1" transform="translate(152,24)"/>
<path d="M0 0 C1.98 0.495 1.98 0.495 4 1 C4.33 2.32 4.66 3.64 5 5 C1 5 1 5 -1 4 C-0.67 2.68 -0.34 1.36 0 0 Z " fill="#FF5E51" transform="translate(83,52)"/>
<path d="M0 0 C0.66 0 1.32 0 2 0 C0.52307692 5.66153846 0.52307692 5.66153846 -2.125 7.375 C-3.053125 7.684375 -3.053125 7.684375 -4 8 C-2.87548273 5.0280615 -1.77706209 2.66559313 0 0 Z " fill="#FF5E52" transform="translate(90,38)"/>
<path d="M0 0 C2.0625 0.4375 2.0625 0.4375 4 1 C4.33 2.65 4.66 4.3 5 6 C1.60085025 4.86695008 0.94745549 3.87481525 -1 1 C-0.67 0.67 -0.34 0.34 0 0 Z " fill="#FFFBF0" transform="translate(174,65)"/>
<path d="M0 0 C0 1.98 0 3.96 0 6 C-0.66 6 -1.32 6 -2 6 C-2.12375 5.360625 -2.2475 4.72125 -2.375 4.0625 C-2.684375 3.0415625 -2.684375 3.0415625 -3 2 C-3.66 1.67 -4.32 1.34 -5 1 C-2 0 -2 0 0 0 Z " fill="#FFF7E0" transform="translate(133,73)"/>
</svg>
