<?xml version="1.0" encoding="UTF-8"?>
<svg version="1.1" xmlns="http://www.w3.org/2000/svg" width="194" height="149">
<path d="M0 0 C3.52599671 3.33980546 6.39898662 6.33837478 8.0625 10.9375 C8.371875 11.618125 8.68125 12.29875 9 13 C11.97314468 13.82888749 11.97314468 13.82888749 15 14 C15.66 14.33 16.32 14.66 17 15 C17 13.989375 17 12.97875 17 11.9375 C17.62677026 7.33494821 20.44411937 5.30941808 23.89453125 2.48046875 C28.91249608 -1.04793324 32.92374409 -1.83137961 39 -1 C43.83645885 0.74754861 47.18603161 3.7269369 50 8 C51.25 10.8125 51.25 10.8125 52 13 C52.9590625 12.01 52.9590625 12.01 53.9375 11 C57.94351842 8.38382471 61.32114526 8.11069713 66 9 C78.5019074 15.34832058 87.33060757 29.61485077 93 42 C93.07863281 42.88042969 93.15726563 43.76085938 93.23828125 44.66796875 C93.61533203 45.82232422 93.61533203 45.82232422 94 47 C97.08252325 48.53019153 97.08252325 48.53019153 100.8125 49.5 C104.7098048 50.63082419 107.39329266 51.46586531 110.44921875 54.15625 C112.47648012 57.87374692 112.89474816 60.91741624 112 65 C110.59572428 67.94692121 108.77615892 70.46361381 106.8125 73.0625 C106.32974609 73.73087891 105.84699219 74.39925781 105.34960938 75.08789062 C101.49821882 80.40746227 101.49821882 80.40746227 99.55175781 82.72241211 C95.74010044 87.44046683 95.06631591 91.43631088 95.125 97.4375 C95.13233154 98.28280273 95.13966309 99.12810547 95.1472168 99.99902344 C95.3927936 105.04388665 95.92077575 108.20762263 99.8125 111.75 C102.26368933 113.50218634 102.26368933 113.50218634 105 115 C107.02688001 116.17714954 109.04779251 117.36463635 111.0625 118.5625 C112.00222656 119.05878906 112.94195312 119.55507812 113.91015625 120.06640625 C114.59980469 120.70449219 115.28945312 121.34257812 116 122 C116.13061523 125.62084961 116.13061523 125.62084961 116 129 C109.98600564 129.02477561 103.97204119 129.04289587 97.95800781 129.05493164 C95.91340619 129.05995086 93.86880814 129.06676762 91.82421875 129.07543945 C88.88019935 129.08761074 85.93622753 129.09325252 82.9921875 129.09765625 C82.0825827 129.10281754 81.17297791 129.10797882 80.23580933 129.11329651 C75.68597928 129.1136959 71.49328445 128.79507647 67 128 C66.67 128.33 66.34 128.66 66 129 C52.29363042 130.82788709 41.1969256 129.17032654 30 121 C27.28044241 118.58463333 26.15788253 117.47364758 25 114 C24.9314505 112.10529184 24.91519628 110.2083166 24.9375 108.3125 C24.94652344 107.31863281 24.95554687 106.32476562 24.96484375 105.30078125 C24.97644531 104.54152344 24.98804687 103.78226562 25 103 C24.55011719 103.53109375 24.10023437 104.0621875 23.63671875 104.609375 C17.5406355 111.30407163 11.36744195 114.35220528 2.375 115.4375 C-6.21389494 114.32412473 -12.08982685 111.4096244 -18 105 C-22.00416361 99.61940514 -21.48362352 93.44521347 -21 87 C-20.505 85.515 -20.505 85.515 -20 84 C-20.91289795 83.8141333 -21.8257959 83.6282666 -22.76635742 83.43676758 C-26.17104679 82.73417826 -29.57128374 82.01479125 -32.9699707 81.28393555 C-34.43795351 80.9718498 -35.90736608 80.66640882 -37.37817383 80.36791992 C-39.49977362 79.93612802 -41.61497735 79.48020823 -43.73046875 79.01953125 C-45.63928833 78.61891479 -45.63928833 78.61891479 -47.58666992 78.21020508 C-51.53153974 76.8115412 -53.35691321 75.20978688 -56 72 C-59.7411245 62.64718874 -58.04739617 51.41408626 -54.8828125 42.05859375 C-52.94967866 37.55079936 -50.50837227 34.83461134 -46 33 C-33.696202 32.08600358 -20.19397054 38.83275379 -10 45 C-9.67 43.02 -9.34 41.04 -9 39 C-9.54930176 38.86247314 -10.09860352 38.72494629 -10.66455078 38.58325195 C-18.12167331 36.54529468 -24.98483503 33.46468927 -31.92480469 30.12182617 C-33.88479469 29.18280743 -35.85574127 28.27006474 -37.828125 27.35742188 C-39.09189431 26.75416967 -40.35494277 26.14940451 -41.6171875 25.54296875 C-42.74753418 25.00696045 -43.87788086 24.47095215 -45.04248047 23.91870117 C-48.50301271 21.67366874 -50.08943926 19.63782907 -52 16 C-52.83418171 9.60911469 -49.84145632 2.62812593 -47.75 -3.3125 C-47.46253906 -4.19228516 -47.17507812 -5.07207031 -46.87890625 -5.97851562 C-45.13335269 -10.99793491 -43.7254905 -14.12901234 -39 -17 C-26.47406488 -22.61507436 -9.24587862 -7.39206837 0 0 Z " fill="#E0400D" transform="translate(73,20)"/>
<path d="M0 0 C0 0.66 0 1.32 0 2 C5.47350516 3.44924959 10.38689837 4.2000345 16.0546875 3.875 C18 4 18 4 21 6 C19.717816 9.55592362 18.22230972 12.28215145 15.890625 15.25 C15.30152344 16.0234375 14.71242187 16.796875 14.10546875 17.59375 C12.8626403 19.20550226 11.60989855 20.80965604 10.34765625 22.40625 C9.76371094 23.1796875 9.17976563 23.953125 8.578125 24.75 C7.76456543 25.79414062 7.76456543 25.79414062 6.93457031 26.859375 C5.71772236 29.03343671 5.71772236 29.03343671 6.71386719 31.578125 C8.02832802 34.15045724 8.02832802 34.15045724 10 37 C10.20776367 38.97363281 10.20776367 38.97363281 10.16796875 41.203125 C9.6440327 51.48970069 9.6440327 51.48970069 13.9375 60.25 C15.83348275 61.70049233 15.83348275 61.70049233 18 63 C18.85207031 63.62003906 19.70414063 64.24007812 20.58203125 64.87890625 C23.02006535 66.6458563 25.49031245 68.33711262 28 70 C29.485 70.99 29.485 70.99 31 72 C31 72.99 31 73.98 31 75 C26.94335053 75.0990914 22.8871723 75.17157106 18.82958984 75.21972656 C17.4502332 75.23980642 16.07096131 75.26707666 14.69189453 75.30175781 C12.70643021 75.35042817 10.72033746 75.37086418 8.734375 75.390625 C6.94338379 75.4220459 6.94338379 75.4220459 5.11621094 75.45410156 C1.40318244 74.91303035 0.22743622 73.9630274 -2 71 C-2 70.34 -2 69.68 -2 69 C-5.63 68.01 -9.26 67.02 -13 66 C-11.89931492 61.59725968 -10.18453014 59.33612033 -7.47265625 55.8046875 C-5.33791829 51.73905924 -4.73661491 47.50256547 -4 43 C-6.08518434 45.87366157 -8.1678091 48.74916889 -10.25 51.625 C-10.83652344 52.43324219 -11.42304688 53.24148437 -12.02734375 54.07421875 C-15.10647134 58.32964227 -18.12581339 62.6033482 -21 67 C-25.88047292 66.35631558 -29.89144835 64.34717802 -34.25 62.1875 C-34.9821875 61.84396484 -35.714375 61.50042969 -36.46875 61.14648438 C-37.16484375 60.80294922 -37.8609375 60.45941406 -38.578125 60.10546875 C-39.21137695 59.79762451 -39.84462891 59.48978027 -40.49707031 59.17260742 C-42 58 -42 58 -42.79418945 56.07543945 C-43.18229086 52.16173835 -40.72041349 48.56910964 -39.00585938 45.1328125 C-38.01428391 43.09973101 -38.01428391 43.09973101 -37 40 C-37.78265391 37.77694863 -37.78265391 37.77694863 -39 36 C-38.125 32.75 -38.125 32.75 -37 30 C-35.35 30.33 -33.7 30.66 -32 31 C-32.66 30.34 -33.32 29.68 -34 29 C-33.625 26.375 -33.625 26.375 -33 24 C-30.69 24.33 -28.38 24.66 -26 25 C-26.33 24.01 -26.66 23.02 -27 22 C-27.1875 18.4375 -27.1875 18.4375 -27 15 C-26.34 14.34 -25.68 13.68 -25 13 C-24.01 13.33 -23.02 13.66 -22 14 C-21.3125 16.0625 -21.3125 16.0625 -21 18 C-20.31292969 17.09636719 -19.62585938 16.19273438 -18.91796875 15.26171875 C-18.00792905 14.07022347 -17.09776634 12.87882214 -16.1875 11.6875 C-15.73568359 11.09259766 -15.28386719 10.49769531 -14.81835938 9.88476562 C-7.25292423 0 -7.25292423 0 0 0 Z " fill="#E8E3D9" transform="translate(152,74)"/>
<path d="M0 0 C4.9049405 1.32193506 7.29491355 3.66169569 10.81640625 7.19921875 C11.776073 8.13012329 11.776073 8.13012329 12.75512695 9.07983398 C14.76968512 11.04251512 16.7622223 13.0258556 18.75390625 15.01171875 C20.0682565 16.30154995 21.38334744 17.59062685 22.69921875 18.87890625 C36.49798257 32.47617665 36.49798257 32.47617665 37.31640625 37.38671875 C36.61345602 41.91684243 35.23659808 44.96867366 31.75390625 48.01171875 C27.94140625 48.94921875 27.94140625 48.94921875 24.75390625 49.01171875 C24.54765625 49.85734375 24.34140625 50.70296875 24.12890625 51.57421875 C22.4152927 55.85825264 19.88458269 58.68414442 16.75390625 62.01171875 C12.00390625 61.26171875 12.00390625 61.26171875 9.75390625 59.01171875 C10.07043928 55.27825221 12.17022398 52.72735244 14.31640625 49.76171875 C14.95707031 48.8696875 15.59773438 47.97765625 16.2578125 47.05859375 C16.99837891 46.04539062 16.99837891 46.04539062 17.75390625 45.01171875 C17.17125 44.90214844 16.58859375 44.79257813 15.98828125 44.6796875 C10.15836139 43.552203 4.41171571 42.21724417 -1.3359375 40.7265625 C-4.70055715 39.90008546 -8.08306954 39.27945338 -11.50390625 38.734375 C-13.24609375 38.01171875 -13.24609375 38.01171875 -14.4609375 36.24609375 C-17.75815238 26.86297479 -13.95808819 16.71536888 -10.24609375 8.01171875 C-5.47533969 0.01976657 -5.47533969 0.01976657 0 0 Z " fill="#FDAD20" transform="translate(84.24609375,39.98828125)"/>
<path d="M0 0 C12.16141069 0.98944536 25.39274002 11.51318682 33.60546875 19.93359375 C35.54734261 22.45745354 35.787103 23.23233904 36.04296875 26.55859375 C34.05656788 32.51779636 31.28198551 38.81957699 26.79296875 43.30859375 C21.54676759 43.01162374 17.25662989 41.44103855 12.58203125 39.18359375 C11.92842621 38.87663574 11.27482117 38.56967773 10.60140991 38.25341797 C8.53602379 37.28049686 6.47716421 36.29453789 4.41796875 35.30859375 C3.01340249 34.64632537 1.60845769 33.9848592 0.203125 33.32421875 C-1.12924495 32.6947268 -2.46128844 32.06454331 -3.79296875 31.43359375 C-4.42206146 31.13565918 -5.05115417 30.83772461 -5.6993103 30.53076172 C-10.08832151 28.42730349 -10.08832151 28.42730349 -11.20703125 27.30859375 C-11.40212031 21.03787391 -9.7224044 15.192667 -7.76953125 9.30859375 C-7.55216309 8.64972168 -7.33479492 7.99084961 -7.11083984 7.31201172 C-4.73876455 0.45598343 -4.73876455 0.45598343 0 0 Z " fill="#FE5F5A" transform="translate(39.20703125,8.69140625)"/>
<path d="M0 0 C0.09909668 0.70084717 0.19819336 1.40169434 0.30029297 2.1237793 C0.77908411 5.32056986 1.32609671 8.50203123 1.875 11.6875 C2.0296875 12.79029297 2.184375 13.89308594 2.34375 15.02929688 C3.38869385 21.1808794 3.38869385 21.1808794 7.22900391 25.83911133 C11.47088014 28.02658868 15.90052796 29.57008296 20.625 30.3125 C21.46289062 30.45300781 22.30078125 30.59351562 23.1640625 30.73828125 C23.76992187 30.82464844 24.37578125 30.91101563 25 31 C24.34 32.32 23.68 33.64 23 35 C23.59538574 35.19634033 24.19077148 35.39268066 24.80419922 35.5949707 C27.49817578 36.49006954 30.18651215 37.40105494 32.875 38.3125 C33.81214844 38.62123047 34.74929687 38.92996094 35.71484375 39.24804688 C36.61074219 39.55419922 37.50664062 39.86035156 38.4296875 40.17578125 C39.67081299 40.59210815 39.67081299 40.59210815 40.93701172 41.0168457 C43 42 43 42 45 45 C44.82383994 49.71628512 42.24659877 52.68039207 39.375 56.1875 C38.46416511 57.32915171 37.5553281 58.47240007 36.6484375 59.6171875 C36.19952148 60.18276367 35.75060547 60.74833984 35.28808594 61.33105469 C32.81973565 64.52924319 30.60254803 67.90143579 28.375 71.26953125 C27.92125 71.84058594 27.4675 72.41164063 27 73 C26.34 73 25.68 73 25 73 C23.71484375 70.9296875 23.71484375 70.9296875 23 68 C24.41593438 65.42391293 25.75917923 63.39950308 27.5625 61.125 C28.00658203 60.53847656 28.45066406 59.95195313 28.90820312 59.34765625 C29.80613171 58.16171283 30.70931616 56.97973079 31.61767578 55.80175781 C36.00300898 50.83785274 36.00300898 50.83785274 38 45 C34.67129786 44.41747712 31.35848412 43.92418291 28 43.5625 C24.48130634 43.14296345 21.32710809 42.24766554 18 41 C18 40.34 18 39.68 18 39 C17.01 39.66 16.02 40.32 15 41 C14.05511719 41.24878906 13.11023438 41.49757812 12.13671875 41.75390625 C8.22793499 43.30671076 6.28951255 45.68762862 3.8125 48.9375 C-1.48209025 55.64612346 -1.48209025 55.64612346 -4 58 C-4.80078125 55.91015625 -4.80078125 55.91015625 -5 53 C-3.47539401 50.59070968 -2.01587167 48.58750675 -0.1875 46.4375 C3.92774373 41.56029205 3.92774373 41.56029205 7 36 C6.48308594 35.77054688 5.96617187 35.54109375 5.43359375 35.3046875 C2.11074519 33.52325665 -0.88808819 31.32931665 -3.9375 29.125 C-4.54529297 28.69058594 -5.15308594 28.25617187 -5.77929688 27.80859375 C-9.26901805 25.30141543 -12.66927835 22.71766662 -16 20 C-15.69897655 13.98865301 -13.07579086 11.27537002 -9.0625 7.1875 C-8.23588867 6.31061523 -8.23588867 6.31061523 -7.39257812 5.41601562 C-2.22759451 0 -2.22759451 0 0 0 Z " fill="#BD3234" transform="translate(134,35)"/>
<path d="M0 0 C3.15776293 0.29093996 3.98509685 0.98277428 6.10546875 3.43359375 C6.79253906 4.42488281 7.47960937 5.41617188 8.1875 6.4375 C9.22970703 7.92056641 9.22970703 7.92056641 10.29296875 9.43359375 C12.46298916 12.69607295 13.11133781 14.25536909 13.0703125 18.10546875 C12.60589436 28.44595116 12.60589436 28.44595116 16.9375 37.25 C18.83348275 38.70049233 18.83348275 38.70049233 21 40 C21.85207031 40.62003906 22.70414063 41.24007812 23.58203125 41.87890625 C26.02006535 43.6458563 28.49031245 45.33711262 31 47 C31.99 47.66 32.98 48.32 34 49 C34 49.99 34 50.98 34 52 C29.94335053 52.0990914 25.8871723 52.17157106 21.82958984 52.21972656 C20.4502332 52.23980642 19.07096131 52.26707666 17.69189453 52.30175781 C15.70643021 52.35042817 13.72033746 52.37086418 11.734375 52.390625 C10.54038086 52.41157227 9.34638672 52.43251953 8.11621094 52.45410156 C4.40318244 51.91303035 3.22743622 50.9630274 1 48 C1 47.34 1 46.68 1 46 C-4.445 44.515 -4.445 44.515 -10 43 C-9.04703469 39.18813878 -8.35636764 37.96127656 -6.0625 35 C-2.8258913 30.34978893 -2.02665151 26.17414603 -1.421875 20.6015625 C-1 18 -1 18 1 15 C0.67873872 12.36565746 0.18644952 10.37289903 -1 8 C-1.23076923 2.46153846 -1.23076923 2.46153846 0 0 Z " fill="#FDAA8F" transform="translate(149,97)"/>
<path d="M0 0 C5.18361177 1.94528477 8.45071434 5.65142867 10.89453125 10.5390625 C11.29875463 15.79396649 10.87981804 19.15442252 7.89453125 23.5390625 C4.66662219 27.07439147 1.70345305 29.24745387 -3.0859375 30.01953125 C-10.56293034 30.21458324 -15.25649771 29.0714812 -20.91796875 24.0390625 C-24.08593438 20.41853035 -24.45659279 17.3578253 -24.38671875 12.59765625 C-23.7570013 7.98847438 -20.834266 5.18109818 -17.48046875 2.2265625 C-12.25906452 -1.48338261 -6.18824911 -1.35475583 0 0 Z " fill="#0A1317" transform="translate(82.10546875,98.4609375)"/>
<path d="M0 0 C7.78920817 2.17195489 17.3604401 5.0784621 23 11 C24.12734198 17.25162371 22.39217867 21.72602878 19 27 C17 29 17 29 15.18530273 29.06225586 C9.35050228 28.3028924 3.74256923 27.09055 -1.9375 25.5625 C-2.78634766 25.34529297 -3.63519531 25.12808594 -4.50976562 24.90429688 C-5.31994141 24.68966797 -6.13011719 24.47503906 -6.96484375 24.25390625 C-7.6930835 24.06127197 -8.42132324 23.8686377 -9.17163086 23.67016602 C-11 23 -11 23 -13 21 C-13.265625 17.91796875 -13.265625 17.91796875 -13.25 14.1875 C-13.25515625 12.96417969 -13.2603125 11.74085937 -13.265625 10.48046875 C-12.95616682 6.42565642 -11.94835524 3.58059207 -9.875 0.125 C-6.7611385 -1.7433169 -3.41456628 -0.66473629 0 0 Z " fill="#F67069" transform="translate(39,65)"/>
<path d="M0 0 C4.01374962 0.98583324 5.41196533 1.34812314 7.5625 4.875 C9.41021358 16.36021961 4.08655694 27.1501978 -1.4375 36.875 C-3.4375 38.875 -3.4375 38.875 -7.375 39.1875 C-10.09203948 39.12351175 -11.12241841 39.09860629 -13.375 37.5 C-16.39126846 32.88688353 -15.99958999 28.2335912 -15.4375 22.875 C-9.54950439 -0.3472547 -9.54950439 -0.3472547 0 0 Z " fill="#F66F63" transform="translate(84.4375,40.125)"/>
<path d="M0 0 C1.65 0.33 3.3 0.66 5 1 C6.18362802 4.51535723 7.34378134 8.03804195 8.5 11.5625 C8.83386719 12.55314453 9.16773438 13.54378906 9.51171875 14.56445312 C11.24518977 19.88868554 12.59024812 24.39264286 12 30 C10.5 32.9375 10.5 32.9375 9 35 C4.11952708 34.35631558 0.10855165 32.34717802 -4.25 30.1875 C-4.9821875 29.84396484 -5.714375 29.50042969 -6.46875 29.14648438 C-7.16484375 28.80294922 -7.8609375 28.45941406 -8.578125 28.10546875 C-9.21137695 27.79762451 -9.84462891 27.48978027 -10.49707031 27.17260742 C-12 26 -12 26 -12.8034668 24.08422852 C-13.13571784 20.56071652 -11.18914307 17.76434422 -9.5625 14.75 C-9.22412109 14.1003125 -8.88574219 13.450625 -8.53710938 12.78125 C-7.70213113 11.18185506 -6.85246886 9.59014141 -6 8 C-4.68 8 -3.36 8 -2 8 C-2 7.34 -2 6.68 -2 6 C-1.34 5.67 -0.68 5.34 0 5 C0 3.35 0 1.7 0 0 Z " fill="#FBFBFA" transform="translate(122,106)"/>
<path d="M0 0 C0 0.66 0 1.32 0 2 C5.47350516 3.44924959 10.38689837 4.2000345 16.0546875 3.875 C18 4 18 4 21 6 C19.70940058 9.54234144 18.18892213 12.38960611 15.9609375 15.42578125 C15.38085938 16.22177734 14.80078125 17.01777344 14.203125 17.83789062 C13.59984375 18.65451172 12.9965625 19.47113281 12.375 20.3125 C11.76398438 21.14845703 11.15296875 21.98441406 10.5234375 22.84570312 C9.02036533 24.90068461 7.51245679 26.95192117 6 29 C3 28 3 28 1.5625 25.9375 C0.7890625 24.9784375 0.7890625 24.9784375 0 24 C-1.32 24 -2.64 24 -4 24 C-4.86627405 21.08644159 -5.71831006 18.16995672 -6.5625 15.25 C-6.80935547 14.425 -7.05621094 13.6 -7.31054688 12.75 C-7.53935547 11.95078125 -7.76816406 11.1515625 -8.00390625 10.328125 C-8.21861572 9.5949707 -8.4333252 8.86181641 -8.65454102 8.10644531 C-9.04991002 5.69567236 -8.93148952 4.25752813 -8 2 C-5.25822503 0.83328724 -2.99432393 0 0 0 Z " fill="#FBFBFB" transform="translate(152,74)"/>
<path d="M0 0 C11.82728085 1.98142702 26.26615468 7.12396762 34.26171875 16.37890625 C35.75786741 23.71003471 31.47944002 30.94346372 28.26171875 37.37890625 C21.6703329 37.73519738 15.62188634 36.39554938 9.19921875 35.00390625 C7.6049707 34.67132813 7.6049707 34.67132813 5.97851562 34.33203125 C-5.13076471 31.97278371 -5.13076471 31.97278371 -8.73828125 30.37890625 C-11.6528542 21.6351874 -10.41868146 10.16292776 -6.55078125 1.81640625 C-4.35740107 0.07682887 -2.77435271 -0.18030384 0 0 Z M-3.17578125 6.06640625 C-6.06702937 10.34545346 -5.89920625 14.41213673 -5.92578125 19.50390625 C-5.93996094 20.74398437 -5.95414063 21.9840625 -5.96875 23.26171875 C-6.07188968 26.48066082 -6.07188968 26.48066082 -3.73828125 28.37890625 C-1.86646552 29.09700617 -1.86646552 29.09700617 0.296875 29.6328125 C1.10705078 29.84744141 1.91722656 30.06207031 2.75195312 30.28320312 C3.60080078 30.50041016 4.44964844 30.71761719 5.32421875 30.94140625 C6.14599609 31.16248047 6.96777344 31.38355469 7.81445312 31.61132812 C15.93057541 33.79428238 15.93057541 33.79428238 24.26171875 34.37890625 C28.51681869 30.66933194 30.29466318 25.91328118 30.82421875 20.37890625 C30.67343857 16.87818387 30.34956106 16.47114067 27.76171875 13.75390625 C20.83020333 9.58649207 4.2154699 0.94938622 -3.17578125 6.06640625 Z " fill="#D28C07" transform="translate(31.73828125,59.62109375)"/>
<path d="M0 0 C4.92155321 0.42184742 6.76804142 2.38328445 10 6 C10.78697266 6.81791016 10.78697266 6.81791016 11.58984375 7.65234375 C17.2290915 13.70078862 25 22.49005144 25 31 C17.6374501 30.827685 10.90707853 29.67876352 5 25 C3.22028181 22.11719769 2.60222678 19.30962889 2 16 C1.70029297 14.71609375 1.70029297 14.71609375 1.39453125 13.40625 C0.37899174 8.88062426 -0.24530727 4.66083805 0 0 Z " fill="#FD5E59" transform="translate(134,35)"/>
<path d="M0 0 C1.32 0.33 2.64 0.66 4 1 C3.55527344 1.96421875 3.11054687 2.9284375 2.65234375 3.921875 C2.08012333 5.19764511 1.50854205 6.47370202 0.9375 7.75 C0.64294922 8.38421875 0.34839844 9.0184375 0.04492188 9.671875 C-1.57211313 13.24222034 -1.57211313 13.24222034 -1.80786133 17.08422852 C-0.74846473 19.59649357 0.24765525 20.00307926 2.7109375 21.10546875 C3.46117188 21.44900391 4.21140625 21.79253906 4.984375 22.14648438 C5.77328125 22.49001953 6.5621875 22.83355469 7.375 23.1875 C8.15617187 23.54263672 8.93734375 23.89777344 9.7421875 24.26367188 C12.80643987 25.64625834 15.80827359 26.9360912 19 28 C19.24234375 27.29488281 19.4846875 26.58976562 19.734375 25.86328125 C21.19320054 22.56291358 23.04817885 20.04462506 25.25 17.1875 C26.44689453 15.62322266 26.44689453 15.62322266 27.66796875 14.02734375 C28.82232422 12.52880859 28.82232422 12.52880859 30 11 C31.19020218 9.41869691 32.37816813 7.83570449 33.5625 6.25 C34.375 5.16666667 35.1875 4.08333333 36 3 C37.68625047 6.37250094 36.21239794 9.40938735 35.21875 12.91015625 C33.10120453 18.27867697 29.61046508 22.55101999 26 27 C25.40058594 27.91007812 24.80117187 28.82015625 24.18359375 29.7578125 C22 32 22 32 18.7890625 33.04296875 C13.89184632 32.98743331 10.68014665 31.50690779 6.375 29.3125 C5.63765625 28.95994141 4.9003125 28.60738281 4.140625 28.24414062 C-4.06007401 24.22462238 -4.06007401 24.22462238 -7 21 C-7.92686006 15.26846093 -6.17527242 11.44306455 -3.5 6.5625 C-3.16613281 5.92634766 -2.83226563 5.29019531 -2.48828125 4.63476562 C-1.67159878 3.08306893 -0.8375666 1.54052429 0 0 Z " fill="#0F161A" transform="translate(112,113)"/>
<path d="M0 0 C0.99 0.33 1.98 0.66 3 1 C3.19466332 2.79090253 3.38051213 4.58276505 3.5625 6.375 C3.66691406 7.37273437 3.77132812 8.37046875 3.87890625 9.3984375 C4 12 4 12 3 14 C3.60119714 16.58018492 3.60119714 16.58018492 4.6171875 19.5234375 C4.97683594 20.626875 5.33648437 21.7303125 5.70703125 22.8671875 C6.09246094 24.02476563 6.47789062 25.18234375 6.875 26.375 C7.62337354 28.65332491 8.37080856 30.93195838 9.1171875 33.2109375 C9.62161377 34.73146729 9.62161377 34.73146729 10.13623047 36.28271484 C10.42127441 37.17941895 10.70631836 38.07612305 11 39 C11.25410645 39.72268066 11.50821289 40.44536133 11.77001953 41.18994141 C11.84591309 41.78726074 11.92180664 42.38458008 12 43 C9.5625 45.75 9.5625 45.75 7 48 C4.66666667 38.66666667 2.33333333 29.33333333 0 20 C-1.32 20 -2.64 20 -4 20 C-4.33 21.65 -4.66 23.3 -5 25 C-5.66 25 -6.32 25 -7 25 C-7 25.66 -7 26.32 -7 27 C-8.65 27 -10.3 27 -12 27 C-13.125 25.375 -13.125 25.375 -14 23 C-13.125 19.75 -13.125 19.75 -12 17 C-10.35 17.33 -8.7 17.66 -7 18 C-7.66 17.34 -8.32 16.68 -9 16 C-8.625 13.375 -8.625 13.375 -8 11 C-5.69 11.33 -3.38 11.66 -1 12 C-1.33 11.01 -1.66 10.02 -2 9 C-2.1875 5.4375 -2.1875 5.4375 -2 2 C-1.34 1.34 -0.68 0.68 0 0 Z " fill="#E9E3DA" transform="translate(127,87)"/>
<path d="M0 0 C7.79104907 2.17947761 17.35688451 5.07472873 23 11 C23.70367429 14.00660835 23.4648352 15.84945034 23 19 C22.34 19.66 21.68 20.32 21 21 C20.31164063 20.06027344 20.31164063 20.06027344 19.609375 19.1015625 C18.99578125 18.28429687 18.3821875 17.46703125 17.75 16.625 C17.14671875 15.81289062 16.5434375 15.00078125 15.921875 14.1640625 C13.9923415 11.99137641 12.78063178 10.82652638 10 10 C8.15316251 10.66034657 8.15316251 10.66034657 6.5 11.9375 C3.2289644 14.00636012 3.2289644 14.00636012 0.75 13.9375 C-1 13 -1 13 -2.31640625 11.421875 C-3.92106102 9.76869472 -3.92106102 9.76869472 -6.26171875 9.92578125 C-7.06222656 10.05339844 -7.86273438 10.18101563 -8.6875 10.3125 C-9.49574219 10.43238281 -10.30398437 10.55226563 -11.13671875 10.67578125 C-11.75160156 10.78277344 -12.36648437 10.88976562 -13 11 C-12.5239521 3.85928144 -12.5239521 3.85928144 -10.4375 0.4375 C-6.91251069 -1.64133985 -3.84417711 -0.77429602 0 0 Z " fill="#FDF8F2" transform="translate(39,65)"/>
<path d="M0 0 C2.70567626 1.82339052 4.53728718 3.07457436 6 6 C6.25491388 9.9086795 6.23289019 12.70942498 4 16 C-0.04020371 18.69346914 -3.25710439 18.55014255 -8 18 C-11.63467079 16.37599816 -12.77408696 15.33886956 -15 12 C-15.5 8.625 -15.5 8.625 -15 5 C-10.5423233 -0.36015112 -6.63694923 -1.46237864 0 0 Z " fill="#F9880C" transform="translate(112,26)"/>
<path d="M0 0 C5.55986463 0.22239459 10.59965198 1.67274723 15.875 3.375 C16.87490967 3.68848389 16.87490967 3.68848389 17.89501953 4.00830078 C21.51478792 5.2216775 22.81766892 5.72650338 25 9 C24.82383994 13.71628512 22.24659877 16.68039207 19.375 20.1875 C18.46416511 21.32915171 17.5553281 22.47240007 16.6484375 23.6171875 C16.19952148 24.18276367 15.75060547 24.74833984 15.28808594 25.33105469 C12.81973565 28.52924319 10.60254803 31.90143579 8.375 35.26953125 C7.92125 35.84058594 7.4675 36.41164062 7 37 C6.34 37 5.68 37 5 37 C3.71484375 34.9296875 3.71484375 34.9296875 3 32 C4.41593438 29.42391293 5.75917923 27.39950308 7.5625 25.125 C8.00658203 24.53847656 8.45066406 23.95195313 8.90820312 23.34765625 C9.80613171 22.16171283 10.70931616 20.97973079 11.61767578 19.80175781 C16.00300898 14.83785274 16.00300898 14.83785274 18 9 C14.67129786 8.41747712 11.35848412 7.92418291 8 7.5625 C4.48130634 7.14296345 1.32710809 6.24766554 -2 5 C-1.125 1.125 -1.125 1.125 0 0 Z " fill="#0E161A" transform="translate(154,71)"/>
<path d="M0 0 C2.31154618 2.31154618 2.5352225 3.4827512 3.25390625 6.62109375 C3.46853516 7.55759766 3.68316406 8.49410156 3.90429688 9.45898438 C4.12150391 10.44189453 4.33871094 11.42480469 4.5625 12.4375 C4.78357422 13.38560547 5.00464844 14.33371094 5.23242188 15.31054688 C8.33012914 29.07709487 8.33012914 29.07709487 8 35 C6.0625 37.6875 6.0625 37.6875 4 39 C2.86988659 35.66837869 1.74685741 32.33440952 0.625 29 C0.30789062 28.06542969 -0.00921875 27.13085938 -0.3359375 26.16796875 C-2.13033804 20.82215048 -3.83682985 15.52186271 -5 10 C-4.67 9.67 -4.34 9.34 -4 9 C-3.87625 7.865625 -3.7525 6.73125 -3.625 5.5625 C-3.41875 4.386875 -3.2125 3.21125 -3 2 C-2.01 1.34 -1.02 0.68 0 0 Z " fill="#FDFCFC" transform="translate(134,90)"/>
<path d="M0 0 C3.41459553 1.13819851 4.3324158 2.24005518 6.625 4.9375 C7.23601562 5.64777344 7.84703125 6.35804687 8.4765625 7.08984375 C10 9 10 9 11 11 C10.06421005 13.35981813 9.06652192 15.69631264 8 18 C5.70858714 18.05384521 3.41681812 18.09272087 1.125 18.125 C-0.15117188 18.14820312 -1.42734375 18.17140625 -2.7421875 18.1953125 C-6 18 -6 18 -8 16 C-8.4140625 13.3984375 -8.4140625 13.3984375 -8.625 10.375 C-8.69976562 9.37210938 -8.77453125 8.36921875 -8.8515625 7.3359375 C-8.90054688 6.56507812 -8.94953125 5.79421875 -9 5 C-5.59254812 4.23713764 -3.35001838 3.88332721 0 5 C0 3.35 0 1.7 0 0 Z " fill="#F1F2F2" transform="translate(72,102)"/>
<path d="M0 0 C1.96484375 1.296875 1.96484375 1.296875 4 3 C4.75021806 7.33459322 4.22211171 10.19843944 1.9375 13.875 C-0.33501931 16.79401187 -0.96196689 16.9906476 -4.8125 17.9375 C-6.3903125 17.9684375 -6.3903125 17.9684375 -8 18 C-8.20625 18.845625 -8.4125 19.69125 -8.625 20.5625 C-10.33861355 24.84653389 -12.86932356 27.67242567 -16 31 C-20.75 30.25 -20.75 30.25 -23 28 C-22.46735139 22.81777294 -18.85966553 18.26969824 -15 15 C-11.75865833 14.52741136 -9.10831728 15.03437763 -6 16 C-2.02158136 10.96066973 -0.94592282 6.29785459 0 0 Z " fill="#F98607" transform="translate(117,71)"/>
<path d="M0 0 C0.99 0.33 1.98 0.66 3 1 C3 4.63 3 8.26 3 12 C1.865625 12.12375 0.73125 12.2475 -0.4375 12.375 C-2.2009375 12.684375 -2.2009375 12.684375 -4 13 C-5.40457737 15.80915474 -5.24895157 17.88810534 -5 21 C-4.46375 21.66 -3.9275 22.32 -3.375 23 C-2.92125 23.66 -2.4675 24.32 -2 25 C-2.79428845 28.89201339 -3.90649343 31.46894917 -7 34 C-7.99 33.67 -8.98 33.34 -10 33 C-13.37729979 26.24540041 -10.19651098 16.7203889 -8 10 C-6.2199922 5.84664848 -4.13717099 2.13531406 0 0 Z " fill="#F9890D" transform="translate(82,42)"/>
<path d="M0 0 C1.46373047 0.02707031 1.46373047 0.02707031 2.95703125 0.0546875 C3.69308594 0.07789062 4.42914063 0.10109375 5.1875 0.125 C5.97037497 6.23142479 3.29575151 10.12959579 0.1875 15.125 C-1.1325 15.125 -2.4525 15.125 -3.8125 15.125 C-5.734375 12.7890625 -5.734375 12.7890625 -7.5625 9.75 C-8.17609375 8.75226562 -8.7896875 7.75453125 -9.421875 6.7265625 C-10.8125 4.125 -10.8125 4.125 -10.8125 2.125 C-7.04027911 0.37336544 -4.145861 -0.09990027 0 0 Z " fill="#FFF6F5" transform="translate(53.8125,24.875)"/>
<path d="M0 0 C2.31 0.33 4.62 0.66 7 1 C7 1.66 7 2.32 7 3 C7.99 3.33 8.98 3.66 10 4 C9.67 5.32 9.34 6.64 9 8 C7.35 8.33 5.7 8.66 4 9 C3.67 10.65 3.34 12.3 3 14 C2.34 14 1.68 14 1 14 C1 14.66 1 15.32 1 16 C-0.65 16 -2.3 16 -4 16 C-5.125 14.375 -5.125 14.375 -6 12 C-5.125 8.75 -5.125 8.75 -4 6 C-2.35 6.33 -0.7 6.66 1 7 C0.34 6.34 -0.32 5.68 -1 5 C-0.625 2.375 -0.625 2.375 0 0 Z " fill="#FBAA90" transform="translate(119,98)"/>
<path d="M0 0 C0.8971875 0.309375 0.8971875 0.309375 1.8125 0.625 C2.76715783 2.79467689 2.95651212 4.18828793 2.2109375 6.44921875 C1.45379615 8.1934743 0.63640802 9.91127131 -0.1875 11.625 C-3.15911173 11.4867855 -5.40263478 11.28301832 -7.734375 9.328125 C-9.125 7.75 -9.125 7.75 -11.1875 4.625 C-10.8575 3.635 -10.5275 2.645 -10.1875 1.625 C-9.0428125 1.686875 -9.0428125 1.686875 -7.875 1.75 C-4.51868958 1.59389254 -3.26425478 -0.55958653 0 0 Z " fill="#FEF9F2" transform="translate(111.1875,29.375)"/>
<path d="M0 0 C0.99 0.33 1.98 0.66 3 1 C2.48676082 5.25988521 -0.1728589 7.94317281 -2.875 11.0625 C-3.32230469 11.59166016 -3.76960937 12.12082031 -4.23046875 12.66601562 C-6.39464845 15.21004398 -8.58604526 17.68995722 -11 20 C-11.80078125 17.91796875 -11.80078125 17.91796875 -12 15 C-10.47774869 12.54143163 -9.02370934 10.50650926 -7.1875 8.3125 C-6.72279297 7.73177734 -6.25808594 7.15105469 -5.77929688 6.55273438 C-3.93870572 4.26850002 -2.07512962 2.07512962 0 0 Z " fill="#11171B" transform="translate(141,73)"/>
<path d="M0 0 C3.625 -0.1875 3.625 -0.1875 7 0 C6.52343588 1.79236067 6.04366502 3.58386897 5.5625 5.375 C5.29566406 6.37273438 5.02882813 7.37046875 4.75390625 8.3984375 C4 11 4 11 3 13 C-0.875 11.25 -0.875 11.25 -2 9 C-2.25860135 4.94857881 -2.30441554 3.45662331 0 0 Z " fill="#EADED1" transform="translate(78,54)"/>
<path d="M0 0 C1.96484375 1.296875 1.96484375 1.296875 4 3 C4.75656854 7.37128491 4.21433991 10.19564984 1.875 13.875 C-0.22358118 16.56286759 -0.86228691 16.9610246 -4.3125 17.9375 C-5.199375 17.958125 -6.08625 17.97875 -7 18 C-6.66226563 17.53851563 -6.32453125 17.07703125 -5.9765625 16.6015625 C-2.31319666 11.24415465 -0.87866319 6.39981544 0 0 Z " fill="#F66E60" transform="translate(117,71)"/>
<path d="M0 0 C0.99 0.33 1.98 0.66 3 1 C3.33 4.63 3.66 8.26 4 12 C3.01 12.33 2.02 12.66 1 13 C-1 12 -1 12 -2 9 C-2.1875 5.4375 -2.1875 5.4375 -2 2 C-1.34 1.34 -0.68 0.68 0 0 Z " fill="#F9A78C" transform="translate(127,87)"/>
<path d="M0 0 C1.32 0.33 2.64 0.66 4 1 C3.48964169 5.3890815 2.47785723 8.33708062 0 12 C-0.99 11.67 -1.98 11.34 -3 11 C-2.53199289 6.94393835 -2.12046792 3.53411321 0 0 Z " fill="#EEEFEF" transform="translate(84,112)"/>
<path d="M0 0 C2.0625 0.4375 2.0625 0.4375 4 1 C4.33 2.65 4.66 4.3 5 6 C3.35 6 1.7 6 0 6 C-0.38218767 4.34385343 -0.71395102 2.67542976 -1 1 C-0.67 0.67 -0.34 0.34 0 0 Z " fill="#FFB329" transform="translate(39,68)"/>
</svg>
