<?xml version="1.0" encoding="UTF-8"?>
<svg version="1.1" xmlns="http://www.w3.org/2000/svg" width="235" height="150">
<path d="M0 0 C1.73286255 -0.02278015 1.73286255 -0.02278015 3.50073242 -0.04602051 C7.31621502 -0.08838382 11.130586 -0.09331655 14.94628906 -0.09423828 C16.93209401 -0.1043473 18.91789926 -0.11446674 20.9036963 -0.12602627 C27.14748099 -0.16149998 33.39089859 -0.1693244 39.63476562 -0.16113281 C46.05538086 -0.15330091 52.47420252 -0.19719939 58.89441466 -0.26593387 C64.42340451 -0.32297563 69.95181658 -0.34485661 75.48109651 -0.33969891 C78.77623578 -0.33713308 82.06957353 -0.35214574 85.36449432 -0.3939476 C89.04653679 -0.43587075 92.72417935 -0.42023267 96.40625 -0.390625 C98.02131439 -0.42737839 98.02131439 -0.42737839 99.66900635 -0.46487427 C107.23973084 -0.31866501 110.94431481 1.97171329 116.27710342 7.28602409 C119.87868222 11.28259843 123.34213983 15.32467965 126.46191406 19.71044922 C126.8754117 20.26304318 127.28890934 20.81563715 127.71493721 21.38497639 C131.42709874 26.7166667 132.2013786 30.80858312 132.17236328 37.22485352 C132.18755005 38.1414827 132.20273682 39.05811188 132.21838379 40.0025177 C132.26055672 43.01361453 132.26567794 46.02329481 132.26660156 49.03466797 C132.28014563 51.14444038 132.2945746 53.25420727 132.30984497 55.3639679 C132.3352221 59.78128191 132.3405519 64.19810279 132.33349609 68.61547852 C132.32740985 74.24697597 132.38521012 79.8757763 132.46015739 85.50670147 C132.50850769 89.86429551 132.51519185 94.22125035 132.51050186 98.57908058 C132.51452735 100.65335723 132.53283223 102.72766162 132.56631088 104.80167198 C132.76107171 118.24640851 131.73652492 126.57043616 122.46191406 136.71044922 C121.06555522 138.37667563 119.6696225 140.0432594 118.27441406 141.71044922 C117.04487795 143.08195791 115.77068565 144.414335 114.46191406 145.71044922 C113.66790695 146.5617189 112.87389984 147.41298859 112.05583191 148.29005432 C107.57142849 151.96583312 102.49604178 151.44839043 96.93969727 151.43676758 C95.78606186 151.45356064 94.63242645 151.4703537 93.4438324 151.48765564 C89.63317879 151.53511598 85.82362602 151.54491664 82.01269531 151.55029297 C80.0287283 151.5623003 78.04476108 151.57431685 76.06080216 151.58759505 C69.82178511 151.62825157 63.58312847 151.64052291 57.34399414 151.63696289 C50.93120238 151.63396406 44.52052063 151.68662592 38.10826236 151.76568121 C32.58434888 151.8313297 27.06112011 151.85787116 21.53682011 151.85468584 C18.24537331 151.85341796 14.95620863 151.87194023 11.66506386 151.9205761 C-11.00949242 152.22422976 -11.00949242 152.22422976 -17.16033649 147.2113657 C-19.1951297 145.20112645 -20.8880263 143.0426515 -22.53808594 140.71044922 C-23.52554137 139.6190219 -24.51800069 138.53206875 -25.51855469 137.45263672 C-43.25248411 114.41422221 -49.54172345 88.00082439 -46.23779297 59.08203125 C-45.44861957 54.46461287 -44.10850036 50.12723979 -42.53808594 45.71044922 C-42.12558594 44.46779297 -41.71308594 43.22513672 -41.28808594 41.94482422 C-36.44856822 28.17720025 -27.96526108 15.87879378 -17.53808594 5.71044922 C-16.74061951 4.85579071 -15.94315308 4.0011322 -15.121521 3.12057495 C-10.64067465 -0.55237624 -5.54959365 -0.01962899 0 0 Z " fill="#EF8B80" transform="translate(103.5380859375,-0.71044921875)"/>
<path d="M0 0 C3.86625622 0.6026069 6.83621036 1.76515323 10.2890625 3.58984375 C11.81261353 4.38890137 11.81261353 4.38890137 13.36694336 5.20410156 C14.44210205 5.77612305 15.51726074 6.34814453 16.625 6.9375 C17.7291626 7.51854492 18.8333252 8.09958984 19.97094727 8.69824219 C23.31683128 10.46012297 26.65841428 12.22998429 30 14 C32.81405652 15.48158952 35.62938122 16.9607448 38.44482422 18.43969727 C40.80693299 19.681366 43.16737454 20.92614576 45.52734375 22.171875 C47.34435078 23.12840963 49.16337853 24.08168926 51 25 C49.67691649 28.58622125 48.08572507 31.62984109 45.98046875 34.81640625 C45.37702637 35.73510498 44.77358398 36.65380371 44.15185547 37.6003418 C43.50361816 38.577854 42.85538086 39.55536621 42.1875 40.5625 C40.81882297 42.64310587 39.45033669 44.72383724 38.08203125 46.8046875 C37.39447754 47.8472168 36.70692383 48.88974609 35.99853516 49.96386719 C33.105107 54.35950272 30.23898565 58.77264825 27.375 63.1875 C26.30999275 64.82688588 25.24488874 66.46620891 24.1796875 68.10546875 C23.65600586 68.91161621 23.13232422 69.71776367 22.59277344 70.54833984 C19.89595246 74.69939383 17.19789369 78.84964316 14.5 83 C13.96503906 83.82306641 13.43007812 84.64613281 12.87890625 85.49414062 C10.14638365 89.69827479 7.41342599 93.9021251 4.6796875 98.10546875 C-2.22799067 108.7276627 -9.12176205 119.35871804 -16 130 C-23.65778141 126.35262865 -30.88847058 122.16602971 -38.125 117.75 C-47.65244212 111.98047513 -57.24050237 106.36699646 -67 101 C-65.1388256 95.22471944 -61.32225197 90.67966929 -57.72460938 85.8828125 C-54.74892822 81.92916877 -54.74892822 81.92916877 -54.07421875 77.19140625 C-55.25654388 74.39273791 -56.61856691 71.70530647 -58 69 C-60.84610836 60.54018824 -60.23018287 49.34366879 -56.4375 41.375 C-50.87747083 31.93198063 -44.14696175 27.11961118 -34 23 C-26.00491457 20.95187626 -18.30915044 21.10178643 -11 25 C-10.71125 24.278125 -10.4225 23.55625 -10.125 22.8125 C-9.42804095 21.07010238 -8.70384778 19.33801269 -7.9375 17.625 C-6.84874825 14.94184856 -6.84874825 14.94184856 -6.75 11.6875 C-5.74556116 6.74900903 -3.21199509 3.78170675 0 0 Z " fill="#FDC8BC" transform="translate(167,3)"/>
<path d="M0 0 C1.48914665 0.01184326 1.48914665 0.01184326 3.00837708 0.02392578 C4.04299576 0.01248535 5.07761444 0.00104492 6.14358521 -0.01074219 C8.33146943 -0.02425356 10.51952868 -0.01975898 12.70735168 0.00146484 C16.03298647 0.0237504 19.34957768 -0.03882309 22.6743927 -0.10888672 C40.40942023 -0.23221583 40.40942023 -0.23221583 46.62165833 5.27001953 C48.61775208 7.59594727 48.61775208 7.59594727 50.37165833 10.02392578 C51.80564904 11.71440889 53.24271575 13.40229223 54.68415833 15.08642578 C55.95558233 16.69983802 57.18096276 18.3500494 58.37165833 20.02392578 C58.80486389 20.50821045 59.23806946 20.99249512 59.68440247 21.49145508 C64.72028286 27.88546718 64.2320401 35.54844915 64.18830872 43.30639648 C64.18414594 45.71860287 64.24954562 48.12261064 64.31892395 50.53369141 C64.45076898 61.65882132 64.45076898 61.65882132 61.67390442 65.17163086 C59.56898798 66.52514052 57.76863007 67.32791457 55.37165833 68.02392578 C54.68692444 68.25724609 54.00219055 68.49056641 53.29670715 68.73095703 C51.67758935 69.24020397 50.02608516 69.6447863 48.37165833 70.02392578 C48.37165833 72.99392578 48.37165833 75.96392578 48.37165833 79.02392578 C47.71165833 79.02392578 47.05165833 79.02392578 46.37165833 79.02392578 C46.16540833 79.93142578 45.95915833 80.83892578 45.74665833 81.77392578 C44.03179292 85.827244 42.17314583 86.92922858 38.37165833 89.02392578 C36.88665833 89.51892578 36.88665833 89.51892578 35.37165833 90.02392578 C36.36165833 91.50892578 36.36165833 91.50892578 37.37165833 93.02392578 C38.32656657 98.70746618 38.19097344 103.66375741 34.80915833 108.46142578 C30.89453672 112.97758498 26.29929157 115.88975769 20.37165833 117.02392578 C18.3740883 117.14063164 16.37259557 117.19891992 14.37165833 117.21142578 C13.34040833 117.22560547 12.30915833 117.23978516 11.24665833 117.25439453 C8.36227995 117.02317398 6.86965559 116.3752131 4.37165833 115.02392578 C0.88577333 115.16917099 -1.07808481 115.63725879 -3.94084167 117.64892578 C-6.12556378 120.72371985 -6.34255659 123.30871965 -6.62834167 127.02392578 C-7.28834167 126.69392578 -7.94834167 126.36392578 -8.62834167 126.02392578 C-9.29220886 127.08611328 -9.95607605 128.14830078 -10.64006042 129.24267578 C-14.96948751 136.16975911 -19.29891459 143.09684245 -23.62834167 150.02392578 C-28.96779787 149.58247468 -32.61261027 146.61113755 -36.87834167 143.64892578 C-38.49739729 142.54628172 -40.11720654 141.44474357 -41.73771667 140.34423828 C-42.55562683 139.78639648 -43.37353699 139.22855469 -44.2162323 138.65380859 C-47.81743144 136.22044772 -51.47006803 133.87023119 -55.12834167 131.52392578 C-64.0314723 125.79514697 -72.83517718 119.91967813 -81.62834167 114.02392578 C-81.17815706 108.86899493 -80.27489962 105.88699794 -77.06584167 101.83642578 C-72.64040398 96.06826103 -68.62476328 90.09412079 -64.62834167 84.02392578 C-63.29740657 82.02231511 -61.96304499 80.02302787 -60.62834167 78.02392578 C-59.06584167 79.27392578 -59.06584167 79.27392578 -57.62834167 81.02392578 C-58.06037773 84.48207846 -59.67428839 86.91875771 -61.56974792 89.78955078 C-62.15304871 90.67900391 -62.73634949 91.56845703 -63.33732605 92.48486328 C-63.94898621 93.40525391 -64.56064636 94.32564453 -65.19084167 95.27392578 C-65.80636902 96.20978516 -66.42189636 97.14564453 -67.05607605 98.10986328 C-68.57515588 100.41792256 -70.09938292 102.72240379 -71.62834167 105.02392578 C-70.32570374 105.41547852 -70.32570374 105.41547852 -68.99674988 105.81494141 C-65.60713451 107.03153743 -62.81627406 108.51424026 -59.73381042 110.36767578 C-58.62046326 111.03283203 -57.50711609 111.69798828 -56.36003113 112.38330078 C-55.17858626 113.09676233 -53.99719064 113.81030544 -52.81584167 114.52392578 C-51.60681695 115.2484961 -50.39742344 115.97245139 -49.18766785 116.69580078 C-46.78599434 118.1323429 -44.38582416 119.57134505 -41.98674011 121.01220703 C-37.48619548 123.70808431 -32.96649846 126.37049159 -28.44084167 129.02392578 C-27.0931714 129.81556857 -25.74551343 130.60723232 -24.39787292 131.39892578 C-23.02695496 132.20330078 -23.02695496 132.20330078 -21.62834167 133.02392578 C-17.2031451 127.1895884 -13.0809974 121.26519881 -9.25334167 115.02392578 C-3.87534695 106.26268346 1.85395708 97.74150238 7.59968567 89.21923828 C12.02840234 82.62656745 16.3091898 75.96384327 20.49578857 69.2149353 C25.33537811 61.43449192 30.38486021 53.79422076 35.43415833 46.14892578 C36.85541137 43.99498605 38.27610261 41.84068231 39.69549561 39.68551636 C40.5668782 38.36259724 41.43935455 37.04039771 42.31307983 35.71902466 C44.47723021 32.45092363 44.47723021 32.45092363 46.37165833 29.02392578 C45.54657776 28.77626465 44.72149719 28.52860352 43.87141418 28.2734375 C39.83971534 26.83400711 36.16690791 25.00470804 32.37556458 23.03173828 C31.6237944 22.64452606 30.87202423 22.25731384 30.09747314 21.85836792 C28.51391677 21.04171042 26.93141944 20.22299644 25.34992981 19.40234375 C22.94737717 18.15578435 20.54168039 16.91547961 18.1353302 15.67626953 C16.59021966 14.87845773 15.04529172 14.08029216 13.50056458 13.28173828 C12.43461815 12.73152512 12.43461815 12.73152512 11.34713745 12.17019653 C8.01686709 10.4404924 4.73630069 8.66660572 1.50032043 6.765625 C-1.35158477 4.88034996 -1.35158477 4.88034996 -3.81584167 4.89892578 C-7.55187467 7.21784281 -9.24264347 10.37896124 -10.21818542 14.53955078 C-10.52471041 16.27230356 -10.80014761 18.01095572 -11.03849792 19.75439453 C-11.71000361 22.33813494 -12.60297002 23.33886048 -14.62834167 25.02392578 C-14.46334167 24.52892578 -14.29834167 24.03392578 -14.12834167 23.52392578 C-13.4214535 19.98948489 -13.56829012 16.62701877 -13.62834167 13.02392578 C-17.27704881 11.71040869 -19.50446897 12.35658279 -23.13127136 13.56274414 C-24.78253021 14.10341774 -24.78253021 14.10341774 -26.46714783 14.65501404 C-28.24076691 15.25334801 -28.24076691 15.25334801 -30.05021667 15.86376953 C-31.26533936 16.26471329 -32.48046204 16.66565704 -33.73240662 17.07875061 C-36.95768483 18.14309869 -40.17866609 19.21991073 -43.39891052 20.29937744 C-46.68772628 21.39936772 -49.98045452 22.4875111 -53.27287292 23.57666016 C-59.72835961 25.71484217 -66.17980453 27.8648813 -72.62834167 30.02392578 C-72.95834167 29.36392578 -73.28834167 28.70392578 -73.62834167 28.02392578 C-66.70910924 25.70976631 -59.78932611 23.3972615 -52.86884975 21.08682442 C-49.65486684 20.01376274 -46.44107101 18.94014787 -43.22770691 17.86523438 C-39.52709134 16.62764208 -35.825828 15.39200446 -32.12443542 14.15673828 C-30.4068528 13.5816301 -30.4068528 13.5816301 -28.65457153 12.99490356 C-27.57397964 12.63468109 -26.49338776 12.27445862 -25.38005066 11.90332031 C-24.37376617 11.56367249 -23.36748169 11.22402466 -22.33070374 10.87408447 C-20.10051197 10.17246978 -17.94519678 9.66497174 -15.65983582 9.203125 C-12.28997874 7.8923084 -12.07266685 7.41559198 -10.3556366 4.46142578 C-7.62464976 0.19334655 -4.85424157 0.14913201 0 0 Z " fill="#ED8A7F" transform="translate(171.6283416748047,-1.02392578125)"/>
<path d="M0 0 C0.21004582 7.72840551 0.36919562 15.45612271 0.46630955 23.18667889 C0.51296128 26.77791491 0.57604823 30.36717598 0.67895508 33.95727539 C1.48325305 62.76660229 1.48325305 62.76660229 -6.64208984 71.76879883 C-7.4202002 72.50509521 -8.19831055 73.2413916 -9 74 C-10.4081103 75.65630729 -11.80611907 77.3213353 -13.1875 79 C-14.41703611 80.37150869 -15.69122841 81.70388578 -17 83 C-17.83007568 83.8561792 -18.66015137 84.7123584 -19.51538086 85.59448242 C-23.61389238 88.96624877 -27.66621027 88.63674884 -32.7734375 88.48828125 C-33.6971817 88.48120651 -34.6209259 88.47413177 -35.57266235 88.46684265 C-38.50761732 88.43897277 -41.44062693 88.37624888 -44.375 88.3125 C-46.37106609 88.28740752 -48.36716225 88.26459602 -50.36328125 88.24414062 C-55.24293096 88.18917039 -60.12113627 88.10294966 -65 88 C-64.34 86.68 -63.68 85.36 -63 84 C-61.35 84 -59.7 84 -58 84 C-58 83.34 -58 82.68 -58 82 C-59.98 81.34 -61.96 80.68 -64 80 C-60.92940407 76.92940407 -56.97569413 76.00206872 -52.9453125 74.51171875 C-49.51989846 72.75358184 -48.00175571 71.27987202 -46 68 C-45.31132197 64.89115628 -45.31132197 64.89115628 -45.25 61.6875 C-45.19328125 60.61886719 -45.1365625 59.55023438 -45.078125 58.44921875 C-45.05234375 57.64097656 -45.0265625 56.83273438 -45 56 C-46.27875 56.04125 -47.5575 56.0825 -48.875 56.125 C-51.0546875 56.1953125 -51.0546875 56.1953125 -53 56 C-53.66 55.34 -54.32 54.68 -55 54 C-53.42412109 53.88785156 -53.42412109 53.88785156 -51.81640625 53.7734375 C-43.46778561 53.04466068 -36.17748957 52.29109858 -30 46 C-26.97950829 42.00471324 -26.66234346 39.14266566 -26.8125 34.1875 C-26.83957031 33.02605469 -26.86664063 31.86460938 -26.89453125 30.66796875 C-26.94673828 29.34732422 -26.94673828 29.34732422 -27 28 C-28.32 27.67 -29.64 27.34 -31 27 C-30.32453125 26.79246094 -29.6490625 26.58492187 -28.953125 26.37109375 C-22.57871572 24.22920052 -22.57871572 24.22920052 -18.375 19.25 C-17.92125 18.1775 -17.4675 17.105 -17 16 C-16.34 16 -15.68 16 -15 16 C-15.495 11.545 -15.495 11.545 -16 7 C-14.75283203 6.49339844 -14.75283203 6.49339844 -13.48046875 5.9765625 C-11.85044922 5.30753906 -11.85044922 5.30753906 -10.1875 4.625 C-9.10855469 4.18414062 -8.02960938 3.74328125 -6.91796875 3.2890625 C-4.84932238 2.37520266 -2.15570308 0 0 0 Z " fill="#D08989" transform="translate(235,62)"/>
<path d="M0 0 C10.22171162 1.63839887 19.38126539 8.09101264 28.13525391 13.2890625 C32.66605757 15.96330382 37.27798743 18.4824049 41.890625 21.01171875 C44.35161028 22.38204307 46.80872482 23.75907705 49.265625 25.13671875 C49.265625 28.99854385 49.2247199 29.70572067 47.3515625 32.7265625 C46.92657471 33.4189502 46.50158691 34.11133789 46.0637207 34.82470703 C45.59409912 35.5670459 45.12447754 36.30938477 44.640625 37.07421875 C44.16004639 37.84749512 43.67946777 38.62077148 43.18432617 39.41748047 C37.09724268 49.13249275 30.68772286 58.6412186 24.265625 68.13671875 C26.245625 68.63171875 26.245625 68.63171875 28.265625 69.13671875 C27.72292969 69.42804688 27.18023437 69.719375 26.62109375 70.01953125 C21.88829205 72.73129871 18.96796931 74.71049625 17.265625 80.13671875 C16.89131356 82.99752763 16.9730929 85.21139778 17.265625 88.13671875 C20.45324865 90.26180119 22.53074723 90.63873505 26.265625 91.13671875 C26.265625 91.46671875 26.265625 91.79671875 26.265625 92.13671875 C19.98976293 92.49878772 19.98976293 92.49878772 16.890625 90.94921875 C15.265625 89.13671875 15.265625 89.13671875 14.265625 84.13671875 C11.295625 88.75671875 8.325625 93.37671875 5.265625 98.13671875 C6.874375 97.49734375 8.483125 96.85796875 10.140625 96.19921875 C15.53256893 94.22007461 20.54742403 93.38479688 26.265625 93.13671875 C26.265625 93.79671875 26.265625 94.45671875 26.265625 95.13671875 C25.18023437 95.306875 24.09484375 95.47703125 22.9765625 95.65234375 C21.53112211 95.89637914 20.08581644 96.14121337 18.640625 96.38671875 C17.92777344 96.49628906 17.21492188 96.60585937 16.48046875 96.71875 C11.58846542 97.57148453 8.23167782 98.97701703 4.265625 102.13671875 C1.32715316 106.54442651 0.95121922 109.89662233 1.265625 115.13671875 C0.193125 115.21921875 -0.879375 115.30171875 -1.984375 115.38671875 C-6.11113565 116.21207088 -7.38518614 116.70328887 -9.734375 120.13671875 C-10.54203378 123.78393571 -10.54203378 123.78393571 -10.734375 127.13671875 C-11.394375 126.80671875 -12.054375 126.47671875 -12.734375 126.13671875 C-13.39824219 127.19890625 -14.06210938 128.26109375 -14.74609375 129.35546875 C-19.07552083 136.28255208 -23.40494792 143.20963542 -27.734375 150.13671875 C-33.07383119 149.69526765 -36.71864359 146.72393052 -40.984375 143.76171875 C-42.60343061 142.65907469 -44.22323987 141.55753654 -45.84375 140.45703125 C-46.66166016 139.89918945 -47.47957031 139.34134766 -48.32226562 138.76660156 C-51.92346477 136.33324069 -55.57610136 133.98302415 -59.234375 131.63671875 C-68.13750563 125.90793993 -76.94121051 120.0324711 -85.734375 114.13671875 C-85.28419039 108.9817879 -84.38093294 105.99979091 -81.171875 101.94921875 C-76.7464373 96.181054 -72.73079661 90.20691376 -68.734375 84.13671875 C-67.40343989 82.13510808 -66.06907832 80.13582084 -64.734375 78.13671875 C-63.171875 79.38671875 -63.171875 79.38671875 -61.734375 81.13671875 C-62.16641106 84.59487143 -63.78032172 87.03155067 -65.67578125 89.90234375 C-66.25908203 90.79179688 -66.84238281 91.68125 -67.44335938 92.59765625 C-68.05501953 93.51804687 -68.66667969 94.4384375 -69.296875 95.38671875 C-69.91240234 96.32257813 -70.52792969 97.2584375 -71.16210938 98.22265625 C-72.68118921 100.53071553 -74.20541625 102.83519676 -75.734375 105.13671875 C-74.43173706 105.52827148 -74.43173706 105.52827148 -73.1027832 105.92773438 C-69.71316783 107.1443304 -66.92230739 108.62703323 -63.83984375 110.48046875 C-62.72649658 111.145625 -61.61314941 111.81078125 -60.46606445 112.49609375 C-59.28461959 113.2095553 -58.10322396 113.9230984 -56.921875 114.63671875 C-55.71285028 115.36128907 -54.50345676 116.08524436 -53.29370117 116.80859375 C-50.89202767 118.24513587 -48.49185748 119.68413802 -46.09277344 121.125 C-41.5922288 123.82087727 -37.07253179 126.48328456 -32.546875 129.13671875 C-31.19920472 129.92836154 -29.85154676 130.72002529 -28.50390625 131.51171875 C-27.13298828 132.31609375 -27.13298828 132.31609375 -25.734375 133.13671875 C-21.30917843 127.30238137 -17.18703072 121.37799177 -13.359375 115.13671875 C-7.98138027 106.37547643 -2.25207624 97.85429535 3.49365234 89.33203125 C7.92236902 82.73936042 12.20315647 76.07663623 16.38975525 69.32772827 C21.22934479 61.54728488 26.27882689 53.90701373 31.328125 46.26171875 C32.74937805 44.10777902 34.17006929 41.95347528 35.58946228 39.79830933 C36.46084488 38.47539021 37.33332122 37.15319068 38.20704651 35.83181763 C40.37119689 32.5637166 40.37119689 32.5637166 42.265625 29.13671875 C41.44054443 28.88905762 40.61546387 28.64139648 39.76538086 28.38623047 C35.73368201 26.94680007 32.06087458 25.117501 28.26953125 23.14453125 C27.51776108 22.75731903 26.76599091 22.37010681 25.99143982 21.97116089 C24.40788344 21.15450339 22.82538611 20.33578941 21.24389648 19.51513672 C18.84134384 18.26857732 16.43564706 17.02827258 14.02929688 15.7890625 C12.48418633 14.9912507 10.93925839 14.19308513 9.39453125 13.39453125 C8.32858482 12.84431808 8.32858482 12.84431808 7.24110413 12.2829895 C3.91083377 10.55328537 0.63026736 8.77939868 -2.60571289 6.87841797 C-5.45761809 4.99314293 -5.45761809 4.99314293 -7.921875 5.01171875 C-11.657908 7.33063578 -13.34867679 10.49175421 -14.32421875 14.65234375 C-14.63074373 16.38509653 -14.90618094 18.12374869 -15.14453125 19.8671875 C-15.81603693 22.45092791 -16.70900335 23.45165345 -18.734375 25.13671875 C-18.569375 24.64171875 -18.404375 24.14671875 -18.234375 23.63671875 C-17.52748682 20.10227786 -17.67432345 16.73981174 -17.734375 13.13671875 C-21.38308214 11.82320166 -23.6105023 12.46937576 -27.23730469 13.67553711 C-28.88856354 14.21621071 -28.88856354 14.21621071 -30.57318115 14.76780701 C-32.34680023 15.36614098 -32.34680023 15.36614098 -34.15625 15.9765625 C-35.37137268 16.37750626 -36.58649536 16.77845001 -37.83843994 17.19154358 C-41.06371816 18.25589165 -44.28469942 19.3327037 -47.50494385 20.41217041 C-50.79375961 21.51216068 -54.08648784 22.60030407 -57.37890625 23.68945312 C-63.83439294 25.82763514 -70.28583786 27.97767427 -76.734375 30.13671875 C-77.064375 29.47671875 -77.394375 28.81671875 -77.734375 28.13671875 C-70.81514257 25.82255928 -63.89535943 23.51005446 -56.97488308 21.19961739 C-53.76090016 20.12655571 -50.54710433 19.05294083 -47.33374023 17.97802734 C-43.63312467 16.74043505 -39.93186133 15.50479743 -36.23046875 14.26953125 C-34.51288612 13.69442307 -34.51288612 13.69442307 -32.76060486 13.10769653 C-23.84950808 10.13712332 -23.84950808 10.13712332 -19.52709961 8.98632812 C-16.67541473 8.4369866 -16.67541473 8.4369866 -15.5546875 6.41015625 C-15.32523437 5.78367187 -15.09578125 5.1571875 -14.859375 4.51171875 C-11.42135029 -0.60711804 -5.61091215 -0.43335603 0 0 Z " fill="#513632" transform="translate(175.734375,-1.13671875)"/>
<path d="M0 0 C6.19071189 3.63717735 11.36070134 9.30358389 13.25390625 16.32421875 C14.25420142 26.04299565 13.63254616 34.13508 7.69140625 42.01171875 C2.55816483 47.64796624 -5.59362874 51.35043986 -13.18359375 51.76171875 C-20.58752241 51.67499631 -27.12551254 48.37574987 -32.734375 43.6484375 C-39.28597505 36.57661115 -40.33155534 29.10088568 -40.08984375 19.6640625 C-39.35185202 12.49380193 -35.93272831 7.69815266 -30.71484375 2.8671875 C-21.61113896 -4.2676605 -10.40958651 -4.76200988 0 0 Z " fill="#D48D8D" transform="translate(155.74609375,36.67578125)"/>
<path d="M0 0 C1.4429915 0.014954 2.88602411 0.02632607 4.32907104 0.03430176 C8.09484526 0.06459087 11.85808069 0.14293779 15.62286377 0.23193359 C19.47739324 0.31433761 23.33234025 0.35042825 27.1875 0.390625 C34.72770972 0.47596785 42.26584056 0.61217587 49.8046875 0.78125 C48.92495039 2.25883923 48.02344034 3.72347851 47.11303711 5.18237305 C46.61339951 5.99933151 46.1137619 6.81628998 45.59898376 7.65800476 C42.80824037 10.96037614 39.82906795 11.18607601 35.71142578 11.94775391 C30.62720967 13.03246293 25.81011207 14.67857192 20.89453125 16.35546875 C19.91344391 16.68620392 18.93235657 17.01693909 17.92153931 17.35769653 C14.86030238 18.39047785 11.80102199 19.42887653 8.7421875 20.46875 C4.66968962 21.85281112 0.59524872 23.2309218 -3.48046875 24.60546875 C-4.41166031 24.92416428 -5.34285187 25.2428598 -6.30226135 25.57121277 C-7.1642363 25.86184097 -8.02621124 26.15246918 -8.91430664 26.4519043 C-9.67087051 26.70932907 -10.42743439 26.96675385 -11.20692444 27.23197937 C-13.1953125 27.78125 -13.1953125 27.78125 -16.1953125 27.78125 C-16.4221875 28.296875 -16.6490625 28.8125 -16.8828125 29.34375 C-18.02901891 31.47241905 -19.22764888 33.46095148 -20.5703125 35.46875 C-20.96992187 36.07074219 -21.36953125 36.67273437 -21.78125 37.29296875 C-24.0562482 39.68737293 -26.34043652 39.70678844 -29.52734375 39.984375 C-35.24824075 40.09248644 -39.11265393 39.43307186 -44.1953125 36.78125 C-40.84355857 25.74302191 -33.48150729 16.64632828 -25.1953125 8.78125 C-24.2358799 7.79320625 -24.2358799 7.79320625 -23.25706482 6.78520203 C-15.9360253 -0.01176194 -9.64527486 -0.29662406 0 0 Z " fill="#D38B8B" transform="translate(114.1953125,-0.78125)"/>
<path d="M0 0 C5.99762474 4.62600885 10.33892127 9.89888935 13 17 C13.4125 18.093125 13.825 19.18625 14.25 20.3125 C16.31594212 30.47004877 14.84496191 38.79805796 10 48 C6.61027525 52.67177906 2.81448646 56.77699659 -2 60 C-2.66 60 -3.32 60 -4 60 C-3.45859375 61.04800781 -3.45859375 61.04800781 -2.90625 62.1171875 C-2.4421875 63.02726562 -1.978125 63.93734375 -1.5 64.875 C-1.0359375 65.77992187 -0.571875 66.68484375 -0.09375 67.6171875 C1 70 1 70 1 72 C-2.00866846 70.68130702 -3.55835525 69.37672786 -5.625 66.875 C-9.67678684 63.2187238 -13.65818571 63.68596647 -18.8125 63.875 C-26.09023629 64.13975193 -31.57804809 63.82686147 -38 60 C-38.70253906 59.5875 -39.40507813 59.175 -40.12890625 58.75 C-47.8937646 53.56360505 -52.9495732 46.06403623 -55 37 C-56.52589588 25.02425552 -54.74479867 15.77667403 -47.46484375 5.921875 C-34.77031577 -8.42574876 -15.70132631 -9.0171532 0 0 Z M-43.40625 14.71875 C-48.00151705 21.29628911 -47.69903445 28.23295054 -47 36 C-45.13827286 42.96386583 -41.43636432 48.7854541 -35.36328125 52.69921875 C-27.78579753 56.86149854 -21.82578372 58.57690386 -13.40234375 56.296875 C-4.63176056 53.17491779 0.97600366 48.35753087 5 40 C7.05310181 33.63260993 7.152027 25.68217974 5.1640625 19.328125 C1.72111439 12.62708505 -3.84485643 7.14899868 -10.75 4.0625 C-24.16999117 -0.1213796 -34.61277356 4.48372005 -43.40625 14.71875 Z " fill="#F6EAE2" transform="translate(163,31)"/>
<path d="M0 0 C-2.32522297 2.4027304 -4.63843164 4.69794644 -7.20703125 6.84375 C-16.00472565 14.26983535 -23.25217736 23.45097928 -28 34 C-28 34.66 -28 35.32 -28 36 C-22.17251381 38.42811925 -16.2242509 38.61727907 -10 39 C-11.25638991 42.3523301 -12.68733888 45.30402615 -14.625 48.3125 C-15.07101563 49.00988281 -15.51703125 49.70726562 -15.9765625 50.42578125 C-16.48316406 51.20501953 -16.48316406 51.20501953 -17 52 C-17.33 51.34 -17.66 50.68 -18 50 C-18.66 50 -19.32 50 -20 50 C-20.0928125 51.3921875 -20.0928125 51.3921875 -20.1875 52.8125 C-21 56 -21 56 -23.5625 57.875 C-24.366875 58.24625 -25.17125 58.6175 -26 59 C-24.68 59.99 -23.36 60.98 -22 62 C-25.35820199 69.26338386 -28.32615094 74.87169667 -36 78 C-36.66 78 -37.32 78 -38 78 C-37.40419522 102.59048808 -25.2243116 125.92265351 -8 143 C-5.86436895 144.74894702 -3.70682522 146.37717485 -1.43359375 147.94140625 C-0.96050781 148.29074219 -0.48742187 148.64007813 0 149 C0 149.33 0 149.66 0 150 C-3.99424046 150.32998041 -6.2982634 150.4434655 -9.73828125 148.26953125 C-26.85251891 131.93439393 -40.74207809 110.30312448 -42.17700195 86.00244141 C-42.71644834 58.26501095 -42.71644834 58.26501095 -38 45 C-37.5875 43.75734375 -37.175 42.5146875 -36.75 41.234375 C-31.86982445 27.35108626 -23.34438472 15.38432443 -13 5 C-12.18402344 4.14921875 -12.18402344 4.14921875 -11.3515625 3.28125 C-7.69921893 -0.19717244 -4.92305095 -0.49230509 0 0 Z " fill="#E14110" transform="translate(99,0)"/>
<path d="M0 0 C4.23145631 -0.22491386 8.45962793 -0.38686795 12.6953125 -0.49438477 C14.13115099 -0.53925472 15.56658752 -0.60038324 17.00097656 -0.67895508 C24.70249053 -1.0898099 30.63551477 -1.19937343 36.73828125 4.21875 C38.20837883 5.7669359 39.63100935 7.36172924 41 9 C41.76231934 9.88679443 42.52463867 10.77358887 43.31005859 11.68725586 C45.31754266 14.06848148 47.19436615 16.46164517 49 19 C49.43900635 19.53286621 49.8780127 20.06573242 50.33032227 20.61474609 C54.99819009 26.86993661 54.58241072 32.94249982 54.3125 40.5 C54.28994141 41.70398437 54.26738281 42.90796875 54.24414062 44.1484375 C54.18558781 47.0994996 54.09592036 50.04991607 54 53 C45.585 51.02 45.585 51.02 37 49 C39.52784617 43.6526331 42.3121928 38.93621421 45.828125 34.17578125 C47.21450226 31.6017408 47.22205017 29.88160558 47 27 C39.49186476 22.71287746 31.95330766 18.49484482 24.32421875 14.42578125 C23.16776855 13.80848145 22.01131836 13.19118164 20.81982422 12.55517578 C18.50742611 11.32380688 16.19269223 10.09681293 13.87548828 8.87451172 C12.2606958 8.0143042 12.2606958 8.0143042 10.61328125 7.13671875 C9.65204346 6.62842529 8.69080566 6.12013184 7.70043945 5.59643555 C4.90861292 3.94597413 2.48137173 2.08279629 0 0 Z " fill="#E36352" transform="translate(181,0)"/>
<path d="M0 0 C1.0725 0.474375 2.145 0.94875 3.25 1.4375 C8.68778867 3.51090143 14.23441213 3.72132992 20 4 C18.74361009 7.3523301 17.31266112 10.30402615 15.375 13.3125 C14.92898437 14.00988281 14.48296875 14.70726562 14.0234375 15.42578125 C13.51683594 16.20501953 13.51683594 16.20501953 13 17 C12.67 16.34 12.34 15.68 12 15 C11.34 15 10.68 15 10 15 C9.9071875 16.3921875 9.9071875 16.3921875 9.8125 17.8125 C9 21 9 21 6.4375 22.875 C5.2309375 23.431875 5.2309375 23.431875 4 24 C5.32 24.99 6.64 25.98 8 27 C4.64179801 34.26338386 1.67384906 39.87169667 -6 43 C-6.66 43 -7.32 43 -8 43 C-8.73601263 27.80951704 -6.41906771 13.8965987 0 0 Z " fill="#E36352" transform="translate(69,35)"/>
<path d="M0 0 C23.6779409 -1.66705926 23.6779409 -1.66705926 30.4375 3.875 C32.8125 6.35546875 32.8125 6.35546875 35 9 C35.825 9.86238281 36.65 10.72476562 37.5 11.61328125 C41.46294905 15.79851109 45.01509893 20.06842432 48 25 C47.67 25.66 47.34 26.32 47 27 C46.14664063 26.51273438 45.29328125 26.02546875 44.4140625 25.5234375 C37.75881364 21.74450941 31.07742351 18.02768179 24.32421875 14.42578125 C23.16776855 13.80848145 22.01131836 13.19118164 20.81982422 12.55517578 C18.50742611 11.32380688 16.19269223 10.09681293 13.87548828 8.87451172 C12.2606958 8.0143042 12.2606958 8.0143042 10.61328125 7.13671875 C9.65204346 6.62842529 8.69080566 6.12013184 7.70043945 5.59643555 C4.90861292 3.94597413 2.48137173 2.08279629 0 0 Z " fill="#E06150" transform="translate(181,0)"/>
<path d="M0 0 C3.81841192 0.65854608 7.04295851 1.87239128 10.58203125 3.4453125 C11.07222119 6.57027336 11.24433413 9.33718245 10.58203125 12.4453125 C6.75624607 16.73019191 0.99200904 18.15846793 -4.4375 19.37890625 C-6.41796875 19.4453125 -6.41796875 19.4453125 -9.41796875 17.4453125 C-11.46717815 16.99391791 -11.46717815 16.99391791 -13.60546875 16.8203125 C-14.86359375 16.6965625 -16.12171875 16.5728125 -17.41796875 16.4453125 C-15.80289979 13.41448096 -14.11770999 10.42930267 -12.41796875 7.4453125 C-12.05703125 6.73375 -11.69609375 6.0221875 -11.32421875 5.2890625 C-8.41750733 0.22307974 -5.73046194 -0.39520427 0 0 Z " fill="#EF8B80" transform="translate(224.41796875,49.5546875)"/>
<path d="M0 0 C0.99 0.33 1.98 0.66 3 1 C3.85922165 6.44531723 0.86412184 9.98148332 -2 14.3125 C-2.47695312 15.05306641 -2.95390625 15.79363281 -3.4453125 16.55664062 C-4.62014261 18.3776273 -5.80874394 20.18971624 -7 22 C-6.01 22.66 -5.02 23.32 -4 24 C-5.34964844 24.29003906 -5.34964844 24.29003906 -6.7265625 24.5859375 C-10.84636623 26.36561405 -12.29938685 28.84528422 -14.375 32.625 C-14.72949219 33.23601563 -15.08398438 33.84703125 -15.44921875 34.4765625 C-16.31560097 35.97516958 -17.16006493 37.48641142 -18 39 C-17.38511719 39.10957031 -16.77023438 39.21914062 -16.13671875 39.33203125 C-14.92435547 39.56986328 -14.92435547 39.56986328 -13.6875 39.8125 C-12.88699219 39.96332031 -12.08648437 40.11414063 -11.26171875 40.26953125 C-8.68452894 41.10188789 -7.58208186 41.80942512 -6 44 C-5.60921444 46.72507798 -5.86383047 49.23121956 -6 52 C-6.33 52 -6.66 52 -7 52 C-7.12375 50.88625 -7.2475 49.7725 -7.375 48.625 C-7.6465813 44.96896323 -7.6465813 44.96896323 -10 43 C-12.89967757 42.69324768 -15.71783178 42.48826629 -18.625 42.375 C-19.42679688 42.33632812 -20.22859375 42.29765625 -21.0546875 42.2578125 C-23.03607556 42.16346069 -25.01800645 42.08063785 -27 42 C-26.62230469 41.41476563 -26.24460938 40.82953125 -25.85546875 40.2265625 C-22.00532552 34.22142108 -18.26320198 28.16051609 -14.5625 22.0625 C-2.93690064 2.93690064 -2.93690064 2.93690064 0 0 Z " fill="#E87F66" transform="translate(226,26)"/>
<path d="M0 0 C0.99 0.33 1.98 0.66 3 1 C2.53707987 5.75779019 0.63272766 7.91206222 -2.625 11.3125 C-3.52605469 12.26769531 -4.42710937 13.22289062 -5.35546875 14.20703125 C-6.66451172 15.58955078 -6.66451172 15.58955078 -8 17 C-9.85975345 19.10038698 -11.69536667 21.21919673 -13.52734375 23.34375 C-14.01332031 23.8903125 -14.49929687 24.436875 -15 25 C-15.47566406 25.5878125 -15.95132813 26.175625 -16.44140625 26.78125 C-18 28 -18 28 -19.94921875 28.11328125 C-23.17640958 26.36137766 -24.2948904 23.37993456 -25.8125 20.1875 C-26.13669922 19.55779297 -26.46089844 18.92808594 -26.79492188 18.27929688 C-28.13167162 15.55141142 -29.07546278 13.61448266 -28.69921875 10.55078125 C-28.46847656 10.03902344 -28.23773438 9.52726562 -28 9 C-26.203125 9.18359375 -26.203125 9.18359375 -24 10 C-22.296875 12.28515625 -22.296875 12.28515625 -20.75 15.0625 C-20.22921875 15.98160156 -19.7084375 16.90070312 -19.171875 17.84765625 C-18.78515625 18.55792969 -18.3984375 19.26820312 -18 20 C-8.82664953 10.15462411 -8.82664953 10.15462411 0 0 Z " fill="#F4E5DE" transform="translate(155,46)"/>
<path d="M0 0 C9.75 2.875 9.75 2.875 12 4 C12.625 7.0625 12.625 7.0625 13 10 C11.02 10.99 9.04 11.98 7 13 C8.65 13.66 10.3 14.32 12 15 C12 15.66 12 16.32 12 17 C11.21625 17.103125 10.4325 17.20625 9.625 17.3125 C6.66954819 17.77595022 6.66954819 17.77595022 5 21 C4.01 21 3.02 21 2 21 C1 20 0 19 -1 18 C-3.10332891 17.28552357 -3.10332891 17.28552357 -5 17 C-5 16.34 -5 15.68 -5 15 C-5.99 14.67 -6.98 14.34 -8 14 C-5.36 9.38 -2.72 4.76 0 0 Z " fill="#EE8C81" transform="translate(165,129)"/>
<path d="M0 0 C0.33 0.66 0.66 1.32 1 2 C4.47713301 4.00603828 8.3075105 5.4377929 12 7 C10.375 7.6875 10.375 7.6875 8 8 C4.75 6.5625 4.75 6.5625 2 5 C1.773125 5.639375 1.54625 6.27875 1.3125 6.9375 C-0.48565826 11.13320261 -2.73904021 15.03900556 -5 19 C-4.34 19.33 -3.68 19.66 -3 20 C-3 20.66 -3 21.32 -3 22 C-1.02 22.33 0.96 22.66 3 23 C3.33 23.99 3.66 24.98 4 26 C-3.59 26 -11.18 26 -19 26 C-18.67 25.34 -18.34 24.68 -18 24 C-17.01 24.33 -16.02 24.66 -15 25 C-14.73703125 24.28328125 -14.4740625 23.5665625 -14.203125 22.828125 C-12.9586116 19.90271039 -11.47983899 17.41488709 -9.75 14.75 C-9.13511719 13.79996094 -8.52023438 12.84992188 -7.88671875 11.87109375 C-5.27757342 7.9006552 -2.65555925 3.93956591 0 0 Z " fill="#EC8167" transform="translate(163,124)"/>
<path d="M0 0 C0.33 0 0.66 0 1 0 C2.1166373 7.32017784 -0.00282464 11.3988214 -4.22949219 17.18237305 C-7.89482157 22.01995381 -11.7564246 26.65710688 -16 31 C-16.78503906 31.82177734 -16.78503906 31.82177734 -17.5859375 32.66015625 C-20.42622391 35.35767694 -21.91513274 35.99315587 -25.875 36.3125 C-26.90625 36.209375 -27.9375 36.10625 -29 36 C-26.2202731 33.13340663 -23.41018951 30.51962169 -20.3125 28 C-11.52630198 20.35982781 -5.10935317 10.36409443 0 0 Z " fill="#E14312" transform="translate(234,114)"/>
<path d="M0 0 C2.83147542 -0.55398432 4.24540164 -0.70215252 7 0 C14.25476453 4.97368784 19.8457343 11.96002734 25 19 C25.52980469 19.6909375 26.05960938 20.381875 26.60546875 21.09375 C30.11807863 26.05272866 30.6253316 29.99681662 30 36 C27.80087088 33.19421458 25.90674454 30.26628123 24.04467773 27.22851562 C17.9604099 17.38635712 11.05806748 8.62863903 1.3984375 2.0234375 C0.70621094 1.51683594 0.70621094 1.51683594 0 1 C0 0.67 0 0.34 0 0 Z " fill="#E1400E" transform="translate(205,0)"/>
<path d="M0 0 C5.43683334 1.49212776 9.69063815 4.1009183 14.375 7.125 C15.11105469 7.59292969 15.84710938 8.06085938 16.60546875 8.54296875 C18.40730078 9.68958913 20.20416431 10.84401076 22 12 C21.67 13.32 21.34 14.64 21 16 C16.92911742 16 16.14506036 15.77559886 12.92578125 13.69921875 C12.17619141 13.21646484 11.42660156 12.73371094 10.65429688 12.23632812 C9.88150391 11.72521484 9.10871094 11.21410156 8.3125 10.6875 C7.1359082 9.93823242 7.1359082 9.93823242 5.93554688 9.17382812 C0.12804906 5.38414718 0.12804906 5.38414718 -1 2 C-0.67 1.34 -0.34 0.68 0 0 Z " fill="#48302D" transform="translate(111,115)"/>
<path d="M0 0 C0.66 0 1.32 0 2 0 C2.33 1.98 2.66 3.96 3 6 C4.98 6.66 6.96 7.32 9 8 C8.67 8.66 8.34 9.32 8 10 C7.0409375 10.12375 7.0409375 10.12375 6.0625 10.25 C5.381875 10.4975 4.70125 10.745 4 11 C2.6954344 13.99615946 2.6954344 13.99615946 2 17 C1.34 17 0.68 17 0 17 C-0.33 15.02 -0.66 13.04 -1 11 C-1.78375 10.87625 -2.5675 10.7525 -3.375 10.625 C-6 10 -6 10 -8 8 C-5.69 7.34 -3.38 6.68 -1 6 C-0.67 4.02 -0.34 2.04 0 0 Z " fill="#FAF4F4" transform="translate(226,84)"/>
<path d="M0 0 C0.66 0 1.32 0 2 0 C2.3403125 1.423125 2.3403125 1.423125 2.6875 2.875 C3.69083714 6.19323388 3.69083714 6.19323388 6.625 7.375 C7.800625 7.684375 7.800625 7.684375 9 8 C7 10 7 10 4 11 C2.29144978 14.00007271 2.29144978 14.00007271 1 17 C0.34 16.01 -0.32 15.02 -1 14 C-3.1242748 11.68260931 -5.45665704 9.84173111 -8 8 C-5.69 7.34 -3.38 6.68 -1 6 C-0.67 4.02 -0.34 2.04 0 0 Z " fill="#FDF5F4" transform="translate(79,50)"/>
<path d="M0 0 C0.66 0 1.32 0 2 0 C2.3403125 1.423125 2.3403125 1.423125 2.6875 2.875 C3.69083714 6.19323388 3.69083714 6.19323388 6.625 7.375 C7.40875 7.58125 8.1925 7.7875 9 8 C9 8.66 9 9.32 9 10 C8.21625 10.103125 7.4325 10.20625 6.625 10.3125 C3.66954819 10.77595022 3.66954819 10.77595022 2 14 C-1 14 -1 14 -2.5 12.6875 C-2.995 12.130625 -3.49 11.57375 -4 11 C-4.556875 10.443125 -5.11375 9.88625 -5.6875 9.3125 C-6.3371875 8.6628125 -6.3371875 8.6628125 -7 8 C-6.21625 7.79375 -5.4325 7.5875 -4.625 7.375 C-1.69083714 6.19323388 -1.69083714 6.19323388 -0.6875 2.875 C-0.460625 1.92625 -0.23375 0.9775 0 0 Z " fill="#FCF5F5" transform="translate(168,136)"/>
<path d="M0 0 C1.06347656 -0.00515625 2.12695312 -0.0103125 3.22265625 -0.015625 C5.9375 0.25 5.9375 0.25 7.9375 2.25 C6.9375 3.25 6.9375 3.25 4.375 3.3125 C3.1684375 3.2815625 3.1684375 3.2815625 1.9375 3.25 C1.2775 5.56 0.6175 7.87 -0.0625 10.25 C-0.7225 9.92 -1.3825 9.59 -2.0625 9.25 C-2.6875 6.6875 -2.6875 6.6875 -3.0625 4.25 C-5.0425 3.59 -7.0225 2.93 -9.0625 2.25 C-5.58864567 -0.06590289 -4.09819994 -0.01991835 0 0 Z " fill="#FDF9F9" transform="translate(137.0625,-0.25)"/>
<path d="M0 0 C0 0.66 0 1.32 0 2 C-1.62808594 2.25523438 -1.62808594 2.25523438 -3.2890625 2.515625 C-4.73450289 2.75966039 -6.17980856 3.00449462 -7.625 3.25 C-8.33785156 3.35957031 -9.05070312 3.46914062 -9.78515625 3.58203125 C-14.67237485 4.43393174 -18.05559009 5.81595827 -22 9 C-23.88568694 12.10014929 -23.88568694 12.10014929 -25 15 C-25.66 15 -26.32 15 -27 15 C-27 16.65 -27 18.3 -27 20 C-27.99 20 -28.98 20 -30 20 C-28.54133113 14.31119142 -26.15367049 9.18549938 -22 5 C-15.19641641 1.58888823 -7.58524981 0 0 0 Z " fill="#935549" transform="translate(202,92)"/>
<path d="M0 0 C0.33 0 0.66 0 1 0 C1.20709476 4.07286354 1.35385933 7.04249827 -0.0625 10.875 C-2.69832968 13.76590997 -5.23632562 14.21886003 -9 15 C-7.61423779 11.13518578 -5.81080359 8.03192572 -3.4375 4.6875 C-2.81746094 3.80449219 -2.19742188 2.92148438 -1.55859375 2.01171875 C-0.78708984 1.01591797 -0.78708984 1.01591797 0 0 Z " fill="#F18469" transform="translate(190,82)"/>
<path d="M0 0 C4.62 0 9.24 0 14 0 C13.34 1.65 12.68 3.3 12 5 C9 6 9 6 6.73828125 5.00390625 C5.93777344 4.52824219 5.13726562 4.05257813 4.3125 3.5625 C3.50425781 3.08941406 2.69601563 2.61632812 1.86328125 2.12890625 C1.24839844 1.75636719 0.63351563 1.38382812 0 1 C0 0.67 0 0.34 0 0 Z " fill="#CE8786" transform="translate(181,0)"/>
<path d="M0 0 C0.33 0.66 0.66 1.32 1 2 C4.02934491 2.65772428 4.02934491 2.65772428 7 3 C7.33 3.99 7.66 4.98 8 6 C3.71 6 -0.58 6 -5 6 C-4.34 4.35 -3.68 2.7 -3 1 C-2.01 0.67 -1.02 0.34 0 0 Z " fill="#E07063" transform="translate(159,144)"/>
<path d="M0 0 C2.64 0 5.28 0 8 0 C8 0.66 8 1.32 8 2 C6.68 2 5.36 2 4 2 C4 2.99 4 3.98 4 5 C3.34 5 2.68 5 2 5 C2 3.68 2 2.36 2 1 C1.34 0.67 0.68 0.34 0 0 Z " fill="#88524B" transform="translate(175,132)"/>
</svg>
