<?xml version="1.0" encoding="UTF-8"?>
<svg version="1.1" xmlns="http://www.w3.org/2000/svg" width="194" height="149">
<path d="M0 0 C5.61543122 1.01376753 11.00546327 2.96851584 16.40673828 4.7668457 C18.17197342 5.34978645 18.17197342 5.34978645 19.97286987 5.94450378 C23.08615654 6.97564364 26.19727189 8.01306857 29.3079834 9.05194092 C31.21117609 9.68473144 33.11637451 10.31104293 35.02246094 10.93505859 C38.69585121 12.13914865 42.36428853 13.35729731 46.03173828 14.5793457 C47.16515656 14.94929153 48.29857483 15.31923737 49.46633911 15.70039368 C59.57964949 19.11094448 59.57964949 19.11094448 63.08642578 22.87231445 C63.71142578 25.80981445 63.71142578 25.80981445 63.08642578 28.87231445 C61.08642578 31.80981445 61.08642578 31.80981445 58.08642578 33.87231445 C52.39736686 33.87231445 48.17101243 32.30867889 43.08642578 29.87231445 C42.97943359 30.86618164 42.87244141 31.86004883 42.76220703 32.8840332 C42.16266025 37.06196078 40.81544721 40.77223209 39.27392578 44.68481445 C39.00547852 45.3833252 38.73703125 46.08183594 38.46044922 46.80151367 C36.67083501 51.4405795 34.83817472 56.06324028 32.94580078 60.66137695 C32.3054689 62.30877626 31.73425221 63.983359 31.20019531 65.66821289 C29.39177723 70.87068525 26.75795507 75.62410014 24.21142578 80.49731445 C23.68162109 81.5337207 23.15181641 82.57012695 22.60595703 83.63793945 C22.08646484 84.63567383 21.56697266 85.6334082 21.03173828 86.66137695 C20.56268066 87.56581543 20.09362305 88.47025391 19.61035156 89.40209961 C17.997827 92.01592908 16.47023965 93.93271788 14.08642578 95.87231445 C10.52392578 95.62231445 10.52392578 95.62231445 7.08642578 94.87231445 C6.09642578 94.87231445 5.10642578 94.87231445 4.08642578 94.87231445 C4.45767578 95.75918945 4.82892578 96.64606445 5.21142578 97.55981445 C6.24353108 101.46707023 5.62672618 102.27828019 4.08642578 105.87231445 C4.08642578 107.79162106 4.08899473 109.71109701 4.12158203 111.63012695 C4.02587638 117.7340208 3.34452558 123.07604761 -0.91357422 127.68481445 C-13.03571739 138.22688193 -30.163856 141.2929939 -45.72607422 141.68481445 C-46.75812988 141.7329126 -47.79018555 141.78101074 -48.85351562 141.83056641 C-55.94189259 141.82763781 -55.94189259 141.82763781 -58.65380859 139.16137695 C-59.95708152 137.10876952 -60.96223639 135.10699885 -61.91357422 132.87231445 C-62.2393042 132.25767334 -62.56503418 131.64303223 -62.90063477 131.00976562 C-64.3077357 128.21684244 -64.91400126 125.86519709 -65.10107422 122.74731445 C-63.01465587 117.69598581 -58.07725907 115.92777048 -53.35107422 113.62231445 C-47.75311198 109.60326464 -44.12018849 103.19062151 -40.28857422 97.55981445 C-36.05318319 91.48783794 -31.36815994 88.43322188 -24.90185547 85.02075195 C-22.77597107 83.90713522 -22.77597107 83.90713522 -20.91357422 81.87231445 C-21.57357422 81.35668945 -22.23357422 80.84106445 -22.91357422 80.30981445 C-24.91357422 77.87231445 -24.91357422 77.87231445 -25.28466797 74.55981445 C-24.84625686 70.20339253 -23.78020049 68.73745206 -20.97607422 65.43481445 C-11.6390921 53.81992905 -5.66535137 40.91373954 -0.91357422 26.87231445 C-0.58486328 25.90422852 -0.25615234 24.93614258 0.08251953 23.9387207 C0.75789807 21.91904803 1.42346269 19.89609652 2.08642578 17.87231445 C2.41642578 17.21231445 2.74642578 16.55231445 3.08642578 15.87231445 C2.19955078 15.78981445 1.31267578 15.70731445 0.39892578 15.62231445 C-3.44896905 14.75109298 -5.2472709 13.77387983 -7.91357422 10.87231445 C-8.53857422 7.93481445 -8.53857422 7.93481445 -7.91357422 4.87231445 C-5.49938327 1.43392128 -4.32348676 -0.18947407 0 0 Z " fill="#B6201F" transform="translate(97.91357421875,8.127685546875)"/>
<path d="M0 0 C1.32 0.33 2.64 0.66 4 1 C4.4994636 6.99356317 3.37130703 10.99678493 0 16 C-2.15892724 18.53878303 -4.37878152 20.93401499 -7 23 C-7.66 23 -8.32 23 -9 23 C-9 26.3 -9 29.6 -9 33 C-8.01 33 -7.02 33 -6 33 C-6.66 32.01 -7.32 31.02 -8 30 C-7.984375 27.97265625 -7.984375 27.97265625 -7 26 C-4.453125 24.62109375 -4.453125 24.62109375 -1.25 23.4375 C5.96213966 21.11761333 5.96213966 21.11761333 11 16 C12.485 16.495 12.485 16.495 14 17 C15.3125 19.75 15.3125 19.75 16 23 C15.37943989 24.68437744 14.70710678 26.35008418 14 28 C14 29.91930661 14.00256895 31.83878256 14.03515625 33.7578125 C13.9394506 39.86170635 13.2580998 45.20373316 9 49.8125 C-3.12214317 60.35456748 -20.25028178 63.42067944 -35.8125 63.8125 C-36.84455566 63.86059814 -37.87661133 63.90869629 -38.93994141 63.95825195 C-46.02831837 63.95532336 -46.02831837 63.95532336 -48.74023438 61.2890625 C-50.0435073 59.23645506 -51.04866218 57.2346844 -52 55 C-52.32572998 54.38535889 -52.65145996 53.77071777 -52.98706055 53.13745117 C-54.39416148 50.34452799 -55.00042704 47.99288264 -55.1875 44.875 C-53.10108165 39.82367136 -48.16368485 38.05545602 -43.4375 35.75 C-37.83953776 31.73095019 -34.20661427 25.31830706 -30.375 19.6875 C-25.08863123 12.10881202 -16.90739216 6.69920975 -8 4 C-7.34 4.33 -6.68 4.66 -6 5 C-7.13499394 8.29148243 -7.99283376 8.9959869 -11.125 10.75 C-12.07375 11.1625 -13.0225 11.575 -14 12 C-9.78561563 11.80398212 -8.31744621 11.32482868 -5.3125 8.25 C-3.39473976 5.5547694 -1.6126835 2.88585468 0 0 Z " fill="#F5B896" transform="translate(88,86)"/>
<path d="M0 0 C5.61543122 1.01376753 11.00546327 2.96851584 16.40673828 4.7668457 C17.58356171 5.15547287 18.76038513 5.54410004 19.97286987 5.94450378 C23.08615654 6.97564364 26.19727189 8.01306857 29.3079834 9.05194092 C31.21117609 9.68473144 33.11637451 10.31104293 35.02246094 10.93505859 C38.69585121 12.13914865 42.36428853 13.35729731 46.03173828 14.5793457 C47.16515656 14.94929153 48.29857483 15.31923737 49.46633911 15.70039368 C59.57964949 19.11094448 59.57964949 19.11094448 63.08642578 22.87231445 C63.71142578 25.80981445 63.71142578 25.80981445 63.08642578 28.87231445 C61.08642578 31.80981445 61.08642578 31.80981445 58.08642578 33.87231445 C52.39736686 33.87231445 48.17101243 32.30867889 43.08642578 29.87231445 C42.97814453 30.86618164 42.86986328 31.86004883 42.75830078 32.8840332 C42.15957605 37.04893828 40.85431024 40.77491095 39.33642578 44.68481445 C39.07200684 45.37897461 38.80758789 46.07313477 38.53515625 46.78833008 C36.38756924 52.32501758 33.92263 57.65169077 31.08642578 62.87231445 C30.42642578 62.87231445 29.76642578 62.87231445 29.08642578 62.87231445 C28.75964844 64.02666992 28.75964844 64.02666992 28.42626953 65.2043457 C26.59260017 70.22421604 24.13815584 74.83774179 21.64892578 79.55981445 C21.1584375 80.50920898 20.66794922 81.45860352 20.16259766 82.43676758 C19.685 83.34749023 19.20740234 84.25821289 18.71533203 85.1965332 C18.28293213 86.02241943 17.85053223 86.84830566 17.4050293 87.69921875 C16.13304997 89.79547648 14.989507 91.33049824 13.08642578 92.87231445 C9.03272991 92.60298883 5.47781045 90.89719359 1.77392578 89.30981445 C0.70529297 88.85477539 -0.36333984 88.39973633 -1.46435547 87.9309082 C-2.67671875 87.4069043 -2.67671875 87.4069043 -3.91357422 86.87231445 C-3.58357422 85.55231445 -3.25357422 84.23231445 -2.91357422 82.87231445 C-1.58326172 83.33637695 -1.58326172 83.33637695 -0.22607422 83.80981445 C5.37316528 85.60579693 8.58917694 86.52545316 14.08642578 83.87231445 C16.11530629 81.395549 17.51169086 78.65463862 18.96142578 75.80981445 C19.3877832 75.00487549 19.81414062 74.19993652 20.25341797 73.37060547 C21.55709257 70.88356182 22.82668227 68.38185875 24.08642578 65.87231445 C24.4612207 65.13368164 24.83601563 64.39504883 25.22216797 63.6340332 C30.40334041 53.33757063 34.47244884 42.81007041 38.08642578 31.87231445 C37.09642578 31.54231445 36.10642578 31.21231445 35.08642578 30.87231445 C34.88448608 29.91760254 34.88448608 29.91760254 34.6784668 28.94360352 C34.28840898 26.6933318 34.28840898 26.6933318 32.13696289 25.68383789 C31.30430908 25.36962891 30.47165527 25.05541992 29.61376953 24.73168945 C28.71464844 24.38364258 27.81552734 24.0355957 26.88916016 23.67700195 C25.94363281 23.32895508 24.99810547 22.9809082 24.02392578 22.62231445 C23.07453125 22.25879883 22.12513672 21.8952832 21.14697266 21.52075195 C18.7984018 20.62381032 16.44526609 19.74181052 14.08642578 18.87231445 C13.46767578 19.53231445 12.84892578 20.19231445 12.21142578 20.87231445 C10.08642578 22.87231445 10.08642578 22.87231445 8.08642578 22.87231445 C7.98410645 23.42121338 7.88178711 23.9701123 7.77636719 24.53564453 C6.62560292 30.23186702 4.87806426 35.28534487 2.46142578 40.55981445 C1.93681763 41.7216626 1.93681763 41.7216626 1.40161133 42.90698242 C-2.7054544 51.83698232 -7.46914518 60.32971041 -13.03857422 68.43481445 C-15.31167439 71.65197947 -15.31167439 71.65197947 -14.16357422 74.55981445 C-13.54482422 75.70450195 -13.54482422 75.70450195 -12.91357422 76.87231445 C-13.28857422 79.68481445 -13.28857422 79.68481445 -13.91357422 81.87231445 C-21.21984728 78.46272036 -21.21984728 78.46272036 -22.91357422 75.87231445 C-22.52888056 71.69663963 -21.17115953 69.64021233 -18.41357422 66.55981445 C-7.33610397 53.14398734 3.36057763 33.65302005 3.08642578 15.87231445 C2.19955078 15.78981445 1.31267578 15.70731445 0.39892578 15.62231445 C-3.44896905 14.75109298 -5.2472709 13.77387983 -7.91357422 10.87231445 C-8.53857422 7.93481445 -8.53857422 7.93481445 -7.91357422 4.87231445 C-5.49938327 1.43392128 -4.32348676 -0.18947407 0 0 Z " fill="#C83C2F" transform="translate(97.91357421875,8.127685546875)"/>
<path d="M0 0 C0.66 0 1.32 0 2 0 C1.50988459 6.79354412 0.09268326 12.34391616 -2.5 18.625 C-2.85384766 19.49310303 -3.20769531 20.36120605 -3.57226562 21.25561523 C-8.41493782 32.78240481 -14.85575682 42.99252431 -22.6640625 52.73046875 C-24.20264286 54.87210624 -24.20264286 54.87210624 -23.90234375 57.16015625 C-22.4344966 60.1530394 -19.79145661 61.33700457 -17 63 C-16.27640014 61.2875976 -16.27640014 61.2875976 -16 59 C-16.41765625 58.11957031 -16.8353125 57.23914063 -17.265625 56.33203125 C-18.07466628 52.6612216 -17.96370137 52.27894499 -16.1484375 49.23828125 C-15.24507241 47.91502359 -14.31965685 46.60660308 -13.375 45.3125 C-12.92253906 44.64927734 -12.47007813 43.98605469 -12.00390625 43.30273438 C-9.66231378 39.95230019 -7.51738379 37.20455745 -4 35 C-3.82984375 35.60328125 -3.6596875 36.2065625 -3.484375 36.828125 C-1.76106232 42.51139021 -0.17235542 45.81216867 4.8125 49.25 C8.97542591 50.67728888 12.40898553 50.72710375 16.453125 48.87890625 C18.67811225 47.64396836 20.85197142 46.36382767 23 45 C22.43458046 50.04909725 20.05771283 53.87261709 17.5625 58.1875 C17.15451172 58.91130859 16.74652344 59.63511719 16.32617188 60.38085938 C13.28376962 65.71623038 13.28376962 65.71623038 11 68 C5.09430783 69.27956664 2.32631371 69.17042483 -3 66 C-3.66 66 -4.32 66 -5 66 C-5.33 66.99 -5.66 67.98 -6 69 C-5.40832031 69.19335938 -4.81664063 69.38671875 -4.20703125 69.5859375 C-3.41683594 69.84632812 -2.62664062 70.10671875 -1.8125 70.375 C-0.99007812 70.64570312 -0.16765625 70.91640625 0.6796875 71.1953125 C3 72 3 72 5.8125 73.25 C8.43743008 74.14997603 9.43441934 73.99020774 12 73 C13.3766351 71.39025503 13.3766351 71.39025503 14.40234375 69.31640625 C14.81564941 68.55763184 15.22895508 67.79885742 15.65478516 67.01708984 C16.289729 65.80206787 16.289729 65.80206787 16.9375 64.5625 C17.37626465 63.7473291 17.8150293 62.9321582 18.26708984 62.09228516 C21.2875042 56.45186044 24.24330922 50.77454173 27 45 C27.99 45 28.98 45 30 45 C28.03803161 51.26333956 25.15660404 56.82351313 22.125 62.625 C21.59519531 63.66140625 21.06539062 64.6978125 20.51953125 65.765625 C20.00003906 66.76335937 19.48054688 67.76109375 18.9453125 68.7890625 C18.47625488 69.69350098 18.00719727 70.59793945 17.52392578 71.52978516 C15.91329039 74.14055236 14.3746858 76.05582949 12 78 C8.55444944 77.81206088 5.6430481 77.21434937 2.375 76.125 C1.59125 76.08375 0.8075 76.0425 0 76 C-1.68997323 77.64302953 -3.35216394 79.31471312 -5 81 C-7.90819477 82.57084973 -10.92551454 83.79355634 -14 85 C-15.010625 85.4125 -16.02125 85.825 -17.0625 86.25 C-17.701875 86.4975 -18.34125 86.745 -19 87 C-18.67 88.98 -18.34 90.96 -18 93 C-18.99 93 -19.98 93 -21 93 C-22.125 86.375 -22.125 86.375 -21 83 C-19.77112853 81.88923517 -18.4929562 80.83216059 -17.1875 79.8125 C-12.70271565 75.9879532 -9.44917481 71.95273831 -8.765625 65.9375 C-8.71913626 63.82009491 -8.71913626 63.82009491 -9 61 C-9.99 61 -10.98 61 -12 61 C-13.29474469 62.63898948 -13.29474469 62.63898948 -14.375 64.75 C-16.48926527 68.32019644 -18.36890134 70.8213408 -22 73 C-24.8125 73.25 -24.8125 73.25 -27 73 C-26 71 -26 71 -23.0625 69.5625 C-19.78256825 68.20367158 -19.78256825 68.20367158 -18 65 C-18.928125 64.731875 -19.85625 64.46375 -20.8125 64.1875 C-25.48021108 62.44854881 -25.48021108 62.44854881 -27 60 C-27.38510897 56.01578619 -27.43587451 53.72439664 -25.34765625 50.25390625 C-24.59355469 49.36574219 -23.83945313 48.47757813 -23.0625 47.5625 C-13.72421806 35.94599767 -7.75661335 23.04115671 -3 9 C-2.6596875 8.00871094 -2.319375 7.01742187 -1.96875 5.99609375 C-1.29509411 4.00319507 -0.64374451 2.0027607 0 0 Z " fill="#B51F1F" transform="translate(100,26)"/>
<path d="M0 0 C5.61543122 1.01376753 11.00546327 2.96851584 16.40673828 4.7668457 C17.58356171 5.15547287 18.76038513 5.54410004 19.97286987 5.94450378 C23.08615654 6.97564364 26.19727189 8.01306857 29.3079834 9.05194092 C31.21117609 9.68473144 33.11637451 10.31104293 35.02246094 10.93505859 C38.69585121 12.13914865 42.36428853 13.35729731 46.03173828 14.5793457 C47.16515656 14.94929153 48.29857483 15.31923737 49.46633911 15.70039368 C59.57964949 19.11094448 59.57964949 19.11094448 63.08642578 22.87231445 C63.71142578 25.80981445 63.71142578 25.80981445 63.08642578 28.87231445 C61.08642578 31.80981445 61.08642578 31.80981445 58.08642578 33.87231445 C54.95878103 33.87231445 53.0041713 33.68310574 50.08642578 32.87231445 C49.41482422 32.69313477 48.74322266 32.51395508 48.05126953 32.3293457 C46.14892578 31.68481445 46.14892578 31.68481445 43.08642578 29.87231445 C42.14892578 26.68481445 42.14892578 26.68481445 42.08642578 23.87231445 C47.83642578 25.74731445 47.83642578 25.74731445 50.08642578 26.87231445 C47.65261809 24.02940374 45.31619063 22.99821322 41.81689453 21.7512207 C40.76928955 21.37481445 39.72168457 20.9984082 38.64233398 20.6105957 C37.53075928 20.22258789 36.41918457 19.83458008 35.27392578 19.43481445 C34.14494873 19.03520508 33.01597168 18.6355957 31.8527832 18.22387695 C22.07975192 14.79843756 12.35104992 11.45382691 2.08642578 9.87231445 C2.08642578 10.53231445 2.08642578 11.19231445 2.08642578 11.87231445 C3.07642578 11.87231445 4.06642578 11.87231445 5.08642578 11.87231445 C4.75642578 13.52231445 4.42642578 15.17231445 4.08642578 16.87231445 C2.64545992 16.44636857 1.20873866 16.00604812 -0.22607422 15.55981445 C-1.02658203 15.31618164 -1.82708984 15.07254883 -2.65185547 14.8215332 C-5.06065908 13.81058454 -6.30586469 12.91618492 -7.91357422 10.87231445 C-8.61899338 6.81615425 -8.23477999 5.32978933 -5.85107422 1.93481445 C-2.91357422 -0.12768555 -2.91357422 -0.12768555 0 0 Z " fill="#F7E175" transform="translate(97.91357421875,8.127685546875)"/>
<path d="M0 0 C0.99 0.33 1.98 0.66 3 1 C4.3125 3.75 4.3125 3.75 5 7 C4.37943989 8.68437744 3.70710678 10.35008418 3 12 C3 13.91930661 3.00256895 15.83878256 3.03515625 17.7578125 C2.93419582 24.19684417 2.16359049 29.32551232 -2.4375 34.0625 C-4.72745254 36.16450828 -5.99301627 36.99767209 -9 38 C-9.33 37.67 -9.66 37.34 -10 37 C-12.22277862 36.75653135 -14.44424927 36.61672484 -16.67578125 36.4765625 C-19.60093795 35.87678247 -20.96149791 35.19955756 -23 33 C-23.4609375 29.96875 -23.4609375 29.96875 -23.375 26.5 C-23.36210938 25.3553125 -23.34921875 24.210625 -23.3359375 23.03125 C-23 20 -23 20 -21 17 C-19.68 17 -18.36 17 -17 17 C-17.66 16.01 -18.32 15.02 -19 14 C-18.984375 11.97265625 -18.984375 11.97265625 -18 10 C-15.453125 8.62109375 -15.453125 8.62109375 -12.25 7.4375 C-5.03786034 5.11761333 -5.03786034 5.11761333 0 0 Z " fill="#191310" transform="translate(99,102)"/>
<path d="M0 0 C0.66 0 1.32 0 2 0 C1.50988459 6.79354412 0.09268326 12.34391616 -2.5 18.625 C-2.85384766 19.49310303 -3.20769531 20.36120605 -3.57226562 21.25561523 C-8.41493782 32.78240481 -14.85575682 42.99252431 -22.6640625 52.73046875 C-24.20264286 54.87210624 -24.20264286 54.87210624 -23.90234375 57.16015625 C-22.4344966 60.1530394 -19.79145661 61.33700457 -17 63 C-16.4225 62.195625 -15.845 61.39125 -15.25 60.5625 C-13 58 -13 58 -10.9375 57 C-9 57 -9 57 -7.390625 58.20703125 C-5.59999719 60.51573397 -5.68711108 61.80355488 -5.8125 64.6875 C-5.83957031 65.49574219 -5.86664063 66.30398437 -5.89453125 67.13671875 C-5.92933594 67.75160156 -5.96414062 68.36648437 -6 69 C-5.40832031 69.19335938 -4.81664063 69.38671875 -4.20703125 69.5859375 C-3.41683594 69.84632812 -2.62664062 70.10671875 -1.8125 70.375 C-0.99007812 70.64570312 -0.16765625 70.91640625 0.6796875 71.1953125 C3 72 3 72 5.8125 73.25 C8.43743008 74.14997603 9.43441934 73.99020774 12 73 C13.3766351 71.39025503 13.3766351 71.39025503 14.40234375 69.31640625 C14.81564941 68.55763184 15.22895508 67.79885742 15.65478516 67.01708984 C16.289729 65.80206787 16.289729 65.80206787 16.9375 64.5625 C17.37626465 63.7473291 17.8150293 62.9321582 18.26708984 62.09228516 C21.2875042 56.45186044 24.24330922 50.77454173 27 45 C27.99 45 28.98 45 30 45 C28.03803161 51.26333956 25.15660404 56.82351313 22.125 62.625 C21.59519531 63.66140625 21.06539062 64.6978125 20.51953125 65.765625 C20.00003906 66.76335937 19.48054688 67.76109375 18.9453125 68.7890625 C18.47625488 69.69350098 18.00719727 70.59793945 17.52392578 71.52978516 C15.91329039 74.14055236 14.3746858 76.05582949 12 78 C8.55444944 77.81206088 5.6430481 77.21434937 2.375 76.125 C1.59125 76.08375 0.8075 76.0425 0 76 C-1.68997323 77.64302953 -3.35216394 79.31471312 -5 81 C-7.90819477 82.57084973 -10.92551454 83.79355634 -14 85 C-15.010625 85.4125 -16.02125 85.825 -17.0625 86.25 C-17.701875 86.4975 -18.34125 86.745 -19 87 C-18.67 88.98 -18.34 90.96 -18 93 C-18.99 93 -19.98 93 -21 93 C-22.125 86.375 -22.125 86.375 -21 83 C-19.77112853 81.88923517 -18.4929562 80.83216059 -17.1875 79.8125 C-12.70271565 75.9879532 -9.44917481 71.95273831 -8.765625 65.9375 C-8.71913626 63.82009491 -8.71913626 63.82009491 -9 61 C-9.99 61 -10.98 61 -12 61 C-13.29474469 62.63898948 -13.29474469 62.63898948 -14.375 64.75 C-16.48926527 68.32019644 -18.36890134 70.8213408 -22 73 C-24.8125 73.25 -24.8125 73.25 -27 73 C-26 71 -26 71 -23.0625 69.5625 C-19.78256825 68.20367158 -19.78256825 68.20367158 -18 65 C-18.928125 64.731875 -19.85625 64.46375 -20.8125 64.1875 C-25.48021108 62.44854881 -25.48021108 62.44854881 -27 60 C-27.38510897 56.01578619 -27.43587451 53.72439664 -25.34765625 50.25390625 C-24.59355469 49.36574219 -23.83945313 48.47757813 -23.0625 47.5625 C-13.72421806 35.94599767 -7.75661335 23.04115671 -3 9 C-2.6596875 8.00871094 -2.319375 7.01742187 -1.96875 5.99609375 C-1.29509411 4.00319507 -0.64374451 2.0027607 0 0 Z " fill="#1A1410" transform="translate(100,26)"/>
<path d="M0 0 C3.31673103 1.58571331 5.20757815 3.91942475 7.375 6.875 C8.67156778 11.28333045 8.40662687 14.90852788 6.8125 19.1875 C4.47953993 22.80761046 1.84455245 25.07772378 -2 27 C-7.61099632 27.67331956 -10.7072253 26.40836739 -15.30078125 23.484375 C-17.93974974 21.17906919 -18.8466951 19.08026474 -19.3359375 15.6328125 C-19.42537053 9.89121169 -18.93878794 6.50147193 -15 2 C-10.323868 -1.11742133 -5.4709911 -0.71549289 0 0 Z " fill="#CE4135" transform="translate(116,50)"/>
<path d="M0 0 C-1.23286068 3.69858203 -3.03950557 4.39739932 -6.15087891 6.51904297 C-9.26009124 9.00920431 -11.13081443 12.19430478 -13.1875 15.5625 C-15.86259998 19.84517179 -18.41077498 23.41900715 -22 27 C-22.13589135 32.70743686 -19.08119072 38.32434696 -16 43 C-13.70683474 45.34694133 -11.34060552 47.43836714 -8.79296875 49.50390625 C-8.20128906 49.99761719 -7.60960938 50.49132812 -7 51 C-7 51.33 -7 51.66 -7 52 C-10.56139065 52.23303424 -14.12082446 52.37461781 -17.6875 52.5 C-19.19860352 52.60054687 -19.19860352 52.60054687 -20.74023438 52.703125 C-23.68909541 52.78098272 -26.14325338 52.74781871 -29 52 C-31.45057148 49.6441004 -32.69197218 47.10425041 -34 44 C-34.32556885 43.38495605 -34.6511377 42.76991211 -34.98657227 42.13623047 C-36.39504318 39.34405977 -37.00043866 36.99268902 -37.1875 33.875 C-35.10108165 28.82367136 -30.16368485 27.05545602 -25.4375 24.75 C-19.83953776 20.73095019 -16.20661427 14.31830706 -12.375 8.6875 C-6.33563375 0 -6.33563375 0 0 0 Z " fill="#F58063" transform="translate(70,97)"/>
<path d="M0 0 C0.66 0 1.32 0 2 0 C1.50988459 6.79354412 0.09268326 12.34391616 -2.5 18.625 C-2.85384766 19.49310303 -3.20769531 20.36120605 -3.57226562 21.25561523 C-8.41493782 32.78240481 -14.85575682 42.99252431 -22.6640625 52.73046875 C-24.20264286 54.87210624 -24.20264286 54.87210624 -23.90234375 57.16015625 C-22.4344966 60.1530394 -19.79145661 61.33700457 -17 63 C-16.4225 62.195625 -15.845 61.39125 -15.25 60.5625 C-13 58 -13 58 -10.9375 57 C-9 57 -9 57 -7.25 57.9375 C-5.26019883 61.22067194 -5.8135604 64.20906137 -6 68 C-6.66 68 -7.32 68 -8 68 C-8.33 65.69 -8.66 63.38 -9 61 C-9.99 61 -10.98 61 -12 61 C-13.29474469 62.63898948 -13.29474469 62.63898948 -14.375 64.75 C-16.48926527 68.32019644 -18.36890134 70.8213408 -22 73 C-24.8125 73.25 -24.8125 73.25 -27 73 C-26 71 -26 71 -23.0625 69.5625 C-19.78256825 68.20367158 -19.78256825 68.20367158 -18 65 C-18.928125 64.731875 -19.85625 64.46375 -20.8125 64.1875 C-25.48021108 62.44854881 -25.48021108 62.44854881 -27 60 C-27.38510897 56.01578619 -27.43587451 53.72439664 -25.34765625 50.25390625 C-24.59355469 49.36574219 -23.83945313 48.47757813 -23.0625 47.5625 C-13.72421806 35.94599767 -7.75661335 23.04115671 -3 9 C-2.6596875 8.00871094 -2.319375 7.01742187 -1.96875 5.99609375 C-1.29509411 4.00319507 -0.64374451 2.0027607 0 0 Z " fill="#080201" transform="translate(100,26)"/>
<path d="M0 0 C3.43734063 -0.08703823 6.87439837 -0.14040272 10.3125 -0.1875 C11.28896484 -0.21263672 12.26542969 -0.23777344 13.27148438 -0.26367188 C14.20927734 -0.27333984 15.14707031 -0.28300781 16.11328125 -0.29296875 C16.97735596 -0.3086792 17.84143066 -0.32438965 18.73168945 -0.34057617 C21 0 21 0 22.77416992 1.33862305 C24 3 24 3 24.5 5.875 C24 9 24 9 22 11.9375 C19 14 19 14 15.125 14 C13.7394977 13.71343501 12.36317446 13.37880273 11 13 C9.99259766 12.73123047 9.99259766 12.73123047 8.96484375 12.45703125 C7.0625 11.8125 7.0625 11.8125 4 10 C3.0625 6.8125 3.0625 6.8125 3 4 C8.75 5.875 8.75 5.875 11 7 C8.7991151 4.52140092 6.93627031 3.38789634 3.8125 2.3125 C3.09707031 2.06113281 2.38164062 1.80976563 1.64453125 1.55078125 C1.10183594 1.36902344 0.55914062 1.18726562 0 1 C0 0.67 0 0.34 0 0 Z " fill="#F9D701" transform="translate(137,28)"/>
<path d="M0 0 C0.99 0.33 1.98 0.66 3 1 C4.55234367 4.2525296 5.13481305 6.24167659 4.5 9.8125 C3 12 3 12 0.3125 12.625 C-1.3271875 12.810625 -1.3271875 12.810625 -3 13 C-4.7015625 13.7734375 -4.7015625 13.7734375 -6.4375 14.5625 C-10.28533057 16.11513339 -12.89154223 16.40278998 -17 16 C-17.66 15.34 -18.32 14.68 -19 14 C-18.984375 12.03515625 -18.984375 12.03515625 -18 10 C-15.453125 8.62109375 -15.453125 8.62109375 -12.25 7.4375 C-5.03786034 5.11761333 -5.03786034 5.11761333 0 0 Z " fill="#F2B795" transform="translate(99,102)"/>
<path d="M0 0 C7.65778979 0.54987297 14.50750511 2.44360579 21.8125 4.75 C23.46088867 5.25273437 23.46088867 5.25273437 25.14257812 5.765625 C40.93974888 10.68071407 40.93974888 10.68071407 47 14 C47.495 15.485 47.495 15.485 48 17 C45.69 16.34 43.38 15.68 41 15 C40.67 16.32 40.34 17.64 40 19 C39.1234375 18.443125 38.246875 17.88625 37.34375 17.3125 C25.56865542 10.13190805 13.15103949 5.99110329 0 2 C0 1.34 0 0.68 0 0 Z " fill="#0F0804" transform="translate(100,18)"/>
<path d="M0 0 C0.33 1.98 0.66 3.96 1 6 C-6.16368497 10.07275491 -11.65840872 13.07633436 -20 12 C-20.66 11.34 -21.32 10.68 -22 10 C-21.625 6.875 -21.625 6.875 -21 4 C-19.700625 4.0825 -18.40125 4.165 -17.0625 4.25 C-12.36190278 4.27970362 -9.08248311 3.01031386 -4.9453125 0.875 C-3 0 -3 0 0 0 Z " fill="#F2B695" transform="translate(101,116)"/>
<path d="M0 0 C0.4375 2.5625 0.4375 2.5625 0 6 C-2.03619484 8.67751605 -4.32760691 10.95640529 -7 13 C-7.66 13 -8.32 13 -9 13 C-9 12.01 -9 11.02 -9 10 C-10.03060547 10.03480469 -10.03060547 10.03480469 -11.08203125 10.0703125 C-12.43361328 10.09738281 -12.43361328 10.09738281 -13.8125 10.125 C-14.70582031 10.14820313 -15.59914063 10.17140625 -16.51953125 10.1953125 C-19 10 -19 10 -22 8 C-21.67 6.68 -21.34 5.36 -21 4 C-20.38253906 4.04640625 -19.76507813 4.0928125 -19.12890625 4.140625 C-13.18884558 4.39377827 -9.10473469 3.5967207 -3.8125 0.875 C-2 0 -2 0 0 0 Z " fill="#EBB597" transform="translate(100,126)"/>
<path d="M0 0 C0.99 0 1.98 0 3 0 C1.03803161 6.26333956 -1.84339596 11.82351313 -4.875 17.625 C-5.40480469 18.66140625 -5.93460938 19.6978125 -6.48046875 20.765625 C-6.99996094 21.76335937 -7.51945312 22.76109375 -8.0546875 23.7890625 C-8.52374512 24.69350098 -8.99280273 25.59793945 -9.47607422 26.52978516 C-11.08640966 29.14006615 -12.62816408 31.05360039 -15 33 C-19.38480488 32.84055255 -23.02087577 31.80869283 -27 30 C-27 29.01 -27 28.02 -27 27 C-23.31733897 27.59950296 -19.65456815 28.24758891 -16 29 C-12.02509609 22.83780893 -8.5517643 16.51292821 -5.1875 10 C-4.68541016 9.03449219 -4.18332031 8.06898437 -3.66601562 7.07421875 C-2.44106789 4.71765263 -1.21913585 2.3595765 0 0 Z " fill="#070201" transform="translate(127,71)"/>
<path d="M0 0 C-1.2339995 3.7019985 -3.04968387 4.40417538 -6.1640625 6.52783203 C-9.22189033 8.97978706 -10.99951626 12.11285118 -13 15.4375 C-16.45612133 20.90242579 -19.59186338 25.28190607 -25 29 C-25.66 29 -26.32 29 -27 29 C-25.65037095 26.01247163 -24.11804379 23.8786697 -21.875 21.5 C-18.83985285 18.13672884 -16.38131188 14.62597228 -13.9375 10.8125 C-6.87041719 0 -6.87041719 0 0 0 Z " fill="#0C0907" transform="translate(70,97)"/>
<path d="M0 0 C3.11743233 1.50098594 6.15501823 3.02431822 9 5 C9 5.99 9 6.98 9 8 C9.99 8 10.98 8 12 8 C11.67 9.65 11.34 11.3 11 13 C9.55903414 12.57405412 8.12231288 12.13373367 6.6875 11.6875 C5.88699219 11.44386719 5.08648437 11.20023438 4.26171875 10.94921875 C1.84815323 9.93627156 0.59014885 9.06770154 -1 7 C-1.25 3.875 -1.25 3.875 -1 1 C-0.67 0.67 -0.34 0.34 0 0 Z " fill="#FDDB02" transform="translate(91,12)"/>
<path d="M0 0 C-0.66 2.31 -1.32 4.62 -2 7 C0.91517292 5.92598892 2.77810176 5.22189824 5 3 C7.625 3.375 7.625 3.375 10 4 C12 9.75 12 9.75 12 12 C10.35 12.66 8.7 13.32 7 14 C7.66 11.36 8.32 8.72 9 6 C7.68 6 6.36 6 5 6 C4.67 6.99 4.34 7.98 4 9 C1.125 9.625 1.125 9.625 -2 10 C-4.5654594 7.4345406 -4.54046087 5.52313332 -5 2 C-2 0 -2 0 0 0 Z " fill="#FAEEED" transform="translate(107,56)"/>
<path d="M0 0 C2.4375 0.375 2.4375 0.375 5 1 C6.60725635 4.21451269 6.05748185 7.43612536 6 11 C5.34 11 4.68 11 4 11 C3.67 8.69 3.34 6.38 3 4 C2.01 4 1.02 4 0 4 C-1.29474469 5.63898948 -1.29474469 5.63898948 -2.375 7.75 C-4.48926527 11.32019644 -6.36890134 13.8213408 -10 16 C-12.8125 16.25 -12.8125 16.25 -15 16 C-14 14 -14 14 -11.0625 12.5625 C-7.78256825 11.20367158 -7.78256825 11.20367158 -6 8 C-6.66 7.67 -7.32 7.34 -8 7 C-7.4225 6.95875 -6.845 6.9175 -6.25 6.875 C-2.86687535 5.55934042 -1.80777315 3.03447636 0 0 Z " fill="#17120F" transform="translate(88,83)"/>
<path d="M0 0 C2.5 0.25 2.5 0.25 4.5 2.25 C4.75 4.75 4.75 4.75 4.5 7.25 C2.5 9.25 2.5 9.25 0 9.5 C-2.5 9.25 -2.5 9.25 -4.5 7.25 C-4.75 4.75 -4.75 4.75 -4.5 2.25 C-2.5 0.25 -2.5 0.25 0 0 Z " fill="#CD3D31" transform="translate(118.5,37.75)"/>
<path d="M0 0 C0 0.99 0 1.98 0 3 C-7.4988867 6.66696829 -12.72002936 8.79399364 -21 7 C-21.33 8.65 -21.66 10.3 -22 12 C-22.66 11.01 -23.32 10.02 -24 9 C-23.67 8.01 -23.34 7.02 -23 6 C-20.05078125 5.15625 -20.05078125 5.15625 -16.3125 4.5 C-10.74781762 3.51281242 -5.42036434 0 0 0 Z " fill="#2F2520" transform="translate(101,113)"/>
<path d="M0 0 C1.4540625 0.0309375 1.4540625 0.0309375 2.9375 0.0625 C3.5625 2.9375 3.5625 2.9375 3.9375 6.0625 C1.9375 8.0625 1.9375 8.0625 -0.5625 8.3125 C-3.0625 8.0625 -3.0625 8.0625 -5.0625 6.0625 C-4.33395709 0.0884481 -4.33395709 0.0884481 0 0 Z " fill="#CC3D31" transform="translate(100.0625,77.9375)"/>
<path d="M0 0 C0.99 0 1.98 0 3 0 C3.32613281 0.79664063 3.65226562 1.59328125 3.98828125 2.4140625 C6.16848218 7.70056742 8.32988508 12.94083489 11 18 C9.234375 17.9296875 9.234375 17.9296875 7 17 C5.55237687 14.69910308 4.38707304 12.56995105 3.25 10.125 C2.93417969 9.48691406 2.61835937 8.84882813 2.29296875 8.19140625 C0.8919811 5.28632797 0 3.26257196 0 0 Z " fill="#0F0705" transform="translate(33,131)"/>
<path d="M0 0 C2.02045442 0.60183749 4.02111039 1.27306096 6 2 C6.33 2.66 6.66 3.32 7 4 C5.8553125 4.680625 5.8553125 4.680625 4.6875 5.375 C2.76367186 6.53824492 0.87058776 7.7529415 -1 9 C-2.32 9 -3.64 9 -5 9 C-3.50163895 5.88801935 -1.80066242 2.9465385 0 0 Z " fill="#E4B9A0" transform="translate(93,97)"/>
<path d="M0 0 C2.10533196 2.05535376 4.04594793 4.18469661 5.9375 6.4375 C8.18443727 9.08227404 10.49611133 11.59241474 13 14 C10.76953125 14.33203125 10.76953125 14.33203125 8 14 C5.76171875 11.69921875 5.76171875 11.69921875 3.6875 8.6875 C2.99011719 7.70136719 2.29273438 6.71523437 1.57421875 5.69921875 C0 3 0 3 0 0 Z " fill="#211511" transform="translate(50,135)"/>
<path d="M0 0 C4.62 0.66 9.24 1.32 14 2 C13.67 3.32 13.34 4.64 13 6 C12.67 5.67 12.34 5.34 12 5 C9.74584622 4.71710819 7.49159344 4.5522881 5.2265625 4.37890625 C3 4 3 4 0 2 C0 1.34 0 0.68 0 0 Z " fill="#19130F" transform="translate(77,134)"/>
<path d="M0 0 C0 0.99 0 1.98 0 3 C-3.96 4.32 -7.92 5.64 -12 7 C-12 6.01 -12 5.02 -12 4 C-10.56570999 3.32645501 -9.12742943 2.66140299 -7.6875 2 C-6.88699219 1.62875 -6.08648437 1.2575 -5.26171875 0.875 C-3 0 -3 0 0 0 Z " fill="#201813" transform="translate(101,113)"/>
<path d="M0 0 C-1 3 -1 3 -3.28515625 4.16796875 C-4.20167969 4.50441406 -5.11820312 4.84085937 -6.0625 5.1875 C-7.44115234 5.70376953 -7.44115234 5.70376953 -8.84765625 6.23046875 C-9.55792969 6.48441406 -10.26820312 6.73835937 -11 7 C-11 6.01 -11 5.02 -11 4 C-9.73308493 3.32591692 -8.46129251 2.66099503 -7.1875 2 C-6.47980469 1.62875 -5.77210937 1.2575 -5.04296875 0.875 C-3 0 -3 0 0 0 Z " fill="#17110E" transform="translate(101,123)"/>
<path d="M0 0 C2.5 0.3125 2.5 0.3125 5 1 C6.60725635 4.21451269 6.05748185 7.43612536 6 11 C5.34 11 4.68 11 4 11 C3.67 8.03 3.34 5.06 3 2 C1.68 1.67 0.36 1.34 -1 1 C-0.67 0.67 -0.34 0.34 0 0 Z " fill="#090101" transform="translate(88,83)"/>
<path d="M0 0 C4.12751449 0.60698743 7.3321148 2.03810791 11 4 C11 4.66 11 5.32 11 6 C9.54096742 5.69078116 8.08279278 5.37751201 6.625 5.0625 C5.81289062 4.88847656 5.00078125 4.71445312 4.1640625 4.53515625 C2 4 2 4 0 3 C0 2.01 0 1.02 0 0 Z " fill="#181500" transform="translate(137,29)"/>
<path d="M0 0 C0.99 0.33 1.98 0.66 3 1 C-1.36363636 5.72727273 -1.36363636 5.72727273 -4.1875 6.9375 C-4.785625 6.958125 -5.38375 6.97875 -6 7 C-6.66 6.34 -7.32 5.68 -8 5 C-7.05125 4.54625 -6.1025 4.0925 -5.125 3.625 C-1.99686321 2.19761746 -1.99686321 2.19761746 0 0 Z " fill="#211C19" transform="translate(97,101)"/>
<path d="M0 0 C3.55780196 0.60990891 6.6828589 1.5783681 10 3 C9.01 4.485 9.01 4.485 8 6 C5.36 5.01 2.72 4.02 0 3 C0 2.01 0 1.02 0 0 Z " fill="#130907" transform="translate(91,94)"/>
<path d="M0 0 C1.65 0 3.3 0 5 0 C4.67 1.32 4.34 2.64 4 4 C2.68 4 1.36 4 0 4 C0 2.68 0 1.36 0 0 Z " fill="#FDFAF9" transform="translate(79,122)"/>
<path d="M0 0 C1.65 0 3.3 0 5 0 C5 1.32 5 2.64 5 4 C3.35 3.67 1.7 3.34 0 3 C0 2.01 0 1.02 0 0 Z " fill="#F2EFED" transform="translate(80,113)"/>
<path d="M0 0 C3.625 -0.1875 3.625 -0.1875 7 0 C6.67 0.99 6.34 1.98 6 3 C3.36 3 0.72 3 -2 3 C-1.34 2.01 -0.68 1.02 0 0 Z " fill="#49372C" transform="translate(83,128)"/>
<path d="M0 0 C2 1.375 2 1.375 4 3 C4 3.66 4 4.32 4 5 C2.02 5.33 0.04 5.66 -2 6 C-1.34 4.02 -0.68 2.04 0 0 Z " fill="#050303" transform="translate(87,104)"/>
</svg>
