<svg width="38" height="38" viewBox="0 0 38 38" fill="none" xmlns="http://www.w3.org/2000/svg">
<rect x="0.00012207" width="38" height="38" rx="19" fill="url(#paint0_linear_1_640)"/>
<path d="M15.8378 19.0475C15.8378 17.2971 17.2559 15.8778 19.0058 15.8778C20.7557 15.8778 22.1746 17.2971 22.1746 19.0475C22.1746 20.7979 20.7557 22.2172 19.0058 22.2172C17.2559 22.2172 15.8378 20.7979 15.8378 19.0475ZM14.1248 19.0475C14.1248 21.7441 16.31 23.93 19.0058 23.93C21.7016 23.93 23.8869 21.7441 23.8869 19.0475C23.8869 16.3509 21.7016 14.165 19.0058 14.165C16.31 14.165 14.1248 16.3509 14.1248 19.0475ZM22.9394 13.9714C22.9393 14.1971 23.0062 14.4177 23.1314 14.6054C23.2567 14.7931 23.4348 14.9394 23.6432 15.0259C23.8516 15.1123 24.0809 15.135 24.3022 15.0911C24.5235 15.0471 24.7268 14.9385 24.8864 14.779C25.046 14.6195 25.1547 14.4163 25.1988 14.1949C25.2429 13.9736 25.2204 13.7442 25.1341 13.5357C25.0479 13.3271 24.9018 13.1489 24.7142 13.0234C24.5267 12.898 24.3062 12.831 24.0806 12.8309H24.0801C23.7777 12.831 23.4877 12.9512 23.2738 13.1651C23.06 13.3789 22.9397 13.669 22.9394 13.9714ZM15.1655 26.7872C14.2388 26.7449 13.735 26.5905 13.4003 26.4601C12.9565 26.2872 12.6398 26.0814 12.3069 25.7488C11.974 25.4163 11.7679 25.0998 11.5959 24.6559C11.4654 24.3212 11.311 23.8172 11.2689 22.8901C11.2228 21.8879 11.2136 21.5868 11.2136 19.0476C11.2136 16.5084 11.2235 16.2081 11.2689 15.205C11.3111 14.278 11.4666 13.775 11.5959 13.4393C11.7686 12.9953 11.9744 12.6786 12.3069 12.3456C12.6394 12.0126 12.9557 11.8064 13.4003 11.6343C13.7349 11.5038 14.2388 11.3494 15.1655 11.3073C16.1675 11.2612 16.4685 11.252 19.0058 11.252C21.5432 11.252 21.8445 11.2619 22.8473 11.3073C23.774 11.3495 24.2769 11.505 24.6125 11.6343C25.0563 11.8064 25.373 12.013 25.7059 12.3456C26.0388 12.6781 26.2441 12.9953 26.4169 13.4393C26.5474 13.774 26.7018 14.278 26.7439 15.205C26.79 16.2081 26.7992 16.5084 26.7992 19.0476C26.7992 21.5868 26.79 21.887 26.7439 22.8901C26.7017 23.8172 26.5466 24.321 26.4169 24.6559C26.2441 25.0998 26.0384 25.4166 25.7059 25.7488C25.3734 26.0811 25.0563 26.2872 24.6125 26.4601C24.2779 26.5906 23.774 26.745 22.8473 26.7872C21.8453 26.8333 21.5443 26.8425 19.0058 26.8425C16.4673 26.8425 16.1672 26.8333 15.1655 26.7872ZM15.0868 9.59665C14.0749 9.64274 13.3834 9.80325 12.7795 10.0383C12.1541 10.281 11.6247 10.6067 11.0956 11.135C10.5666 11.6634 10.2419 12.1938 9.99921 12.8194C9.76423 13.4238 9.60377 14.1151 9.55769 15.1274C9.51084 16.1412 9.50012 16.4653 9.50012 19.0475C9.50012 21.6297 9.51084 21.9538 9.55769 22.9676C9.60377 23.98 9.76423 24.6712 9.99921 25.2756C10.2419 25.9008 10.5667 26.4318 11.0956 26.96C11.6246 27.4881 12.1541 27.8133 12.7795 28.0567C13.3845 28.2918 14.0749 28.4523 15.0868 28.4984C16.1009 28.5445 16.4244 28.556 19.0058 28.556C21.5873 28.556 21.9113 28.5452 22.9248 28.4984C23.9368 28.4523 24.6279 28.2918 25.2321 28.0567C25.8572 27.8133 26.387 27.4883 26.916 26.96C27.4451 26.4316 27.7691 25.9008 28.0124 25.2756C28.2474 24.6712 28.4086 23.9799 28.454 22.9676C28.5 21.9531 28.5108 21.6297 28.5108 19.0475C28.5108 16.4653 28.5 16.1412 28.454 15.1274C28.4079 14.1151 28.2474 13.4235 28.0124 12.8194C27.7691 12.1942 27.4442 11.6642 26.916 11.135C26.3878 10.6058 25.8572 10.281 25.2329 10.0383C24.6279 9.80325 23.9368 9.64198 22.9256 9.59665C21.9121 9.55055 21.588 9.53906 19.0066 9.53906C16.4251 9.53906 16.1009 9.54979 15.0868 9.59665Z" fill="white"/>
<defs>
<linearGradient id="paint0_linear_1_640" x1="37.2698" y1="38" x2="-0.730237" y2="-1.02285e-06" gradientUnits="userSpaceOnUse">
<stop stop-color="#FBE18A"/>
<stop offset="0.21" stop-color="#FCBB45"/>
<stop offset="0.38" stop-color="#F75274"/>
<stop offset="0.52" stop-color="#D53692"/>
<stop offset="0.74" stop-color="#8F39CE"/>
<stop offset="1" stop-color="#5B4FE9"/>
</linearGradient>
</defs>
</svg>
