<svg width="38" height="38" viewBox="0 0 38 38" fill="none" xmlns="http://www.w3.org/2000/svg">
<rect x="0.00012207" width="38" height="38" rx="19" fill="#006699"/>
<path d="M14.6294 26.7014V16.4365H11.2206V26.7014H14.6298H14.6294ZM12.9257 15.0353C14.1142 15.0353 14.8541 14.2471 14.8541 13.262C14.8319 12.2545 14.1142 11.4883 12.9483 11.4883C11.7816 11.4883 11.0197 12.2545 11.0197 13.2619C11.0197 14.247 11.7593 15.0352 12.9034 15.0352H12.9255L12.9257 15.0353ZM16.5163 26.7014H19.9249V20.9697C19.9249 20.6633 19.9471 20.3561 20.0372 20.1373C20.2835 19.5241 20.8444 18.8893 21.7863 18.8893C23.0195 18.8893 23.5131 19.8305 23.5131 21.2106V26.7014H26.9216V20.8159C26.9216 17.6631 25.2401 16.1959 22.9974 16.1959C21.1587 16.1959 20.3511 17.2245 19.9025 17.9251H19.9252V16.4369H16.5165C16.561 17.3999 16.5162 26.7018 16.5162 26.7018L16.5163 26.7014Z" fill="white"/>
</svg>
