<svg width="121" height="53" viewBox="0 0 121 53" fill="none" xmlns="http://www.w3.org/2000/svg">
<path d="M38.417 19.0356C39.6522 20.3073 40.2681 22.0768 40.2681 24.3372V34.2132H35.1491V25.0321C35.1491 23.9431 34.8643 23.0978 34.2912 22.5031C33.7181 21.9085 32.9314 21.6076 31.9275 21.6076C30.9237 21.6076 30.137 21.9049 29.5638 22.5031C28.9907 23.1013 28.7059 23.9431 28.7059 25.0321V34.2132H23.587V25.0321C23.587 23.9431 23.3022 23.0978 22.7291 22.5031C22.156 21.9085 21.3693 21.6076 20.3654 21.6076C19.3615 21.6076 18.5748 21.9049 18.0017 22.5031C17.4286 23.1013 17.1438 23.9431 17.1438 25.0321V34.2132H11.9964V17.309H17.1438V19.4296C17.6671 18.7239 18.347 18.1615 19.1907 17.7496C20.0343 17.3377 20.9884 17.1299 22.0492 17.1299C23.3129 17.1299 24.4413 17.4021 25.4381 17.9466C26.4348 18.4911 27.2108 19.2684 27.7697 20.2786C28.35 19.3508 29.1438 18.5914 30.1476 18.0075C31.1515 17.4236 32.2443 17.1299 33.4298 17.1299C35.5158 17.1299 37.1782 17.7675 38.4134 19.0392L38.417 19.0356Z" fill="#231F20"/>
<path d="M58.2128 17.3089L47.6759 42.2443H42.1369L45.9921 33.64L39.1573 17.3089H44.9064L48.7901 27.8835L52.6453 17.3089H58.2163H58.2128Z" fill="#231F20"/>
<path d="M62.3957 11.7961V34.2168H57.2483V11.7961H62.3957Z" fill="#231F20"/>
<path d="M63.6768 14.7477C63.1037 14.214 62.8189 13.5513 62.8189 12.7632C62.8189 11.9751 63.1037 11.2838 63.6768 10.75C64.2499 10.2163 64.9868 9.94763 65.891 9.94763C66.7951 9.94763 67.5 10.2163 68.0731 10.75C68.6462 11.2874 68.931 11.9572 68.931 12.7632C68.931 13.5692 68.6462 14.214 68.0731 14.7477C67.5 15.285 66.7738 15.5501 65.891 15.5501C65.0081 15.5501 64.2499 15.2815 63.6768 14.7477ZM68.4469 17.309V34.2131H63.2994V17.309H68.4469Z" fill="#231F20"/>
<path d="M76.759 17.9287C77.6632 17.395 78.6671 17.1263 79.7706 17.1263V22.6106H78.3574C77.0723 22.6106 76.1076 22.89 75.4668 23.4453C74.8225 24.0005 74.5021 24.9748 74.5021 26.3683V34.2168H69.3547V17.3126H74.5021V20.1318C75.1037 19.204 75.8584 18.4696 76.759 17.9359V17.9287Z" fill="#231F20"/>
<path d="M79.3612 21.1563C80.0127 19.8416 80.9026 18.8351 82.0239 18.1258C83.1488 17.4201 84.4019 17.0655 85.7866 17.0655C86.972 17.0655 88.0079 17.3091 88.9014 17.7926C89.7949 18.2762 90.4819 18.9139 90.9625 19.7019V17.3091H96.1099V34.2132H90.9625V31.8204C90.4606 32.6084 89.7629 33.2461 88.8694 33.7296C87.9759 34.2132 86.9364 34.4568 85.7546 34.4568C84.3876 34.4568 83.1453 34.0986 82.0204 33.3822C80.8955 32.6657 80.0091 31.6448 79.3577 30.323C78.7062 29.0012 78.3787 27.4716 78.3787 25.7343C78.3787 23.9969 78.7062 22.4709 79.3577 21.1599L79.3612 21.1563ZM89.8981 22.7002C89.1862 21.9515 88.3176 21.579 87.2924 21.579C86.2672 21.579 85.4021 21.9479 84.6866 22.6859C83.9747 23.4238 83.6187 24.4375 83.6187 25.7307C83.6187 27.0239 83.9747 28.0484 84.6866 28.8042C85.3986 29.56 86.2672 29.9397 87.2924 29.9397C88.3176 29.9397 89.1826 29.5672 89.8981 28.8185C90.6101 28.0734 90.9661 27.0525 90.9661 25.7594C90.9661 24.4662 90.6101 23.4453 89.8981 22.7002Z" fill="#231F20"/>
<path d="M99.9402 33.6974C98.7975 33.1923 97.8933 32.5009 97.2312 31.6233C96.5691 30.7457 96.1953 29.7606 96.117 28.668H101.204C101.264 29.2555 101.535 29.7283 102.016 30.0937C102.496 30.4555 103.091 30.6382 103.792 30.6382C104.433 30.6382 104.931 30.5128 105.283 30.2585C105.636 30.0077 105.81 29.6782 105.81 29.2734C105.81 28.7898 105.558 28.4316 105.059 28.1988C104.557 27.9659 103.746 27.708 102.621 27.425C101.417 27.142 100.414 26.8447 99.6091 26.5295C98.8046 26.2178 98.114 25.7235 97.5302 25.0465C96.9464 24.3694 96.6581 23.456 96.6581 22.3061C96.6581 21.3354 96.9251 20.4541 97.4555 19.6553C97.9859 18.8565 98.769 18.226 99.8049 17.7604C100.837 17.2947 102.069 17.0618 103.493 17.0618C105.6 17.0618 107.259 17.5884 108.477 18.638C109.69 19.6876 110.388 21.081 110.57 22.8184H105.814C105.732 22.2345 105.476 21.7688 105.045 21.4249C104.614 21.081 104.045 20.9091 103.343 20.9091C102.742 20.9091 102.279 21.0273 101.959 21.2565C101.638 21.4894 101.478 21.8082 101.478 22.2094C101.478 22.693 101.734 23.0584 102.247 23.2984C102.76 23.542 103.557 23.782 104.639 24.0255C105.885 24.3479 106.896 24.6668 107.679 24.9784C108.462 25.2936 109.149 25.7951 109.74 26.4937C110.331 27.1922 110.637 28.1235 110.659 29.2949C110.659 30.2836 110.381 31.1684 109.829 31.9457C109.277 32.723 108.484 33.3356 107.451 33.7798C106.415 34.2239 105.219 34.446 103.852 34.446C102.386 34.446 101.083 34.1953 99.9366 33.6902L99.9402 33.6974Z" fill="#231F20"/>
<path d="M40.5208 52.7436H0V16.9829H4.27172V48.445H40.5208V52.7436Z" fill="#231F20"/>
<path d="M121 35.7606H116.728V4.29858H80.4792V0H121V35.7606Z" fill="#231F20"/>
</svg>
