<svg width="38" height="38" viewBox="0 0 38 38" fill="none" xmlns="http://www.w3.org/2000/svg">
<rect x="0.00012207" width="38" height="38" rx="19" fill="#FF0000"/>
<path d="M18.0706 9.60266C14.9863 9.95543 11.913 12.5121 11.7861 16.1643C11.7064 18.3942 12.3243 20.0671 14.3956 20.5368C15.2944 18.9122 14.1056 18.5539 13.9208 17.3786C13.1615 12.5623 19.3427 9.27773 22.5774 12.6402C24.8154 14.9686 23.3421 22.1317 19.7323 21.3872C16.2748 20.6761 21.4249 14.9741 18.665 13.8545C16.4216 12.9447 15.2292 16.6377 16.2929 18.4722C15.6695 21.6267 14.3267 24.5993 14.8704 28.556C16.6336 27.2451 17.228 24.7348 17.7154 22.1169C18.6016 22.6683 19.0745 23.242 20.2053 23.3312C24.375 23.6617 26.7036 19.0663 26.1346 14.8274C25.629 11.0695 21.9685 9.15705 18.0706 9.60266Z" fill="white"/>
</svg>
