<svg width="32" height="38" viewBox="0 0 32 38" fill="none" xmlns="http://www.w3.org/2000/svg">
<path d="M30.1842 5.99321C27.9723 5.68761 25.7988 5.13964 23.701 4.3587C21.1502 3.37799 18.9183 2.17935 17.7492 0.653804L17.6429 0.544837L17.5366 0.43587C17.4303 0.43587 17.4303 0.326902 17.324 0.326902C17.2178 0.326902 17.2178 0.217935 17.1115 0.217935C17.0052 0.217935 17.0052 0.108967 16.8989 0.108967C16.7926 0.108967 16.7926 0 16.6863 0H15.411C15.3047 0 15.3047 0 15.1984 0.108967C15.0921 0.108967 15.0921 0.108967 14.9858 0.217935C14.8795 0.217935 14.8795 0.326902 14.7733 0.326902C14.667 0.326902 14.667 0.43587 14.5607 0.43587L14.4544 0.544837L14.3481 0.653804C13.0727 2.17935 10.8408 3.37799 8.39631 4.3587C6.28689 5.09992 4.11723 5.64692 1.91308 5.99321C1.39111 6.05796 0.909694 6.31442 0.557964 6.7151C0.206235 7.11578 0.00801421 7.63355 0 8.17256C0 13.6209 0.318847 19.7231 2.33821 25.0625C3.71989 28.6584 5.84553 31.9275 8.82144 34.3247C9.8478 35.214 10.9931 35.9479 12.2225 36.5041C13.6042 37.2669 15.3047 38.4655 16.8989 37.8117C20.9376 36.2861 24.8701 33.344 27.3146 29.6391C28.261 28.171 29.0453 26.5995 29.6528 24.9535C31.6722 19.6141 31.991 13.512 31.991 8.06359C32.0973 7.08288 31.247 6.21114 30.1842 5.99321ZM25.8266 23.537C24.2324 27.7867 21.3628 31.3826 16.1549 33.562C10.9471 31.3826 8.07747 27.7867 6.48323 23.537C4.99527 19.5052 4.57014 14.8196 4.46386 10.025C6.34239 9.66647 8.19037 9.15637 9.99055 8.49946C12.1162 7.73669 14.3481 6.64701 16.1549 5.12147C17.9617 6.64701 20.1937 7.73669 22.3193 8.49946C24.2324 9.26223 26.2518 9.6981 27.846 10.025C27.7397 14.8196 27.3146 19.5052 25.8266 23.537ZM15.3047 20.4859L11.0534 17.3258C10.0968 16.672 8.82144 16.781 8.07747 17.7617C7.43977 18.7424 7.54605 20.05 8.5026 20.8128L14.3481 25.1715C15.5172 26.0432 16.6863 25.4984 17.5366 24.4087C19.8748 21.4666 22.3193 18.5245 24.6575 15.5823C25.4015 14.6016 25.2952 13.294 24.3387 12.5313C23.3821 11.7685 22.1067 11.8774 21.3628 12.8582L15.3047 20.4859Z" fill="black"/>
</svg>
