<svg width="32" height="32" viewBox="0 0 32 32" fill="none" xmlns="http://www.w3.org/2000/svg">
<path fill-rule="evenodd" clip-rule="evenodd" d="M11.6364 17.4545C11.6364 15.0444 13.59 13.0908 16 13.0908C18.41 13.0908 20.3636 15.0444 20.3636 17.4545C20.3636 19.8645 18.41 21.8181 16 21.8181C13.59 21.8181 11.6364 19.8645 11.6364 17.4545ZM16 15.9999C15.1966 15.9999 14.5454 16.6511 14.5454 17.4545C14.5454 18.2578 15.1966 18.909 16 18.909C16.8033 18.909 17.4545 18.2578 17.4545 17.4545C17.4545 16.6511 16.8033 15.9999 16 15.9999Z" fill="black"/>
<path fill-rule="evenodd" clip-rule="evenodd" d="M0 0H32V13.0909H26.1818V32H5.81818V13.0909H0V0ZM8.72727 10.1818V23.3245C8.96492 23.2903 9.20777 23.2727 9.45455 23.2727C12.2662 23.2727 14.5455 25.552 14.5455 28.3636C14.5455 28.6105 14.5279 28.8532 14.4937 29.0909H17.5063C17.4721 28.8532 17.4545 28.6105 17.4545 28.3636C17.4545 25.552 19.7338 23.2727 22.5455 23.2727C22.7923 23.2727 23.0351 23.2903 23.2727 23.3245V10.1818H8.72727ZM26.1818 10.1818V7.27273H5.81818V10.1818H2.90909V2.90909H29.0909V10.1818H26.1818ZM23.2727 26.3056C23.0457 26.2255 22.8012 26.1818 22.5455 26.1818C21.3405 26.1818 20.3636 27.1587 20.3636 28.3636C20.3636 28.6193 20.4073 28.8639 20.4874 29.0909H23.2727V26.3056ZM11.5125 29.0909C11.5928 28.8639 11.6364 28.6193 11.6364 28.3636C11.6364 27.1587 10.6595 26.1818 9.45455 26.1818C9.19879 26.1818 8.9543 26.2255 8.72727 26.3056V29.0909H11.5125Z" fill="black"/>
</svg>
