<svg width="36" height="36" viewBox="0 0 36 36" fill="none" xmlns="http://www.w3.org/2000/svg">
<path d="M17.5303 13.7957C18.2371 13.7957 18.8144 14.3715 18.8144 15.0783C18.8144 15.7233 19.3387 16.2461 19.9837 16.2461C20.6272 16.2461 21.1515 15.7233 21.1515 15.0783C21.1515 13.4938 20.1192 12.1566 18.6981 11.6677V11.005C18.6981 10.3615 18.1753 9.83574 17.5303 9.83574C16.8838 9.83574 16.361 10.3615 16.361 11.005V11.6677C14.9399 12.1566 13.9105 13.4938 13.9105 15.0783C13.9105 17.0767 15.5334 18.6995 17.5303 18.6995C18.2371 18.6995 18.8144 19.2768 18.8144 19.9837C18.8144 20.692 18.2371 21.2678 17.5303 21.2678C16.8234 21.2678 16.2476 20.692 16.2476 19.9837C16.2476 19.3387 15.7233 18.8144 15.0783 18.8144C14.4318 18.8144 13.9105 19.3387 13.9105 19.9837C13.9105 21.5682 14.9399 22.9039 16.361 23.3928V24.0555C16.361 24.702 16.8838 25.2263 17.5303 25.2263C18.1753 25.2263 18.6981 24.702 18.6981 24.0555V23.3928C20.1192 22.9039 21.1515 21.5682 21.1515 19.9837C21.1515 17.9868 19.5272 16.3625 17.5303 16.3625C16.8234 16.3625 16.2476 15.7867 16.2476 15.0783C16.2476 14.3715 16.8234 13.7957 17.5303 13.7957ZM27.3218 24.0202C27.8947 24.3221 28.6001 24.1027 28.9005 23.5342C29.8724 21.6978 30.3849 19.6214 30.3849 17.5303C30.3849 10.4439 24.6166 4.6771 17.5303 4.6771C10.4425 4.6771 4.67562 10.4439 4.67562 17.5303C4.67562 24.6181 10.4425 30.3849 17.5303 30.3849C19.5905 30.3849 21.6375 29.8872 23.4503 28.9432C24.0231 28.6472 24.2455 27.9389 23.948 27.3675C23.6506 26.7976 22.9452 26.5708 22.3708 26.8697C20.8702 27.6532 19.24 28.0493 17.5303 28.0493C11.731 28.0493 7.01123 23.331 7.01123 17.5303C7.01123 11.7325 11.731 7.0127 17.5303 7.0127C23.3295 7.0127 28.0493 11.7325 28.0493 17.5303C28.0493 19.243 27.6281 20.9409 26.8359 22.44C26.5325 23.0114 26.7505 23.7183 27.3218 24.0202ZM17.5303 0C14.1447 0 10.8578 0.968995 8.02587 2.79948C7.48247 3.14997 7.32784 3.87304 7.67833 4.41497C8.03029 4.9569 8.75041 5.11005 9.29529 4.76251C11.7458 3.17795 14.5968 2.33855 17.5303 2.33855C25.9081 2.33855 32.722 9.15391 32.722 17.5303C32.722 25.9081 25.9081 32.7235 17.5303 32.7235C9.15244 32.7235 2.33708 25.9081 2.33708 17.5303C2.33708 14.6248 3.16028 11.7988 4.7198 9.36156C5.06735 8.81668 4.9083 8.09361 4.36342 7.74607C3.82002 7.39853 3.09696 7.55757 2.75089 8.10098C0.951323 10.9152 0 14.1786 0 17.5303C0 27.1981 7.86241 35.0605 17.5303 35.0605C27.1967 35.0605 35.0605 27.1981 35.0605 17.5303C35.0605 7.86536 27.1967 0 17.5303 0Z" fill="black"/>
</svg>
