<svg width="32" height="32" viewBox="0 0 32 32" fill="none" xmlns="http://www.w3.org/2000/svg">
<path d="M18.4615 32H13.5385C13.212 32 12.899 31.8703 12.6682 31.6395C12.4374 31.4087 12.3077 31.0957 12.3077 30.7692V28.9969C12.3122 28.6599 12.2164 28.3292 12.0324 28.0468C11.8484 27.7645 11.5845 27.5432 11.2744 27.4113C10.9643 27.2793 10.6219 27.2426 10.2909 27.3058C9.95984 27.369 9.65508 27.5292 9.41538 27.7662L8.18462 28.9969C8.0702 29.1123 7.93407 29.2038 7.78409 29.2663C7.63411 29.3288 7.47325 29.361 7.31077 29.361C7.14829 29.361 6.98743 29.3288 6.83744 29.2663C6.68746 29.2038 6.55134 29.1123 6.43692 28.9969L2.94154 25.5754C2.82618 25.461 2.73462 25.3248 2.67213 25.1749C2.60965 25.0249 2.57748 24.864 2.57748 24.7015C2.57748 24.5391 2.60965 24.3782 2.67213 24.2282C2.73462 24.0782 2.82618 23.9421 2.94154 23.8277L4.17231 22.5969C4.40923 22.3572 4.56949 22.0525 4.63269 21.7214C4.69589 21.3904 4.65917 21.048 4.52721 20.7379C4.39524 20.4278 4.174 20.1639 3.89163 19.9799C3.60926 19.7959 3.27854 19.7001 2.94154 19.7046H1.23077C0.904349 19.7046 0.591298 19.5749 0.360484 19.3441C0.12967 19.1133 0 18.8003 0 18.4738V13.5385C0 13.212 0.12967 12.899 0.360484 12.6682C0.591298 12.4374 0.904349 12.3077 1.23077 12.3077H3.00308C3.34007 12.3122 3.6708 12.2164 3.95317 12.0324C4.23554 11.8484 4.45678 11.5845 4.58875 11.2744C4.72071 10.9643 4.75743 10.6219 4.69423 10.2909C4.63103 9.95984 4.47077 9.65508 4.23385 9.41538L3.00308 8.18462C2.88772 8.0702 2.79616 7.93407 2.73367 7.78409C2.67119 7.63411 2.63902 7.47325 2.63902 7.31077C2.63902 7.14829 2.67119 6.98743 2.73367 6.83744C2.79616 6.68746 2.88772 6.55134 3.00308 6.43692L6.42462 2.94154C6.53903 2.82618 6.67516 2.73462 6.82514 2.67213C6.97512 2.60965 7.13599 2.57748 7.29846 2.57748C7.46094 2.57748 7.62181 2.60965 7.77179 2.67213C7.92177 2.73462 8.05789 2.82618 8.17231 2.94154L9.40308 4.17231C9.64277 4.40923 9.94753 4.56949 10.2786 4.63269C10.6096 4.69589 10.952 4.65917 11.2621 4.52721C11.5722 4.39524 11.8361 4.174 12.0201 3.89163C12.2041 3.60926 12.2999 3.27854 12.2954 2.94154V1.23077C12.2954 0.904349 12.4251 0.591298 12.6559 0.360484C12.8867 0.12967 13.1997 0 13.5262 0H18.4492C18.7757 0 19.0887 0.12967 19.3195 0.360484C19.5503 0.591298 19.68 0.904349 19.68 1.23077V3.00308C19.6755 3.34007 19.7713 3.6708 19.9553 3.95317C20.1393 4.23554 20.4031 4.45678 20.7133 4.58875C21.0234 4.72071 21.3658 4.75743 21.6968 4.69423C22.0279 4.63103 22.3326 4.47077 22.5723 4.23385L23.8031 3.00308C23.9175 2.88772 24.0536 2.79616 24.2036 2.73367C24.3536 2.67119 24.5144 2.63902 24.6769 2.63902C24.8394 2.63902 25.0003 2.67119 25.1502 2.73367C25.3002 2.79616 25.4364 2.88772 25.5508 3.00308L29.0338 6.48615C29.1492 6.60057 29.2408 6.73669 29.3033 6.88668C29.3657 7.03666 29.3979 7.19752 29.3979 7.36C29.3979 7.52248 29.3657 7.68334 29.3033 7.83332C29.2408 7.98331 29.1492 8.11943 29.0338 8.23385L27.8031 9.46461C27.5662 9.70431 27.4059 10.0091 27.3427 10.3401C27.2795 10.6712 27.3162 11.0135 27.4482 11.3237C27.5801 11.6338 27.8014 11.8976 28.0838 12.0816C28.3661 12.2656 28.6968 12.3615 29.0338 12.3569H30.7692C31.0957 12.3569 31.4087 12.4866 31.6395 12.7174C31.8703 12.9482 32 13.2613 32 13.5877V18.5108C32 18.8372 31.8703 19.1502 31.6395 19.3811C31.4087 19.6119 31.0957 19.7415 30.7692 19.7415H28.9969C28.6599 19.737 28.3292 19.8328 28.0468 20.0168C27.7645 20.2008 27.5432 20.4647 27.4113 20.7748C27.2793 21.0849 27.2426 21.4273 27.3058 21.7583C27.369 22.0894 27.5292 22.3942 27.7662 22.6338L28.9969 23.8646C29.1123 23.979 29.2038 24.1152 29.2663 24.2651C29.3288 24.4151 29.361 24.576 29.361 24.7385C29.361 24.9009 29.3288 25.0618 29.2663 25.2118C29.2038 25.3618 29.1123 25.4979 28.9969 25.6123L25.5138 29.0954C25.3994 29.2107 25.2633 29.3023 25.1133 29.3648C24.9633 29.4273 24.8025 29.4594 24.64 29.4594C24.4775 29.4594 24.3167 29.4273 24.1667 29.3648C24.0167 29.3023 23.8806 29.2107 23.7662 29.0954L22.5354 27.8646C22.2957 27.6277 21.9909 27.4674 21.6599 27.4042C21.3288 27.341 20.9865 27.3778 20.6763 27.5097C20.3662 27.6417 20.1024 27.8629 19.9184 28.1453C19.7344 28.4277 19.6385 28.7584 19.6431 29.0954V30.7692C19.6433 31.0873 19.5204 31.3931 19.3002 31.6226C19.0799 31.852 18.7794 31.9873 18.4615 32ZM14.7692 29.5385H17.2308V28.9969C17.2298 28.1751 17.4729 27.3715 17.9294 26.6881C18.3858 26.0047 19.035 25.4723 19.7945 25.1585C20.5541 24.8447 21.3897 24.7635 22.1954 24.9254C23.0011 25.0873 23.7406 25.4849 24.32 26.0677L24.7015 26.4492L26.4492 24.7015L26.0677 24.32C25.4849 23.7406 25.0873 23.0011 24.9254 22.1954C24.7635 21.3897 24.8447 20.5541 25.1585 19.7945C25.4723 19.035 26.0047 18.3858 26.6881 17.9294C27.3715 17.4729 28.1751 17.2298 28.9969 17.2308H29.5385V14.7692H28.9969C28.1751 14.7702 27.3715 14.5271 26.6881 14.0706C26.0047 13.6142 25.4723 12.965 25.1585 12.2055C24.8447 11.4459 24.7635 10.6103 24.9254 9.80457C25.0873 8.99885 25.4849 8.25939 26.0677 7.68L26.4492 7.29846L24.7015 5.55077L24.32 5.93231C23.7406 6.51514 23.0011 6.91272 22.1954 7.07459C21.3897 7.23646 20.5541 7.15533 19.7945 6.8415C19.035 6.52767 18.3858 5.99527 17.9294 5.31188C17.4729 4.62848 17.2298 3.82489 17.2308 3.00308V2.46154H14.7692V3.00308C14.7702 3.82489 14.5271 4.62848 14.0706 5.31188C13.6142 5.99527 12.965 6.52767 12.2055 6.8415C11.4459 7.15533 10.6103 7.23646 9.80457 7.07459C8.99885 6.91272 8.25939 6.51514 7.68 5.93231L7.29846 5.55077L5.55077 7.29846L5.93231 7.68C6.51514 8.25939 6.91272 8.99885 7.07459 9.80457C7.23646 10.6103 7.15533 11.4459 6.8415 12.2055C6.52767 12.965 5.99527 13.6142 5.31188 14.0706C4.62848 14.5271 3.82489 14.7702 3.00308 14.7692H2.46154V17.2308H3.00308C3.82489 17.2298 4.62848 17.4729 5.31188 17.9294C5.99527 18.3858 6.52767 19.035 6.8415 19.7945C7.15533 20.5541 7.23646 21.3897 7.07459 22.1954C6.91272 23.0011 6.51514 23.7406 5.93231 24.32L5.55077 24.7015L7.29846 26.4492L7.68 26.0677C8.25939 25.4849 8.99885 25.0873 9.80457 24.9254C10.6103 24.7635 11.4459 24.8447 12.2055 25.1585C12.965 25.4723 13.6142 26.0047 14.0706 26.6881C14.5271 27.3715 14.7702 28.1751 14.7692 28.9969V29.5385Z" fill="black"/>
<path d="M16 22.1539C14.7829 22.1539 13.5931 21.793 12.5811 21.1168C11.5692 20.4406 10.7804 19.4795 10.3146 18.355C9.84886 17.2305 9.72699 15.9932 9.96444 14.7995C10.2019 13.6058 10.788 12.5092 11.6486 11.6486C12.5092 10.788 13.6058 10.2019 14.7995 9.96444C15.9932 9.72699 17.2305 9.84886 18.355 10.3146C19.4795 10.7804 20.4406 11.5692 21.1168 12.5811C21.793 13.5931 22.1539 14.7829 22.1539 16C22.1539 17.6321 21.5055 19.1974 20.3515 20.3515C19.1974 21.5055 17.6321 22.1539 16 22.1539ZM16 12.3077C15.2698 12.3077 14.5559 12.5243 13.9487 12.93C13.3415 13.3357 12.8683 13.9124 12.5888 14.5871C12.3093 15.2617 12.2362 16.0041 12.3787 16.7204C12.5211 17.4366 12.8728 18.0945 13.3892 18.6109C13.9056 19.1273 14.5635 19.4789 15.2797 19.6214C15.9959 19.7639 16.7383 19.6908 17.413 19.4113C18.0877 19.1318 18.6644 18.6586 19.0701 18.0514C19.4758 17.4442 19.6923 16.7303 19.6923 16C19.6923 15.0208 19.3033 14.0816 18.6109 13.3892C17.9185 12.6967 16.9793 12.3077 16 12.3077Z" fill="black"/>
</svg>
