<svg width="32" height="39" viewBox="0 0 32 39" fill="none" xmlns="http://www.w3.org/2000/svg">
<path d="M15.6 0C10.2322 0 5.85 4.38224 5.85 9.75V15.6C2.25104 15.6 0 18.5664 0 21.1225V33.4737C0 36.5008 2.49914 39 5.52626 39H25.6737C28.7009 39 31.2 36.5008 31.2 33.4737V21.1225C31.2 17.45 28.2332 15.6 25.35 15.6V9.75C25.35 4.38224 20.9678 0 15.6 0ZM15.6 3.9C18.8746 3.9 21.45 6.47537 21.45 9.75V15.6H9.75V9.75C9.75 6.47537 12.3254 3.9 15.6 3.9ZM5.52626 19.5H25.6737C26.6077 19.5 27.3 20.1885 27.3 21.1225V33.4737C27.3 34.4077 26.6077 35.1 25.6737 35.1H5.52626C4.59229 35.1 3.9 34.4077 3.9 33.4737V21.1225C3.9 20.1885 4.59229 19.5 5.52626 19.5Z" fill="black"/>
</svg>
