<svg width="267" height="117" viewBox="0 0 267 117" fill="none" xmlns="http://www.w3.org/2000/svg">
<path d="M84.7705 42.1837C87.4962 44.9897 88.8551 48.8945 88.8551 53.8821V75.6745H77.5596V55.4156C77.5596 53.0127 76.9312 51.1472 75.6665 49.8351C74.4019 48.523 72.6659 47.859 70.4508 47.859C68.2357 47.859 66.4998 48.5151 65.2351 49.8351C63.9704 51.1551 63.342 53.0127 63.342 55.4156V75.6745H52.0466V55.4156C52.0466 53.0127 51.4182 51.1472 50.1535 49.8351C48.8889 48.523 47.1529 47.859 44.9378 47.859C42.7227 47.859 40.9867 48.5151 39.7221 49.8351C38.4574 51.1551 37.829 53.0127 37.829 55.4156V75.6745H26.4707V38.3737H37.829V43.0531C38.9837 41.496 40.484 40.255 42.3456 39.346C44.2073 38.437 46.3124 37.9785 48.6532 37.9785C51.4417 37.9785 53.9318 38.5792 56.1312 39.7807C58.3306 40.9822 60.0429 42.6974 61.2762 44.9265C62.5565 42.8792 64.3082 41.2035 66.5233 39.9151C68.7384 38.6267 71.1499 37.9785 73.7656 37.9785C78.3687 37.9785 82.0369 39.3855 84.7626 42.1916L84.7705 42.1837Z" fill="white"/>
<path d="M128.453 38.374L105.202 93.3965H92.9794L101.486 74.4101L86.4048 38.374H99.0906L107.66 61.7078L116.167 38.374H128.46H128.453Z" fill="white"/>
<path d="M137.683 26.2085V75.6821H126.324V26.2085H137.683Z" fill="white"/>
<path d="M140.51 32.7222C139.246 31.5445 138.617 30.0822 138.617 28.3432C138.617 26.6043 139.246 25.0787 140.51 23.901C141.775 22.7232 143.401 22.1304 145.396 22.1304C147.391 22.1304 148.947 22.7232 150.211 23.901C151.476 25.0866 152.104 26.5647 152.104 28.3432C152.104 30.1217 151.476 31.5445 150.211 32.7222C148.947 33.9079 147.344 34.4928 145.396 34.4928C143.448 34.4928 141.775 33.9 140.51 32.7222ZM151.036 38.3739V75.6747H139.678V38.3739H151.036Z" fill="white"/>
<path d="M169.377 39.7418C171.372 38.564 173.587 37.9712 176.022 37.9712V50.0728H172.904C170.068 50.0728 167.939 50.6893 166.525 51.9145C165.104 53.1397 164.397 55.2897 164.397 58.3645V75.683H153.038V38.3822H164.397V44.603C165.724 42.5557 167.389 40.9353 169.377 39.7576V39.7418Z" fill="white"/>
<path d="M175.119 46.8632C176.556 43.9623 178.52 41.7412 180.994 40.1761C183.477 38.619 186.242 37.8364 189.297 37.8364C191.913 37.8364 194.199 38.3739 196.17 39.441C198.142 40.5081 199.658 41.9151 200.718 43.6541V38.3739H212.077V75.6747H200.718V70.3946C199.611 72.1336 198.071 73.5406 196.1 74.6077C194.128 75.6747 191.834 76.2122 189.226 76.2122C186.21 76.2122 183.469 75.4218 180.987 73.8409C178.504 72.26 176.549 70.0073 175.111 67.0906C173.674 64.1739 172.951 60.7987 172.951 56.965C172.951 53.1314 173.674 49.7641 175.111 46.8711L175.119 46.8632ZM198.37 50.27C196.799 48.618 194.882 47.796 192.62 47.796C190.358 47.796 188.449 48.6101 186.87 50.2384C185.299 51.8667 184.513 54.1037 184.513 56.9571C184.513 59.8106 185.299 62.0713 186.87 63.7391C188.441 65.4069 190.358 66.2448 192.62 66.2448C194.882 66.2448 196.791 65.4227 198.37 63.7707C199.941 62.1266 200.726 59.8739 200.726 57.0204C200.726 54.1669 199.941 51.9141 198.37 50.27Z" fill="white"/>
<path d="M220.529 74.5366C218.007 73.4221 216.012 71.8965 214.551 69.96C213.09 68.0234 212.265 65.8497 212.092 63.4388H223.317C223.451 64.7352 224.048 65.7785 225.108 66.5848C226.168 67.3831 227.48 67.7862 229.028 67.7862C230.442 67.7862 231.541 67.5096 232.319 66.9484C233.097 66.3951 233.481 65.6679 233.481 64.7747C233.481 63.7076 232.924 62.9171 231.824 62.4034C230.716 61.8896 228.926 61.3205 226.443 60.696C223.788 60.0716 221.573 59.4155 219.798 58.7199C218.023 58.0322 216.499 56.9414 215.211 55.4475C213.922 53.9536 213.286 51.9379 213.286 49.4006C213.286 47.2585 213.875 45.3141 215.046 43.5514C216.216 41.7887 217.944 40.3975 220.23 39.37C222.508 38.3424 225.226 37.8286 228.368 37.8286C233.018 37.8286 236.678 38.9906 239.365 41.3065C242.043 43.6225 243.583 46.6973 243.984 50.531H233.489C233.309 49.2426 232.743 48.215 231.793 47.4562C230.842 46.6973 229.585 46.3179 228.038 46.3179C226.71 46.3179 225.689 46.5788 224.982 47.0847C224.275 47.5984 223.922 48.3019 223.922 49.1872C223.922 50.2543 224.487 51.0606 225.619 51.5902C226.75 52.1277 228.509 52.6572 230.897 53.1947C233.646 53.9061 235.877 54.6096 237.605 55.2973C239.333 55.9929 240.849 57.0995 242.153 58.6409C243.457 60.1822 244.133 62.2374 244.18 64.8221C244.18 67.0037 243.567 68.9561 242.35 70.6714C241.132 72.3866 239.381 73.7383 237.103 74.7184C234.817 75.6985 232.177 76.1886 229.161 76.1886C225.925 76.1886 223.05 75.6353 220.521 74.5208L220.529 74.5366Z" fill="white"/>
<path d="M89.4134 116.564H0V37.6543H9.42599V107.079H89.4134V116.564Z" fill="white"/>
<path d="M267 79.0892H257.574V9.66495H177.586V0.179688H267V79.0892Z" fill="white"/>
</svg>
