<svg width="38" height="38" viewBox="0 0 38 38" fill="none" xmlns="http://www.w3.org/2000/svg">
<rect x="0.00012207" width="38" height="38" rx="19" fill="white"/>
<path d="M20.5625 18.0473C22.6277 15.8783 24.6892 13.7133 26.8029 11.4931C26.3157 11.4931 25.9221 11.4781 25.5309 11.5011C25.3918 11.5092 25.2219 11.5747 25.1284 11.6714C23.9346 12.908 22.7525 14.1556 21.567 15.3997C21.0118 15.9818 20.4554 16.5628 19.8872 17.1569C19.7955 17.0425 19.7155 16.9464 19.6398 16.8475C18.3116 15.1231 16.9863 13.3964 15.6504 11.6777C15.577 11.5834 15.4166 11.5005 15.2959 11.5C13.7374 11.4885 12.1796 11.4919 10.6217 11.4936C10.5607 11.4936 10.5004 11.5103 10.4015 11.5253C12.6294 14.4208 14.833 17.2846 17.0384 20.1508C14.804 22.4964 12.5951 24.8167 10.34 27.1842C10.8093 27.1842 11.1935 27.1756 11.5764 27.1877C11.7688 27.194 11.9049 27.1399 12.0375 26.9996C13.4658 25.4903 14.9005 23.9873 16.3341 22.4832C16.7875 22.0075 17.2426 21.5336 17.7102 21.0447C17.77 21.1148 17.8144 21.1631 17.8546 21.2149C19.3308 23.1309 20.807 25.0462 22.2796 26.9651C22.3927 27.1123 22.5063 27.1906 22.7135 27.1894C24.2518 27.1785 25.7901 27.1837 27.3285 27.1825C27.3989 27.1825 27.4693 27.1681 27.5729 27.1566C25.2237 24.1035 22.8999 21.0838 20.5625 18.0468V18.0473ZM23.1521 26.0862C23.0532 26.0839 22.9313 25.9809 22.8638 25.8929C20.0665 22.2687 17.2746 18.6409 14.482 15.0138C13.9156 14.2776 13.3497 13.5407 12.7839 12.8039C12.7383 12.7447 12.6987 12.6814 12.627 12.5773C13.4036 12.5773 14.1375 12.571 14.8715 12.5859C14.9526 12.5876 15.0479 12.6958 15.1088 12.7746C17.2403 15.5424 19.3681 18.3131 21.4977 21.082C22.7129 22.6621 23.9304 24.241 25.1462 25.8205C25.203 25.8947 25.2563 25.9717 25.3456 26.0954C24.5708 26.0954 23.8612 26.1029 23.1521 26.0868V26.0862Z" fill="#202020"/>
</svg>
