<svg width="38" height="38" viewBox="0 0 38 38" fill="none" xmlns="http://www.w3.org/2000/svg">
<rect x="0.00012207" width="38" height="38" rx="19" fill="#FF0000"/>
<path d="M29.5701 13.7717C29.322 12.839 28.588 12.1032 27.6542 11.851C25.9658 11.3984 19.1915 11.3984 19.1915 11.3984C19.1915 11.3984 12.4205 11.3984 10.7287 11.851C9.79833 12.0997 9.06438 12.8355 8.81284 13.7717C8.36145 15.4644 8.36145 18.9984 8.36145 18.9984C8.36145 18.9984 8.36145 22.5324 8.81284 24.2252C9.06094 25.1579 9.79488 25.8937 10.7287 26.1459C12.4205 26.5984 19.1915 26.5984 19.1915 26.5984C19.1915 26.5984 25.9658 26.5984 27.6542 26.1459C28.5846 25.8972 29.3185 25.1613 29.5701 24.2252C30.0215 22.5324 30.0215 18.9984 30.0215 18.9984C30.0215 18.9984 30.0215 15.4644 29.5701 13.7717Z" fill="white"/>
<path d="M17.0275 22.2561L22.6544 18.9984L17.0275 15.7408V22.2561Z" fill="#FF0000"/>
</svg>
